<svg xmlns="http://www.w3.org/2000/svg" width="206.578" height="169.049" viewBox="0 0 206.578 169.049"><defs><style>.a{fill:#ae83d5;}.b{fill:#7b50a2;}.c{fill:#7c4ea0;}.d{fill:#fff;}.e{fill:#ddbaff;}.f{fill:#885eb5;}.g{fill:#633587;}.h{fill:#c89def;}.i{fill:#e80f53;}.j{fill:#956abc;}.k{fill:#2e0456;}</style></defs><g transform="translate(-1234.378 -153.352)"><path class="a" d="M1297.043,272l-17.829,7.948-9.943,21.419a9.23,9.23,0,1,1-14.937-10.847l14.756-20.314a8.422,8.422,0,0,1,1.265-1.387l.7-.6,10.86-9.362C1286.7,254.733,1297.483,271.72,1297.043,272Z" transform="translate(-2.703 -15.58)"/><path class="b" d="M1252.118,295.639s-2.813,4.969-5.245,5.317-8.516-2.95-8.722-.24,16.857,18.12,19.926,15.986c4.783-3.33,8.256-9.15,8.256-9.15" transform="translate(-0.56 -21.14)"/><g transform="translate(1234.378 153.352)"><g transform="translate(92.445 56.754)"><path class="c" d="M1454.779,257.454a11.1,11.1,0,0,0-5.51-3.295,17.892,17.892,0,0,0-5.633-.547,30.732,30.732,0,0,0-10.205,2.463,43.341,43.341,0,0,0-8.743,4.96c-1.212-1.212-2.386-2.448-3.476-3.722-.84-.981-1.64-1.979-2.385-2.988-.382-.513-.723-1-1.068-1.51l-1.149-1.688a51.028,51.028,0,0,0-11.174-11.3,87.964,87.964,0,0,0-24.2-12.262,144.014,144.014,0,0,0-20.063-5.171c-5.642-1.033-10.094-1.589-13.155-1.926l-3.467-.352-1.183-.11-.411,4.027,1.18.131,3.411.4c2.958.375,7.325.994,12.8,2.089a139.643,139.643,0,0,1,19.341,5.325,83.189,83.189,0,0,1,22.65,11.915,45.771,45.771,0,0,1,9.86,10.276l1.041,1.585c.382.588.793,1.193,1.194,1.753q1.221,1.713,2.569,3.335c1.056,1.279,2.181,2.518,3.34,3.736a55.069,55.069,0,0,0-9.612,11.647,65.082,65.082,0,0,0-7.782,18.872,78.8,78.8,0,0,0-1.753,10.013c-.153,1.324-.256,2.651-.341,3.977h7.5c.058-1.071.129-2.141.238-3.207a71.53,71.53,0,0,1,1.46-9.095,57.931,57.931,0,0,1,6.679-16.9,48.037,48.037,0,0,1,8.562-10.587c1.378,1.195,2.8,2.36,4.327,3.453a36.893,36.893,0,0,0,8.216,4.546,19.4,19.4,0,0,0,5.04,1.212,12.341,12.341,0,0,0,5.756-.758,11.488,11.488,0,0,0,4.789-3.636,17.357,17.357,0,0,0,2.616-4.839l.21-.618.1-.31.052-.156.07-.248.149-.55c.049-.172.1-.363.153-.647a13.385,13.385,0,0,0,.316-3.049A9.727,9.727,0,0,0,1454.779,257.454Zm-4.119,7.9a2.962,2.962,0,0,1-.1.465l-.141.553-.26.833c-.835,2.433-2.138,4.27-3.814,4.924-1.665.743-4.1.474-6.467-.386a31.158,31.158,0,0,1-6.939-3.712c-1.072-.74-2.114-1.527-3.128-2.345a36.226,36.226,0,0,1,6.211-3.5,24.311,24.311,0,0,1,7.963-2.078c2.589-.217,5.057.436,6.009,1.555a3.348,3.348,0,0,1,.792,2.2A7.321,7.321,0,0,1,1450.66,265.349Z" transform="translate(-1342.955 -220.01)"/></g><path class="d" d="M1350.127,199.083a1.014,1.014,0,1,1-1.015-1.015A1.013,1.013,0,0,1,1350.127,199.083Z" transform="translate(-1251.274 -159.996)"/><g transform="translate(28.749 25.777)"><path class="a" d="M1275.8,205.675a29.642,29.642,0,0,1-7.485-14.339,6.263,6.263,0,1,1,12.189-2.885c1.23,5.2,3.567,8.676,7.146,10.615,7.686,4.169,18.85.358,18.961.319a6.263,6.263,0,1,1,4.228,11.791c-.666.24-16.483,5.78-29.165-1.1A24.864,24.864,0,0,1,1275.8,205.675Z" transform="translate(-1268.144 -183.628)"/></g><g transform="translate(109.292 34.779)"><path class="e" d="M1375.162,217.983l-2.362-5.514c5.676-1.681,14.354-2.393,11.795-9.73s-17.5,6.358-21.854,5.053l2.324-7.76c1.278.384,4.768-1.363,7.077-2.519,4.334-2.169,8.819-4.423,13.088-2.708a9.148,9.148,0,0,1,5.134,5.774,12.252,12.252,0,0,1-.276,10.026C1387.359,216.016,1380.708,217.618,1375.162,217.983Z" transform="translate(-1362.742 -194.2)"/></g><g transform="translate(86.633 43.663)"><rect class="f" width="52.085" height="19.559" rx="7.927" transform="translate(0 49.417) rotate(-71.584)"/><path class="f" d="M1358.524,252.567a7.8,7.8,0,0,1,5.072,9.814,7.487,7.487,0,0,1-9.708,4.7l-9.252-3.206" transform="translate(-1337.392 -211.755)"/><path class="f" d="M1367.664,225.126a8.349,8.349,0,0,0,10.368-4.961c1.367-4.1-.427-8.358-4.529-9.724l-10.444-3.477" transform="translate(-1340.129 -204.98)"/></g><path class="g" d="M1310.718,174.338c.7-2.108,2.544-3.395,4.114-2.872s2.275,2.657,1.573,4.766-2.546,3.394-4.115,2.872S1310.015,176.448,1310.718,174.338Z" transform="translate(-1245.68 -156.026)"/><path class="b" d="M1311.478,174.31c1.093-3.283,3.962-5.283,6.405-4.469s3.54,4.134,2.447,7.416-3.959,5.283-6.4,4.469S1310.386,177.592,1311.478,174.31Z" transform="translate(-1245.77 -155.775)"/><path class="a" d="M1292.809,244.028s10.077,16.517,17.736,19.067,25.627-4.379,25.627-4.379l14.658-48.22-42.18-14.043Z" transform="translate(-1243.059 -159.756)"/><path class="e" d="M1304.586,236.465l-1.678,5.039s-7.436.559-8.013-.685.872-6.53,2.2-6.846S1304.586,236.465,1304.586,236.465Z" transform="translate(-1243.35 -165.327)"/><path class="e" d="M1332.539,245.8s16.336,10.533,22.817,10.4c3.955-.084,4.409,7.765-2.831,6.288-13.741-2.8-22.73-12.582-22.73-12.582Z" transform="translate(-1248.554 -167.088)"/><g transform="translate(64.296 41.962)"><path class="e" d="M1315.636,227.231c.279-4.724-.211-17.932-5.743-22.266l5.771-2.329c5.3,4.15,5.684,10.839,4.47,17.81,8.854-8.46,17.182-9.746,17.946-9.739l6.822,5.938.022-2.307-.021,2.309c-.192,0-19.43-.026-24.869,11.692Z" transform="translate(-1309.893 -202.636)"/></g><path class="h" d="M1314.055,170.915c4.564-13.706,19.551-20.74,33.256-16.176s20.591,19.848,16.251,32.881-14.3,23.584-14.3,23.584l-37.8-12.586S1309.492,184.618,1314.055,170.915Z" transform="translate(-1245.767 -153.352)"/><path class="h" d="M1305.5,203.152l19.464,4.69,27.091,10.811,4.15-15.061s-12.953,2.286-29.059-3.076c-11.963-3.983-15.387-12.65-15.387-12.65Z" transform="translate(-1244.945 -158.48)"/><path class="b" d="M1313.2,176.545l49.706,16.55.853-2.562-49.727-16.557Z" transform="translate(-1246.089 -156.416)"/><g transform="translate(70.781 9.995)"><path class="g" d="M1318.644,171.472c-3.71,11.144,2.059,20.2,11.811,23.447s19.8-.542,23.513-11.687-6.116-10.211-15.869-13.458S1322.355,160.325,1318.644,171.472Z" transform="translate(-1317.51 -165.092)"/><path class="b" d="M1325.813,172.4c1.48-4.444,2.891-4.895,5.27-5.482-5.755-2.437-9.692-3.7-12.438,4.548-3.71,11.144,2.059,20.2,11.811,23.447a19.659,19.659,0,0,0,7.306,1.07C1328.306,192.537,1322.159,183.38,1325.813,172.4Z" transform="translate(-1317.51 -165.091)"/></g><path class="a" d="M1337.619,278.273l-4.942,17.045,13.738,17.7a9.448,9.448,0,1,1-17.334,7.522s-8.507-19.556-9.693-24.811-1.122-17.9-1.122-17.9c-.65-6.068,4.914-5.55,10.983-6.2S1337.622,277.853,1337.619,278.273Z" transform="translate(-1246.834 -170.918)"/><path class="g" d="M1328.756,206.037a1.859,1.859,0,1,0,2.351-1.178A1.859,1.859,0,0,0,1328.756,206.037Z" transform="translate(-1248.386 -160.99)"/><path class="g" d="M1337.491,208.945a1.859,1.859,0,1,0,2.353-1.176A1.86,1.86,0,0,0,1337.491,208.945Z" transform="translate(-1249.684 -161.423)"/><path class="g" d="M1320.018,203.128a1.86,1.86,0,1,0,2.352-1.178A1.86,1.86,0,0,0,1320.018,203.128Z" transform="translate(-1247.088 -160.558)"/><path class="b" d="M1304.167,241.5l10.127,7.89,13.638.022,8.679-26.064-23.765-7.912Z" transform="translate(-1244.747 -162.576)"/><path class="h" d="M1298.594,239.643l11.326,8.444,14.227.064,8.678-26.062-25.552-8.509Z" transform="translate(-1243.919 -162.3)"/><rect class="e" width="2.699" height="26.998" transform="translate(58.955 64.333) rotate(-71.586)"/><path class="i" d="M1311.151,237.912a3.588,3.588,0,1,0,4.538-2.272A3.586,3.586,0,0,0,1311.151,237.912Z" transform="translate(-1245.757 -165.551)"/><path class="j" d="M1318.379,299.125a6.479,6.479,0,0,0,6.954,6.406c3.679-.083,10.493-3.853,10.4-7.888s-7.271-4.91-10.953-4.83S1318.288,295.088,1318.379,299.125Z" transform="translate(-1246.858 -174.072)"/><path class="j" d="M1267.788,270.883c-2.422,3.115.1,7.109,3.315,8.723,3.873,1.945,9.063,6.238,11.9,3.5,2.752-2.661-.61-10.311-4.764-13.714C1275.455,267.107,1271.051,266.682,1267.788,270.883Z" transform="translate(-1239.198 -170.34)"/><path class="b" d="M1370.235,193.873c-1.093,3.283-3.96,5.283-6.4,4.469s-3.54-4.134-2.448-7.415,3.96-5.283,6.4-4.47S1371.328,190.59,1370.235,193.873Z" transform="translate(-1253.185 -158.244)"/><path class="g" d="M1371.6,194.61c-.7,2.109-2.543,3.395-4.116,2.871s-2.275-2.656-1.573-4.765,2.545-3.395,4.115-2.871S1372.305,192.5,1371.6,194.61Z" transform="translate(-1253.88 -158.757)"/><path class="b" d="M1287.071,257.151c7.09,1.232,10.279,5.995,14.819,13.319a11.146,11.146,0,0,0,2.607-.2,11.9,11.9,0,0,0,2.174-1.115c-.8-10.98-7.1-19.123-13.148-22.354,0,0-3.546,2.74-4.64,4.721A24.787,24.787,0,0,0,1287.071,257.151Z" transform="translate(-1242.207 -167.237)"/><path class="b" d="M1337.176,276.961c-8.634-2.874-14.7-3.017-19.233.186-2.067-.688-2.537-3.988-2.537-3.988,4.814-8.221,19.294-12.978,25.963-10.046a23.1,23.1,0,0,1,.2,6.966C1341.034,273.281,1337.176,276.961,1337.176,276.961Z" transform="translate(-1246.417 -169.531)"/><g transform="translate(94.43 58.384)"><g transform="translate(2.448 2.702)"><path class="a" d="M1370.751,276.506a6.262,6.262,0,0,1-5.511-6.813c1.65-17.442-14.986-33.647-15.152-33.809a6.262,6.262,0,0,1,8.651-9.057c.868.826,21.2,20.5,18.972,44.048a6.265,6.265,0,0,1-6.826,5.645C1370.839,276.517,1370.8,276.511,1370.751,276.506Z" transform="translate(-1348.161 -225.098)"/></g><path class="g" d="M1347.151,224.542c-3.488,3.73-1.711,10.219,2.247,11.881.556.233.987.656,1.516.886a6.977,6.977,0,0,1,8.93-9.635c-.45-.864-1.406-3.168-2.226-3.8C1354.581,221.518,1350.639,220.81,1347.151,224.542Z" transform="translate(-1345.286 -221.925)"/><path class="b" d="M1351.161,229.521a6.611,6.611,0,0,0,.89,9.284,8.739,8.739,0,0,0,1.595,1.04,7.056,7.056,0,0,1,.741-7.331,6.582,6.582,0,0,1,7.8-2.026,6.5,6.5,0,0,0-1.8-2.159A6.571,6.571,0,0,0,1351.161,229.521Z" transform="translate(-1345.938 -222.672)"/></g><path class="f" d="M1253.131,296.332c5.562,4.431,8.92,5.585,13.459,12.908l5.961-4.421c-2.334-8.4-8.491-13.818-14.54-17.046Z" transform="translate(-1237.164 -173.324)"/><path class="a" d="M1246.874,301.568c-2.05-1.665-8.516-2.95-8.722-.24-.086,1.106,2.707,4.329,6.253,7.61" transform="translate(-1234.938 -175.105)"/><g transform="translate(0 124.453)"><path class="k" d="M1256.577,320.97a2.708,2.708,0,0,1-.853-.139c-4.4-1.466-18.1-12.362-20.972-17.239a2.7,2.7,0,0,1,4.653-2.739c2.315,3.933,15.077,13.872,18.025,14.854a2.7,2.7,0,0,1-.852,5.263Z" transform="translate(-1234.378 -299.522)"/></g><path class="b" d="M1330.743,328.235s3.81,4.432,3.3,6.9-5.795,7.176-3.257,8.317,23.3-9.95,22.3-13.643c-1.546-5.763-5.946-11.128-5.946-11.128" transform="translate(-1248.6 -177.915)"/><path class="f" d="M1331.558,329.568c6.193-3.819,8.863-5.945,17.489-7.775l-2.811-6.891c-10.853-3.035-16.041.974-21.249,5.676Z" transform="translate(-1247.84 -177.198)"/><path class="a" d="M1333.9,338.545c-2.207,1.454-5.541,7.064-3.019,8.079,1.029.415,5.071-1.756,9.27-4.144" transform="translate(-1248.581 -180.867)"/><g transform="translate(80.203 150.436)"><path class="k" d="M1331.273,348.652a2.7,2.7,0,0,1-.5-5.354c4.6-.868,18.627-9.726,20.6-12.23a2.7,2.7,0,0,1,4.242,3.341c-2.932,3.724-18.155,13.122-23.839,14.195A2.745,2.745,0,0,1,1331.273,348.652Z" transform="translate(-1328.577 -330.04)"/></g><path class="g" d="M1264.682,308.552a3.9,3.9,0,1,1-2.469-4.932A3.9,3.9,0,0,1,1264.682,308.552Z" transform="translate(-1237.75 -175.648)"/><path class="g" d="M1346.216,326.724a3.9,3.9,0,1,1-2.467-4.936A3.9,3.9,0,0,1,1346.216,326.724Z" transform="translate(-1249.865 -178.348)"/><path class="b" d="M1272.911,170.978s.07.117.19.32.293.48.5.9c.208.4.45.872.71,1.375.234.5.448,1.046.679,1.588a14.568,14.568,0,0,1,.62,1.607c.16.53.309,1.025.437,1.45l.42,1.413a2.283,2.283,0,0,1-4.357,1.362l-.09-.278-.385-1.178c-.113-.352-.246-.765-.387-1.206a11.372,11.372,0,0,0-.556-1.351c-.2-.453-.4-.92-.6-1.333-.215-.4-.415-.768-.587-1.085-.153-.308-.347-.606-.471-.807s-.2-.318-.2-.318a2.377,2.377,0,1,1,4.04-2.507C1272.891,170.942,1272.906,170.967,1272.911,170.978Z" transform="translate(-1239.445 -155.797)"/><path class="b" d="M1268.293,173.794l4.426,7.136.007.011a2.161,2.161,0,0,1-3.588,2.405l-4.919-6.8-.009-.012a2.46,2.46,0,1,1,3.987-2.883C1268.229,173.693,1268.263,173.747,1268.293,173.794Z" transform="translate(-1238.741 -156.216)"/><path class="b" d="M1265.115,178.464s.052.1.14.268.212.391.356.64c.267.5.7,1.187,1.153,1.873.422.708.949,1.321,1.31,1.815l.615.815.127.167a2.155,2.155,0,0,1-3.285,2.78l-.8-.851c-.474-.519-1.157-1.18-1.722-1.923-.593-.716-1.179-1.461-1.6-2.077-.214-.3-.392-.55-.49-.7s-.167-.251-.167-.251a2.533,2.533,0,1,1,4.217-2.806c.05.074.094.15.135.226Z" transform="translate(-1238.233 -156.877)"/><g transform="translate(20.647 24.344)"><path class="b" d="M1264.509,189.427c-.518-.013-.582.52-.978.137-2.545-2.473-3.988-3.888-4-3.894a2.019,2.019,0,0,1-.542-2.832,2.123,2.123,0,0,1,2.886-.554,33.284,33.284,0,0,1,4.169,3.658,2,2,0,0,1,.006,2.889A2.116,2.116,0,0,1,1264.509,189.427Z" transform="translate(-1258.628 -181.944)"/></g><g transform="translate(107.903 98.056)"><g transform="translate(3.235 7.704)"><path class="b" d="M1367.05,292.622a2.161,2.161,0,0,1-1.856-1.643c-1.161-4.839,1.591-11.383,1.91-12.113a2.16,2.16,0,0,1,3.962,1.722c-.7,1.621-2.37,6.468-1.671,9.385a2.161,2.161,0,0,1-2.345,2.65Z" transform="translate(-1364.91 -277.567)"/></g><g transform="translate(7.439 9.108)"><path class="b" d="M1372.054,294.288a2.162,2.162,0,0,1-1.846-1.6c-.991-3.774.356-10.921.513-11.725a2.16,2.16,0,0,1,4.239.828c-.519,2.661-1.132,7.673-.574,9.8a2.16,2.16,0,0,1-2.332,2.695Z" transform="translate(-1369.847 -279.216)"/></g><g transform="translate(11.185 8.02)"><path class="b" d="M1379.994,292.59a2.163,2.163,0,0,1-1.028-.4c-3.429-2.5-4.52-10.3-4.7-11.834a2.16,2.16,0,0,1,4.289-.514c.428,3.546,1.722,7.952,2.964,8.859a2.161,2.161,0,0,1-1.521,3.891Z" transform="translate(-1374.247 -277.938)"/></g><g transform="translate(13.896 6.844)"><path class="b" d="M1385.278,286.99a2.272,2.272,0,0,1-.436-.1c-4.342-1.435-6.923-6.66-7.2-7.252a2.16,2.16,0,0,1,3.9-1.851c.548,1.146,2.453,4.273,4.655,5a2.161,2.161,0,0,1-.92,4.2Z" transform="translate(-1377.431 -276.557)"/></g><g transform="translate(0 5.56)"><path class="b" d="M1363.026,281.851a2.16,2.16,0,0,1-1.1-3.834c4.452-3.554,7.341-2.994,7.874-2.844l-1.159,4.162a.576.576,0,0,0,.156.035c-.015,0-1.469-.138-4.176,2.024A2.156,2.156,0,0,1,1363.026,281.851Z" transform="translate(-1361.11 -275.049)"/></g><g transform="translate(4.703)"><path class="b" d="M1381.9,276.7c-.947,3.892-5.046,4.589-9.535,3.094a7.338,7.338,0,0,1-5.3-6.945c-.085-1.025-.966-3.66.072-4.1,1.471-.62,13.591.132,14.625.936C1383.557,271.083,1382.19,275.49,1381.9,276.7Z" transform="translate(-1366.634 -268.519)"/></g></g><path class="b" d="M1264.62,189.046c-3.766-4.6,7.68-17.069,9.761-12.821a19.925,19.925,0,0,0,5.055,6.777c1.041,1.1,2.7,4.144,2.1,5.094-.85,1.351-11.049,9.592-12.357,9.521C1266.9,197.506,1266.382,191.2,1264.62,189.046Z" transform="translate(-1238.759 -156.621)"/><path class="b" d="M1283.922,177.948s-.078.077-.214.208c-.141.146-.354.372-.59.65a8.979,8.979,0,0,0-1.368,2.1,3.346,3.346,0,0,0-.2.532c-.068.175-.061.314-.109.464-.017,1.157.73,1.567.974,2.355s-.7,2.115-1.9,2.514a2.3,2.3,0,0,1-2.7-.994l-.334-.555a5.994,5.994,0,0,1-.654-1.6,10.564,10.564,0,0,1-.161-1.14,10.409,10.409,0,0,1,.054-1.217,9.769,9.769,0,0,1,.263-1.183,8.586,8.586,0,0,1,.406-1.092,13.574,13.574,0,0,1,2.1-3.267c.329-.39.619-.7.834-.915l.358-.35a2.383,2.383,0,0,1,3.335,3.4Z" transform="translate(-1240.66 -156.387)"/><path class="e" d="M1375.053,219.719a3.534,3.534,0,1,1-3.112-3.91A3.533,3.533,0,0,1,1375.053,219.719Z" transform="translate(-1254.232 -162.628)"/></g></g></svg>