<svg xmlns="http://www.w3.org/2000/svg" width="144.339" height="242.234" viewBox="0 0 144.339 242.234"><defs><style>.a{fill:#8c6fae;}.b{fill:#79559b;}.c{fill:#684c95;}.d{fill:#482776;}.e{fill:#5d408c;}.f{fill:#db0043;}.g{fill:#624d97;}.h{fill:#fff;}.i{fill:#c0aad3;}.j{fill:#a68bc0;}.k{fill:#603e8b;}.l{fill:#1d1942;}</style></defs><g transform="matrix(0.996, 0.087, -0.087, 0.996, 201.859, 247.102)"><g transform="translate(-204.39 -232.83)"><g transform="translate(14.879 117.189)"><path class="a" d="M-174.462-113.488a29.914,29.914,0,0,1-15.576-4.771,6.307,6.307,0,0,1-2.113-8.667,6.313,6.313,0,0,1,8.667-2.118c4.6,2.8,8.742,3.582,12.662,2.387,8.428-2.563,13.593-13.265,13.644-13.372a6.308,6.308,0,0,1,8.376-3.07,6.309,6.309,0,0,1,3.068,8.378c-.3.647-7.51,15.905-21.416,20.133A24.975,24.975,0,0,1-174.462-113.488Z" transform="translate(193.071 143.684)"/></g><g transform="translate(97.027 91.823)"><path class="b" d="M-115.224-137.614l-4.008-4.519c4.886-3.407,14.367-8.072,9.587-14.267s-16.115,12.862-20.69,13l-.246-8.154c1.341-.043,4.12-2.822,5.956-4.656,3.453-3.455,7.022-7.034,11.647-6.753a9.218,9.218,0,0,1,6.744,3.877,12.342,12.342,0,0,1,2.925,9.671C-104.2-143.373-110.039-139.726-115.224-137.614Z" transform="translate(130.581 162.98)"/></g><g transform="translate(89.843 108.708)"><g transform="translate(0 0.171)"><path class="c" d="M-116.348-108.586c0,6.072-4.433,11.039-9.849,11.039s-9.849-4.966-9.849-11.039v-30.383c0-6.071,4.431-11.037,9.849-11.037s9.849,4.966,9.849,11.037Z" transform="translate(136.046 150.006)"/></g><g transform="translate(10.899 37.68)"><path class="c" d="M-121.2-121.473a7.858,7.858,0,0,1,7.966,7.768,7.54,7.54,0,0,1-7.781,7.58h-6.745" transform="translate(127.755 121.473)"/></g><g transform="translate(6.82)"><path class="c" d="M-120.678-134.236a8.413,8.413,0,0,0,8.328-8.044c0-4.355-3.07-7.856-7.425-7.856h-11.083" transform="translate(130.858 150.136)"/></g></g><g transform="translate(45.419 92.704)"><path class="d" d="M-169.839-158.255c0-2.24,1.347-4.055,3.021-4.055s3.014,1.815,3.014,4.055-1.35,4.055-3.014,4.055S-169.839-156.012-169.839-158.255Z" transform="translate(169.839 162.31)"/></g><g transform="translate(46.131 90.448)"><path class="e" d="M-169.3-157.715c0-3.49,2.1-6.311,4.7-6.311s4.7,2.821,4.7,6.311-2.1,6.306-4.7,6.306S-169.3-154.231-169.3-157.715Z" transform="translate(169.298 164.026)"/></g><g transform="translate(28.723 4.53)"><path class="f" d="M-145.552-219.489l-30.932-9.833a1.374,1.374,0,0,0-1.133.145,1.353,1.353,0,0,0-.619.957l-4.291,29.393a1.367,1.367,0,0,0,.326,1.1,1.347,1.347,0,0,0,1.02.472h.02l32.4-.53a1.376,1.376,0,0,0,1.326-1.175l2.813-19.029A1.363,1.363,0,0,0-145.552-219.489Z" transform="translate(182.54 229.384)"/></g><g transform="translate(53.728 19.231)"><path class="f" d="M-129.078-203.935l-29.679-14.133a1.344,1.344,0,0,0-1.224.03,1.353,1.353,0,0,0-.706,1l-2.817,19.032a1.357,1.357,0,0,0,.389,1.161,1.368,1.368,0,0,0,.96.4c.067,0,.131-.009.2-.016l32.5-4.9a1.365,1.365,0,0,0,1.142-1.144A1.36,1.36,0,0,0-129.078-203.935Z" transform="translate(163.519 218.201)"/></g><g transform="translate(0 4.089)"><path class="g" d="M-168.745-229.107-198.312-21.084l-6.077-.893,32.947-207.742" transform="translate(204.39 229.719)"/></g><g transform="translate(40.583 14.414)"><path class="h" d="M-159.712-205.279l-2.88-5.629a6.051,6.051,0,0,0,2.248-1.475,5.345,5.345,0,0,0,1.317-3.042,4.458,4.458,0,0,0-.233-2.374,4.537,4.537,0,0,0-1.261-1.688,5.4,5.4,0,0,0-1.833-1,14.85,14.85,0,0,0-2.353-.488l-2.713-.371-2.421-.334-1.328-.177-.029,0a.281.281,0,0,0-.319.241l-1.412,10.364-.586,4.31a.28.28,0,0,0,.242.317l.954.126,2.825.39.263.033a.279.279,0,0,0,.317-.237l.573-4.222,1.024.138v.007l1.363.177c.135.017.149.1.025.166l-.969.548,1.813,3.9a.284.284,0,0,0,.209.142l4.919.666h.013a.284.284,0,0,0,.322-.234A.279.279,0,0,0-159.712-205.279Zm-4.385-9.314a1.557,1.557,0,0,1-.582.549,1.8,1.8,0,0,1-.92.256,7.866,7.866,0,0,1-1.4-.091l-.87-.118.394-2.889-.869-.868c-.085-.08-.057-.138.064-.124l1.993.268a10.869,10.869,0,0,1,1.12.193,2.4,2.4,0,0,1,.731.287,1.245,1.245,0,0,1,.564.636,1.929,1.929,0,0,1,.075.933A2.571,2.571,0,0,1-164.1-214.593Z" transform="translate(173.518 221.865)"/></g><g transform="translate(51.795 114.151)"><path class="a" d="M-164.989-95.492s14.889,12.581,23.018,12.581,23.093-12.339,23.093-12.339l-1.334-50.745h-44.777Z" transform="translate(164.989 145.995)"/></g><g transform="translate(49.881 148.129)"><path class="i" d="M-157.731-119.826v5.35s-6.928,2.891-7.876,1.893-1.246-6.522-.076-7.243S-157.731-119.826-157.731-119.826Z" transform="translate(166.445 120.148)"/></g><g transform="translate(81.424 148.451)"><path class="i" d="M-141.13-119.9s18.961,4.868,25.106,2.673c3.756-1.337,6.683,6.018-.7,6.911-14.024,1.694-25.722-4.792-25.722-4.792Z" transform="translate(142.45 119.903)"/></g><g transform="translate(52.972 117.761)"><path class="i" d="M-151.52-119.739c-1.236-4.6-5.905-17.071-12.574-19.449l4.777-4.061c6.385,2.281,8.879,8.55,9.938,15.594,5.768-10.9,13.315-14.78,14.048-15.016l8.412,3.506-.718-2.212.718,2.212c-.185.058-18.578,6.159-20.043,19.086Z" transform="translate(164.094 143.249)"/></g><g transform="translate(48.289 68.971)"><path class="j" d="M-167.656-154.329c0-14.546,12.08-26.035,26.628-26.035s25.993,12.412,25.993,26.252-6.163,27.087-6.163,27.087h-40.13S-167.656-139.778-167.656-154.329Z" transform="translate(167.656 180.364)"/></g><g transform="translate(49.954 110.102)"><path class="j" d="M-166.374-142.413a5.525,5.525,0,0,0,6.155,6.046l6.89-.586a111.874,111.874,0,0,1,13.212-.176l16.106.939a5.81,5.81,0,0,0,6.265-6.228l-.13-2.486c-.191-3.637-2.967-5.2-6.171-3.461,0,0-5.826,3.155-22.926,3.155-12.7,0-14.471-2.116-14.471-2.116-2.341-2.79-4.458-2.1-4.7,1.535Z" transform="translate(166.389 149.075)"/></g><g transform="translate(47.955 95.116)"><path class="e" d="M-167.886-157.756h52.763v-2.719H-167.91Z" transform="translate(167.91 160.475)"/></g><g transform="translate(51.374 84.245)"><g transform="translate(0 0.002)"><path class="d" d="M-165.309-160.272c0,11.832,8.394,18.65,18.75,18.65s18.745-6.817,18.745-18.65-9.094-7.813-19.445-7.813S-165.309-172.107-165.309-160.272Z" transform="translate(165.309 168.743)"/></g><g transform="translate(30.233 2.463)"><path class="j" d="M-138.35-161.751a.587.587,0,0,1-.108-.009.671.671,0,0,1-.559-.78,3.126,3.126,0,0,0-.523-2.216,2.635,2.635,0,0,0-2.094-.757.675.675,0,0,1-.677-.677.675.675,0,0,1,.677-.681,3.885,3.885,0,0,1,3.133,1.244,4.474,4.474,0,0,1,.824,3.31A.683.683,0,0,1-138.35-161.751Z" transform="translate(142.311 166.871)"/></g><g transform="translate(27.939 2.605)"><path class="j" d="M-144.056-166.064a.7.7,0,0,0,.7.7.709.709,0,0,0,.7-.7.7.7,0,0,0-.7-.7A.7.7,0,0,0-144.056-166.064Z" transform="translate(144.056 166.763)"/></g><path class="e" d="M-158.164-161.659c0-4.715,1.205-5.6,3.294-6.919-6.278-.493-10.439-.448-10.439,8.307,0,11.833,8.394,18.65,18.75,18.65a19.8,19.8,0,0,0,7.318-1.3C-149.374-143.213-158.164-150.006-158.164-161.659Z" transform="translate(165.309 168.745)"/></g><g transform="translate(79.072 169.327)"><path class="a" d="M-124.957-99.694l.7,17.861L-105.5-69.3a9.518,9.518,0,0,1-.736,13.443,9.51,9.51,0,0,1-13.434-.737s-14.353-15.98-17.159-20.624-6.767-16.748-6.767-16.748c-2.553-5.6,2.928-6.866,8.522-9.416S-125.088-100.1-124.957-99.694Z" transform="translate(144.239 104.023)"/></g><g transform="translate(32.18 170.271)"><path class="a" d="M-144.56-94.2l-14.5,13.265-2.684,23.632a9.3,9.3,0,0,1-11.669,6.058,9.3,9.3,0,0,1-6.059-11.668l7.638-24.108a8.4,8.4,0,0,1,.766-1.729l.478-.791,7.4-12.4C-159.931-107.418-144.227-94.621-144.56-94.2Z" transform="translate(179.91 103.305)"/></g><g transform="translate(68.574 115.553)"><path class="d" d="M-152.225-143.056a1.876,1.876,0,0,0,1.873,1.876,1.874,1.874,0,0,0,1.872-1.876,1.872,1.872,0,0,0-1.872-1.873A1.875,1.875,0,0,0-152.225-143.056Z" transform="translate(152.225 144.929)"/></g><g transform="translate(76.47 115.553)"><path class="d" d="M-146.219-143.056a1.877,1.877,0,0,0,1.876,1.876,1.875,1.875,0,0,0,1.869-1.876,1.873,1.873,0,0,0-1.869-1.873A1.876,1.876,0,0,0-146.219-143.056Z" transform="translate(146.219 144.929)"/></g><g transform="translate(60.682 115.553)"><path class="d" d="M-158.229-143.056a1.875,1.875,0,0,0,1.869,1.876,1.876,1.876,0,0,0,1.873-1.876,1.875,1.875,0,0,0-1.873-1.873A1.873,1.873,0,0,0-158.229-143.056Z" transform="translate(158.229 144.929)"/></g><g transform="translate(59.338 128.797)"><path class="e" d="M-159.251-121.019c0,7.609,2.742,14.806,6.094,15.994a22.774,22.774,0,0,0,12.612,0c3.585-1.188,6.519-8.386,6.519-15.994s-5.676-13.835-12.613-13.835S-159.251-128.628-159.251-121.019Z" transform="translate(159.251 134.854)"/></g><g transform="translate(54.298 128.797)"><path class="j" d="M-163.085-121.019c0,7.609,3.039,14.84,6.753,16.068a25.407,25.407,0,0,0,13.564,0c3.745-1.228,6.81-8.459,6.81-16.068a13.742,13.742,0,0,0-13.564-13.835A13.741,13.741,0,0,0-163.085-121.019Z" transform="translate(163.085 134.854)"/></g><g transform="translate(54.513 139.984)"><rect class="i" width="27.195" height="2.717"/></g><g transform="translate(62.956 144.682)"><path class="f" d="M-156.5-119.156a3.612,3.612,0,0,0,3.611,3.612,3.615,3.615,0,0,0,3.618-3.612,3.616,3.616,0,0,0-3.618-3.614A3.613,3.613,0,0,0-156.5-119.156Z" transform="translate(156.499 122.77)"/></g><g transform="translate(85.139 187.289)"><path class="k" d="M-139.186-80.949a6.521,6.521,0,0,0,8.683,3.907c3.489-1.246,8.8-7.019,7.43-10.847s-8.512-2.377-12-1.129S-140.56-84.78-139.186-80.949Z" transform="translate(139.624 90.359)"/></g><g transform="translate(36.473 181.67)"><path class="k" d="M-176.372-89.369c-1.317,3.745,2.365,6.767,5.948,7.285,4.321.626,10.644,3.077,12.487-.444,1.777-3.419-3.869-9.665-8.919-11.592C-170.242-95.414-174.581-94.418-176.372-89.369Z" transform="translate(176.645 94.634)"/></g><g transform="translate(91.234 90.448)"><path class="e" d="M-125.59-157.715c0,3.484-2.1,6.306-4.7,6.306s-4.7-2.822-4.7-6.306,2.1-6.311,4.7-6.311S-125.59-161.2-125.59-157.715Z" transform="translate(134.988 164.026)"/></g><g transform="translate(95.309 92.704)"><path class="d" d="M-125.854-158.255c0,2.24-1.347,4.055-3.016,4.055s-3.018-1.815-3.018-4.055,1.349-4.055,3.018-4.055S-125.854-160.5-125.854-158.255Z" transform="translate(131.888 162.31)"/></g><g transform="translate(48.693 159.657)"><path class="e" d="M-167.116-99.433c7.164-1.081,11.729,2.458,18.395,8.012a11.367,11.367,0,0,0,2.429-1.015,12.194,12.194,0,0,0,1.722-1.759c-4.262-10.235-12.868-16.019-19.677-17.184,0,0-2.515,3.751-2.933,5.988A24.967,24.967,0,0,0-167.116-99.433Z" transform="translate(167.349 111.379)"/></g><g transform="translate(76.341 159.132)"><path class="e" d="M-124.3-97.172c-9.167,0-15.007,1.792-18.321,6.293-2.193,0-3.693-3-3.693-3,1.985-9.39,14.309-18.542,21.616-17.865a23.3,23.3,0,0,1,2.4,6.593C-121.79-101.915-124.3-97.172-124.3-97.172Z" transform="translate(146.317 111.778)"/></g><g transform="translate(88.249 123.044)"><g transform="translate(2.874 2.145)"><path class="a" d="M-98.8-93.344a6.307,6.307,0,0,1-7.434-4.761c-3.973-17.191-25.026-27.383-25.236-27.484a6.309,6.309,0,0,1-3-8.4A6.3,6.3,0,0,1-126.081-137c1.09.509,26.782,12.847,32.144,36.056a6.309,6.309,0,0,1-4.729,7.567C-98.707-93.361-98.75-93.354-98.8-93.344Z" transform="translate(135.073 137.599)"/></g><path class="d" d="M-136.639-134.66c-2.143,4.669,1.618,10.3,5.933,10.632.6.046,1.148.316,1.729.364a7.02,7.02,0,0,1-1.739-7.371,7.011,7.011,0,0,1,7.205-4.676c-.7-.684-2.352-2.583-3.338-2.93C-130.5-139.92-134.493-139.342-136.639-134.66Z" transform="translate(137.259 139.23)"/><g transform="translate(4.772 3.09)"><path class="e" d="M-133.22-132.427a6.641,6.641,0,0,0,3.8,8.583,8.642,8.642,0,0,0,1.856.489,7.1,7.1,0,0,1-1.626-7.242,6.623,6.623,0,0,1,6.8-4.417,6.61,6.61,0,0,0-2.406-1.492A6.617,6.617,0,0,0-133.22-132.427Z" transform="translate(133.629 136.88)"/></g></g><g transform="translate(20.624 210.256)"><path class="e" d="M-176.921-72.888s-1.106,5.641-3.322,6.754-9.077-.114-8.413,2.544,21.88,11.951,24.133,8.935c3.507-4.7,4.982-11.371,4.982-11.371" transform="translate(188.701 72.888)"/></g><g transform="translate(31.837 202.684)"><path class="c" d="M-180.171-68.91c6.724,2.462,10.3,2.5,16.97,8.048l4.285-6.117c-4.9-7.279-12.51-10.5-19.309-11.67Z" transform="translate(180.171 78.648)"/></g><g transform="translate(20.622 216.633)"><path class="a" d="M-180.242-67.66c-2.486-.949-9.077-.114-8.413,2.544.275,1.078,3.97,3.275,8.4,5.282" transform="translate(188.703 68.038)"/></g><g transform="translate(18.446 218.571)"><path class="l" d="M-164.587-53.367c-4.073,0-20.688-5.8-25.074-9.631a2.032,2.032,0,0,1-.195-2.868,2.036,2.036,0,0,1,2.87-.2c3.53,3.083,19.2,8.628,22.4,8.628a2.033,2.033,0,0,1,2.034,2.034A2.034,2.034,0,0,1-164.587-53.367Z" transform="translate(190.358 66.563)"/></g><g transform="translate(103.767 203.113)"><path class="e" d="M-125.454-63.972s5.051,3.024,5.349,5.541-3.254,8.7-.464,8.984,19.09-16.92,16.971-20.138c-3.309-5.012-9.224-8.737-9.224-8.737" transform="translate(125.454 78.322)"/></g><g transform="translate(96.784 200.237)"><path class="c" d="M-121.627-61.825c4.7-5.619,6.579-8.5,14.24-12.991l-4.874-5.695c-11.338.552-15.024,6.035-18.5,12.186Z" transform="translate(130.766 80.51)"/></g><g transform="translate(107.279 223.489)"><path class="a" d="M-120.922-62.822c-1.647,2.09-3.049,8.512-.317,8.68,1.116.067,4.293-3.294,7.543-6.912" transform="translate(122.782 62.822)"/></g><g transform="translate(107.56 210.81)"><path class="l" d="M-120.534-48.707a2.031,2.031,0,0,1-1.777-1.045,2.034,2.034,0,0,1,.787-2.766c4.2-2.335,14.991-15.52,16.1-18.6a2.031,2.031,0,0,1,2.6-1.227,2.033,2.033,0,0,1,1.225,2.6c-1.408,3.916-12.745,17.887-17.949,20.781A2.03,2.03,0,0,1-120.534-48.707Z" transform="translate(122.568 72.467)"/></g><g transform="translate(37.602 214.464)"><path class="d" d="M-167.925-65.762a3.926,3.926,0,0,1-3.931,3.927,3.929,3.929,0,0,1-3.931-3.927,3.926,3.926,0,0,1,3.931-3.925A3.923,3.923,0,0,1-167.925-65.762Z" transform="translate(175.786 69.687)"/></g><g transform="translate(108.869 207.155)"><path class="d" d="M-113.718-71.316a3.931,3.931,0,0,1-3.925,3.928,3.929,3.929,0,0,1-3.929-3.928,3.927,3.927,0,0,1,3.929-3.931A3.93,3.93,0,0,1-113.718-71.316Z" transform="translate(121.573 75.247)"/></g><g transform="translate(30.469)"><path class="g" d="M-173.708-229.074a3.752,3.752,0,0,1-3.753,3.751,3.749,3.749,0,0,1-3.751-3.751,3.751,3.751,0,0,1,3.751-3.756A3.754,3.754,0,0,1-173.708-229.074Z" transform="translate(181.212 232.83)"/></g><g transform="translate(119.176 163.678)"><path class="e" d="M-109.224-92.052a2.71,2.71,0,0,1-2.3-1.279c-2.741-4.405-2.181-11.7-2.109-12.516a2.705,2.705,0,0,1,2.941-2.461,2.712,2.712,0,0,1,2.461,2.941c-.208,2.4-.034,7.008,1.311,9.172a2.711,2.711,0,0,1-.869,3.735A2.7,2.7,0,0,1-109.224-92.052Z" transform="translate(113.732 108.32)"/></g><g transform="translate(122.596 164.069)"><path class="e" d="M-105.51-92.146a2.7,2.7,0,0,1-2.273-1.23c-2.215-3.4-3.218-10.76-3.325-11.589A2.708,2.708,0,0,1-108.769-108a2.719,2.719,0,0,1,3.037,2.339c.347,2.659,1.328,7.542,2.491,9.324a2.711,2.711,0,0,1-.791,3.752A2.691,2.691,0,0,1-105.51-92.146Z" transform="translate(111.13 108.022)"/></g><g transform="translate(125.031 162.095)"><path class="e" d="M-99.608-95.434a2.7,2.7,0,0,1-.827-.13c-4.178-1.336-7.627-8.062-8.584-10.092a2.71,2.71,0,0,1,1.294-3.607,2.711,2.711,0,0,1,3.609,1.292c1.463,3.087,4.011,6.82,5.333,7.243a2.711,2.711,0,0,1,1.758,3.407A2.714,2.714,0,0,1-99.608-95.434Z" transform="translate(109.279 109.524)"/></g><g transform="translate(127.247 160.108)"><path class="e" d="M-97.27-101.646c-4.825,0-9.1-4.309-9.568-4.8a2.709,2.709,0,0,1,.08-3.833,2.711,2.711,0,0,1,3.829.075h0c.787.814,3.522,3.137,5.658,3.137h.005a2.712,2.712,0,0,1,2.712,2.708,2.711,2.711,0,0,1-2.709,2.715Z" transform="translate(107.592 111.036)"/></g><g transform="translate(8.321 120.85)"><path class="e" d="M-193.985-140.531c.68.38,1.412.824,2.085,1.267s1.353.922,2.009,1.42a26.784,26.784,0,0,1,3.723,3.4,2.61,2.61,0,0,1-.2,3.685,2.61,2.61,0,0,1-3.643-.156l-.026-.028a21.574,21.574,0,0,0-3.034-2.641c-.559-.4-1.136-.794-1.726-1.162s-1.167-.706-1.818-1.05a2.712,2.712,0,0,1-1.124-3.666,2.712,2.712,0,0,1,3.666-1.124l.039.021Z" transform="translate(198.06 140.899)"/></g><g transform="translate(6.847 125.019)"><path class="e" d="M-194.734-137.1c.425.348.992.765,1.516,1.124s1.085.719,1.639,1.05a20.444,20.444,0,0,0,3.384,1.641l.059.021a2.381,2.381,0,0,1,1.416,3.056,2.389,2.389,0,0,1-2.875,1.475,25.127,25.127,0,0,1-4.395-1.708q-1.035-.511-2.026-1.083c-.673-.393-1.282-.762-1.994-1.255a2.713,2.713,0,0,1-.689-3.775,2.713,2.713,0,0,1,3.775-.689c.059.041.116.084.171.129Z" transform="translate(199.181 137.728)"/></g><g transform="translate(6.174 129.809)"><path class="e" d="M-195.377-133.563c.351.255.852.574,1.3.848s.939.555,1.42.812a30.678,30.678,0,0,0,2.954,1.4l.034.014a2.318,2.318,0,0,1,1.269,3.024,2.317,2.317,0,0,1-2.775,1.353,35.489,35.489,0,0,1-3.6-1.225c-.586-.234-1.166-.486-1.743-.752s-1.119-.528-1.768-.89L-198.3-129a2.716,2.716,0,0,1-1.049-3.7,2.717,2.717,0,0,1,3.7-1.049A2.97,2.97,0,0,1-195.377-133.563Z" transform="translate(199.693 134.084)"/></g><g transform="translate(6.749 134.706)"><path class="e" d="M-191.47-123.208a2.721,2.721,0,0,1-.987-.187,36.281,36.281,0,0,0-4.625-1.593,2.727,2.727,0,0,1-2.124-3.175,2.7,2.7,0,0,1,3.123-2.155,35.544,35.544,0,0,1,5.6,1.872,2.712,2.712,0,0,1,1.538,3.514A2.716,2.716,0,0,1-191.47-123.208Z" transform="translate(199.256 130.359)"/></g><g transform="translate(114.361 161.451)"><path class="e" d="M-114.686-100.354a2.689,2.689,0,0,1-1.471-.435,2.712,2.712,0,0,1-.8-3.749c3.179-4.907,6.192-5.428,7.04-5.47a2.712,2.712,0,0,1,2.843,2.57,2.711,2.711,0,0,1-2.341,2.824c-.2.068-1.4.572-2.989,3.024A2.707,2.707,0,0,1-114.686-100.354Zm5.043-4.24h0Zm0,0h0Z" transform="translate(117.395 110.014)"/></g><g transform="translate(116.561 154.084)"><path class="e" d="M-98.848-108.918c.333,4.021-3.363,5.993-8.128,5.993a7.4,7.4,0,0,1-7.272-4.953c-.406-.952-2.086-3.193-1.237-3.937,1.212-1.062,13.033-4.2,14.275-3.762C-99.047-114.809-98.951-110.164-98.848-108.918Z" transform="translate(115.722 115.618)"/></g><g transform="translate(10.4 129.135)"><path class="e" d="M-193.486-122.695c-5.54-2.265-2.314-5.675,1.06-9.046s6.5-3.089,8.369-2.479c1.451.475,3.246,1.233,3.167,2.361-.106,1.6-5.482,12.571-6.668,13.138C-189.628-117.73-190.893-121.635-193.486-122.695Z" transform="translate(196.479 134.597)"/></g><g transform="translate(14.751 123.14)"><path class="e" d="M-187.7-130.235c-.054,0-.109,0-.163-.005a2.711,2.711,0,0,1-2.546-2.867c.005-.089.009-.174.012-.254a2.76,2.76,0,0,1-2.375-1.3,2.745,2.745,0,0,1,.911-3.753,4.573,4.573,0,0,1,4.658-.189c1.637.975,2.379,2.933,2.208,5.814A2.712,2.712,0,0,1-187.7-130.235Zm-2.776-4.221" transform="translate(193.168 139.157)"/></g></g></g></svg>