<svg xmlns="http://www.w3.org/2000/svg" width="143.687" height="164.977" viewBox="0 0 143.687 164.977"><defs><style>.a,.b,.h,.o{fill:#fff;}.a,.k,.l{fill-rule:evenodd;}.c{fill:#522a75;}.d{fill:#a59ccc;}.e{fill:#c6c3e1;}.f{fill:#e0deef;}.g{fill:#9a94c8;}.h{stroke:#522a75;stroke-linecap:round;stroke-miterlimit:10;stroke-width:1.024px;}.i,.k{fill:#d1cce7;}.j,.l{fill:#e5007e;}.m{fill:#eb81ac;}.n,.o{opacity:0.7;}</style></defs><g transform="translate(0)"><g transform="translate(98.966 58.832)"><g transform="translate(1.741 1.924)"><path class="a" d="M-81.988-114.54l-5.895-26.917s-14.207,2.369-15.458,10.432l8.569,19.207" transform="translate(103.34 141.457)"/></g><path class="b" d="M-81.988-114.54l-5.895-26.917s-14.207,2.369-15.458,10.432l8.569,19.207" transform="translate(105.081 143.381)"/><path class="c" d="M-94.538-109.877a1.684,1.684,0,0,1-1.54-1l-8.771-19.66.076-.491c1.42-9.159,16.217-11.729,16.845-11.834l1.58-.263,6.237,28.48a1.686,1.686,0,0,1-1.285,2.007,1.682,1.682,0,0,1-2.006-1.286l-5.539-25.291c-4.13.982-11.274,3.607-12.412,8.247L-93-112.249a1.686,1.686,0,0,1-.852,2.225A1.684,1.684,0,0,1-94.538-109.877Z" transform="translate(104.849 143.125)"/><g transform="translate(0.056 0.24)"><path class="c" d="M-94.546-109.909a1.684,1.684,0,0,1-1.54-1l-8.569-19.207a1.691,1.691,0,0,1-.126-.945c1.42-9.159,16.217-11.729,16.845-11.834a1.685,1.685,0,0,1,1.923,1.3l5.895,26.916a1.686,1.686,0,0,1-1.285,2.007,1.682,1.682,0,0,1-2.006-1.286l-5.539-25.291c-4.13.982-11.274,3.607-12.412,8.247l8.352,18.719a1.686,1.686,0,0,1-.852,2.225A1.684,1.684,0,0,1-94.546-109.909Z" transform="translate(104.8 142.917)"/></g></g><g transform="translate(16.97 88.694)"><path class="b" d="M-162.651-88.627c-9.368,2.742-12.734-1.383-11.615-7.622s2.473-19,8.451-19.514S-154.5-102.484-153.2-97.99-153.284-91.369-162.651-88.627Z" transform="translate(176.154 117.462)"/><path class="c" d="M-167.7-85.846a8.443,8.443,0,0,1-5.849-1.959c-2.044-1.836-2.809-4.861-2.154-8.517.123-.69.25-1.462.386-2.289,1.18-7.184,2.965-18.044,9.581-18.606,8.54-.76,14.32,18.78,14.377,18.978,1.893,6.5-2.084,8.96-10.6,11.451A20.685,20.685,0,0,1-167.7-85.846Zm2.432-28.021c-.06,0-.121,0-.181.008-4,.34-5.654,10.394-6.542,15.8-.138.843-.268,1.632-.395,2.337-.256,1.427-.455,4.028,1.089,5.414,1.49,1.339,4.472,1.441,8.394.293h0c9.607-2.812,9.118-4.492,8.309-7.276C-156.589-104.159-161.5-113.867-165.268-113.867Z" transform="translate(175.93 117.238)"/></g><g transform="translate(20.326 58.832)"><g transform="translate(1.685 1.924)"><path class="a" d="M-171.56-114.54l5.895-26.917s14.207,2.369,15.458,10.432l-8.568,19.207" transform="translate(171.56 141.457)"/></g><path class="b" d="M-171.56-114.54l5.895-26.917s14.207,2.369,15.458,10.432l-8.568,19.207" transform="translate(173.245 143.381)"/><path class="c" d="M-158.552-109.877a1.68,1.68,0,0,1-.685-.146,1.684,1.684,0,0,1-.852-2.225l8.351-18.719c-1.139-4.64-8.281-7.265-12.412-8.247l-5.538,25.291a1.681,1.681,0,0,1-2.007,1.286,1.686,1.686,0,0,1-1.285-2.007l6.238-28.48,1.579.263c.63.1,15.425,2.675,16.845,11.834l.076.491-8.769,19.66A1.685,1.685,0,0,1-158.552-109.877Z" transform="translate(173.021 143.125)"/><g transform="translate(0 0.24)"><path class="c" d="M-158.552-109.909a1.68,1.68,0,0,1-.685-.146,1.684,1.684,0,0,1-.852-2.225L-151.739-131c-1.139-4.64-8.281-7.265-12.412-8.247l-5.538,25.291a1.681,1.681,0,0,1-2.007,1.286,1.686,1.686,0,0,1-1.285-2.007l5.895-26.916a1.687,1.687,0,0,1,1.923-1.3c.63.1,15.425,2.675,16.845,11.834a1.691,1.691,0,0,1-.126.945l-8.568,19.207A1.685,1.685,0,0,1-158.552-109.909Z" transform="translate(173.021 142.917)"/></g></g><g transform="translate(13.873 106.674)"><g transform="translate(14.343 6.287)"><path class="b" d="M-163.635-93.611s5.738-.811,8.773,8.668" transform="translate(166.571 96.597)"/><path class="c" d="M-163.655-96.124c.287-.04.354-.042.506-.055l.362-.018c.24-.01.448,0,.668.009a8.353,8.353,0,0,1,1.247.158,10.14,10.14,0,0,1,2.3.746,12.139,12.139,0,0,1,3.652,2.669,18.055,18.055,0,0,1,2.5,3.342c.308.579.632,1.164.921,1.753l.772,1.772a3.949,3.949,0,0,1-2.046,5.2,3.949,3.949,0,0,1-5.2-2.045,4,4,0,0,1-.193-.55l-.053-.2-.352-1.342L-159-85.96a11.279,11.279,0,0,0-1.129-2.173,5.818,5.818,0,0,0-1.422-1.518,4.13,4.13,0,0,0-.787-.435,2.605,2.605,0,0,0-.381-.134l-.157-.043c-.016,0-.058-.014-.052-.017s-.057,0,.093-.028a2.936,2.936,0,0,1-3.319-2.5A2.937,2.937,0,0,1-163.655-96.124Z" transform="translate(166.18 96.202)"/></g><g transform="translate(12.701 8.533)"><path class="b" d="M-165.109-91.87s.044,10.52,5.16,15.635" transform="translate(167.987 94.621)"/><path class="c" d="M-161.868-91.515a33.26,33.26,0,0,0,.6,3.74,28.839,28.839,0,0,0,1.043,3.634,19.427,19.427,0,0,0,1.505,3.188,10.471,10.471,0,0,0,1.93,2.3,3.944,3.944,0,0,1,.4,5.56,3.942,3.942,0,0,1-5.56.4,4.149,4.149,0,0,1-.359-.353l-.038-.044a18.224,18.224,0,0,1-2.9-4.54,26.559,26.559,0,0,1-1.505-4.648,35.151,35.151,0,0,1-.7-4.585,37.649,37.649,0,0,1-.135-4.629,2.857,2.857,0,0,1,2.951-2.762,2.859,2.859,0,0,1,2.749,2.576Z" transform="translate(167.604 94.254)"/></g><g transform="translate(5.604 7.421)"><path class="b" d="M-166.826-92.35s-6.358,7.408-2.436,16.189" transform="translate(174.251 95.659)"/><path class="c" d="M-163.814-89.749l-.4.6q-.227.362-.434.751a16.272,16.272,0,0,0-.746,1.586,13.175,13.175,0,0,0-.851,3.284,9.887,9.887,0,0,0,.076,3.2,11.447,11.447,0,0,0,.987,3l.114.262a3.934,3.934,0,0,1-2.04,5.176,3.934,3.934,0,0,1-5.176-2.04c-.027-.059-.055-.132-.077-.191a19.154,19.154,0,0,1-1.306-5.263,17.286,17.286,0,0,1,.277-5.368,20.326,20.326,0,0,1,1.67-4.919,23.18,23.18,0,0,1,1.252-2.222c.228-.358.468-.712.726-1.061.271-.369.49-.658.889-1.121a3.3,3.3,0,0,1,4.658-.35,3.3,3.3,0,0,1,.611,4.311Z" transform="translate(173.757 95.218)"/></g><path class="d" d="M3.708,0H24.029a3.709,3.709,0,0,1,3.709,3.709V6.243a3.709,3.709,0,0,1-3.709,3.709H3.708A3.708,3.708,0,0,1,0,6.243V3.708A3.708,3.708,0,0,1,3.708,0Z" transform="translate(0.915 6.49) rotate(-11.593)"/><path class="c" d="M-172.381-84.5a5.916,5.916,0,0,1-3.27-.987,5.928,5.928,0,0,1-2.559-3.779l-.28-1.367a5.921,5.921,0,0,1,.864-4.483,5.919,5.919,0,0,1,3.779-2.556l18.79-3.855a5.9,5.9,0,0,1,4.482.863,5.932,5.932,0,0,1,2.559,3.779l.279,1.368a5.924,5.924,0,0,1-.863,4.482,5.922,5.922,0,0,1-3.779,2.556l-18.79,3.855A6.006,6.006,0,0,1-172.381-84.5Zm18.529-13.782a2.639,2.639,0,0,0-.527.054l-18.79,3.855a2.577,2.577,0,0,0-1.644,1.112,2.577,2.577,0,0,0-.376,1.948l.281,1.367A2.575,2.575,0,0,0-173.8-88.3a2.579,2.579,0,0,0,1.948.375l18.792-3.855a2.575,2.575,0,0,0,1.643-1.112,2.576,2.576,0,0,0,.376-1.948l-.28-1.368a2.578,2.578,0,0,0-1.113-1.644A2.571,2.571,0,0,0-153.853-98.28Z" transform="translate(178.614 101.652)"/></g><g transform="translate(17.791 86.669)"><path class="e" d="M-160.1-110.3h-10.279a3.86,3.86,0,0,1-3.86-3.86h0a3.86,3.86,0,0,1,3.86-3.86H-160.1a3.86,3.86,0,0,1,3.86,3.86h0A3.86,3.86,0,0,1-160.1-110.3Z" transform="translate(175.368 119.142)"/><path class="c" d="M-159.955-109.027h-10.281a4.989,4.989,0,0,1-4.982-4.983,4.988,4.988,0,0,1,4.982-4.982h10.281a4.988,4.988,0,0,1,4.982,4.982A4.989,4.989,0,0,1-159.955-109.027Zm-10.281-7.72a2.739,2.739,0,0,0-2.736,2.736,2.739,2.739,0,0,0,2.736,2.737h10.281a2.739,2.739,0,0,0,2.736-2.737,2.739,2.739,0,0,0-2.736-2.736Z" transform="translate(175.218 118.993)"/></g><g transform="translate(79.438 113.769)"><path class="c" d="M-109.374-56.076l-9.462-3.56c7.329-19.476-2.521-27.413-2.943-27.741l6.015-8.125C-115.083-95-99.225-83.046-109.374-56.076Z" transform="translate(121.778 95.501)"/></g><g transform="translate(74.677 130.286)"><g transform="translate(2.4)"><path class="f" d="M-98.244-52.6c1.28-5.267-2.209-9.892-8.321-12.12A40.487,40.487,0,0,0-104.5-77.776a1.961,1.961,0,0,0-2.476-1.878,31.865,31.865,0,0,1-9.32,1.216,1.961,1.961,0,0,0-2,1.871c-.373,5.994-1.7,11.508-4.066,19.688" transform="translate(124.049 81.408)"/><path class="c" d="M-98.019-50.685a1.7,1.7,0,0,1-.4-.048,1.685,1.685,0,0,1-1.239-2.035c1.031-4.245-1.751-8.13-7.262-10.14l-1.59-.58.586-1.587a38.72,38.72,0,0,0,1.959-12.482.223.223,0,0,0-.095-.189.3.3,0,0,0-.269-.053,33.064,33.064,0,0,1-9.808,1.269c-.156-.014-.248.148-.257.293-.383,6.155-1.746,11.8-4.13,20.05a1.679,1.679,0,0,1-2.086,1.151,1.684,1.684,0,0,1-1.151-2.086c2.316-8.023,3.641-13.481,4-19.324A3.649,3.649,0,0,1-116.01-79.9a29.493,29.493,0,0,0,8.829-1.162,3.646,3.646,0,0,1,3.186.648,3.587,3.587,0,0,1,1.4,2.865,43.9,43.9,0,0,1-1.652,12.093c6.143,2.8,9.205,7.958,7.864,13.481A1.688,1.688,0,0,1-98.019-50.685Z" transform="translate(123.825 81.183)"/></g><g transform="translate(0 19.896)"><path class="g" d="M3.187,0H25.529a3.187,3.187,0,0,1,3.187,3.187V6.48a0,0,0,0,1,0,0H0a0,0,0,0,1,0,0V3.187A3.187,3.187,0,0,1,3.187,0Z" transform="matrix(0.972, 0.236, -0.236, 0.972, 2.888, 0.36)"/><path class="c" d="M-95.818-49.14-125.9-56.453l.927-3.816a4.769,4.769,0,0,1,2.169-2.965,4.773,4.773,0,0,1,3.63-.565l20.757,5.046a4.807,4.807,0,0,1,3.531,5.8ZM-123.191-58.1l25.72,6.252.4-1.632a2.556,2.556,0,0,0-1.878-3.085l-20.757-5.046a2.525,2.525,0,0,0-1.932.3,2.535,2.535,0,0,0-1.152,1.577Z" transform="translate(125.905 63.936)"/></g><g transform="translate(7.089 22.106)"><line class="h" x1="1.294" y2="5.325" transform="translate(17.424 4.236)"/><line class="h" x1="1.294" y2="5.325" transform="translate(11.616 2.824)"/><line class="h" x1="1.294" y2="5.325" transform="translate(5.808 1.412)"/><line class="h" x1="1.294" y2="5.325"/></g></g><g transform="translate(91.524 130.041)"><path class="f" d="M-104.534-75.509c0,2.713-1.3,4.912-2.9,4.912s-2.9-2.2-2.9-4.912,1.3-4.912,2.9-4.912S-104.534-78.222-104.534-75.509Z" transform="translate(111.451 81.545)"/><path class="c" d="M-107.281-69.324c-2.254,0-4.02-2.651-4.02-6.035s1.766-6.035,4.02-6.035,4.02,2.651,4.02,6.035S-105.027-69.324-107.281-69.324Zm0-9.824c-.723,0-1.774,1.475-1.774,3.788s1.051,3.789,1.774,3.789,1.774-1.477,1.774-3.789S-106.558-79.148-107.281-79.148Z" transform="translate(111.301 81.395)"/></g><g transform="translate(87.815 145.855)"><path class="f" d="M-107.92-66.713s-4.415,3.011-5.622,6.328" transform="translate(114.666 67.836)"/><path class="c" d="M-113.392-59.112a1.12,1.12,0,0,1-.384-.068,1.123,1.123,0,0,1-.671-1.44c1.316-3.615,5.853-6.74,6.045-6.873a1.126,1.126,0,0,1,1.561.3,1.123,1.123,0,0,1-.294,1.561c-.04.028-4.132,2.852-5.2,5.785A1.124,1.124,0,0,1-113.392-59.112Z" transform="translate(114.516 67.686)"/></g><g transform="translate(2.683 14.433)"><path class="f" d="M-175.846-156.68a12.481,12.481,0,0,1-12.469-12.464,12.482,12.482,0,0,1,12.469-12.469,12.48,12.48,0,0,1,12.464,12.469A12.478,12.478,0,0,1-175.846-156.68Zm0-22.687a10.234,10.234,0,0,0-10.223,10.223,10.232,10.232,0,0,0,10.223,10.218,10.229,10.229,0,0,0,10.217-10.218A10.231,10.231,0,0,0-175.846-179.367Z" transform="translate(188.315 181.613)"/><g transform="translate(1.493 2.104)"><path class="f" d="M-185.213-161.628a.564.564,0,0,1-.536-.395.562.562,0,0,1,.369-.7c.831-.261,1.628-.578,2.471-.915,3.8-1.518,8.1-3.237,16.068.873a.561.561,0,0,1,.241.756.562.562,0,0,1-.757.242c-7.512-3.872-11.388-2.327-15.135-.828-.827.329-1.681.67-2.553.945A.616.616,0,0,1-185.213-161.628Zm17.654-4.648c-1.477,0-3.269-.165-5.129-.333a40.676,40.676,0,0,0-7.087-.273c-1.437.167-1.953-.354-2.132-.818-.668-1.721,2.647-4.713,4.711-6.21,3.552-2.575,8.319-4.53,11.047-2.3a.563.563,0,0,1,.078.791.562.562,0,0,1-.79.078c-2.238-1.83-6.611.115-9.676,2.338-3.187,2.311-4.508,4.415-4.322,4.895.016.043.23.188.959.107a40.335,40.335,0,0,1,7.316.27c2.676.245,5.445.5,6.906.176a.56.56,0,0,1,.669.428.561.561,0,0,1-.429.669A10.2,10.2,0,0,1-167.559-166.276Zm-2.8-3.147c-1,0-3.9-.45-3.9-1.826,0-1.059,2.466-3.239,3.992-3.239,1.617,0,3.083,2.472,3.083,3.434C-167.191-169.927-168.784-169.423-170.363-169.423Zm-2.764-1.861a5.381,5.381,0,0,0,2.764.737,3,3,0,0,0,2.05-.519c0-.469-1.122-2.3-1.962-2.3C-171.187-173.365-172.9-171.844-173.126-171.284Zm-12.839-2a5.337,5.337,0,0,1-.548-.025.562.562,0,0,1-.5-.614.559.559,0,0,1,.615-.5c2.108.217,5.091-1.156,8.247-2.6a39.4,39.4,0,0,1,7.172-2.748.556.556,0,0,1,.671.425.562.562,0,0,1-.423.671A38.516,38.516,0,0,0-177.689-176C-180.742-174.607-183.64-173.284-185.966-173.284Z" transform="translate(187.02 179.789)"/></g></g><g transform="translate(130.279 78.761)"><path class="f" d="M-72.812-116.06a4.9,4.9,0,0,1-4.893-4.9,4.9,4.9,0,0,1,4.893-4.893,4.9,4.9,0,0,1,4.893,4.893A4.9,4.9,0,0,1-72.812-116.06Zm0-6.418a1.525,1.525,0,0,0-1.524,1.523,1.526,1.526,0,0,0,1.524,1.525,1.526,1.526,0,0,0,1.524-1.525A1.525,1.525,0,0,0-72.812-122.478Z" transform="translate(77.705 125.849)"/></g><g transform="translate(94.448 41.427)"><path class="g" d="M7.127,0h6.6A15.662,15.662,0,0,1,29.387,15.662v9.925A7.115,7.115,0,0,1,22.271,32.7H7.127A7.127,7.127,0,0,1,0,25.575V7.127A7.127,7.127,0,0,1,7.127,0Z" transform="translate(1.685 1.686)"/><path class="c" d="M-85.9-122.14H-98.859a9.918,9.918,0,0,1-9.907-9.906v-16.259a9.919,9.919,0,0,1,9.907-9.908h3.1a19.775,19.775,0,0,1,19.752,19.752v6.428A9.9,9.9,0,0,1-85.9-122.14Zm-12.957-32.7a6.545,6.545,0,0,0-6.537,6.537v16.259a6.545,6.545,0,0,0,6.537,6.536H-85.9a6.531,6.531,0,0,0,6.523-6.523v-6.428a16.4,16.4,0,0,0-16.383-16.382Z" transform="translate(108.766 158.213)"/></g><g transform="translate(102.064 88.696)"><path class="b" d="M-90.85-88.627c9.367,2.742,12.734-1.383,11.615-7.622s-2.473-19-8.452-19.514S-99-102.484-100.3-97.99-100.218-91.369-90.85-88.627Z" transform="translate(102.385 117.461)"/><path class="c" d="M-85.357-85.846a20.692,20.692,0,0,1-5.746-.94h0c-8.514-2.492-12.491-4.946-10.6-11.451.058-.2,5.847-19.71,14.378-18.978,6.615.562,8.4,11.419,9.58,18.6.136.828.263,1.6.388,2.292.655,3.656-.11,6.68-2.155,8.517A8.44,8.44,0,0,1-85.357-85.846Zm-2.433-28.021c-3.771,0-8.678,9.707-10.675,16.572-.81,2.784-1.3,4.463,8.309,7.276h0c3.924,1.149,6.906,1.045,8.4-.293,1.543-1.385,1.344-3.987,1.089-5.414-.127-.706-.257-1.5-.4-2.341-.888-5.4-2.54-15.452-6.541-15.792C-87.667-113.864-87.73-113.868-87.79-113.868Z" transform="translate(102.164 117.236)"/></g><g transform="translate(99.197 106.675)"><g transform="translate(0.876 6.286)"><path class="b" d="M-91.587-93.611s-5.738-.811-8.773,8.668" transform="translate(104.432 96.597)"/><path class="c" d="M-91.456-90.307c.15.024.078.022.093.028s-.037.014-.052.017l-.158.043a2.7,2.7,0,0,0-.381.134,4.157,4.157,0,0,0-.786.435,5.8,5.8,0,0,0-1.423,1.518,11.41,11.41,0,0,0-1.129,2.173l-.429,1.269-.353,1.342-.047.181a3.949,3.949,0,0,1-4.823,2.816,3.948,3.948,0,0,1-2.816-4.822,4.152,4.152,0,0,1,.2-.573l.772-1.772c.287-.589.611-1.174.921-1.753a18.049,18.049,0,0,1,2.5-3.342,12.153,12.153,0,0,1,3.652-2.669,10.149,10.149,0,0,1,2.3-.746,8.334,8.334,0,0,1,1.247-.158c.219-.008.427-.02.668-.009l.362.018c.152.014.219.015.505.055a2.937,2.937,0,0,1,2.5,3.319A2.937,2.937,0,0,1-91.456-90.307Z" transform="translate(103.89 96.202)"/></g><g transform="translate(6.123 8.533)"><path class="b" d="M-90.593-91.87s-.045,10.52-5.16,15.635" transform="translate(99.893 94.62)"/><path class="c" d="M-87.185-91.491a37.878,37.878,0,0,1-.135,4.629,35.327,35.327,0,0,1-.7,4.584,26.543,26.543,0,0,1-1.507,4.649,18.186,18.186,0,0,1-2.9,4.54l-.024.027a3.941,3.941,0,0,1-5.564.346,3.942,3.942,0,0,1-.346-5.562,4.348,4.348,0,0,1,.374-.37,10.5,10.5,0,0,0,1.929-2.3,19.43,19.43,0,0,0,1.507-3.188A28.65,28.65,0,0,0-93.5-87.776a33,33,0,0,0,.6-3.74l.016-.16a2.857,2.857,0,0,1,3.123-2.564A2.859,2.859,0,0,1-87.185-91.491Z" transform="translate(99.342 94.254)"/></g><g transform="translate(14.682 7.42)"><path class="b" d="M-89.069-92.35s6.357,7.408,2.435,16.189" transform="translate(92.36 95.66)"/><path class="c" d="M-86.114-94.07c.4.464.617.752.889,1.121q.384.524.724,1.061a22.947,22.947,0,0,1,1.253,2.222,20.376,20.376,0,0,1,1.67,4.919,17.322,17.322,0,0,1,.276,5.368,19.112,19.112,0,0,1-1.3,5.263,3.936,3.936,0,0,1-5.063,2.308,3.934,3.934,0,0,1-2.307-5.062c.022-.061.046-.121.072-.179l.119-.275a11.493,11.493,0,0,0,.989-3,9.887,9.887,0,0,0,.076-3.2,13.277,13.277,0,0,0-.851-3.284,16.274,16.274,0,0,0-.746-1.586c-.138-.26-.283-.51-.435-.751l-.395-.6-.235-.36a3.3,3.3,0,0,1,.957-4.572A3.3,3.3,0,0,1-86.114-94.07Z" transform="translate(91.922 95.219)"/></g><path class="d" d="M3.708,0H24.029a3.709,3.709,0,0,1,3.709,3.709V6.243a3.708,3.708,0,0,1-3.708,3.708H3.709A3.709,3.709,0,0,1,0,6.243V3.708A3.708,3.708,0,0,1,3.708,0Z" transform="matrix(-0.98, -0.201, 0.201, -0.98, 28.086, 16.238)"/><path class="c" d="M-79.881-84.5a6.017,6.017,0,0,1-1.212-.125l-18.789-3.855a5.924,5.924,0,0,1-3.78-2.556,5.925,5.925,0,0,1-.863-4.483l.28-1.367a5.924,5.924,0,0,1,2.559-3.779,5.913,5.913,0,0,1,4.482-.863l18.79,3.855a5.922,5.922,0,0,1,3.779,2.556,5.926,5.926,0,0,1,.863,4.483l-.28,1.366a5.926,5.926,0,0,1-2.557,3.78A5.919,5.919,0,0,1-79.881-84.5ZM-98.409-98.28a2.578,2.578,0,0,0-1.422.429,2.581,2.581,0,0,0-1.113,1.645l-.28,1.367a2.577,2.577,0,0,0,.376,1.948,2.575,2.575,0,0,0,1.643,1.112h0l18.79,3.855a2.587,2.587,0,0,0,1.948-.375,2.577,2.577,0,0,0,1.113-1.645l.28-1.366a2.578,2.578,0,0,0-.376-1.95,2.575,2.575,0,0,0-1.643-1.112l-18.79-3.855A2.656,2.656,0,0,0-98.409-98.28Z" transform="translate(104.649 101.651)"/></g><g transform="translate(106.034 86.669)"><path class="e" d="M-93.888-110.3h10.279a3.86,3.86,0,0,0,3.86-3.86h0a3.86,3.86,0,0,0-3.86-3.86H-93.888a3.86,3.86,0,0,0-3.86,3.86h0A3.86,3.86,0,0,0-93.888-110.3Z" transform="translate(98.872 119.142)"/><path class="c" d="M-83.459-109.027H-93.739a4.989,4.989,0,0,1-4.983-4.983,4.988,4.988,0,0,1,4.983-4.982h10.279a4.988,4.988,0,0,1,4.982,4.982A4.989,4.989,0,0,1-83.459-109.027Zm-10.279-7.72a2.739,2.739,0,0,0-2.737,2.736,2.74,2.74,0,0,0,2.737,2.737h10.279a2.739,2.739,0,0,0,2.736-2.737,2.739,2.739,0,0,0-2.736-2.736Z" transform="translate(98.722 118.993)"/></g><g transform="translate(50.73 113.769)"><path class="c" d="M-143.282-56.076c-10.149-26.97,5.709-38.929,6.39-39.425l2.979,4.084,3.036,4.041c-.422.328-10.271,8.265-2.943,27.741Z" transform="translate(146.664 95.501)"/></g><g transform="translate(40.127 130.286)"><g transform="translate(0.997)"><path class="f" d="M-153.267-52.6c-1.28-5.267,2.209-9.892,8.321-12.12a40.456,40.456,0,0,1-2.063-13.061,1.961,1.961,0,0,1,2.476-1.878,31.865,31.865,0,0,0,9.32,1.216,1.961,1.961,0,0,1,2,1.871c.373,5.994,1.7,11.508,4.066,19.688" transform="translate(155.216 81.407)"/><path class="c" d="M-153.044-50.685a1.687,1.687,0,0,1-1.637-1.287c-1.342-5.522,1.721-10.679,7.864-13.481a43.9,43.9,0,0,1-1.652-12.093,3.587,3.587,0,0,1,1.4-2.865,3.649,3.649,0,0,1,3.186-.648,29.542,29.542,0,0,0,8.831,1.162,3.654,3.654,0,0,1,3.743,3.451c.363,5.844,1.688,11.3,4,19.324a1.684,1.684,0,0,1-1.151,2.086,1.683,1.683,0,0,1-2.087-1.151c-2.382-8.255-3.747-13.9-4.129-20.05-.008-.145-.121-.307-.256-.293a33.232,33.232,0,0,1-9.809-1.269.3.3,0,0,0-.269.053.223.223,0,0,0-.095.189,38.72,38.72,0,0,0,1.959,12.482l.586,1.587-1.59.58c-5.511,2.01-8.293,5.895-7.262,10.14a1.685,1.685,0,0,1-1.239,2.035A1.7,1.7,0,0,1-153.044-50.685Z" transform="translate(154.992 81.183)"/></g><g transform="translate(0 19.896)"><path class="g" d="M0,0H28.716a0,0,0,0,1,0,0V3.292A3.188,3.188,0,0,1,25.529,6.48H3.187A3.187,3.187,0,0,1,0,3.292V0A0,0,0,0,1,0,0Z" transform="matrix(-0.972, 0.236, -0.236, -0.972, 29.793, 6.656)"/><path class="c" d="M-154.792-49.14l-.927-3.813a4.809,4.809,0,0,1,3.531-5.8l20.757-5.046a4.777,4.777,0,0,1,3.63.565,4.768,4.768,0,0,1,2.169,2.966l.927,3.815Zm24.5-12.547a2.549,2.549,0,0,0-.609.073l-20.757,5.046a2.557,2.557,0,0,0-1.878,3.086l.4,1.631L-127.42-58.1l-.4-1.632a2.539,2.539,0,0,0-1.152-1.578A2.54,2.54,0,0,0-130.292-61.688Z" transform="translate(155.856 63.936)"/></g><g transform="translate(5.344 22.106)"><line class="h" x2="1.294" y2="5.325" transform="translate(0 4.236)"/><line class="h" x2="1.294" y2="5.325" transform="translate(5.808 2.824)"/><line class="h" x2="1.294" y2="5.325" transform="translate(11.616 1.412)"/><line class="h" x2="1.294" y2="5.325" transform="translate(17.424)"/></g></g><g transform="translate(46.392 130.041)"><path class="f" d="M-149.452-75.509c0,2.713,1.3,4.912,2.9,4.912s2.9-2.2,2.9-4.912-1.3-4.912-2.9-4.912S-149.452-78.222-149.452-75.509Z" transform="translate(150.574 81.545)"/><path class="c" d="M-146.406-69.324c-2.254,0-4.019-2.651-4.019-6.035s1.765-6.035,4.019-6.035,4.02,2.651,4.02,6.035S-144.152-69.324-146.406-69.324Zm0-9.824c-.723,0-1.773,1.475-1.773,3.788s1.05,3.789,1.773,3.789,1.774-1.477,1.774-3.789S-145.683-79.148-146.406-79.148Z" transform="translate(150.425 81.395)"/></g><g transform="translate(18.234 41.427)"><path class="g" d="M7.127,0H22.271a7.115,7.115,0,0,1,7.115,7.115v9.925A15.662,15.662,0,0,1,13.724,32.7h-6.6A7.127,7.127,0,0,1,0,25.576V7.127A7.127,7.127,0,0,1,7.127,0Z" transform="translate(31.071 34.389) rotate(180)"/><path class="c" d="M-151.984-122.14h-12.957a9.9,9.9,0,0,1-9.893-9.893v-6.428a19.775,19.775,0,0,1,19.751-19.752h3.1a9.918,9.918,0,0,1,9.906,9.908v16.259A9.917,9.917,0,0,1-151.984-122.14Zm-3.1-32.7a16.4,16.4,0,0,0-16.382,16.382v6.428a6.531,6.531,0,0,0,6.523,6.523h12.957a6.544,6.544,0,0,0,6.536-6.536v-16.259a6.544,6.544,0,0,0-6.536-6.537Z" transform="translate(174.834 158.213)"/></g><g transform="translate(38.201 57.778)"><path class="b" d="M-148.977-142.577l50.866.211c4.791.021,8.173,5.605,6.68,11.043-2.832,10.316-11.259,29.192-11.259,29.192l-41.776,0s-8.42-19.03-11.247-29.422C-157.2-137.013-153.779-142.6-148.977-142.577Z" transform="translate(157.75 144.262)"/><path class="c" d="M-102.464-100.221h0l-41.776-.006a1.686,1.686,0,0,1-1.541-1c-.346-.782-8.5-19.264-11.331-29.66a11.249,11.249,0,0,1,1.8-9.764,8.271,8.271,0,0,1,6.536-3.383h.031l50.866.211a8.287,8.287,0,0,1,6.535,3.425,11.264,11.264,0,0,1,1.764,9.749c-2.834,10.322-11,28.658-11.346,29.434A1.683,1.683,0,0,1-102.464-100.221Zm-40.675-3.376,39.576.006c1.765-4.021,8.336-19.223,10.732-27.953a7.975,7.975,0,0,0-1.2-6.819,4.879,4.879,0,0,0-3.864-2.093l-50.866-.211h-.017a4.866,4.866,0,0,0-3.862,2.065,7.969,7.969,0,0,0-1.224,6.827C-151.469-122.977-144.9-107.645-143.139-103.6Z" transform="translate(157.525 144.038)"/></g><g transform="translate(52.81 77.27)"><path class="c" d="M-107.3-124.834h-36.406a1.153,1.153,0,0,1-1.154-1.154,1.154,1.154,0,0,1,1.154-1.154H-107.3a1.154,1.154,0,0,1,1.154,1.154A1.153,1.153,0,0,1-107.3-124.834Z" transform="translate(144.861 127.141)"/></g><g transform="translate(50.516 71.574)"><path class="c" d="M-104.7-129.772H-145.7a1.153,1.153,0,0,1-1.154-1.154,1.153,1.153,0,0,1,1.154-1.154H-104.7a1.153,1.153,0,0,1,1.154,1.154A1.153,1.153,0,0,1-104.7-129.772Z" transform="translate(146.85 132.079)"/></g><g transform="translate(49.751 106.687)"><path class="e" d="M-104.245-100.179h-41.434l1.8,7.838a3.424,3.424,0,0,0,2.985,2.641l7.446.773,4.457,3.18a3.662,3.662,0,0,0,2.129.682h3.8a3.673,3.673,0,0,0,2.132-.683l4.455-3.186,7.451-.78a3.425,3.425,0,0,0,2.982-2.639Z" transform="translate(147.795 101.864)"/><path class="c" d="M-122.782-83.155h-3.8a5.317,5.317,0,0,1-3.109-1l-4.094-2.921-7-.727a5.111,5.111,0,0,1-4.454-3.939l-2.273-9.9h45.666l-2.274,9.888a5.113,5.113,0,0,1-4.448,3.938l-7.008.733-4.094,2.928A5.325,5.325,0,0,1-122.782-83.155Zm-20.5-15.114,1.325,5.776a1.739,1.739,0,0,0,1.517,1.342l7.889.819,4.821,3.438a1.96,1.96,0,0,0,1.15.369h3.8a1.978,1.978,0,0,0,1.152-.369l4.816-3.443,7.894-.827a1.742,1.742,0,0,0,1.516-1.342l1.324-5.762Z" transform="translate(147.513 101.64)"/></g><g transform="translate(47.648 98.305)"><path class="d" d="M-106.122-97.951h-37.006a4.747,4.747,0,0,1-4.748-4.747h0a4.748,4.748,0,0,1,4.748-4.748h37.006a4.748,4.748,0,0,1,4.748,4.748h0A4.747,4.747,0,0,1-106.122-97.951Z" transform="translate(149.56 109.13)"/><path class="c" d="M-105.9-96.041H-142.9a6.44,6.44,0,0,1-6.432-6.432,6.44,6.44,0,0,1,6.432-6.432H-105.9a6.44,6.44,0,0,1,6.432,6.432A6.44,6.44,0,0,1-105.9-96.041Zm-37.006-9.495a3.066,3.066,0,0,0-3.063,3.063,3.065,3.065,0,0,0,3.063,3.062H-105.9a3.065,3.065,0,0,0,3.063-3.062,3.066,3.066,0,0,0-3.063-3.063Z" transform="translate(149.336 108.906)"/></g><g transform="translate(57.329 100.786)"><g transform="translate(19.656)"><line class="b" y2="6.79" transform="translate(0.591 0.59)"/><path class="c" d="M-123.314-98.786a.59.59,0,0,1-.591-.591v-6.789a.591.591,0,0,1,.591-.591.59.59,0,0,1,.591.591v6.789A.59.59,0,0,1-123.314-98.786Z" transform="translate(123.905 106.756)"/></g><g transform="translate(9.827)"><line class="b" y2="6.79" transform="translate(0.591 0.59)"/><path class="c" d="M-131.834-98.786a.59.59,0,0,1-.591-.591v-6.789a.591.591,0,0,1,.591-.591.59.59,0,0,1,.591.591v6.789A.59.59,0,0,1-131.834-98.786Z" transform="translate(132.425 106.756)"/></g><line class="b" y2="6.79" transform="translate(0.59 0.59)"/><path class="c" d="M-140.353-98.786a.59.59,0,0,1-.591-.591v-6.789a.59.59,0,0,1,.591-.591.591.591,0,0,1,.591.591v6.789A.59.59,0,0,1-140.353-98.786Z" transform="translate(140.944 106.756)"/><g transform="translate(29.484)"><line class="b" y2="6.79" transform="translate(0.591 0.59)"/><path class="c" d="M-114.794-98.786a.59.59,0,0,1-.591-.591v-6.789a.59.59,0,0,1,.591-.591.59.59,0,0,1,.591.591v6.789A.59.59,0,0,1-114.794-98.786Z" transform="translate(115.385 106.756)"/></g></g><g transform="translate(13.549 145.589)"><path class="i" d="M-166.364-54.543h-11.689a.844.844,0,0,1-.843-.843V-67.075a.843.843,0,0,1,.843-.842h11.689a.843.843,0,0,1,.843.842v11.689A.844.844,0,0,1-166.364-54.543Zm-10.847-1.685h10v-10h-10Z" transform="translate(178.896 67.917)"/><g transform="translate(0.079 0.178)"><path class="i" d="M-162.563-50.975h-11.689a.838.838,0,0,1-.576-.227l-3.734-3.5a.843.843,0,0,1-.039-1.19.845.845,0,0,1,1.192-.039l3.491,3.27H-163.4v-10.48l-3.387-3.163a.841.841,0,0,1-.04-1.19.843.843,0,0,1,1.19-.043l3.654,3.413a.846.846,0,0,1,.268.617v11.688A.843.843,0,0,1-162.563-50.975Z" transform="translate(178.828 67.762)"/></g><g transform="translate(11.847 11.656)"><path class="i" d="M-164.129-52.715a.84.84,0,0,1-.574-.226l-3.654-3.413a.841.841,0,0,1-.04-1.19.843.843,0,0,1,1.19-.042l3.654,3.413a.842.842,0,0,1,.04,1.19A.84.84,0,0,1-164.129-52.715Z" transform="translate(168.626 57.813)"/></g></g><g transform="translate(0 84.412)"><path class="j" d="M-184.593-108.984a.8.8,0,0,1-.8-.788,4.4,4.4,0,0,0-4.4-4.339c-.02,0-.043,0-.061,0a.8.8,0,0,1-.8-.787v-.01a.8.8,0,0,1,.786-.8,4.357,4.357,0,0,0,3.092-1.324,4.359,4.359,0,0,0,1.248-3.117v-.01a.8.8,0,0,1,.786-.8h.01a.8.8,0,0,1,.8.786,4.4,4.4,0,0,0,4.39,4.335h.063a.8.8,0,0,1,.8.787v.012a.8.8,0,0,1-.786.795,4.4,4.4,0,0,0-4.337,4.447v.01a.8.8,0,0,1-.786.8Zm-2.269-5.955a6.037,6.037,0,0,1,2.233,2.178,6.032,6.032,0,0,1,2.18-2.236,6.034,6.034,0,0,1-2.233-2.177,6,6,0,0,1-.942,1.259A6.062,6.062,0,0,1-186.862-114.939Z" transform="translate(190.641 120.95)"/></g><g transform="translate(107.784 2.957)"><path class="j" d="M-90.631-178.494a.8.8,0,0,1-.795-.79,4.951,4.951,0,0,0-4.946-4.912c-.013,0-.023,0-.037,0a.8.8,0,0,1-.8-.79v-.006a.8.8,0,0,1,.79-.8,4.909,4.909,0,0,0,3.487-1.471,4.907,4.907,0,0,0,1.425-3.5v-.006a.8.8,0,0,1,.79-.8h.006a.8.8,0,0,1,.8.791,4.948,4.948,0,0,0,4.941,4.906c.014,0,.029,0,.039,0a.8.8,0,0,1,.8.79v.006a.8.8,0,0,1-.79.8,4.949,4.949,0,0,0-4.91,4.976v.006a.8.8,0,0,1-.79.8Zm-2.645-6.519a6.552,6.552,0,0,1,1.5,1.109,6.574,6.574,0,0,1,1.132,1.486,6.577,6.577,0,0,1,2.594-2.629,6.577,6.577,0,0,1-2.63-2.593,6.627,6.627,0,0,1-1.11,1.5A6.6,6.6,0,0,1-93.276-185.013Z" transform="translate(97.205 191.562)"/></g><path class="k" d="M-87.408-166.046h5.02A1.088,1.088,0,0,1-81.3-164.96h0a1.088,1.088,0,0,1-1.084,1.083h-5.02a1.088,1.088,0,0,1-1.084-1.083h0a1.087,1.087,0,0,1,1.084-1.085Zm12.926,7.906v5.02a1.088,1.088,0,0,1-1.084,1.084h0a1.088,1.088,0,0,1-1.084-1.084v-5.02a1.087,1.087,0,0,1,1.084-1.084h0a1.088,1.088,0,0,1,1.084,1.084Zm0-9.332v1.426h1.426a1.088,1.088,0,0,1,1.084,1.085h0a1.087,1.087,0,0,1-1.084,1.083h-1.426v1.427a1.087,1.087,0,0,1-1.084,1.083h0a1.087,1.087,0,0,1-1.084-1.083v-1.427h-1.426a1.087,1.087,0,0,1-1.084-1.083h0a1.088,1.088,0,0,1,1.084-1.085h1.426v-1.426a1.087,1.087,0,0,1,1.084-1.083h0a1.087,1.087,0,0,1,1.084,1.083Zm0-9.331v5.02a1.088,1.088,0,0,1-1.084,1.084h0a1.087,1.087,0,0,1-1.084-1.084v-5.02a1.088,1.088,0,0,1,1.084-1.084h0a1.088,1.088,0,0,1,1.084,1.084Zm5.737,10.757h5.021a1.087,1.087,0,0,1,1.083,1.085h0a1.087,1.087,0,0,1-1.083,1.083h-5.021a1.088,1.088,0,0,1-1.084-1.083h0A1.088,1.088,0,0,1-68.745-166.046Z" transform="translate(206.327 196.619)"/><path class="k" d="M-89.009-63.681v2.037h2.037a.941.941,0,0,1,.938.938h0a.945.945,0,0,1-.938.938h-2.037v2.037a.945.945,0,0,1-.938.938h0a.939.939,0,0,1-.938-.938v-2.037h-2.037a.945.945,0,0,1-.938-.938h0a.94.94,0,0,1,.938-.938h2.037v-2.037a.94.94,0,0,1,.938-.938h0A.945.945,0,0,1-89.009-63.681Z" transform="translate(205.503 214.012)"/><path class="g" d="M-182.89-137.68v2.037h2.038a.941.941,0,0,1,.937.938h0a.944.944,0,0,1-.937.938h-2.038v2.037a.945.945,0,0,1-.938.938h0a.939.939,0,0,1-.937-.938v-2.037H-186.8a.944.944,0,0,1-.937-.938h0a.94.94,0,0,1,.937-.938h2.038v-2.037a.94.94,0,0,1,.937-.938h0A.945.945,0,0,1-182.89-137.68Z" transform="translate(191.086 202.649)"/><path class="k" d="M-69.223-89.544v2.038h2.038a.94.94,0,0,1,.938.937h0a.944.944,0,0,1-.938.938h-2.038v2.037a.944.944,0,0,1-.937.938h0a.939.939,0,0,1-.938-.938v-2.037h-2.037a.944.944,0,0,1-.938-.938h0a.939.939,0,0,1,.938-.937H-71.1v-2.038a.939.939,0,0,1,.938-.937h0A.943.943,0,0,1-69.223-89.544Z" transform="translate(208.541 210.041)"/><path class="k" d="M-162.176-189.326v2.038h2.038a.94.94,0,0,1,.937.937h0a.944.944,0,0,1-.937.938h-2.038v2.038a.944.944,0,0,1-.938.937h0a.939.939,0,0,1-.937-.937v-2.038h-2.038a.943.943,0,0,1-.937-.938h0a.939.939,0,0,1,.937-.937h2.038v-2.038a.94.94,0,0,1,.937-.937h0A.944.944,0,0,1-162.176-189.326Z" transform="translate(194.267 194.718)"/><g transform="translate(50.272 145.855)"><path class="f" d="M-146.089-66.713s4.415,3.011,5.622,6.328" transform="translate(147.211 67.836)"/><path class="c" d="M-140.317-59.112a1.124,1.124,0,0,1-1.056-.739c-1.068-2.934-5.159-5.757-5.2-5.785a1.124,1.124,0,0,1-.293-1.561,1.124,1.124,0,0,1,1.56-.3c.193.133,4.727,3.258,6.045,6.873a1.124,1.124,0,0,1-.671,1.44A1.12,1.12,0,0,1-140.317-59.112Z" transform="translate(147.062 67.686)"/></g><g transform="translate(59.092 63.087)"><path class="b" d="M-115.391-127a11.51,11.51,0,0,1-11.434,11.589,11.51,11.51,0,0,1-11.59-11.434,11.513,11.513,0,0,1,11.433-11.59A11.515,11.515,0,0,1-115.391-127Z" transform="translate(139.569 139.59)"/><path class="c" d="M-126.755-114.106a12.582,12.582,0,0,1-8.891-3.648,12.581,12.581,0,0,1-3.77-8.931,12.68,12.68,0,0,1,12.578-12.751h.087a12.682,12.682,0,0,1,12.665,12.582h0a12.585,12.585,0,0,1-3.648,8.98,12.583,12.583,0,0,1-8.932,3.768Zm0-23.023h-.072A10.371,10.371,0,0,0-137.108-126.7a10.287,10.287,0,0,0,3.083,7.3,10.287,10.287,0,0,0,7.271,2.983h.074a10.287,10.287,0,0,0,7.3-3.082,10.283,10.283,0,0,0,2.983-7.344h0A10.372,10.372,0,0,0-126.75-137.129Z" transform="translate(139.415 139.436)"/></g><g transform="translate(66.512 70.056)"><path class="l" d="M-127.62-122.67a5.373,5.373,0,0,0,5.363-5.362,5.373,5.373,0,0,0-5.363-5.363,5.373,5.373,0,0,0-5.363,5.363A5.372,5.372,0,0,0-127.62-122.67Z" transform="translate(132.983 133.395)"/><g transform="translate(4.567 2.059)"><path class="m" d="M-125.531-127.353a.8.8,0,0,1-.8-.792,1.884,1.884,0,0,0-1.884-1.87.044.044,0,0,1-.017,0,.8.8,0,0,1-.8-.791.8.8,0,0,1,.791-.8,3.458,3.458,0,0,1,3.5,3.455.8.8,0,0,1-.79.8Z" transform="translate(129.024 131.61)"/></g></g><g transform="translate(39.195)"><path class="f" d="M-97.6-138.989s4.061-10.935,6.912-22.069c4.573-17.863-10.878-32.093-28.011-32.093h-8.175c-17.133,0-32.585,14.23-28.011,32.093,2.85,11.134,6.911,22.069,6.911,22.069" transform="translate(156.812 194.275)"/><path class="c" d="M-96.4-138.448l-2.105-.782c.039-.11,4.073-11.011,6.875-21.956a22.642,22.642,0,0,0-4.061-19.9c-5.167-6.657-13.927-10.792-22.861-10.792h-8.175c-8.935,0-17.694,4.134-22.862,10.792a22.642,22.642,0,0,0-4.061,19.9c2.8,10.951,6.836,21.846,6.875,21.956l-2.105.782c-.04-.11-4.114-11.118-6.947-22.182a24.849,24.849,0,0,1,4.463-21.836,31.217,31.217,0,0,1,24.637-11.659h8.175a31.213,31.213,0,0,1,24.635,11.659,24.849,24.849,0,0,1,4.463,21.836C-92.281-149.566-96.354-138.558-96.4-138.448Z" transform="translate(156.663 194.125)"/><g class="n" transform="translate(41.718 5.739)"><path class="b" d="M-101.462-168.9a2.248,2.248,0,0,1-2.2-1.809c-1.952-9.815-9.212-13.02-14.959-13.981a2.248,2.248,0,0,1-1.846-2.587,2.249,2.249,0,0,1,2.586-1.845c5.849.978,16.045,4.557,18.625,17.536a2.246,2.246,0,0,1-1.765,2.642A2.3,2.3,0,0,1-101.462-168.9Z" transform="translate(120.499 189.15)"/></g><path class="o" d="M-122.381-187.283a2.155,2.155,0,0,1-2.155,2.156,2.156,2.156,0,0,1-2.156-2.156,2.155,2.155,0,0,1,2.156-2.155A2.154,2.154,0,0,1-122.381-187.283Z" transform="translate(161.266 194.845)"/><g transform="translate(10.843 12.133)"><path class="g" d="M16.253,0H39.724a0,0,0,0,1,0,0V43.436a0,0,0,0,1,0,0H16.253A16.253,16.253,0,0,1,0,27.184V16.253A16.253,16.253,0,0,1,16.253,0Z" transform="translate(44.559 1.124) rotate(90)"/><path class="c" d="M-101.582-141.636h-45.682v-22.1a19.9,19.9,0,0,1,19.871-19.872h5.94a19.894,19.894,0,0,1,19.871,19.872Zm-43.436-2.246h41.19v-19.853a17.645,17.645,0,0,0-17.625-17.625h-5.94a17.645,17.645,0,0,0-17.625,17.625Z" transform="translate(147.264 183.607)"/></g><path class="c" d="M-142.945-162.2a2.866,2.866,0,0,0-2.472-3.212,11.414,11.414,0,0,0-.741,5.684A2.865,2.865,0,0,0-142.945-162.2Z" transform="translate(158.263 198.534)"/><path class="c" d="M-144.085-167.059a1,1,0,0,1,.73-1.2,1,1,0,0,1,1.2.73,1,1,0,0,1-.73,1.2A.994.994,0,0,1-144.085-167.059Z" transform="translate(158.591 198.093)"/><path class="c" d="M-114.08-163.283a1.432,1.432,0,0,1,1.053-1.732,1.432,1.432,0,0,1,1.731,1.053,1.433,1.433,0,0,1-1.053,1.731A1.432,1.432,0,0,1-114.08-163.283Z" transform="translate(163.196 198.589)"/><path class="c" d="M-144.17-155.523a2.817,2.817,0,0,1,2.069-3.4,2.818,2.818,0,0,1,3.4,2.071,2.815,2.815,0,0,1-2.07,3.4A2.816,2.816,0,0,1-144.17-155.523Z" transform="translate(158.569 199.518)"/><path class="c" d="M-108.634-161.2a4.347,4.347,0,0,0-4.347,4.347,4.347,4.347,0,0,0,4.347,4.347" transform="translate(163.371 199.181)"/><g transform="translate(45.809 10.261)"><path class="g" d="M-116.952-177.143l4.632-6.6c.788-.788,2.732-.12,4.342,1.49h0c1.61,1.61,2.278,3.554,1.49,4.341l-6.6,4.633" transform="translate(116.952 185.407)"/><path class="c" d="M-116.952-176.966a31.25,31.25,0,0,1,1.642-3.774c.306-.607.61-1.214.947-1.8s.645-1.19,1.007-1.757l.043-.067.1-.1a2.532,2.532,0,0,1,1.139-.664,3.294,3.294,0,0,1,1.053-.092,4.624,4.624,0,0,1,1.642.423,8.828,8.828,0,0,1,2.435,1.688,8.731,8.731,0,0,1,1.689,2.435,4.587,4.587,0,0,1,.426,1.64,3.308,3.308,0,0,1-.092,1.056,2.529,2.529,0,0,1-.666,1.139l-.1.1-.066.042c-.568.362-1.169.675-1.757,1.007s-1.189.644-1.8.948a31.007,31.007,0,0,1-3.777,1.638c.489-.474,1-.919,1.507-1.362s1.011-.9,1.542-1.314l1.573-1.267c.527-.419,1.039-.858,1.59-1.245l-.09.075c.2-.153.111-.937-.228-1.547a6.7,6.7,0,0,0-1.338-1.758,6.659,6.659,0,0,0-1.757-1.34c-.611-.339-1.395-.428-1.549-.226l.075-.09c-.386.549-.829,1.059-1.246,1.588l-1.267,1.573c-.412.533-.87,1.031-1.313,1.542S-116.479-177.455-116.952-176.966Z" transform="translate(116.952 185.23)"/><path class="c" d="M-108.82-179.314c.318-.317-.145-1.3-1.034-2.185s-1.866-1.352-2.185-1.034.145,1.3,1.035,2.184S-109.137-179-108.82-179.314Z" transform="translate(117.691 185.628)"/></g><g transform="translate(10.17 10.371)"><path class="g" d="M-135.991-177.143l-4.632-6.6c-.788-.788-2.732-.12-4.342,1.49h0c-1.61,1.61-2.277,3.554-1.49,4.341l6.6,4.633" transform="translate(148.01 185.297)"/><path class="c" d="M-135.828-176.981c-.5-.473-.959-.969-1.417-1.47s-.932-.987-1.363-1.505-.882-1.022-1.3-1.549-.859-1.039-1.262-1.577l.1.115a.8.8,0,0,0-.446-.01,3.625,3.625,0,0,0-.867.311,6.428,6.428,0,0,0-1.7,1.28,6.457,6.457,0,0,0-1.28,1.706,3.592,3.592,0,0,0-.31.866.833.833,0,0,0,.009.445l-.115-.1c1.06.829,2.109,1.675,3.126,2.564.518.431,1.007.9,1.505,1.365s1,.919,1.468,1.418a33.522,33.522,0,0,1-3.738-1.695c-.6-.31-1.2-.623-1.786-.964s-1.181-.655-1.748-1.02l-.062-.04-.092-.09a2.431,2.431,0,0,1-.634-1.09,3.186,3.186,0,0,1-.087-1.019,4.512,4.512,0,0,1,.42-1.6,8.627,8.627,0,0,1,1.669-2.4,8.671,8.671,0,0,1,2.4-1.668,4.543,4.543,0,0,1,1.6-.419,3.184,3.184,0,0,1,1.017.088,2.415,2.415,0,0,1,1.089.633l.089.091.04.063c.365.565.681,1.164,1.02,1.748s.653,1.184.964,1.786A33.5,33.5,0,0,1-135.828-176.981Z" transform="translate(147.847 185.134)"/><path class="c" d="M-145.3-179.157c-.318-.317.145-1.3,1.034-2.185s1.868-1.351,2.185-1.034-.145,1.3-1.035,2.184S-144.982-178.84-145.3-179.157Z" transform="translate(148.223 185.543)"/></g><g transform="translate(4.445 51.858)"><path class="e" d="M-99.065-141.714h-49.529a3.241,3.241,0,0,1-3.242-3.242h0a3.241,3.241,0,0,1,3.242-3.242h49.529a3.241,3.241,0,0,1,3.242,3.242h0A3.241,3.241,0,0,1-99.065-141.714Z" transform="translate(152.96 149.319)"/><path class="c" d="M-98.914-140.442h-49.532a4.37,4.37,0,0,1-4.364-4.364,4.37,4.37,0,0,1,4.364-4.364h49.532a4.37,4.37,0,0,1,4.364,4.364A4.37,4.37,0,0,1-98.914-140.442Zm-49.532-6.482a2.119,2.119,0,0,0-2.117,2.118,2.119,2.119,0,0,0,2.117,2.118h49.532a2.119,2.119,0,0,0,2.117-2.118,2.119,2.119,0,0,0-2.117-2.118Z" transform="translate(152.81 149.17)"/></g><g transform="translate(24.664 44.772)"><path class="c" d="M-126.118-151.2a21.943,21.943,0,0,1-8.337-1.5,1.364,1.364,0,0,1-.718-1.789,1.363,1.363,0,0,1,1.788-.719,21.542,21.542,0,0,0,14.531,0,1.363,1.363,0,0,1,1.789.719,1.364,1.364,0,0,1-.719,1.789A21.941,21.941,0,0,1-126.118-151.2Z" transform="translate(135.282 155.313)"/></g><g transform="translate(21.755 18.249)"><circle class="b" cx="11.401" cy="11.401" r="11.401" transform="translate(0.843 0.843)"/><path class="c" d="M-125.56-153.817A12.257,12.257,0,0,1-137.8-166.061a12.258,12.258,0,0,1,12.244-12.244,12.259,12.259,0,0,1,12.244,12.244A12.258,12.258,0,0,1-125.56-153.817Zm0-22.8a10.571,10.571,0,0,0-10.559,10.559A10.57,10.57,0,0,0-125.56-155.5,10.57,10.57,0,0,0-115-166.061,10.571,10.571,0,0,0-125.56-176.62Z" transform="translate(137.804 178.305)"/></g><circle class="c" cx="5.9" cy="5.9" r="5.9" transform="translate(28.1 24.743)"/><path class="b" d="M-122.963-173.68l-2.241,5.366,4.993-1.077Z" transform="translate(161.494 197.265)"/></g><g transform="translate(18.36 44.952)"><path class="e" d="M-166.848-143.534l-3.394-1.239a4.6,4.6,0,0,1-2.743-5.9h0a4.6,4.6,0,0,1,5.9-2.743l3.394,1.239a4.6,4.6,0,0,1,2.743,5.9h0A4.6,4.6,0,0,1-166.848-143.534Z" transform="translate(174.949 155.381)"/><path class="c" d="M-165.041-141.342a6.282,6.282,0,0,1-2.159-.385l-3.395-1.239a6.294,6.294,0,0,1-3.748-8.061,6.293,6.293,0,0,1,8.061-3.748l3.394,1.239a6.3,6.3,0,0,1,3.749,8.061,6.251,6.251,0,0,1-3.255,3.544A6.263,6.263,0,0,1-165.041-141.342Zm-3.395-10.444a2.92,2.92,0,0,0-2.742,1.915,2.92,2.92,0,0,0,1.74,3.74l3.394,1.239a2.888,2.888,0,0,0,2.23-.095,2.893,2.893,0,0,0,1.509-1.644,2.921,2.921,0,0,0-1.738-3.74l-3.394-1.239A2.877,2.877,0,0,0-168.436-151.786Z" transform="translate(174.725 155.157)"/></g><g transform="translate(110.421 44.95)"><path class="e" d="M-87.279-143.534l3.394-1.239a4.6,4.6,0,0,0,2.743-5.9h0a4.6,4.6,0,0,0-5.9-2.743l-3.394,1.239a4.6,4.6,0,0,0-2.743,5.9h0A4.6,4.6,0,0,0-87.279-143.534Z" transform="translate(95.144 155.384)"/><path class="c" d="M-88.638-141.342a6.267,6.267,0,0,1-2.646-.589,6.249,6.249,0,0,1-3.254-3.544,6.294,6.294,0,0,1,3.749-8.061l3.393-1.239a6.261,6.261,0,0,1,4.807.2,6.251,6.251,0,0,1,3.254,3.545,6.294,6.294,0,0,1-3.747,8.061l-3.395,1.239A6.283,6.283,0,0,1-88.638-141.342Zm3.4-10.447a2.909,2.909,0,0,0-1,.179l-3.394,1.239a2.921,2.921,0,0,0-1.738,3.74,2.9,2.9,0,0,0,1.51,1.644,2.886,2.886,0,0,0,2.229.095h0l3.394-1.239a2.92,2.92,0,0,0,1.738-3.74,2.889,2.889,0,0,0-1.509-1.644A2.9,2.9,0,0,0-85.238-151.788Z" transform="translate(94.92 155.159)"/></g></g></svg>