<svg id="Akkreditalt-regisztrator-logo" xmlns="http://www.w3.org/2000/svg" width="145" height="83.077"
     viewBox="0 0 145 83.077">
    <rect id="Rectangle_198" data-name="Rectangle 198" width="16.014" height="16.014"
          transform="translate(17.563 28.75) rotate(-45)" fill="#f09b21"/>
    <path id="Path_1908" data-name="Path 1908"
          d="M63.636,59.72,62.657,62.9H60.524l3.6-11.224h2.622L70.385,62.9h-2.2L67.168,59.72H63.636Zm3.217-1.538-.874-2.762c-.21-.7-.385-1.434-.559-2.1h-.035c-.175.664-.35,1.434-.524,2.1l-.874,2.762Zm6.783.175h0c.245-.315.455-.664.7-.944l1.958-2.622h2.483l-3.007,3.322L79.2,62.9H76.678l-2.343-3.566-.7.8V62.9H71.573V51.084h2.063v7.273Zm8.462,0h0c.245-.315.455-.664.7-.944l1.958-2.622h2.483l-3.007,3.322,3.427,4.79H85.14L82.8,59.336l-.7.8V62.9H80.035V51.084H82.1v7.273Zm6.434-.944c0-1.084,0-1.888-.07-2.622h1.783l.07,1.538h.07a2.428,2.428,0,0,1,2.2-1.748,2.15,2.15,0,0,1,.49.035v1.923a2.773,2.773,0,0,0-.594-.07,1.786,1.786,0,0,0-1.818,1.538,3.136,3.136,0,0,0-.07.629v4.2H88.531v-5.42Zm7.1,1.993c.035,1.469,1.189,2.1,2.517,2.1a6.525,6.525,0,0,0,2.238-.35l.315,1.434a7.782,7.782,0,0,1-2.832.49,3.848,3.848,0,0,1-4.2-4.091c0-2.238,1.364-4.371,3.951-4.371,2.622,0,3.5,2.168,3.5,3.951a4.825,4.825,0,0,1-.07.874h-5.42ZM99.2,57.972a1.769,1.769,0,0,0-1.678-1.993,2.038,2.038,0,0,0-1.888,1.993ZM110.1,51.084v9.545c0,.839.035,1.748.07,2.273h-1.818l-.07-1.294h-.035a2.918,2.918,0,0,1-2.657,1.469c-1.923,0-3.462-1.643-3.462-4.161,0-2.727,1.678-4.336,3.636-4.336a2.487,2.487,0,0,1,2.273,1.084h.035V51.049H110.1Zm-2.028,7.1a2.646,2.646,0,0,0-.035-.524,1.781,1.781,0,0,0-1.783-1.434c-1.329,0-2.063,1.154-2.063,2.692,0,1.469.734,2.552,2.028,2.552a1.824,1.824,0,0,0,1.783-1.434,3.079,3.079,0,0,0,.07-.594Zm6.154-5.664a1.138,1.138,0,0,1-2.273,0,1.093,1.093,0,0,1,1.154-1.119A1.1,1.1,0,0,1,114.231,52.517Zm-2.2,10.385V54.79h2.063V62.9Zm6.329-10.42V54.79h1.958v1.538h-1.958V59.9c0,.979.28,1.5,1.049,1.5a2.347,2.347,0,0,0,.8-.1l.035,1.573a4.863,4.863,0,0,1-1.469.21,2.428,2.428,0,0,1-1.783-.664,3.271,3.271,0,0,1-.629-2.273V56.329H115.21V54.79h1.154V52.972Zm7.9,10.42-.14-.909h-.035a3.04,3.04,0,0,1-2.413,1.084,2.408,2.408,0,0,1-2.552-2.413c0-2.063,1.818-3.077,4.825-3.077v-.14c0-.524-.21-1.434-1.643-1.434a4.16,4.16,0,0,0-2.168.594l-.385-1.329a6.016,6.016,0,0,1,2.937-.7c2.587,0,3.357,1.643,3.357,3.427v2.937a15.73,15.73,0,0,0,.1,1.958Zm-.245-3.951c-1.434-.035-2.832.28-2.832,1.5a1.064,1.064,0,0,0,1.154,1.154,1.663,1.663,0,0,0,1.608-1.119,2.046,2.046,0,0,0,.07-.455Zm1.259-7.692-2.063,2.483h-1.434l1.434-2.483Zm2.587-.175h2.063V62.9H129.86Zm6.364,1.4V54.79h1.958v1.538h-1.958V59.9c0,.979.28,1.5,1.049,1.5a2.347,2.347,0,0,0,.8-.1l.035,1.573a4.863,4.863,0,0,1-1.469.21,2.428,2.428,0,0,1-1.783-.664,3.272,3.272,0,0,1-.629-2.273V56.329h-1.154V54.79h1.154V52.972ZM61.4,68.5a18.7,18.7,0,0,1,3.112-.245,5.2,5.2,0,0,1,3.462.909,2.806,2.806,0,0,1,.979,2.238,3.032,3.032,0,0,1-2.028,2.832v.035A2.875,2.875,0,0,1,68.5,76.434a28.751,28.751,0,0,0,.874,3.147H67.238a16.132,16.132,0,0,1-.734-2.657c-.315-1.469-.839-1.923-2.028-1.958H63.427V79.58H61.4V68.5Zm2.028,4.965H64.65c1.4,0,2.238-.734,2.238-1.853,0-1.224-.874-1.783-2.2-1.783a4.45,4.45,0,0,0-1.259.1v3.531Zm8.531,2.622a2.183,2.183,0,0,0,2.483,2.1,6.525,6.525,0,0,0,2.238-.35l.315,1.434a7.782,7.782,0,0,1-2.832.49,3.848,3.848,0,0,1-4.2-4.091c0-2.238,1.364-4.371,3.951-4.371,2.622,0,3.5,2.168,3.5,3.951a4.825,4.825,0,0,1-.07.874H71.958Zm3.566-1.434a1.769,1.769,0,0,0-1.678-1.993,2.038,2.038,0,0,0-1.888,1.993ZM86.4,71.469c-.035.559-.07,1.224-.07,2.343v4.615A4.7,4.7,0,0,1,85.14,82.1a4.763,4.763,0,0,1-3.147.979,5.478,5.478,0,0,1-2.832-.664l.455-1.538a4.818,4.818,0,0,0,2.378.629,2.165,2.165,0,0,0,2.343-2.448v-.7h-.07a2.756,2.756,0,0,1-2.378,1.189c-2.028,0-3.462-1.678-3.462-3.951,0-2.657,1.748-4.3,3.671-4.3a2.554,2.554,0,0,1,2.343,1.259h.035l.07-1.084ZM84.266,74.72a1.54,1.54,0,0,0-.07-.559,1.73,1.73,0,0,0-1.678-1.329c-1.154,0-1.993,1.014-1.993,2.657,0,1.4.7,2.517,1.993,2.517A1.763,1.763,0,0,0,84.2,76.783a4.759,4.759,0,0,0,.07-.734ZM90.42,69.2a1.138,1.138,0,0,1-2.273,0,1.136,1.136,0,0,1,2.273,0ZM88.252,79.58V71.469h2.063V79.58ZM92.1,77.692a4.634,4.634,0,0,0,2.1.594c.909,0,1.294-.35,1.294-.909s-.35-.839-1.329-1.189c-1.573-.559-2.238-1.434-2.238-2.378,0-1.434,1.189-2.552,3.077-2.552a4.675,4.675,0,0,1,2.133.49l-.385,1.434a3.586,3.586,0,0,0-1.713-.455c-.734,0-1.119.35-1.119.839,0,.524.385.769,1.434,1.119,1.469.524,2.133,1.294,2.168,2.483,0,1.469-1.154,2.517-3.287,2.517a5.66,5.66,0,0,1-2.483-.559Zm6.154.7,3.042-3.916c.42-.49.769-.909,1.189-1.364v-.035H98.531V71.434h6.434v1.259L101.993,76.5c-.385.49-.769.944-1.189,1.4v.035h4.3V79.58H98.252Zm10.7-9.231v2.308h1.958v1.538h-1.958v3.566c0,.979.28,1.5,1.049,1.5a2.347,2.347,0,0,0,.8-.1l.035,1.573a4.862,4.862,0,0,1-1.469.21,2.428,2.428,0,0,1-1.783-.664,3.271,3.271,0,0,1-.629-2.273V73.007H105.8V71.469h1.154V69.65Zm3.182,4.93c0-1.084,0-1.888-.07-2.622h1.783l.07,1.538h.07a2.428,2.428,0,0,1,2.2-1.748,2.15,2.15,0,0,1,.49.035v1.923a2.773,2.773,0,0,0-.594-.07,1.786,1.786,0,0,0-1.818,1.538,3.136,3.136,0,0,0-.07.629v4.2h-2.063v-5.42Zm10.175,5.49-.14-.909h-.035a3.04,3.04,0,0,1-2.413,1.084,2.408,2.408,0,0,1-2.552-2.413c0-2.063,1.818-3.077,4.825-3.077v-.14c0-.524-.21-1.434-1.643-1.434a4.16,4.16,0,0,0-2.168.594l-.385-1.329a6.016,6.016,0,0,1,2.937-.7c2.587,0,3.357,1.643,3.357,3.427v2.937a15.731,15.731,0,0,0,.1,1.958Zm-.245-3.951c-1.434-.035-2.832.28-2.832,1.5a1.064,1.064,0,0,0,1.154,1.154,1.663,1.663,0,0,0,1.608-1.119,2.046,2.046,0,0,0,.07-.455Zm1.259-7.692-2.063,2.483h-1.434l1.434-2.483Zm4.86,1.224v2.308h1.958v1.538h-1.958v3.566c0,.979.28,1.5,1.049,1.5a2.347,2.347,0,0,0,.8-.1l.035,1.573a4.863,4.863,0,0,1-1.469.21,2.428,2.428,0,0,1-1.783-.664,3.271,3.271,0,0,1-.629-2.273V73.007h-1.154V71.469h1.154V69.65Zm10.839,6.294a4.011,4.011,0,0,1-4.161,4.3,3.91,3.91,0,0,1-4.056-4.2,4.011,4.011,0,0,1,4.2-4.3A3.921,3.921,0,0,1,139.021,75.455Zm-6.119.07c0,1.573.769,2.762,2.028,2.762,1.154,0,1.993-1.154,1.993-2.8,0-1.259-.559-2.727-1.958-2.727C133.5,72.8,132.9,74.2,132.9,75.524Zm7.552-1.434c0-1.084,0-1.888-.07-2.622h1.783l.07,1.538h.07a2.428,2.428,0,0,1,2.2-1.748,2.15,2.15,0,0,1,.49.035v1.923a2.773,2.773,0,0,0-.594-.07,1.786,1.786,0,0,0-1.818,1.538,3.137,3.137,0,0,0-.07.629v4.2h-2.063v-5.42Zm-53.706-61.4a3.507,3.507,0,0,0-3.5,3.5v9.476H68.916V16.189a3.5,3.5,0,0,0-6.993,0V42.133a3.5,3.5,0,0,0,6.993,0V32.657H83.252v9.476a3.5,3.5,0,1,0,6.993,0V16.189A3.484,3.484,0,0,0,86.748,12.692Zm33.741,0a3.507,3.507,0,0,0-3.5,3.5V30.944c0,4.161-3.427,8.077-7.028,8.077s-7.028-3.916-7.028-8.077V16.189a3.5,3.5,0,1,0-6.993,0V30.944c0,8.007,6.538,15.07,14.021,15.07s14.021-7.028,14.021-15.07V16.189A3.507,3.507,0,0,0,120.49,12.692ZM43.531,45.7a20.426,20.426,0,0,1-13.846,5.245A22.712,22.712,0,0,1,6.993,28.252c0-12.1,9.755-21.259,22.692-21.259a14.358,14.358,0,0,1,13.462,8.636,9.567,9.567,0,0,1-.1,7.727L31.364,11.748a3.482,3.482,0,0,0-4.93,0L11.888,26.259a3.482,3.482,0,0,0,0,4.93L26.434,45.734a3.434,3.434,0,0,0,2.483,1.014A3.582,3.582,0,0,0,31.4,45.734L45.245,31.888c.07-.07.175-.14.245-.21a16.516,16.516,0,0,0,4.2-18.636A21.544,21.544,0,0,0,29.685,0,30.426,30.426,0,0,0,8.811,7.9,27.33,27.33,0,0,0,0,28.287,29.725,29.725,0,0,0,29.685,57.972,27.814,27.814,0,0,0,48.951,50.28,10.416,10.416,0,0,1,43.531,45.7Zm-14.65-7.378-9.58-9.58,9.58-9.58,9.58,9.58Zm23.5-3.5a5.839,5.839,0,1,0,5.839,5.839A5.85,5.85,0,0,0,52.378,34.825Z"
          fill="#fff"/>
</svg>
