<svg xmlns="http://www.w3.org/2000/svg" xmlns:xlink="http://www.w3.org/1999/xlink" width="29.62" height="29.617" viewBox="0 0 29.62 29.617"><defs><style>.a{fill:url(#a);}.b{fill:#fff;}</style><linearGradient id="a" y1="0.5" x2="1" y2="0.5" gradientUnits="objectBoundingBox"><stop offset="0" stop-color="#a10f70"/><stop offset="1" stop-color="#dc073d"/></linearGradient></defs><g transform="translate(0 0)"><path class="a" d="M90.436-53.141a14.81,14.81,0,0,1-14.81,14.808,14.809,14.809,0,0,1-14.81-14.808,14.809,14.809,0,0,1,14.81-14.81A14.81,14.81,0,0,1,90.436-53.141Z" transform="translate(-60.816 67.951)"/><path class="b" d="M83.027-46.231l-3.864-5.541a6.523,6.523,0,0,0,2.171-1.886,5.712,5.712,0,0,0,.953-3.405,4.763,4.763,0,0,0-.59-2.481,4.829,4.829,0,0,0-1.576-1.6,5.691,5.691,0,0,0-2.087-.8,16.18,16.18,0,0,0-2.558-.181h-7a.3.3,0,0,0-.3.3v15.817a.3.3,0,0,0,.3.3h4.354a.3.3,0,0,0,.3-.3V-50.55l1.105-.005,0,0,1.463-.006c.148,0,.169.087.054.175l-.95.717L77.29-45.8a.3.3,0,0,0,.241.119H82.85a.306.306,0,0,0,.3-.3A.312.312,0,0,0,83.027-46.231Zm-5.989-9.225a1.672,1.672,0,0,1-.538.667,1.956,1.956,0,0,1-.936.408,8.9,8.9,0,0,1-1.488.1h-.942v-3.113l-1.045-.791c-.107-.078-.081-.143.05-.143l2.147,0c.529,0,.917.012,1.214.043a2.681,2.681,0,0,1,.813.2A1.341,1.341,0,0,1,77-57.5a2.059,2.059,0,0,1,.212.979A2.7,2.7,0,0,1,77.038-55.456Z" transform="translate(-60.247 68.401)"/></g></svg>