<svg xmlns="http://www.w3.org/2000/svg" width="109.98" height="17.637" viewBox="0 0 109.98 17.637"><defs><style>.a{fill:#2b2d68;}</style></defs><path class="a" d="M8.379,2.637H6.67V-14.219H8.379ZM26.406-11.846H22.051V0h-2.93V-11.846h-4.3v-2.373H26.406ZM33.584-1.074A3.539,3.539,0,0,1,30.693.2,3.338,3.338,0,0,1,28.1-.781a4.169,4.169,0,0,1-.913-2.861v-6.924H30.01v6.834q0,1.652,1.5,1.652a2.038,2.038,0,0,0,1.973-1v-7.489h2.832V0H33.662Zm4.424-4.287A6.368,6.368,0,0,1,39.116-9.3a3.6,3.6,0,0,1,3.032-1.465A3.236,3.236,0,0,1,44.7-9.609V-15h2.832V0H44.98l-.137-1.123A3.321,3.321,0,0,1,42.129.2a3.587,3.587,0,0,1-2.993-1.47A6.573,6.573,0,0,1,38.008-5.361Zm2.822.21a4.171,4.171,0,0,0,.518,2.279,1.686,1.686,0,0,0,1.5.792A1.888,1.888,0,0,0,44.7-3.185V-7.362a1.861,1.861,0,0,0-1.826-1.105Q40.83-8.467,40.83-5.151ZM55.84,0a3.134,3.134,0,0,1-.283-.947A3.415,3.415,0,0,1,52.891.2a3.752,3.752,0,0,1-2.573-.9A2.89,2.89,0,0,1,49.3-2.969a2.986,2.986,0,0,1,1.245-2.578,6.144,6.144,0,0,1,3.6-.908h1.3v-.605a1.741,1.741,0,0,0-.376-1.172,1.479,1.479,0,0,0-1.187-.439,1.682,1.682,0,0,0-1.118.342,1.161,1.161,0,0,0-.405.938H49.531a2.835,2.835,0,0,1,.566-1.7,3.744,3.744,0,0,1,1.6-1.226,5.837,5.837,0,0,1,2.324-.444,4.611,4.611,0,0,1,3.1.981,3.433,3.433,0,0,1,1.147,2.759v4.58a5.052,5.052,0,0,0,.42,2.275V0ZM53.506-1.963a2.431,2.431,0,0,0,1.152-.278,1.828,1.828,0,0,0,.781-.747V-4.8H54.385q-2.119,0-2.256,1.465l-.01.166a1.13,1.13,0,0,0,.371.869A1.441,1.441,0,0,0,53.506-1.963ZM54.58-15h3.076l-2.705,3.027H52.656ZM66.162-2.92a.909.909,0,0,0-.513-.815A5.824,5.824,0,0,0,64-4.268q-3.77-.791-3.77-3.2A2.9,2.9,0,0,1,61.4-9.819a4.708,4.708,0,0,1,3.052-.942,5.067,5.067,0,0,1,3.218.947,2.985,2.985,0,0,1,1.206,2.461H66.055a1.366,1.366,0,0,0-.391-1,1.653,1.653,0,0,0-1.221-.4,1.689,1.689,0,0,0-1.1.322,1.017,1.017,0,0,0-.391.82.87.87,0,0,0,.444.757,4.571,4.571,0,0,0,1.5.5,12.244,12.244,0,0,1,1.777.474,2.92,2.92,0,0,1,2.236,2.842A2.756,2.756,0,0,1,67.666-.7a5.35,5.35,0,0,1-3.2.894A5.588,5.588,0,0,1,62.1-.278a3.957,3.957,0,0,1-1.616-1.3A3.018,3.018,0,0,1,59.9-3.359h2.676a1.473,1.473,0,0,0,.557,1.152,2.208,2.208,0,0,0,1.387.4,2.044,2.044,0,0,0,1.226-.308A.957.957,0,0,0,66.162-2.92ZM80.244-5.186a6.4,6.4,0,0,1-1.084,3.96A3.591,3.591,0,0,1,76.133.2a3.3,3.3,0,0,1-2.744-1.318L73.262,0H70.723V-15h2.822v5.381a3.214,3.214,0,0,1,2.568-1.143,3.62,3.62,0,0,1,3.032,1.421,6.408,6.408,0,0,1,1.1,4Zm-2.822-.205a4.2,4.2,0,0,0-.508-2.339A1.717,1.717,0,0,0,75.4-8.467a1.862,1.862,0,0,0-1.855,1.1v4.17A1.887,1.887,0,0,0,75.42-2.08a1.742,1.742,0,0,0,1.8-1.348A6.952,6.952,0,0,0,77.422-5.391ZM88.105,0a3.134,3.134,0,0,1-.283-.947A3.415,3.415,0,0,1,85.156.2a3.752,3.752,0,0,1-2.573-.9,2.89,2.89,0,0,1-1.021-2.266,2.986,2.986,0,0,1,1.245-2.578,6.144,6.144,0,0,1,3.6-.908h1.3v-.605a1.741,1.741,0,0,0-.376-1.172,1.479,1.479,0,0,0-1.187-.439,1.682,1.682,0,0,0-1.118.342,1.161,1.161,0,0,0-.405.938H81.8a2.835,2.835,0,0,1,.566-1.7,3.744,3.744,0,0,1,1.6-1.226,5.837,5.837,0,0,1,2.324-.444,4.611,4.611,0,0,1,3.1.981,3.433,3.433,0,0,1,1.147,2.759v4.58a5.052,5.052,0,0,0,.42,2.275V0ZM85.771-1.963a2.431,2.431,0,0,0,1.152-.278,1.828,1.828,0,0,0,.781-.747V-4.8H86.65q-2.119,0-2.256,1.465l-.01.166a1.13,1.13,0,0,0,.371.869A1.441,1.441,0,0,0,85.771-1.963ZM86.846-15h3.076l-2.705,3.027H84.922Zm9.1,12.725h5.166V0h-8.77V-1.719l4.971-6.572H92.49v-2.275h8.467V-8.9ZM105.859,0h-2.832V-10.566h2.832Zm-3-13.3a1.39,1.39,0,0,1,.425-1.045,1.6,1.6,0,0,1,1.157-.41,1.6,1.6,0,0,1,1.152.41,1.382,1.382,0,0,1,.43,1.045,1.386,1.386,0,0,1-.435,1.055,1.6,1.6,0,0,1-1.147.41,1.6,1.6,0,0,1-1.147-.41A1.386,1.386,0,0,1,102.861-13.3ZM113.906-2.92a.909.909,0,0,0-.513-.815,5.824,5.824,0,0,0-1.646-.532q-3.77-.791-3.77-3.2a2.9,2.9,0,0,1,1.167-2.349,4.708,4.708,0,0,1,3.052-.942,5.067,5.067,0,0,1,3.218.947,2.985,2.985,0,0,1,1.206,2.461H113.8a1.366,1.366,0,0,0-.391-1,1.653,1.653,0,0,0-1.221-.4,1.689,1.689,0,0,0-1.1.322,1.017,1.017,0,0,0-.391.82.87.87,0,0,0,.444.757,4.571,4.571,0,0,0,1.5.5,12.244,12.244,0,0,1,1.777.474,2.92,2.92,0,0,1,2.236,2.842A2.756,2.756,0,0,1,115.41-.7a5.35,5.35,0,0,1-3.2.894,5.588,5.588,0,0,1-2.358-.474,3.957,3.957,0,0,1-1.616-1.3,3.018,3.018,0,0,1-.586-1.782h2.676a1.473,1.473,0,0,0,.557,1.152,2.208,2.208,0,0,0,1.387.4,2.044,2.044,0,0,0,1.226-.308A.957.957,0,0,0,113.906-2.92Z" transform="translate(-6.67 15)"/></svg>