<svg xmlns="http://www.w3.org/2000/svg" xmlns:xlink="http://www.w3.org/1999/xlink" width="236.282" height="48.663" viewBox="0 0 236.282 48.663"><defs><style>.a{fill:#fff;}.b{fill:url(#a);}</style><linearGradient id="a" y1="0.5" x2="1" y2="0.5" gradientUnits="objectBoundingBox"><stop offset="0" stop-color="#a10f70"/><stop offset="1" stop-color="#dc073d"/></linearGradient></defs><g transform="translate(88.543 10.339)"><path class="a" d="M129.077-57.934c-1.761-1.28-4.556-1.929-8.316-1.929a25.878,25.878,0,0,0-4.537.4c-1.5.271-2.563.489-3.246.685a.5.5,0,0,0-.352.474v5.151a.5.5,0,0,0,.5.5h.566a.543.543,0,0,0,.2-.041,20.5,20.5,0,0,1,3-1.071,10.243,10.243,0,0,1,2.627-.405,8.345,8.345,0,0,1,3.671.612,2,2,0,0,1,1.039,1.986l-.046,1.405a25.977,25.977,0,0,0-5.37-.609,9.984,9.984,0,0,0-4.011.637,7.06,7.06,0,0,0-2.938,2.5,7.425,7.425,0,0,0-1.028,4.112,7.052,7.052,0,0,0,2.011,5.131,6.861,6.861,0,0,0,5.059,2.05A10.2,10.2,0,0,0,120.4-36.6a8.226,8.226,0,0,0,3.8-2.924v2.108a.494.494,0,0,0,.49.494h6.618a.5.5,0,0,0,.494-.494v-14.52A6.975,6.975,0,0,0,129.077-57.934ZM124.2-43.21a5.734,5.734,0,0,1-2.942,1.251c-2.441,0-2.7-1.49-2.7-2.131,0-.455.191-2.728,3.912-2.728a11.287,11.287,0,0,1,1.735.143Z" transform="translate(-110.838 63.84)"/><path class="a" d="M135.913-36.36c-4.907,0-7.845-1.864-8.967-2.839a10,10,0,0,1-2.629-3.668,13.193,13.193,0,0,1-.933-5.146,13.226,13.226,0,0,1,1.014-5.411,10.386,10.386,0,0,1,2.756-3.7,10.893,10.893,0,0,1,3.933-2.073,16.43,16.43,0,0,1,8.286-.225,16.363,16.363,0,0,1,3.661,1.34.491.491,0,0,1,.276.441v5.7a.493.493,0,0,1-.5.49h-.855a.513.513,0,0,1-.343-.131,12.112,12.112,0,0,0-.942-.8,8.642,8.642,0,0,0-1.2-.8,7.721,7.721,0,0,0-1.538-.627,6.371,6.371,0,0,0-1.887-.262,4.219,4.219,0,0,0-3.558,1.6,7.076,7.076,0,0,0-1.289,4.466,6.284,6.284,0,0,0,1.359,4.446,4.684,4.684,0,0,0,3.6,1.428c5.763,0,10.845-5.67,10.845-5.67l.016,5.5S142.273-36.36,135.913-36.36Z" transform="translate(-101.176 63.85)"/><path class="a" d="M172.782-59.9c-3.613,0-6.468,1.069-8.479,3.17s-3.048,5.013-3.048,8.673a11.986,11.986,0,0,0,3.048,8.634c2.011,2.113,4.869,3.184,8.479,3.184,3.634,0,6.494-1.071,8.5-3.184s3.006-5.009,3.006-8.634-1.016-6.553-3.025-8.659S176.393-59.9,172.782-59.9Zm3.411,14.94a5.445,5.445,0,0,1-.814,1.8,2.5,2.5,0,0,1-1.108.858,3.891,3.891,0,0,1-3.007.005,2.662,2.662,0,0,1-1.124-.924,5.71,5.71,0,0,1-.761-1.765,12.34,12.34,0,0,1-.306-3.037,12.652,12.652,0,0,1,.322-3.119,5.409,5.409,0,0,1,.823-1.853,2.658,2.658,0,0,1,1.124-.9,3.882,3.882,0,0,1,1.441-.244,3.845,3.845,0,0,1,1.489.269,2.738,2.738,0,0,1,1.124.947,5.327,5.327,0,0,1,.788,1.859,12.868,12.868,0,0,1,.3,3.039A12.53,12.53,0,0,1,176.193-44.956Z" transform="translate(-72.012 63.815)"/><path class="a" d="M203.178-50.65v-.005h5.907a.5.5,0,0,0,.494-.494v-4.9a.494.494,0,0,0-.494-.494l-5.907.264v-5.309a.492.492,0,0,0-.482-.489l.005-.009h-6.656a.5.5,0,0,0-.494.5v1.368l-.014.005v4.278c-3.08,0-6.013-1.591-9.759-1.921a11.856,11.856,0,0,0-5.142.322,10.366,10.366,0,0,0-3.3,1.625,7.483,7.483,0,0,0-2.073,2.409,6.424,6.424,0,0,0-.706,2.924,6.608,6.608,0,0,0,1.382,4.333,8.219,8.219,0,0,0,4,2.464,18.079,18.079,0,0,0,2.112.513c.756.145,1.391.276,1.9.407a5.313,5.313,0,0,1,1.736.632.827.827,0,0,1,.3.729c0,.262-.078.651-.77.931a8.081,8.081,0,0,1-4.7.1,12.365,12.365,0,0,1-2.03-.726,9.067,9.067,0,0,1-1.6-.862c-.4-.283-.758-.547-1.076-.786a.481.481,0,0,0-.3-.1h-.547a.5.5,0,0,0-.5.5v5.624a.5.5,0,0,0,.273.446,18.15,18.15,0,0,0,3.57,1.237,19.45,19.45,0,0,0,4.576.522,16.207,16.207,0,0,0,4.574-.57,10.677,10.677,0,0,0,3.365-1.636,6.866,6.866,0,0,0,2.152-2.46,6.654,6.654,0,0,0,.759-3.091,6.274,6.274,0,0,0-1.3-4.123,7.8,7.8,0,0,0-3.714-2.331,16.054,16.054,0,0,0-2.206-.556c-.729-.136-1.382-.269-1.938-.4a5.336,5.336,0,0,1-1.94-.715.926.926,0,0,1-.322-.763c0-.221.06-.581.719-.873,2.432-1.066,6.215,1.457,12.506,1.457v8.252c0,2.662.68,4.631,2.016,5.843,1.324,1.193,3.429,1.8,6.252,1.8a24.343,24.343,0,0,0,3.052-.166,18.951,18.951,0,0,0,2.356-.464.487.487,0,0,0,.365-.476v-4.694a.494.494,0,0,0-.494-.494h-.57a.525.525,0,0,0-.25.065,4.356,4.356,0,0,1-1.083.363,5.11,5.11,0,0,1-1.267.219,3.531,3.531,0,0,1-1.715-.322,1.621,1.621,0,0,1-.736-.821,3.489,3.489,0,0,1-.266-1.315c-.009-.554-.019-1.207-.019-1.949Z" transform="translate(-61.84 62.127)"/><path class="a" d="M157.616-36.063a.484.484,0,0,1,.184.381.5.5,0,0,1-.5.494h-7.93a.5.5,0,0,1-.423-.234l-5.386-9.373-.5.469v8.643a.5.5,0,0,1-.5.494h-6.652a.491.491,0,0,1-.492-.494V-61.611a.493.493,0,0,1,.492-.5h6.652a.5.5,0,0,1,.5.5v11.27l5.308-7.523a.5.5,0,0,1,.428-.25h7.85a.506.506,0,0,1,.444.274.509.509,0,0,1-.05.519l-7.827,8.647Z" transform="translate(-91.905 62.11)"/></g><path class="a" d="M121.595-36.07l-6.312-9.052a10.645,10.645,0,0,0,3.547-3.085,9.341,9.341,0,0,0,1.556-5.567,7.826,7.826,0,0,0-.961-4.053,7.9,7.9,0,0,0-2.579-2.618,9.323,9.323,0,0,0-3.409-1.3,26.76,26.76,0,0,0-4.181-.294H97.819a.492.492,0,0,0-.494.5V-35.7a.489.489,0,0,0,.494.492h7.116a.5.5,0,0,0,.5-.492v-7.426l1.807-.011.005.007,4.977,7.765a.491.491,0,0,0,.4.193h8.691a.5.5,0,0,0,.5-.492A.508.508,0,0,0,121.595-36.07ZM111.81-51.146a2.709,2.709,0,0,1-.88,1.09,3.2,3.2,0,0,1-1.529.667,14.654,14.654,0,0,1-2.432.168H105.43l0-6.618,1.885,0a19.336,19.336,0,0,1,1.982.071,4.333,4.333,0,0,1,1.331.319,2.2,2.2,0,0,1,1.12.968,3.346,3.346,0,0,1,.35,1.6A4.407,4.407,0,0,1,111.81-51.146Z" transform="translate(-32.701 72.501)"/><g transform="translate(0 0)"><path class="b" d="M109.483-43.618a24.334,24.334,0,0,1-24.333,24.33,24.332,24.332,0,0,1-24.333-24.33A24.332,24.332,0,0,1,85.149-67.951,24.334,24.334,0,0,1,109.483-43.618Z" transform="translate(-60.816 67.951)"/><path class="a" d="M92.577-36.011l-6.349-9.1a10.718,10.718,0,0,0,3.567-3.1,9.385,9.385,0,0,0,1.567-5.6,7.826,7.826,0,0,0-.97-4.077A7.934,7.934,0,0,0,87.8-60.52a9.351,9.351,0,0,0-3.429-1.308,26.584,26.584,0,0,0-4.2-.3h-11.5a.494.494,0,0,0-.5.5v25.988a.494.494,0,0,0,.5.494h7.155a.5.5,0,0,0,.5-.494v-7.468l1.816-.009.005.007,2.4-.011c.243,0,.278.143.089.287l-1.561,1.179L83.152-35.3a.488.488,0,0,0,.4.195h8.739a.5.5,0,0,0,.5-.5A.513.513,0,0,0,92.577-36.011Zm-9.84-15.157a2.747,2.747,0,0,1-.883,1.1,3.214,3.214,0,0,1-1.538.671,14.624,14.624,0,0,1-2.444.168H76.324v-5.116l-1.717-1.3c-.175-.127-.133-.235.081-.235l3.528-.005c.869,0,1.506.019,1.995.071a4.406,4.406,0,0,1,1.336.322,2.2,2.2,0,0,1,1.129.972,3.384,3.384,0,0,1,.349,1.609A4.438,4.438,0,0,1,82.738-51.168Z" transform="translate(-55.149 72.438)"/></g><path class="a" d="M167.957-53.89a6.76,6.76,0,0,0-5.468-2.282,8.213,8.213,0,0,0-3.723.85,15.917,15.917,0,0,0-2.6,1.673v-8.008a.456.456,0,0,0-.455-.455h-6.817a.455.455,0,0,0-.455.455v25.971a.454.454,0,0,0,.455.453h6.817a.456.456,0,0,0,.455-.453l-.014-12.789a11.364,11.364,0,0,1,1.544-.837,4.291,4.291,0,0,1,3.119-.007,1.727,1.727,0,0,1,.8.846,5.73,5.73,0,0,1,.357,1.779c.069.866.1,1.738.1,2.606v8.4a.454.454,0,0,0,.453.453h6.856a.453.453,0,0,0,.453-.453V-47.477A9.763,9.763,0,0,0,167.957-53.89Z" transform="translate(6.661 72.448)"/></svg>