<?xml version="1.0" encoding="UTF-8" standalone="no"?>
<svg
   xmlns:dc="http://purl.org/dc/elements/1.1/"
   xmlns:cc="http://creativecommons.org/ns#"
   xmlns:rdf="http://www.w3.org/1999/02/22-rdf-syntax-ns#"
   xmlns:svg="http://www.w3.org/2000/svg"
   xmlns="http://www.w3.org/2000/svg"
   xmlns:sodipodi="http://sodipodi.sourceforge.net/DTD/sodipodi-0.dtd"
   xmlns:inkscape="http://www.inkscape.org/namespaces/inkscape"
   width="288.65216"
   height="34.658001"
   viewBox="0 0 288.65216 34.658"
   version="1.1"
   id="svg33"
   sodipodi:docname="Rackhost-logo-head.svg"
   inkscape:version="0.92.4 (5da689c313, 2019-01-14)">
  <metadata
     id="metadata37">
    <rdf:RDF>
      <cc:Work
         rdf:about="">
        <dc:format>image/svg+xml</dc:format>
        <dc:type
           rdf:resource="http://purl.org/dc/dcmitype/StillImage" />
        <dc:title></dc:title>
      </cc:Work>
    </rdf:RDF>
  </metadata>
  <sodipodi:namedview
     pagecolor="#ffffff"
     bordercolor="#666666"
     borderopacity="1"
     objecttolerance="10"
     gridtolerance="10"
     guidetolerance="10"
     inkscape:pageopacity="0"
     inkscape:pageshadow="2"
     inkscape:window-width="1539"
     inkscape:window-height="806"
     id="namedview35"
     showgrid="false"
     fit-margin-top="0"
     fit-margin-left="0"
     fit-margin-right="0"
     fit-margin-bottom="0"
     inkscape:zoom="1.5569104"
     inkscape:cx="175.49084"
     inkscape:cy="-3.0306338"
     inkscape:window-x="0"
     inkscape:window-y="0"
     inkscape:window-maximized="0"
     inkscape:current-layer="svg33" />
  <defs
     id="defs9">
    <style
       id="style2">.a{fill:#2e1d5c;}.b{fill:url(#a);}.c{fill:#fff;}</style>
    <linearGradient
       id="a"
       y1="-50.623461"
       x2="95.474245"
       y2="-50.623461"
       gradientUnits="userSpaceOnUse"
       gradientTransform="scale(1.0000289,0.99997115)"
       x1="60.815245">
      <stop
         offset="0"
         stop-color="#a10f70"
         id="stop4" />
      <stop
         offset="1"
         stop-color="#dc073d"
         id="stop6" />
    </linearGradient>
    <style
       id="style39">.a{fill:#2b2d68;}</style>
  </defs>
  <g
     id="g31"
     transform="translate(-9.9997114e-4)">
    <g
       transform="translate(63.061,7.364)"
       id="g21">
      <path
         class="a"
         d="m 123.828,-58.489 c -1.254,-0.911 -3.245,-1.374 -5.923,-1.374 a 18.43,18.43 0 0 0 -3.231,0.284 c -1.072,0.193 -1.825,0.348 -2.312,0.488 a 0.354,0.354 0 0 0 -0.251,0.338 v 3.669 a 0.354,0.354 0 0 0 0.353,0.356 h 0.4 a 0.387,0.387 0 0 0 0.145,-0.029 14.6,14.6 0 0 1 2.139,-0.763 7.3,7.3 0 0 1 1.871,-0.289 5.943,5.943 0 0 1 2.615,0.436 1.423,1.423 0 0 1 0.74,1.414 l -0.033,1 a 18.5,18.5 0 0 0 -3.825,-0.434 7.11,7.11 0 0 0 -2.857,0.454 5.028,5.028 0 0 0 -2.093,1.778 5.288,5.288 0 0 0 -0.732,2.929 5.023,5.023 0 0 0 1.432,3.655 4.886,4.886 0 0 0 3.6,1.46 7.265,7.265 0 0 0 1.775,-0.175 5.859,5.859 0 0 0 2.705,-2.083 v 1.5 a 0.352,0.352 0 0 0 0.349,0.352 h 4.714 a 0.353,0.353 0 0 0 0.352,-0.352 v -10.34 a 4.968,4.968 0 0 0 -1.933,-4.274 z M 120.354,-48 a 4.084,4.084 0 0 1 -2.1,0.891 c -1.738,0 -1.926,-1.061 -1.926,-1.518 0,-0.324 0.136,-1.943 2.786,-1.943 a 8.039,8.039 0 0 1 1.235,0.1 z"
         transform="translate(-110.838,62.696)"
         id="path11"
         inkscape:connector-curvature="0"
         style="fill:#2e1d5c" />
      <path
         class="a"
         d="m 132.307,-43.121 a 9.746,9.746 0 0 1 -6.387,-2.022 7.124,7.124 0 0 1 -1.872,-2.612 9.4,9.4 0 0 1 -0.664,-3.665 9.42,9.42 0 0 1 0.722,-3.854 7.4,7.4 0 0 1 1.963,-2.639 7.758,7.758 0 0 1 2.8,-1.476 11.7,11.7 0 0 1 5.9,-0.16 11.654,11.654 0 0 1 2.607,0.954 0.349,0.349 0 0 1 0.2,0.314 v 4.062 a 0.351,0.351 0 0 1 -0.356,0.349 h -0.609 a 0.365,0.365 0 0 1 -0.245,-0.093 8.626,8.626 0 0 0 -0.671,-0.572 6.155,6.155 0 0 0 -0.852,-0.57 5.5,5.5 0 0 0 -1.1,-0.446 4.538,4.538 0 0 0 -1.344,-0.187 3,3 0 0 0 -2.529,1.138 5.039,5.039 0 0 0 -0.918,3.181 4.476,4.476 0 0 0 0.968,3.167 3.336,3.336 0 0 0 2.563,1.017 c 4.1,0 7.724,-4.038 7.724,-4.038 l 0.011,3.916 c 0,0 -3.381,4.236 -7.911,4.236 z"
         transform="translate(-107.568,62.699)"
         id="path13"
         inkscape:connector-curvature="0"
         style="fill:#2e1d5c" />
      <path
         class="a"
         d="m 169.465,-59.9 a 8,8 0 0 0 -6.039,2.258 8.555,8.555 0 0 0 -2.171,6.177 8.536,8.536 0 0 0 2.171,6.15 7.977,7.977 0 0 0 6.039,2.268 7.99,7.99 0 0 0 6.056,-2.268 8.6,8.6 0 0 0 2.141,-6.15 8.6,8.6 0 0 0 -2.154,-6.167 8,8 0 0 0 -6.043,-2.268 z m 2.429,10.64 a 3.878,3.878 0 0 1 -0.58,1.283 1.783,1.783 0 0 1 -0.789,0.611 2.771,2.771 0 0 1 -2.142,0 1.9,1.9 0 0 1 -0.8,-0.658 4.067,4.067 0 0 1 -0.542,-1.257 8.788,8.788 0 0 1 -0.218,-2.163 9.011,9.011 0 0 1 0.229,-2.221 3.852,3.852 0 0 1 0.586,-1.32 1.893,1.893 0 0 1 0.8,-0.639 2.765,2.765 0 0 1 1.026,-0.174 2.738,2.738 0 0 1 1.06,0.192 1.95,1.95 0 0 1 0.8,0.674 3.794,3.794 0 0 1 0.561,1.324 9.165,9.165 0 0 1 0.214,2.165 8.924,8.924 0 0 1 -0.205,2.187 z"
         transform="translate(-97.696,62.687)"
         id="path15"
         inkscape:connector-curvature="0"
         style="fill:#2e1d5c" />
      <path
         class="a"
         d="m 194.915,-53.942 v 0 h 4.207 a 0.354,0.354 0 0 0 0.352,-0.352 v -3.492 a 0.352,0.352 0 0 0 -0.352,-0.352 l -4.207,0.188 v -3.781 a 0.35,0.35 0 0 0 -0.343,-0.348 v -0.006 h -4.74 a 0.353,0.353 0 0 0 -0.352,0.354 v 0.974 h -0.01 v 3.047 c -2.194,0 -4.283,-1.133 -6.95,-1.368 a 8.444,8.444 0 0 0 -3.662,0.229 7.383,7.383 0 0 0 -2.354,1.157 5.329,5.329 0 0 0 -1.476,1.716 4.575,4.575 0 0 0 -0.5,2.083 4.706,4.706 0 0 0 0.985,3.086 5.854,5.854 0 0 0 2.848,1.755 12.876,12.876 0 0 0 1.5,0.366 c 0.538,0.1 0.991,0.2 1.353,0.29 a 3.783,3.783 0 0 1 1.237,0.45 0.589,0.589 0 0 1 0.212,0.519 c 0,0.187 -0.055,0.464 -0.548,0.663 a 5.755,5.755 0 0 1 -3.346,0.071 8.806,8.806 0 0 1 -1.446,-0.517 6.457,6.457 0 0 1 -1.141,-0.614 c -0.285,-0.2 -0.54,-0.39 -0.767,-0.56 a 0.343,0.343 0 0 0 -0.211,-0.074 h -0.39 a 0.356,0.356 0 0 0 -0.354,0.356 v 4.002 a 0.358,0.358 0 0 0 0.194,0.318 12.927,12.927 0 0 0 2.543,0.881 13.853,13.853 0 0 0 3.259,0.372 11.543,11.543 0 0 0 3.258,-0.406 7.6,7.6 0 0 0 2.4,-1.165 4.89,4.89 0 0 0 1.533,-1.752 4.739,4.739 0 0 0 0.541,-2.2 4.468,4.468 0 0 0 -0.925,-2.936 5.559,5.559 0 0 0 -2.645,-1.66 11.434,11.434 0 0 0 -1.571,-0.4 c -0.519,-0.1 -0.985,-0.192 -1.38,-0.286 a 3.8,3.8 0 0 1 -1.382,-0.509 0.659,0.659 0 0 1 -0.229,-0.543 c 0,-0.158 0.043,-0.414 0.512,-0.622 1.732,-0.759 4.426,1.038 8.907,1.038 v 5.877 a 5.4,5.4 0 0 0 1.436,4.161 6.546,6.546 0 0 0 4.453,1.281 17.338,17.338 0 0 0 2.173,-0.119 13.5,13.5 0 0 0 1.678,-0.33 0.347,0.347 0 0 0 0.26,-0.339 v -3.343 a 0.352,0.352 0 0 0 -0.352,-0.352 h -0.406 a 0.374,0.374 0 0 0 -0.178,0.047 3.1,3.1 0 0 1 -0.772,0.258 3.639,3.639 0 0 1 -0.9,0.156 2.515,2.515 0 0 1 -1.222,-0.229 1.154,1.154 0 0 1 -0.524,-0.585 2.485,2.485 0 0 1 -0.189,-0.937 c -0.006,-0.395 -0.014,-0.86 -0.014,-1.388 z"
         transform="translate(-94.253,62.116)"
         id="path17"
         inkscape:connector-curvature="0"
         style="fill:#2e1d5c" />
      <path
         class="a"
         d="m 151.229,-43.559 a 0.344,0.344 0 0 1 0.131,0.271 0.356,0.356 0 0 1 -0.354,0.352 h -5.648 a 0.356,0.356 0 0 1 -0.3,-0.166 l -3.836,-6.675 -0.355,0.334 v 6.156 a 0.354,0.354 0 0 1 -0.353,0.352 h -4.738 a 0.35,0.35 0 0 1 -0.35,-0.352 v -18.467 a 0.351,0.351 0 0 1 0.35,-0.356 h 4.738 a 0.355,0.355 0 0 1 0.353,0.356 v 8.027 l 3.781,-5.358 a 0.355,0.355 0 0 1 0.305,-0.178 h 5.591 a 0.36,0.36 0 0 1 0.316,0.2 0.363,0.363 0 0 1 -0.035,0.369 l -5.575,6.158 z"
         transform="translate(-104.429,62.11)"
         id="path19"
         inkscape:connector-curvature="0"
         style="fill:#2e1d5c" />
    </g>
    <path
       class="a"
       d="m 114.61,-43.545 -4.5,-6.447 a 7.581,7.581 0 0 0 2.526,-2.2 6.653,6.653 0 0 0 1.108,-3.965 5.573,5.573 0 0 0 -0.685,-2.887 5.63,5.63 0 0 0 -1.837,-1.865 6.64,6.64 0 0 0 -2.428,-0.928 19.059,19.059 0 0 0 -2.978,-0.209 h -8.139 a 0.351,0.351 0 0 0 -0.352,0.353 v 18.408 a 0.348,0.348 0 0 0 0.352,0.35 h 5.068 a 0.354,0.354 0 0 0 0.353,-0.35 v -5.285 l 1.287,-0.008 v 0.005 l 3.545,5.531 a 0.35,0.35 0 0 0 0.282,0.137 h 6.19 a 0.356,0.356 0 0 0 0.353,-0.35 0.362,0.362 0 0 0 -0.145,-0.29 z m -6.969,-10.737 a 1.929,1.929 0 0 1 -0.627,0.777 2.281,2.281 0 0 1 -1.089,0.475 10.437,10.437 0 0 1 -1.732,0.12 h -1.1 v -4.714 h 1.343 a 13.772,13.772 0 0 1 1.412,0.05 3.086,3.086 0 0 1 0.948,0.227 1.566,1.566 0 0 1 0.8,0.69 2.383,2.383 0 0 1 0.25,1.14 3.139,3.139 0 0 1 -0.205,1.235 z"
       transform="translate(-51.299,69.491)"
       id="path23"
       inkscape:connector-curvature="0"
       style="fill:#2e1d5c" />
    <path
       class="b"
       d="m 95.477,-50.621 a 17.331,17.331 0 0 1 -17.33,17.328 17.33,17.33 0 0 1 -17.33,-17.328 17.329,17.329 0 0 1 17.33,-17.33 17.331,17.331 0 0 1 17.33,17.33 z"
       transform="translate(-60.816,67.951)"
       id="path25"
       inkscape:connector-curvature="0"
       style="fill:url(#a)" />
    <path
       class="c"
       d="m 85.555,-43.526 -4.522,-6.484 a 7.634,7.634 0 0 0 2.54,-2.207 6.684,6.684 0 0 0 1.116,-3.983 5.574,5.574 0 0 0 -0.691,-2.9 5.651,5.651 0 0 0 -1.844,-1.876 6.66,6.66 0 0 0 -2.442,-0.932 18.934,18.934 0 0 0 -2.993,-0.212 h -8.19 a 0.352,0.352 0 0 0 -0.354,0.354 v 18.509 a 0.352,0.352 0 0 0 0.354,0.352 h 5.1 a 0.354,0.354 0 0 0 0.354,-0.352 v -5.323 l 1.293,-0.006 v 0.005 l 1.712,-0.008 c 0.173,0 0.2,0.1 0.063,0.2 l -1.112,0.84 2.9,4.523 a 0.348,0.348 0 0 0 0.282,0.139 h 6.224 a 0.358,0.358 0 0 0 0.356,-0.353 0.366,0.366 0 0 0 -0.146,-0.286 z m -7.008,-10.8 a 1.957,1.957 0 0 1 -0.629,0.78 2.289,2.289 0 0 1 -1.1,0.478 10.415,10.415 0 0 1 -1.741,0.12 h -1.1 v -3.643 l -1.223,-0.925 c -0.125,-0.091 -0.095,-0.168 0.058,-0.168 h 2.513 c 0.619,0 1.073,0.014 1.421,0.05 a 3.138,3.138 0 0 1 0.952,0.229 1.569,1.569 0 0 1 0.8,0.692 2.41,2.41 0 0 1 0.248,1.146 3.161,3.161 0 0 1 -0.199,1.246 z"
       transform="translate(-58.898,69.47)"
       id="path27"
       inkscape:connector-curvature="0"
       style="fill:#ffffff" />
    <path
       class="a"
       d="m 162.339,-56.256 a 4.815,4.815 0 0 0 -3.894,-1.625 5.849,5.849 0 0 0 -2.651,0.605 11.335,11.335 0 0 0 -1.853,1.191 v -5.7 a 0.325,0.325 0 0 0 -0.324,-0.324 h -4.855 a 0.324,0.324 0 0 0 -0.324,0.324 v 18.5 a 0.324,0.324 0 0 0 0.324,0.323 h 4.855 a 0.324,0.324 0 0 0 0.324,-0.323 l -0.01,-9.108 a 8.093,8.093 0 0 1 1.1,-0.6 3.056,3.056 0 0 1 2.22,-0.007 1.23,1.23 0 0 1 0.569,0.6 4.081,4.081 0 0 1 0.255,1.267 c 0.049,0.616 0.074,1.238 0.074,1.856 v 5.984 a 0.323,0.323 0 0 0 0.323,0.323 h 4.883 a 0.323,0.323 0 0 0 0.323,-0.323 v -8.4 a 6.953,6.953 0 0 0 -1.339,-4.563 z"
       transform="translate(-37.975,69.473)"
       id="path29"
       inkscape:connector-curvature="0"
       style="fill:#2e1d5c" />
  </g>
  <path
     id="path43"
     d="m 180.377,28.268001 h -1.709 V 11.412 h 1.709 z m 18.027,-14.483 h -4.355 v 11.846 h -2.93 v -11.846 h -4.3 V 11.412 h 11.585 z m 7.178,10.772 a 3.539,3.539 0 0 1 -2.891,1.274 3.338,3.338 0 0 1 -2.593,-0.981 4.169,4.169 0 0 1 -0.913,-2.861 v -6.924 h 2.823 v 6.834 q 0,1.652 1.5,1.652 a 2.038,2.038 0 0 0 1.973,-1 v -7.489 h 2.832 v 10.569 h -2.653 z m 4.424,-4.287 a 6.368,6.368 0 0 1 1.108,-3.939 3.6,3.6 0 0 1 3.032,-1.465 3.236,3.236 0 0 1 2.552,1.156 v -5.391003 h 2.832 v 15.000003 h -2.552 l -0.137,-1.123 a 3.321,3.321 0 0 1 -2.714,1.323 3.587,3.587 0 0 1 -2.993,-1.47 6.573,6.573 0 0 1 -1.128,-4.091 z m 2.822,0.21 a 4.171,4.171 0 0 0 0.518,2.279 1.686,1.686 0 0 0 1.5,0.792 1.888,1.888 0 0 0 1.852,-1.105 v -4.177 a 1.861,1.861 0 0 0 -1.826,-1.105 q -2.044,0 -2.044,3.316 z m 15.01,5.151 a 3.134,3.134 0 0 1 -0.283,-0.947 3.415,3.415 0 0 1 -2.666,1.147 3.752,3.752 0 0 1 -2.573,-0.9 2.89,2.89 0 0 1 -1.018,-2.269 2.986,2.986 0 0 1 1.245,-2.578 6.144,6.144 0 0 1 3.6,-0.908 h 1.3 v -0.605 a 1.741,1.741 0 0 0 -0.376,-1.172 1.479,1.479 0 0 0 -1.187,-0.439 1.682,1.682 0 0 0 -1.118,0.342 1.161,1.161 0 0 0 -0.405,0.938 h -2.828 a 2.835,2.835 0 0 1 0.566,-1.7 3.744,3.744 0 0 1 1.6,-1.226 5.837,5.837 0 0 1 2.324,-0.444 4.611,4.611 0 0 1 3.1,0.981 3.433,3.433 0 0 1 1.147,2.759 v 4.58 a 5.052,5.052 0 0 0 0.42,2.275 v 0.166 z m -2.334,-1.963 a 2.431,2.431 0 0 0 1.152,-0.278 1.828,1.828 0 0 0 0.781,-0.747 v -1.812 h -1.054 q -2.119,0 -2.256,1.465 l -0.01,0.166 a 1.13,1.13 0 0 0 0.371,0.869 1.441,1.441 0 0 0 1.016,0.337 z m 1.074,-13.037003 h 3.076 l -2.705,3.027003 h -2.295 z m 11.582,12.080003 a 0.909,0.909 0 0 0 -0.513,-0.815 5.824,5.824 0 0 0 -1.649,-0.533 q -3.77,-0.791 -3.77,-3.2 a 2.9,2.9 0 0 1 1.17,-2.351 4.708,4.708 0 0 1 3.052,-0.942 5.067,5.067 0 0 1 3.218,0.947 2.985,2.985 0 0 1 1.206,2.461 h -2.821 a 1.366,1.366 0 0 0 -0.391,-1 1.653,1.653 0 0 0 -1.221,-0.4 1.689,1.689 0 0 0 -1.1,0.322 1.017,1.017 0 0 0 -0.391,0.82 0.87,0.87 0 0 0 0.444,0.757 4.571,4.571 0 0 0 1.5,0.5 12.244,12.244 0 0 1 1.777,0.474 2.92,2.92 0 0 1 2.236,2.842 2.756,2.756 0 0 1 -1.243,2.338 5.35,5.35 0 0 1 -3.2,0.894 5.588,5.588 0 0 1 -2.366,-0.472 3.957,3.957 0 0 1 -1.616,-1.3 3.018,3.018 0 0 1 -0.584,-1.781 h 2.676 a 1.473,1.473 0 0 0 0.557,1.152 2.208,2.208 0 0 0 1.387,0.4 2.044,2.044 0 0 0 1.226,-0.308 0.957,0.957 0 0 0 0.416,-0.805 z m 14.082,-2.266 a 6.4,6.4 0 0 1 -1.084,3.96 3.591,3.591 0 0 1 -3.027,1.426 3.3,3.3 0 0 1 -2.744,-1.318 l -0.127,1.118 h -2.539 V 10.630998 h 2.822 v 5.381003 a 3.214,3.214 0 0 1 2.568,-1.143 3.62,3.62 0 0 1 3.032,1.421 6.408,6.408 0 0 1 1.1,4 z m -2.822,-0.205 a 4.2,4.2 0 0 0 -0.508,-2.339 1.717,1.717 0 0 0 -1.514,-0.737 1.862,1.862 0 0 0 -1.855,1.1 v 4.17 a 1.887,1.887 0 0 0 1.875,1.117 1.742,1.742 0 0 0 1.8,-1.348 6.952,6.952 0 0 0 0.202,-1.963 z m 10.683,5.391 a 3.134,3.134 0 0 1 -0.283,-0.947 3.415,3.415 0 0 1 -2.666,1.147 3.752,3.752 0 0 1 -2.573,-0.9 2.89,2.89 0 0 1 -1.021,-2.266 2.986,2.986 0 0 1 1.245,-2.578 6.144,6.144 0 0 1 3.6,-0.908 h 1.3 v -0.605 a 1.741,1.741 0 0 0 -0.376,-1.172 1.479,1.479 0 0 0 -1.187,-0.439 1.682,1.682 0 0 0 -1.118,0.342 1.161,1.161 0 0 0 -0.405,0.938 h -2.821 a 2.835,2.835 0 0 1 0.566,-1.7 3.744,3.744 0 0 1 1.6,-1.226 5.837,5.837 0 0 1 2.324,-0.444 4.611,4.611 0 0 1 3.1,0.981 3.433,3.433 0 0 1 1.147,2.759 v 4.58 a 5.052,5.052 0 0 0 0.42,2.275 v 0.163 z m -2.334,-1.963 a 2.431,2.431 0 0 0 1.152,-0.278 1.828,1.828 0 0 0 0.781,-0.747 v -1.812 h -1.054 q -2.119,0 -2.256,1.465 l -0.01,0.166 a 1.13,1.13 0 0 0 0.371,0.869 1.441,1.441 0 0 0 1.016,0.337 z m 1.075,-13.037003 h 3.076 l -2.705,3.027003 h -2.295 z m 9.1,12.725003 h 5.166 v 2.275 h -8.77 v -1.719 l 4.971,-6.572 h -4.823 v -2.275 h 8.467 v 1.666 z m 9.913,2.275 h -2.832 v -10.566 h 2.832 z m -3,-13.300001 a 1.39,1.39 0 0 1 0.425,-1.045 1.6,1.6 0 0 1 1.157,-0.41 1.6,1.6 0 0 1 1.152,0.41 1.382,1.382 0 0 1 0.43,1.045 1.386,1.386 0 0 1 -0.435,1.055001 1.6,1.6 0 0 1 -1.147,0.41 1.6,1.6 0 0 1 -1.147,-0.41 1.386,1.386 0 0 1 -0.433,-1.055001 z m 11.047,10.380001 a 0.909,0.909 0 0 0 -0.513,-0.815 5.824,5.824 0 0 0 -1.646,-0.532 q -3.77,-0.791 -3.77,-3.2 a 2.9,2.9 0 0 1 1.167,-2.349 4.708,4.708 0 0 1 3.052,-0.942 5.067,5.067 0 0 1 3.218,0.947 2.985,2.985 0 0 1 1.206,2.461 h -2.82 a 1.366,1.366 0 0 0 -0.391,-1 1.653,1.653 0 0 0 -1.221,-0.4 1.689,1.689 0 0 0 -1.1,0.322 1.017,1.017 0 0 0 -0.391,0.82 0.87,0.87 0 0 0 0.444,0.757 4.571,4.571 0 0 0 1.5,0.5 12.244,12.244 0 0 1 1.777,0.474 2.92,2.92 0 0 1 2.236,2.842 2.756,2.756 0 0 1 -1.244,2.335 5.35,5.35 0 0 1 -3.2,0.894 5.588,5.588 0 0 1 -2.358,-0.474 3.957,3.957 0 0 1 -1.616,-1.3 3.018,3.018 0 0 1 -0.586,-1.782 h 2.676 a 1.473,1.473 0 0 0 0.557,1.152 2.208,2.208 0 0 0 1.387,0.4 2.044,2.044 0 0 0 1.226,-0.308 0.957,0.957 0 0 0 0.41,-0.802 z"
     class="a"
     inkscape:connector-curvature="0"
     style="fill:#2b2d68" />
</svg>
