<svg xmlns="http://www.w3.org/2000/svg" xmlns:xlink="http://www.w3.org/1999/xlink" width="168.282" height="34.658" viewBox="0 0 168.282 34.658"><defs><style>.a{fill:#2e1d5c;}.b{fill:url(#a);}.c{fill:#fff;}</style><linearGradient id="a" y1="0.5" x2="1" y2="0.5" gradientUnits="objectBoundingBox"><stop offset="0" stop-color="#a10f70"/><stop offset="1" stop-color="#dc073d"/></linearGradient></defs><g transform="translate(0 0)"><g transform="translate(63.061 7.364)"><path class="a" d="M123.828-58.489c-1.254-.911-3.245-1.374-5.923-1.374a18.43,18.43,0,0,0-3.231.284c-1.072.193-1.825.348-2.312.488a.354.354,0,0,0-.251.338v3.669a.354.354,0,0,0,.353.356h.4a.387.387,0,0,0,.145-.029,14.6,14.6,0,0,1,2.139-.763,7.3,7.3,0,0,1,1.871-.289,5.943,5.943,0,0,1,2.615.436,1.423,1.423,0,0,1,.74,1.414l-.033,1a18.5,18.5,0,0,0-3.825-.434,7.11,7.11,0,0,0-2.857.454,5.028,5.028,0,0,0-2.093,1.778,5.288,5.288,0,0,0-.732,2.929,5.023,5.023,0,0,0,1.432,3.655,4.886,4.886,0,0,0,3.6,1.46,7.265,7.265,0,0,0,1.775-.175,5.859,5.859,0,0,0,2.705-2.083v1.5a.352.352,0,0,0,.349.352h4.714a.353.353,0,0,0,.352-.352V-54.215A4.968,4.968,0,0,0,123.828-58.489ZM120.354-48a4.084,4.084,0,0,1-2.1.891c-1.738,0-1.926-1.061-1.926-1.518,0-.324.136-1.943,2.786-1.943a8.039,8.039,0,0,1,1.235.1Z" transform="translate(-110.838 62.696)"/><path class="a" d="M132.307-43.121a9.746,9.746,0,0,1-6.387-2.022,7.124,7.124,0,0,1-1.872-2.612,9.4,9.4,0,0,1-.664-3.665,9.42,9.42,0,0,1,.722-3.854,7.4,7.4,0,0,1,1.963-2.639,7.758,7.758,0,0,1,2.8-1.476,11.7,11.7,0,0,1,5.9-.16,11.654,11.654,0,0,1,2.607.954.349.349,0,0,1,.2.314v4.062a.351.351,0,0,1-.356.349h-.609a.365.365,0,0,1-.245-.093,8.626,8.626,0,0,0-.671-.572,6.155,6.155,0,0,0-.852-.57,5.5,5.5,0,0,0-1.1-.446,4.538,4.538,0,0,0-1.344-.187A3,3,0,0,0,129.87-54.6a5.039,5.039,0,0,0-.918,3.181,4.476,4.476,0,0,0,.968,3.167,3.336,3.336,0,0,0,2.563,1.017c4.1,0,7.724-4.038,7.724-4.038l.011,3.916S136.837-43.121,132.307-43.121Z" transform="translate(-107.568 62.699)"/><path class="a" d="M169.465-59.9a8,8,0,0,0-6.039,2.258,8.555,8.555,0,0,0-2.171,6.177,8.536,8.536,0,0,0,2.171,6.15,7.977,7.977,0,0,0,6.039,2.268,7.99,7.99,0,0,0,6.056-2.268,8.6,8.6,0,0,0,2.141-6.15,8.6,8.6,0,0,0-2.154-6.167A8,8,0,0,0,169.465-59.9Zm2.429,10.64a3.878,3.878,0,0,1-.58,1.283,1.783,1.783,0,0,1-.789.611,2.771,2.771,0,0,1-2.142,0,1.9,1.9,0,0,1-.8-.658,4.067,4.067,0,0,1-.542-1.257,8.788,8.788,0,0,1-.218-2.163,9.011,9.011,0,0,1,.229-2.221,3.852,3.852,0,0,1,.586-1.32,1.893,1.893,0,0,1,.8-.639,2.765,2.765,0,0,1,1.026-.174,2.738,2.738,0,0,1,1.06.192,1.95,1.95,0,0,1,.8.674,3.794,3.794,0,0,1,.561,1.324,9.165,9.165,0,0,1,.214,2.165A8.924,8.924,0,0,1,171.894-49.256Z" transform="translate(-97.696 62.687)"/><path class="a" d="M194.915-53.942v0h4.207a.354.354,0,0,0,.352-.352v-3.492a.352.352,0,0,0-.352-.352l-4.207.188v-3.781a.35.35,0,0,0-.343-.348l0-.006h-4.74a.353.353,0,0,0-.352.354v.974l-.01,0v3.047c-2.194,0-4.283-1.133-6.95-1.368a8.444,8.444,0,0,0-3.662.229,7.383,7.383,0,0,0-2.354,1.157,5.329,5.329,0,0,0-1.476,1.716,4.575,4.575,0,0,0-.5,2.083,4.706,4.706,0,0,0,.985,3.086,5.854,5.854,0,0,0,2.848,1.755,12.876,12.876,0,0,0,1.5.366c.538.1.991.2,1.353.29a3.783,3.783,0,0,1,1.237.45.589.589,0,0,1,.212.519c0,.187-.055.464-.548.663a5.755,5.755,0,0,1-3.346.071,8.806,8.806,0,0,1-1.446-.517,6.457,6.457,0,0,1-1.141-.614c-.285-.2-.54-.39-.767-.56a.343.343,0,0,0-.211-.074h-.39a.356.356,0,0,0-.354.356V-44.1a.358.358,0,0,0,.194.318,12.927,12.927,0,0,0,2.543.881,13.853,13.853,0,0,0,3.259.372,11.543,11.543,0,0,0,3.258-.406,7.6,7.6,0,0,0,2.4-1.165,4.89,4.89,0,0,0,1.533-1.752,4.739,4.739,0,0,0,.541-2.2,4.468,4.468,0,0,0-.925-2.936,5.559,5.559,0,0,0-2.645-1.66,11.434,11.434,0,0,0-1.571-.4c-.519-.1-.985-.192-1.38-.286a3.8,3.8,0,0,1-1.382-.509.659.659,0,0,1-.229-.543c0-.158.043-.414.512-.622,1.732-.759,4.426,1.038,8.907,1.038v5.877a5.4,5.4,0,0,0,1.436,4.161,6.546,6.546,0,0,0,4.453,1.281,17.338,17.338,0,0,0,2.173-.119,13.5,13.5,0,0,0,1.678-.33.347.347,0,0,0,.26-.339v-3.343a.352.352,0,0,0-.352-.352h-.406a.374.374,0,0,0-.178.047,3.1,3.1,0,0,1-.772.258,3.639,3.639,0,0,1-.9.156,2.515,2.515,0,0,1-1.222-.229,1.154,1.154,0,0,1-.524-.585,2.485,2.485,0,0,1-.189-.937c-.006-.395-.014-.86-.014-1.388Z" transform="translate(-94.253 62.116)"/><path class="a" d="M151.229-43.559a.344.344,0,0,1,.131.271.356.356,0,0,1-.354.352h-5.648a.356.356,0,0,1-.3-.166l-3.836-6.675-.355.334v6.156a.354.354,0,0,1-.353.352h-4.738a.35.35,0,0,1-.35-.352V-61.754a.351.351,0,0,1,.35-.356h4.738a.355.355,0,0,1,.353.356v8.027l3.781-5.358a.355.355,0,0,1,.305-.178h5.591a.36.36,0,0,1,.316.2.363.363,0,0,1-.035.369l-5.575,6.158Z" transform="translate(-104.429 62.11)"/></g><path class="a" d="M114.61-43.545l-4.5-6.447a7.581,7.581,0,0,0,2.526-2.2,6.653,6.653,0,0,0,1.108-3.965,5.573,5.573,0,0,0-.685-2.887,5.63,5.63,0,0,0-1.837-1.865,6.64,6.64,0,0,0-2.428-.928,19.059,19.059,0,0,0-2.978-.209H97.677a.351.351,0,0,0-.352.353v18.408a.348.348,0,0,0,.352.35h5.068a.354.354,0,0,0,.353-.35V-48.57l1.287-.008,0,.005,3.545,5.531a.35.35,0,0,0,.282.137h6.19a.356.356,0,0,0,.353-.35A.362.362,0,0,0,114.61-43.545Zm-6.969-10.737a1.929,1.929,0,0,1-.627.777,2.281,2.281,0,0,1-1.089.475,10.437,10.437,0,0,1-1.732.12h-1.1v-4.714h1.343a13.772,13.772,0,0,1,1.412.05,3.086,3.086,0,0,1,.948.227,1.566,1.566,0,0,1,.8.69,2.383,2.383,0,0,1,.25,1.14A3.139,3.139,0,0,1,107.641-54.282Z" transform="translate(-51.299 69.491)"/><path class="b" d="M95.477-50.621a17.331,17.331,0,0,1-17.33,17.328,17.33,17.33,0,0,1-17.33-17.328,17.329,17.329,0,0,1,17.33-17.33A17.331,17.331,0,0,1,95.477-50.621Z" transform="translate(-60.816 67.951)"/><path class="c" d="M85.555-43.526,81.033-50.01a7.634,7.634,0,0,0,2.54-2.207A6.684,6.684,0,0,0,84.689-56.2a5.574,5.574,0,0,0-.691-2.9,5.651,5.651,0,0,0-1.844-1.876,6.66,6.66,0,0,0-2.442-.932,18.934,18.934,0,0,0-2.993-.212H68.529a.352.352,0,0,0-.354.354v18.509a.352.352,0,0,0,.354.352h5.1a.354.354,0,0,0,.354-.352V-48.58l1.293-.006,0,.005,1.712-.008c.173,0,.2.1.063.2l-1.112.84,2.9,4.523a.348.348,0,0,0,.282.139h6.224a.358.358,0,0,0,.356-.353A.366.366,0,0,0,85.555-43.526Zm-7.008-10.8a1.957,1.957,0,0,1-.629.78,2.289,2.289,0,0,1-1.1.478,10.415,10.415,0,0,1-1.741.12h-1.1v-3.643l-1.223-.925c-.125-.091-.095-.168.058-.168l2.513,0c.619,0,1.073.014,1.421.05a3.138,3.138,0,0,1,.952.229,1.569,1.569,0,0,1,.8.692,2.41,2.41,0,0,1,.248,1.146A3.161,3.161,0,0,1,78.547-54.321Z" transform="translate(-58.898 69.47)"/><path class="a" d="M162.339-56.256a4.815,4.815,0,0,0-3.894-1.625,5.849,5.849,0,0,0-2.651.605,11.335,11.335,0,0,0-1.853,1.191v-5.7a.325.325,0,0,0-.324-.324h-4.855a.324.324,0,0,0-.324.324v18.5a.324.324,0,0,0,.324.323h4.855a.324.324,0,0,0,.324-.323l-.01-9.108a8.093,8.093,0,0,1,1.1-.6A3.056,3.056,0,0,1,157.251-53a1.23,1.23,0,0,1,.569.6,4.081,4.081,0,0,1,.255,1.267c.049.616.074,1.238.074,1.856v5.984a.323.323,0,0,0,.323.323h4.883a.323.323,0,0,0,.323-.323v-8.4A6.953,6.953,0,0,0,162.339-56.256Z" transform="translate(-37.975 69.473)"/></g></svg>