<?xml version="1.0" encoding="UTF-8" standalone="no"?>
<svg
   xmlns:dc="http://purl.org/dc/elements/1.1/"
   xmlns:cc="http://creativecommons.org/ns#"
   xmlns:rdf="http://www.w3.org/1999/02/22-rdf-syntax-ns#"
   xmlns:svg="http://www.w3.org/2000/svg"
   xmlns="http://www.w3.org/2000/svg"
   xmlns:sodipodi="http://sodipodi.sourceforge.net/DTD/sodipodi-0.dtd"
   xmlns:inkscape="http://www.inkscape.org/namespaces/inkscape"
   width="150.30717"
   height="29.618"
   viewBox="0 0 150.30717 29.617999"
   version="1.1"
   id="svg17"
   sodipodi:docname="Rackhost-logo.svg"
   inkscape:version="0.92.4 (5da689c313, 2019-01-14)">
  <metadata
     id="metadata21">
    <rdf:RDF>
      <cc:Work
         rdf:about="">
        <dc:format>image/svg+xml</dc:format>
        <dc:type
           rdf:resource="http://purl.org/dc/dcmitype/StillImage" />
        <dc:title></dc:title>
      </cc:Work>
    </rdf:RDF>
  </metadata>
  <sodipodi:namedview
     pagecolor="#ffffff"
     bordercolor="#666666"
     borderopacity="1"
     objecttolerance="10"
     gridtolerance="10"
     guidetolerance="10"
     inkscape:pageopacity="0"
     inkscape:pageshadow="2"
     inkscape:window-width="1579"
     inkscape:window-height="881"
     id="namedview19"
     showgrid="false"
     fit-margin-top="0"
     fit-margin-left="0"
     fit-margin-right="0"
     fit-margin-bottom="0"
     inkscape:zoom="2.8172536"
     inkscape:cx="35.536441"
     inkscape:cy="25.070598"
     inkscape:window-x="0"
     inkscape:window-y="0"
     inkscape:window-maximized="0"
     inkscape:current-layer="svg17" />
  <defs
     id="defs9">
    <style
       id="style2">.a{fill:url(#a);}.b{fill:#fff;}</style>
    <linearGradient
       id="a"
       y1="-53.143794"
       x2="90.432947"
       y2="-53.143794"
       gradientUnits="userSpaceOnUse"
       gradientTransform="scale(1.0000338,0.99996624)"
       x1="60.813947">
      <stop
         offset="0"
         stop-color="#a10f70"
         id="stop4" />
      <stop
         offset="1"
         stop-color="#dc073d"
         id="stop6" />
    </linearGradient>
    <style
       id="style23">.a{fill:#2b2d68;}</style>
  </defs>
  <g
     id="g15">
    <path
       class="a"
       d="m 90.436,-53.141 a 14.81,14.81 0 0 1 -14.81,14.808 14.809,14.809 0 0 1 -14.81,-14.808 14.809,14.809 0 0 1 14.81,-14.81 14.81,14.81 0 0 1 14.81,14.81 z"
       transform="translate(-60.816,67.951)"
       id="path11"
       inkscape:connector-curvature="0"
       style="fill:url(#a)" />
    <path
       class="b"
       d="m 83.027,-46.231 -3.864,-5.541 a 6.523,6.523 0 0 0 2.171,-1.886 5.712,5.712 0 0 0 0.953,-3.405 4.763,4.763 0 0 0 -0.59,-2.481 4.829,4.829 0 0 0 -1.576,-1.6 5.691,5.691 0 0 0 -2.087,-0.8 16.18,16.18 0 0 0 -2.558,-0.181 h -7 a 0.3,0.3 0 0 0 -0.3,0.3 v 15.817 a 0.3,0.3 0 0 0 0.3,0.3 h 4.354 a 0.3,0.3 0 0 0 0.3,-0.3 v -4.542 l 1.105,-0.005 v 0 l 1.463,-0.006 c 0.148,0 0.169,0.087 0.054,0.175 l -0.95,0.717 2.488,3.869 a 0.3,0.3 0 0 0 0.241,0.119 h 5.319 a 0.306,0.306 0 0 0 0.3,-0.3 0.312,0.312 0 0 0 -0.123,-0.25 z m -5.989,-9.225 a 1.672,1.672 0 0 1 -0.538,0.667 1.956,1.956 0 0 1 -0.936,0.408 8.9,8.9 0 0 1 -1.488,0.1 h -0.942 v -3.113 l -1.045,-0.791 c -0.107,-0.078 -0.081,-0.143 0.05,-0.143 h 2.147 c 0.529,0 0.917,0.012 1.214,0.043 a 2.681,2.681 0 0 1 0.813,0.2 1.341,1.341 0 0 1 0.687,0.585 2.059,2.059 0 0 1 0.212,0.979 2.7,2.7 0 0 1 -0.174,1.065 z"
       transform="translate(-60.247,68.401)"
       id="path13"
       inkscape:connector-curvature="0"
       style="fill:#ffffff" />
  </g>
  <path
     id="path27"
     d="M 42.032,24.541 H 40.323 V 7.6850004 h 1.709 z M 60.059,10.058 h -4.355 v 11.846 h -2.93 V 10.058 h -4.3 V 7.6850004 h 11.585 z m 7.178,10.772 a 3.539,3.539 0 0 1 -2.891,1.274 3.338,3.338 0 0 1 -2.593,-0.981 4.169,4.169 0 0 1 -0.913,-2.861 v -6.924 h 2.823 v 6.834 q 0,1.652 1.5,1.652 a 2.038,2.038 0 0 0 1.973,-1 v -7.489 h 2.832 v 10.569 h -2.653 z m 4.424,-4.287 a 6.368,6.368 0 0 1 1.108,-3.939 3.6,3.6 0 0 1 3.032,-1.465 3.236,3.236 0 0 1 2.552,1.156 V 6.9040004 h 2.832 V 21.904 h -2.552 l -0.137,-1.123 a 3.321,3.321 0 0 1 -2.714,1.323 3.587,3.587 0 0 1 -2.993,-1.47 6.573,6.573 0 0 1 -1.128,-4.091 z m 2.822,0.21 a 4.171,4.171 0 0 0 0.518,2.279 1.686,1.686 0 0 0 1.5,0.792 1.888,1.888 0 0 0 1.852,-1.105 v -4.177 a 1.861,1.861 0 0 0 -1.826,-1.105 q -2.044,0 -2.044,3.316 z m 15.01,5.151 a 3.134,3.134 0 0 1 -0.283,-0.947 3.415,3.415 0 0 1 -2.666,1.147 3.752,3.752 0 0 1 -2.573,-0.9 2.89,2.89 0 0 1 -1.018,-2.269 2.986,2.986 0 0 1 1.245,-2.578 6.144,6.144 0 0 1 3.6,-0.908 h 1.3 v -0.605 a 1.741,1.741 0 0 0 -0.376,-1.172 1.479,1.479 0 0 0 -1.187,-0.439 1.682,1.682 0 0 0 -1.118,0.342 1.161,1.161 0 0 0 -0.405,0.938 h -2.828 a 2.835,2.835 0 0 1 0.566,-1.7 3.744,3.744 0 0 1 1.6,-1.226 5.837,5.837 0 0 1 2.324,-0.444 4.611,4.611 0 0 1 3.1,0.981 3.433,3.433 0 0 1 1.147,2.759 v 4.58 a 5.052,5.052 0 0 0 0.42,2.275 v 0.166 z m -2.334,-1.963 a 2.431,2.431 0 0 0 1.152,-0.278 1.828,1.828 0 0 0 0.781,-0.747 v -1.812 h -1.054 q -2.119,0 -2.256,1.465 l -0.01,0.166 a 1.13,1.13 0 0 0 0.371,0.869 1.441,1.441 0 0 0 1.016,0.337 z M 88.233,6.9040004 h 3.076 L 88.604,9.931 H 86.309 Z M 99.815,18.984 a 0.909,0.909 0 0 0 -0.513,-0.815 5.824,5.824 0 0 0 -1.649,-0.533 q -3.77,-0.791 -3.77,-3.2 a 2.9,2.9 0 0 1 1.17,-2.351 4.708,4.708 0 0 1 3.052,-0.942 5.067,5.067 0 0 1 3.218,0.947 2.985,2.985 0 0 1 1.206,2.461 h -2.821 a 1.366,1.366 0 0 0 -0.391,-1 1.653,1.653 0 0 0 -1.221,-0.4 1.689,1.689 0 0 0 -1.1,0.322 1.017,1.017 0 0 0 -0.391,0.82 0.87,0.87 0 0 0 0.444,0.757 4.571,4.571 0 0 0 1.5,0.5 12.244,12.244 0 0 1 1.777,0.474 2.92,2.92 0 0 1 2.236,2.842 2.756,2.756 0 0 1 -1.243,2.338 5.35,5.35 0 0 1 -3.2,0.894 5.588,5.588 0 0 1 -2.366,-0.472 3.957,3.957 0 0 1 -1.616,-1.3 3.018,3.018 0 0 1 -0.584,-1.781 h 2.676 a 1.473,1.473 0 0 0 0.557,1.152 2.208,2.208 0 0 0 1.387,0.4 2.044,2.044 0 0 0 1.226,-0.308 0.957,0.957 0 0 0 0.416,-0.805 z m 14.082,-2.266 a 6.4,6.4 0 0 1 -1.084,3.96 3.591,3.591 0 0 1 -3.027,1.426 3.3,3.3 0 0 1 -2.744,-1.318 l -0.127,1.118 h -2.539 V 6.9040004 h 2.822 V 12.285 a 3.214,3.214 0 0 1 2.568,-1.143 3.62,3.62 0 0 1 3.032,1.421 6.408,6.408 0 0 1 1.1,4 z m -2.822,-0.205 a 4.2,4.2 0 0 0 -0.508,-2.339 1.717,1.717 0 0 0 -1.514,-0.737 1.862,1.862 0 0 0 -1.855,1.1 v 4.17 a 1.887,1.887 0 0 0 1.875,1.117 1.742,1.742 0 0 0 1.8,-1.348 6.952,6.952 0 0 0 0.202,-1.963 z m 10.683,5.391 a 3.134,3.134 0 0 1 -0.283,-0.947 3.415,3.415 0 0 1 -2.666,1.147 3.752,3.752 0 0 1 -2.573,-0.9 2.89,2.89 0 0 1 -1.021,-2.266 2.986,2.986 0 0 1 1.245,-2.578 6.144,6.144 0 0 1 3.6,-0.908 h 1.3 v -0.605 a 1.741,1.741 0 0 0 -0.376,-1.172 1.479,1.479 0 0 0 -1.187,-0.439 1.682,1.682 0 0 0 -1.118,0.342 1.161,1.161 0 0 0 -0.405,0.938 h -2.821 a 2.835,2.835 0 0 1 0.566,-1.7 3.744,3.744 0 0 1 1.6,-1.226 5.837,5.837 0 0 1 2.324,-0.444 4.611,4.611 0 0 1 3.1,0.981 3.433,3.433 0 0 1 1.147,2.759 v 4.58 a 5.052,5.052 0 0 0 0.42,2.275 v 0.163 z m -2.334,-1.963 a 2.431,2.431 0 0 0 1.152,-0.278 1.828,1.828 0 0 0 0.781,-0.747 v -1.812 h -1.054 q -2.119,0 -2.256,1.465 l -0.01,0.166 a 1.13,1.13 0 0 0 0.371,0.869 1.441,1.441 0 0 0 1.016,0.337 z m 1.075,-13.0369996 h 3.076 L 120.87,9.931 h -2.295 z m 9.1,12.7249996 h 5.166 v 2.275 h -8.77 v -1.719 l 4.971,-6.572 h -4.823 v -2.275 h 8.467 v 1.666 z m 9.913,2.275 H 136.68 V 11.338 h 2.832 z m -3,-13.2999996 a 1.39,1.39 0 0 1 0.425,-1.045 1.6,1.6 0 0 1 1.157,-0.41 1.6,1.6 0 0 1 1.152,0.41 1.382,1.382 0 0 1 0.43,1.045 1.386,1.386 0 0 1 -0.435,1.055 1.6,1.6 0 0 1 -1.147,0.4099996 1.6,1.6 0 0 1 -1.147,-0.4099996 1.386,1.386 0 0 1 -0.433,-1.055 z M 147.559,18.984 a 0.909,0.909 0 0 0 -0.513,-0.815 5.824,5.824 0 0 0 -1.646,-0.532 q -3.77,-0.791 -3.77,-3.2 a 2.9,2.9 0 0 1 1.167,-2.349 4.708,4.708 0 0 1 3.052,-0.942 5.067,5.067 0 0 1 3.218,0.947 2.985,2.985 0 0 1 1.206,2.461 h -2.82 a 1.366,1.366 0 0 0 -0.391,-1 1.653,1.653 0 0 0 -1.221,-0.4 1.689,1.689 0 0 0 -1.1,0.322 1.017,1.017 0 0 0 -0.391,0.82 0.87,0.87 0 0 0 0.444,0.757 4.571,4.571 0 0 0 1.5,0.5 12.244,12.244 0 0 1 1.777,0.474 2.92,2.92 0 0 1 2.236,2.842 2.756,2.756 0 0 1 -1.244,2.335 5.35,5.35 0 0 1 -3.2,0.894 5.588,5.588 0 0 1 -2.358,-0.474 3.957,3.957 0 0 1 -1.616,-1.3 3.018,3.018 0 0 1 -0.586,-1.782 h 2.676 a 1.473,1.473 0 0 0 0.557,1.152 2.208,2.208 0 0 0 1.387,0.4 2.044,2.044 0 0 0 1.226,-0.308 0.957,0.957 0 0 0 0.41,-0.802 z"
     class="a"
     inkscape:connector-curvature="0"
     style="fill:#2b2d68" />
</svg>
