<svg xmlns="http://www.w3.org/2000/svg" width="78" height="78" viewBox="0 0 78 78"><defs><style>.a{fill:#eaeaf4;}.b{fill:#fff;}.c{fill:#816aae;}</style></defs><g transform="translate(-667.857 -340.413)"><path class="a" d="M706.859,418.413a39,39,0,1,1,39-39A39.045,39.045,0,0,1,706.859,418.413Z"/><rect class="b" width="37.086" height="30.638" rx="3.384" transform="translate(722.177 362.734) rotate(90)"/><path class="c" d="M718.793,401.145h-23.87a4.714,4.714,0,0,1-4.709-4.708V366.119a4.714,4.714,0,0,1,4.709-4.708h23.87a4.713,4.713,0,0,1,4.708,4.708v30.318A4.713,4.713,0,0,1,718.793,401.145Zm-23.87-37.087a2.063,2.063,0,0,0-2.061,2.061v30.318a2.062,2.062,0,0,0,2.061,2.06h23.87a2.061,2.061,0,0,0,2.059-2.06V366.119a2.062,2.062,0,0,0-2.059-2.061Z"/><rect class="a" width="13.021" height="6.894" transform="translate(700.347 359.032)"/><path class="c" d="M713.368,367.276H700.347a1.351,1.351,0,0,1-1.35-1.35v-6.894a1.351,1.351,0,0,1,1.35-1.35h13.021a1.351,1.351,0,0,1,1.35,1.35v6.894A1.351,1.351,0,0,1,713.368,367.276Zm-11.672-2.7h10.323v-4.194H701.7Z"/><path class="c" d="M711.2,376.532a1.339,1.339,0,0,1-.9-.349l-2.681-2.425a1.35,1.35,0,0,1,1.811-2l1.728,1.563,3.306-3.3a1.35,1.35,0,1,1,1.908,1.909l-4.213,4.213A1.343,1.343,0,0,1,711.2,376.532Z"/><path class="c" d="M711.2,385.469a1.348,1.348,0,0,1-.906-.349l-2.681-2.426a1.35,1.35,0,0,1,1.813-2l1.727,1.564,3.3-3.305a1.35,1.35,0,1,1,1.91,1.909l-4.213,4.213A1.348,1.348,0,0,1,711.2,385.469Z"/><path class="c" d="M711.2,394.4a1.343,1.343,0,0,1-.9-.349l-2.681-2.426a1.35,1.35,0,0,1,1.811-2l1.728,1.564,3.3-3.3a1.35,1.35,0,0,1,1.91,1.909l-4.213,4.213A1.348,1.348,0,0,1,711.2,394.4Z"/><path class="c" d="M703.539,375.7h-5.426a1.35,1.35,0,0,1,0-2.7h5.426a1.35,1.35,0,0,1,0,2.7Z"/><path class="c" d="M703.539,384.511h-5.426a1.35,1.35,0,0,1,0-2.7h5.426a1.35,1.35,0,0,1,0,2.7Z"/><path class="c" d="M703.539,393.32h-5.426a1.35,1.35,0,0,1,0-2.7h5.426a1.35,1.35,0,0,1,0,2.7Z"/></g></svg>