<svg xmlns="http://www.w3.org/2000/svg" width="78" height="78" viewBox="0 0 78 78"><defs><style>.a{fill:#eaeaf4;}.b{fill:#816aae;}.c{fill:#fff;}</style></defs><g transform="translate(-571.564 -340.413)"><path class="a" d="M610.565,418.413a39,39,0,1,1,39-39A39.044,39.044,0,0,1,610.565,418.413Z"/><path class="b" d="M625.028,368.013H609.256a1.25,1.25,0,0,1,0-2.5h15.772a1.25,1.25,0,0,1,0,2.5Z"/><path class="b" d="M612.3,393.313H596.527a1.25,1.25,0,0,1,0-2.5H612.3a1.25,1.25,0,0,1,0,2.5Z"/><path class="b" d="M628.568,373.254a1.354,1.354,0,0,1-1.247-.83,18.158,18.158,0,0,0-33.514,0,1.35,1.35,0,0,1-2.492-1.041,20.859,20.859,0,0,1,38.5,0,1.351,1.351,0,0,1-1.245,1.871Z"/><path class="b" d="M610.564,400.267a20.8,20.8,0,0,1-19.824-14.382,1.35,1.35,0,0,1,2.566-.838,18.155,18.155,0,0,0,34.516,0,1.35,1.35,0,0,1,2.566.838A20.8,20.8,0,0,1,610.564,400.267Z"/><path class="b" d="M618.219,373.253a1.352,1.352,0,0,1-1.328-1.113c-1.137-6.406-3.739-10.88-6.327-10.88s-5.189,4.474-6.327,10.88a1.35,1.35,0,0,1-2.658-.473c1.435-8.084,4.879-13.107,8.985-13.107s7.55,5.023,8.986,13.107a1.351,1.351,0,0,1-1.093,1.565A1.282,1.282,0,0,1,618.219,373.253Z"/><path class="b" d="M610.564,400.267c-4.37,0-7.99-5.737-9.221-14.615a1.349,1.349,0,1,1,2.673-.371c1.119,8.066,4.141,12.285,6.548,12.285s5.429-4.219,6.548-12.285a1.35,1.35,0,1,1,2.674.371C618.554,394.53,614.934,400.267,610.564,400.267Z"/><rect class="c" width="46.979" height="14.927" transform="translate(587.075 371.95)"/><path class="b" d="M634.053,388.227H587.075a1.351,1.351,0,0,1-1.35-1.35V371.95a1.35,1.35,0,0,1,1.35-1.35h46.978a1.349,1.349,0,0,1,1.35,1.35v14.927A1.35,1.35,0,0,1,634.053,388.227Zm-45.628-2.7H632.7V373.3H588.425Z"/><path class="b" d="M599.132,383.739a1.3,1.3,0,0,1-1.188-.772l-1.5-3.38-1.5,3.38a1.268,1.268,0,0,1-1.208.772,1.3,1.3,0,0,1-1.183-.809l-2.466-6.052a1.3,1.3,0,0,1,2.408-.982l1.313,3.226,1.452-3.263a1.3,1.3,0,0,1,2.375,0l1.451,3.263,1.313-3.226a1.3,1.3,0,0,1,2.409.982l-2.466,6.052a1.3,1.3,0,0,1-1.184.809Z"/><path class="b" d="M613.255,383.739a1.3,1.3,0,0,1-1.188-.772l-1.5-3.38-1.5,3.38a1.3,1.3,0,0,1-2.391-.037l-2.466-6.052a1.3,1.3,0,0,1,2.408-.982l1.314,3.226,1.451-3.263a1.3,1.3,0,0,1,2.375,0l1.451,3.263,1.313-3.226a1.3,1.3,0,0,1,2.409.982l-2.466,6.052a1.3,1.3,0,0,1-1.184.809Z"/><path class="b" d="M622,383.739h-.021a1.3,1.3,0,0,1-1.183-.809l-2.466-6.052a1.3,1.3,0,0,1,2.408-.982l1.314,3.226,1.451-3.263a1.3,1.3,0,0,1,1.187-.772h0a1.3,1.3,0,0,1,1.189.772l1.449,3.263,1.314-3.226a1.3,1.3,0,0,1,2.409.982l-2.467,6.052a1.3,1.3,0,0,1-2.392.037l-1.5-3.379-1.5,3.379A1.3,1.3,0,0,1,622,383.739Z"/></g></svg>