<svg xmlns="http://www.w3.org/2000/svg" width="78" height="78" viewBox="0 0 78 78"><defs><style>.a{fill:#eaeaf4;}.b,.c{fill:#e0deef;}.b{stroke:#816aae;stroke-linecap:round;stroke-miterlimit:10;stroke-width:2.7px;}.d{fill:#816aae;}.e{fill:#fff;}</style></defs><g transform="translate(-468.156 -340.413)"><path class="a" d="M507.158,418.413a39,39,0,1,1,39-39A39.045,39.045,0,0,1,507.158,418.413Z"/><path class="b" d="M515.4,375.379"/><line class="c" x1="15.702" y2="37.713" transform="translate(503.169 367.445)"/><path class="d" d="M503.168,406.508a1.334,1.334,0,0,1-.518-.1,1.35,1.35,0,0,1-.727-1.765l15.7-37.713a1.35,1.35,0,0,1,2.492,1.038l-15.7,37.713A1.351,1.351,0,0,1,503.168,406.508Z"/><path class="e" d="M510.963,385.942l8.751-20.833-10.535-4.425a11.3,11.3,0,0,0-14.791,6.042h0a11.3,11.3,0,0,0,6.041,14.791Z"/><path class="d" d="M510.962,387.293a1.361,1.361,0,0,1-.522-.106l-10.534-4.425a12.648,12.648,0,0,1,9.8-23.322l10.534,4.425a1.349,1.349,0,0,1,.723,1.767l-8.751,20.833A1.353,1.353,0,0,1,510.962,387.293ZM504.8,361.148a9.952,9.952,0,0,0-3.854,19.125l9.29,3.9,7.7-18.343-9.289-3.9A9.937,9.937,0,0,0,504.8,361.148Z"/><path class="e" d="M513.782,379.233l3.114-7.414-10.535-4.425c-5.753-2.416-11.113-2.716-11.973-.668h0c-.86,2.047,3.106,5.665,8.859,8.082Z"/><path class="d" d="M514.5,381l-11.778-4.948a26.071,26.071,0,0,1-7.3-4.426c-2.727-2.487-2.747-4.322-2.284-5.423,1.428-3.4,8.124-2.412,13.74-.054l11.779,4.948ZM497.8,366.707c-1.277,0-2.038.243-2.164.542-.086.206.2,1.091,1.615,2.382a23.383,23.383,0,0,0,6.523,3.932l9.29,3.9,2.068-4.924-9.289-3.9A21.785,21.785,0,0,0,497.8,366.707Z"/><line class="c" x1="8.583" y2="20.764" transform="translate(503.015 361.355)"/><rect class="d" width="22.468" height="2.701" transform="matrix(0.382, -0.924, 0.924, 0.382, 501.769, 381.604)"/><line class="c" x1="7.792" y2="18.881" transform="translate(496.628 359.655)"/><rect class="d" width="20.426" height="2.7" transform="matrix(0.382, -0.924, 0.924, 0.382, 495.379, 378.021)"/><ellipse class="c" cx="12.287" cy="3.223" rx="12.287" ry="3.223" transform="translate(508.229 385.694) rotate(-67.216)"/><path class="d" d="M511.58,388.371a2.31,2.31,0,0,1-.9-.184c-1.474-.619-1.972-2.462-1.522-5.635a37.261,37.261,0,0,1,2.586-8.71c.541-1.287,5.415-12.52,9.5-10.8,1.475.619,1.973,2.462,1.523,5.635a37.267,37.267,0,0,1-2.586,8.709h0a37.17,37.17,0,0,1-4.409,7.943C514.2,387.366,512.825,388.371,511.58,388.371Zm8.561-22.71c-1.07.593-3.618,3.774-5.909,9.227s-2.778,9.5-2.454,10.679c1.07-.6,3.619-3.776,5.91-9.228h0C519.978,370.886,520.465,366.84,520.141,365.661Zm-1.209,11.2h0Z"/></g></svg>