<svg xmlns="http://www.w3.org/2000/svg" width="78" height="78" viewBox="0 0 78 78"><defs><style>.a{fill:#eaeaf4;}.b{fill:#e0deef;}.c{fill:#fff;fill-rule:evenodd;}.d{fill:#9a94c8;}.e{fill:#816aae;}</style></defs><g transform="translate(-468.156 -438.224)"><path class="a" d="M507.158,516.224a39,39,0,1,1,39-39A39.045,39.045,0,0,1,507.158,516.224Z"/><path class="b" d="M3.118,0h32.7a3.121,3.121,0,0,1,3.121,3.121V22.465a3.121,3.121,0,0,1-3.121,3.121H3.121A3.121,3.121,0,0,1,0,22.465V3.118A3.118,3.118,0,0,1,3.118,0Z" transform="translate(487.687 464.431)"/><path class="c" d="M488.6,465.073l15.614,15.613a4.178,4.178,0,0,0,5.891,0l15.614-15.613Z"/><path class="d" d="M523.508,491.419H490.8a4.527,4.527,0,0,1-4.521-4.522V467.552a4.527,4.527,0,0,1,4.521-4.522h32.7a4.527,4.527,0,0,1,4.521,4.522V486.9A4.527,4.527,0,0,1,523.508,491.419Zm-32.7-25.586a1.72,1.72,0,0,0-1.717,1.719V486.9a1.72,1.72,0,0,0,1.717,1.719h32.7a1.72,1.72,0,0,0,1.717-1.719V467.552a1.72,1.72,0,0,0-1.717-1.719Z"/><path class="d" d="M507.158,483.3a5.528,5.528,0,0,1-3.937-1.625l-15.614-15.614,1.983-1.981L505.2,479.7a2.769,2.769,0,0,0,3.909,0l15.614-15.614,1.982,1.981L511.1,481.677A5.528,5.528,0,0,1,507.158,483.3Z"/><path class="d" d="M489.59,490.632l-1.983-1.981,12.3-12.3,1.982,1.982Zm35.133,0-12.3-12.3,1.983-1.982,12.3,12.3Z"/><path class="b" d="M3.118,0h32.7a3.121,3.121,0,0,1,3.121,3.121V22.465a3.121,3.121,0,0,1-3.121,3.121H3.121A3.121,3.121,0,0,1,0,22.465V3.118A3.118,3.118,0,0,1,3.118,0Z" transform="translate(487.687 464.431)"/><path class="c" d="M488.6,465.073l15.614,15.613a4.178,4.178,0,0,0,5.891,0l15.614-15.613Z"/><path class="e" d="M523.508,491.419H490.8a4.527,4.527,0,0,1-4.521-4.522V467.552a4.527,4.527,0,0,1,4.521-4.522h32.7a4.527,4.527,0,0,1,4.521,4.522V486.9A4.527,4.527,0,0,1,523.508,491.419Zm-32.7-25.586a1.72,1.72,0,0,0-1.717,1.719V486.9a1.72,1.72,0,0,0,1.717,1.719h32.7a1.72,1.72,0,0,0,1.717-1.719V467.552a1.72,1.72,0,0,0-1.717-1.719Z"/><path class="e" d="M507.158,483.3a5.528,5.528,0,0,1-3.937-1.625l-15.614-15.614,1.983-1.981L505.2,479.7a2.769,2.769,0,0,0,3.909,0l15.614-15.614,1.982,1.981L511.1,481.677A5.528,5.528,0,0,1,507.158,483.3Z"/><path class="e" d="M489.59,490.632l-1.983-1.981,12.3-12.3,1.982,1.982Zm35.133,0-12.3-12.3,1.983-1.982,12.3,12.3Z"/></g></svg>