<svg xmlns="http://www.w3.org/2000/svg" width="78" height="78" viewBox="0 0 78 78"><defs><style>.a{fill:#eaeaf4;}.b,.e{fill:#816aae;}.c{fill:#fff;}.d{fill:#e0deef;}.d,.e{fill-rule:evenodd;}</style></defs><g transform="translate(-368.772 -340.413)"><path class="a" d="M407.774,418.413a39,39,0,1,1,39-39A39.044,39.044,0,0,1,407.774,418.413Z"/><path class="b" d="M407.771,396.131a1.4,1.4,0,0,1-1.4-1.4v-5a1.4,1.4,0,1,1,2.8,0v5A1.4,1.4,0,0,1,407.771,396.131Z"/><line class="b" y2="5" transform="translate(422.604 389.73)"/><path class="b" d="M422.6,396.131a1.4,1.4,0,0,1-1.4-1.4v-5a1.4,1.4,0,1,1,2.8,0v5A1.4,1.4,0,0,1,422.6,396.131Z"/><rect class="c" width="10.119" height="16.84" rx="2.637" transform="translate(417.545 372.63)"/><path class="b" d="M425.027,390.87h-4.845a4.043,4.043,0,0,1-4.04-4.037V375.266a4.044,4.044,0,0,1,4.04-4.038h4.845a4.044,4.044,0,0,1,4.038,4.038v11.567A4.043,4.043,0,0,1,425.027,390.87Zm-4.845-16.839a1.236,1.236,0,0,0-1.236,1.235v11.567a1.237,1.237,0,0,0,1.236,1.235h4.845a1.237,1.237,0,0,0,1.234-1.235V375.266a1.236,1.236,0,0,0-1.234-1.235Z"/><path class="b" d="M392.785,396.131a1.4,1.4,0,0,1-1.4-1.4v-5a1.4,1.4,0,1,1,2.8,0v5A1.4,1.4,0,0,1,392.785,396.131Z"/><rect class="c" width="10.122" height="22.819" rx="2.637" transform="translate(402.711 366.651)"/><path class="b" d="M410.2,390.87h-4.848a4.043,4.043,0,0,1-4.04-4.037V369.287a4.044,4.044,0,0,1,4.04-4.038H410.2a4.044,4.044,0,0,1,4.04,4.038v17.546A4.043,4.043,0,0,1,410.2,390.87Zm-4.848-22.818a1.237,1.237,0,0,0-1.236,1.235v17.546a1.237,1.237,0,0,0,1.236,1.235H410.2a1.237,1.237,0,0,0,1.236-1.235V369.287a1.236,1.236,0,0,0-1.236-1.235Z"/><rect class="c" width="10.122" height="16.84" rx="2.637" transform="translate(387.723 372.63)"/><path class="b" d="M395.208,390.87H390.36a4.043,4.043,0,0,1-4.04-4.037V375.266a4.044,4.044,0,0,1,4.04-4.038h4.848a4.044,4.044,0,0,1,4.038,4.038v11.567A4.043,4.043,0,0,1,395.208,390.87Zm-4.848-16.839a1.237,1.237,0,0,0-1.236,1.235v11.567a1.237,1.237,0,0,0,1.236,1.235h4.848a1.237,1.237,0,0,0,1.234-1.235V375.266a1.236,1.236,0,0,0-1.234-1.235Z"/><path class="b" d="M428.053,398.039H387.492a1.4,1.4,0,1,1,0-2.8h40.561a1.4,1.4,0,1,1,0,2.8Z"/><path class="d" d="M392.785,399.965a3.324,3.324,0,1,1,3.322-3.327A3.33,3.33,0,0,1,392.785,399.965Z"/><path class="b" d="M392.785,394.3a2.336,2.336,0,1,1-2.338,2.333,2.334,2.334,0,0,1,2.338-2.333m0-1.977a4.313,4.313,0,1,0,4.311,4.31,4.317,4.317,0,0,0-4.311-4.31Z"/><path class="d" d="M407.771,399.965a3.324,3.324,0,1,1,3.324-3.327A3.33,3.33,0,0,1,407.771,399.965Z"/><path class="b" d="M407.771,394.3a2.336,2.336,0,1,1-2.335,2.333,2.335,2.335,0,0,1,2.335-2.333m0-1.977a4.313,4.313,0,1,0,4.313,4.31,4.317,4.317,0,0,0-4.313-4.31Z"/><path class="d" d="M422.6,399.965a3.324,3.324,0,1,1,3.325-3.327A3.33,3.33,0,0,1,422.6,399.965Z"/><path class="b" d="M422.6,394.3a2.336,2.336,0,1,1-2.335,2.333A2.337,2.337,0,0,1,422.6,394.3m0-1.977a4.313,4.313,0,1,0,4.313,4.31,4.315,4.315,0,0,0-4.313-4.31Z"/><path class="e" d="M392.783,385.672a1.495,1.495,0,1,1-1.494-1.494A1.5,1.5,0,0,1,392.783,385.672Z"/><path class="e" d="M408,385.672a1.495,1.495,0,1,1-1.494-1.494A1.5,1.5,0,0,1,408,385.672Z"/><path class="e" d="M422.939,385.672a1.494,1.494,0,1,1-1.5-1.494A1.5,1.5,0,0,1,422.939,385.672Z"/><path class="b" d="M426.966,368.971a1.315,1.315,0,0,1-.566-.128l-16.814-7.991a5.049,5.049,0,0,0-3.63,0l-16.814,7.991a1.318,1.318,0,0,1-1.133-2.381l16.814-7.991a7.573,7.573,0,0,1,5.9,0l16.814,7.991a1.318,1.318,0,0,1-.567,2.509Z"/></g></svg>