<svg xmlns="http://www.w3.org/2000/svg" width="78" height="78" viewBox="0 0 78 78"><defs><style>.a{fill:#eaeaf4;}.b{fill:#fff;}.c,.d{fill:#816aae;}.d{fill-rule:evenodd;}</style></defs><g transform="translate(-369.538 -438.224)"><path class="a" d="M408.539,516.224a39,39,0,1,1,39-39A39.044,39.044,0,0,1,408.539,516.224Z"/><rect class="b" width="33.26" height="9.865" rx="2.637" transform="translate(391.143 457.807)"/><path class="c" d="M421.767,469.073H393.78a4.044,4.044,0,0,1-4.04-4.038v-4.591a4.044,4.044,0,0,1,4.04-4.038h27.987a4.042,4.042,0,0,1,4.037,4.038v4.591A4.043,4.043,0,0,1,421.767,469.073Zm-27.987-9.865a1.237,1.237,0,0,0-1.236,1.236v4.591a1.237,1.237,0,0,0,1.236,1.235h27.987A1.235,1.235,0,0,0,423,465.035v-4.591a1.236,1.236,0,0,0-1.233-1.236Z"/><rect class="b" width="33.26" height="9.864" rx="2.637" transform="translate(391.143 472.27)"/><path class="c" d="M421.767,483.535H393.78a4.044,4.044,0,0,1-4.04-4.038v-4.59a4.044,4.044,0,0,1,4.04-4.038h27.987a4.042,4.042,0,0,1,4.037,4.038v4.59A4.042,4.042,0,0,1,421.767,483.535Zm-27.987-9.863a1.237,1.237,0,0,0-1.236,1.235v4.59a1.237,1.237,0,0,0,1.236,1.235h27.987A1.236,1.236,0,0,0,423,479.5v-4.59a1.235,1.235,0,0,0-1.233-1.235Z"/><rect class="b" width="33.26" height="9.865" rx="2.637" transform="translate(391.143 486.777)"/><path class="c" d="M421.767,498.043H393.78a4.044,4.044,0,0,1-4.04-4.038v-4.591a4.044,4.044,0,0,1,4.04-4.038h27.987a4.042,4.042,0,0,1,4.037,4.038v4.591A4.042,4.042,0,0,1,421.767,498.043Zm-27.987-9.864a1.237,1.237,0,0,0-1.236,1.235v4.591a1.237,1.237,0,0,0,1.236,1.236h27.987A1.236,1.236,0,0,0,423,494.005v-4.591a1.236,1.236,0,0,0-1.233-1.235Z"/><rect class="c" width="2.933" height="4.784" rx="1.318" transform="translate(395.415 482.222)"/><rect class="c" width="2.933" height="4.786" rx="1.318" transform="translate(395.415 467.305)"/><rect class="c" width="2.933" height="4.784" rx="1.318" transform="translate(418.131 482.222)"/><rect class="c" width="2.933" height="4.786" rx="1.318" transform="translate(418.131 467.305)"/><path class="d" d="M398.6,462.741a1.721,1.721,0,1,1-1.72-1.722A1.722,1.722,0,0,1,398.6,462.741Z"/><path class="d" d="M398.6,477.2a1.721,1.721,0,1,1-1.72-1.722A1.72,1.72,0,0,1,398.6,477.2Z"/><path class="d" d="M398.6,492a1.721,1.721,0,1,1-1.72-1.72A1.722,1.722,0,0,1,398.6,492Z"/></g></svg>