<svg xmlns="http://www.w3.org/2000/svg" width="78" height="78" viewBox="0 0 78 78"><defs><style>.a{fill:#eaeaf4;}.b{fill:#fff;}.c{fill:#816aae;}</style></defs><g transform="translate(-571.564 -438.224)"><path class="a" d="M610.565,516.224a39,39,0,1,1,39-39A39.044,39.044,0,0,1,610.565,516.224Z"/><path class="b" d="M610.565,497.651a20.426,20.426,0,1,1,20.426-20.427A20.45,20.45,0,0,1,610.565,497.651Z"/><path class="c" d="M610.565,499.051a21.826,21.826,0,1,1,21.825-21.827A21.852,21.852,0,0,1,610.565,499.051Zm0-40.853a19.027,19.027,0,1,0,19.026,19.026A19.048,19.048,0,0,0,610.565,458.2Z"/><path class="c" d="M595.014,477.224a15.553,15.553,0,0,0,8.764,13.995l-7.418-20.324A15.5,15.5,0,0,0,595.014,477.224Z"/><path class="c" d="M621.063,476.439a8.189,8.189,0,0,0-1.283-4.289c-.788-1.281-1.527-2.365-1.527-3.646a2.692,2.692,0,0,1,2.611-2.76c.069,0,.135.008.2.012a15.548,15.548,0,0,0-23.494,2.927c.365.011.709.019,1,.019,1.626,0,4.144-.2,4.144-.2a.643.643,0,0,1,.1,1.281s-.843.1-1.78.148l5.663,16.844,3.4-10.206-2.423-6.638c-.837-.049-1.631-.148-1.631-.148a.643.643,0,0,1,.1-1.281s2.568.2,4.1.2c1.626,0,4.144-.2,4.144-.2a.643.643,0,0,1,.1,1.281s-.845.1-1.78.148l5.62,16.716,1.551-5.183A18.8,18.8,0,0,0,621.063,476.439Z"/><path class="c" d="M610.838,478.584l-4.666,13.558a15.568,15.568,0,0,0,9.557-.248,1.362,1.362,0,0,1-.111-.215Z"/><path class="c" d="M624.21,469.763a11.918,11.918,0,0,1,.1,1.6,14.662,14.662,0,0,1-1.182,5.57l-4.75,13.733a15.553,15.553,0,0,0,5.828-20.9Z"/></g></svg>