<svg xmlns="http://www.w3.org/2000/svg" width="176.398" height="171.794" viewBox="0 0 176.398 171.794"><defs><style>.a,.e{fill:#522a75;}.b,.f{fill:#c6c3e1;}.c,.g{fill:#fff;}.d{fill:#9a94c8;}.e,.f,.g,.h{fill-rule:evenodd;}.h,.j{fill:#eb008b;}.i{fill:#eb80ab;}.k{fill:#e0deef;}</style></defs><g transform="translate(109.916 141.347)"><path class="a" d="M130.082,163.086a1.474,1.474,0,0,1-1.474-1.474v-27.5a1.475,1.475,0,0,1,2.95,0v27.5A1.475,1.475,0,0,1,130.082,163.086Zm-6.082,0a1.474,1.474,0,0,1-1.474-1.474v-27.5a1.475,1.475,0,0,1,2.95,0v27.5A1.475,1.475,0,0,1,124,163.086Zm-6.082,0a1.475,1.475,0,0,1-1.475-1.474v-27.5a1.475,1.475,0,0,1,2.951,0v27.5A1.475,1.475,0,0,1,117.919,163.086Zm-6.083,0a1.474,1.474,0,0,1-1.474-1.474v-27.5a1.475,1.475,0,0,1,2.95,0v27.5A1.475,1.475,0,0,1,111.836,163.086Zm-6.082,0a1.475,1.475,0,0,1-1.475-1.474v-27.5a1.475,1.475,0,0,1,2.951,0v27.5A1.475,1.475,0,0,1,105.754,163.086Z" transform="translate(-104.279 -132.639)"/></g><g transform="translate(36.583 141.347)"><path class="a" d="M66.511,163.086a1.475,1.475,0,0,1-1.475-1.474v-27.5a1.475,1.475,0,0,1,2.951,0v27.5A1.475,1.475,0,0,1,66.511,163.086Zm-6.082,0a1.475,1.475,0,0,1-1.475-1.474v-27.5a1.475,1.475,0,0,1,2.95,0v27.5A1.474,1.474,0,0,1,60.429,163.086Zm-6.082,0a1.475,1.475,0,0,1-1.475-1.474v-27.5a1.475,1.475,0,0,1,2.95,0v27.5A1.474,1.474,0,0,1,54.348,163.086Zm-6.083,0a1.475,1.475,0,0,1-1.475-1.474v-27.5a1.475,1.475,0,0,1,2.95,0v27.5A1.474,1.474,0,0,1,48.265,163.086Zm-6.082,0a1.475,1.475,0,0,1-1.475-1.474v-27.5a1.475,1.475,0,0,1,2.95,0v27.5A1.474,1.474,0,0,1,42.183,163.086Z" transform="translate(-40.708 -132.639)"/></g><g transform="translate(86.698 98.406)"><path class="b" d="M101.091,95.414h25.4a4.383,4.383,0,0,1,4.367,4.367v16.052a4.385,4.385,0,0,1-4.367,4.367H84.152v-6.675A17.2,17.2,0,0,0,101.115,96.21C101.113,95.942,101.1,95.678,101.091,95.414Z" transform="translate(-84.152 -95.414)"/></g><g transform="translate(81.759 45.698)"><rect class="c" width="6.444" height="42.655" transform="translate(1.476 1.475)"/><path class="a" d="M89.265,95.329H79.87V49.723h9.395Zm-6.444-2.952h3.493v-39.7H82.821Z" transform="translate(-79.87 -49.723)"/></g><g transform="translate(48.293 129.626)"><path class="c" d="M99.907,146.055V125.115a1.361,1.361,0,0,1,1.357-1.357h2.23a1.37,1.37,0,0,1,1.357,1.357v17.5l19.975,2.622a1.444,1.444,0,0,1,1.358,1.357v2.229a1.329,1.329,0,0,1-1.358,1.357l-23.562-2.621a1.431,1.431,0,0,1-1.357-1.358v-.146Zm-21.493,0V125.115a1.37,1.37,0,0,0-1.358-1.357H74.827a1.379,1.379,0,0,0-1.357,1.357v17.5l-19.976,2.622a1.452,1.452,0,0,0-1.357,1.357v2.229a1.32,1.32,0,0,0,1.357,1.357l23.563-2.621a1.423,1.423,0,0,0,1.357-1.358Z" transform="translate(-50.663 -122.281)"/><path class="a" d="M53.569,151.859a2.6,2.6,0,0,1-1.742-.683,2.938,2.938,0,0,1-.968-2.157v-2.228a2.906,2.906,0,0,1,2.639-2.819l18.693-2.454V125.311a2.871,2.871,0,0,1,2.832-2.833h2.229a2.836,2.836,0,0,1,2.832,2.833V146.4a2.878,2.878,0,0,1-2.668,2.823l-23.562,2.62A2.4,2.4,0,0,1,53.569,151.859Zm.241-4.943v1.963l23.28-2.59c.027-.008.037,0,.045.007V125.429H75.143v18.678L53.884,146.9A.34.34,0,0,0,53.81,146.916Zm71.332,4.942a2.334,2.334,0,0,1-.283-.016L101.3,149.221a2.876,2.876,0,0,1-2.667-2.822V125.311a2.836,2.836,0,0,1,2.831-2.833h2.23a2.837,2.837,0,0,1,2.832,2.833v16.208l18.692,2.454a2.9,2.9,0,0,1,2.639,2.819v2.228a2.937,2.937,0,0,1-.97,2.155A2.6,2.6,0,0,1,125.141,151.858Zm-23.562-5.595,23.327,2.616,0-1.965a.344.344,0,0,0-.074-.018l-21.259-2.789V125.429H101.58Z" transform="translate(-50.859 -122.478)"/></g><g transform="translate(32.511 142.701)"><path class="b" d="M140.9,135.173H115.065a3.07,3.07,0,0,0-3.057,3.057v18.487a3.068,3.068,0,0,0,3.057,3.058H140.9a3.066,3.066,0,0,0,3.057-3.058V138.23a3.066,3.066,0,0,0-3.057-3.057Zm-99.308,0H67.432a3.068,3.068,0,0,1,3.057,3.057v18.487a3.071,3.071,0,0,1-3.057,3.058H41.595a3.068,3.068,0,0,1-3.057-3.058V138.23A3.066,3.066,0,0,1,41.595,135.173Z" transform="translate(-36.969 -133.604)"/><path class="a" d="M141.112,161.552H115.274a4.63,4.63,0,0,1-4.625-4.626V138.439a4.63,4.63,0,0,1,4.625-4.626h25.838a4.631,4.631,0,0,1,4.626,4.626v18.487A4.631,4.631,0,0,1,141.112,161.552Zm-25.838-24.6a1.51,1.51,0,0,0-1.489,1.489v18.487a1.509,1.509,0,0,0,1.489,1.489h25.838a1.491,1.491,0,0,0,1.489-1.489V138.439a1.491,1.491,0,0,0-1.489-1.489Zm-47.633,24.6H41.8a4.631,4.631,0,0,1-4.626-4.626V138.439a4.631,4.631,0,0,1,4.626-4.626H67.641a4.631,4.631,0,0,1,4.626,4.626v18.487A4.631,4.631,0,0,1,67.641,161.552ZM41.8,136.95a1.491,1.491,0,0,0-1.489,1.489v18.487a1.508,1.508,0,0,0,1.489,1.489H67.641a1.508,1.508,0,0,0,1.489-1.489V138.439a1.509,1.509,0,0,0-1.489-1.489Z" transform="translate(-37.178 -133.813)"/></g><g transform="translate(110.315 147.331)"><path class="a" d="M124.988,155.674h-5.021a1.046,1.046,0,0,1,0-2.091h3.909l1.535-2.277H130a1.045,1.045,0,1,1,0,2.09h-3.478Zm-9.283,0h-5.021l-1.535-2.278H105.67a1.045,1.045,0,1,1,0-2.09h4.59l1.535,2.277H115.7a1.046,1.046,0,0,1,0,2.091Zm9.283-6.74h-5.021a1.046,1.046,0,0,1,0-2.091h3.909l1.535-2.276H130a1.045,1.045,0,1,1,0,2.09h-3.478Zm-9.283,0h-5.021l-1.535-2.277H105.67a1.045,1.045,0,1,1,0-2.09h4.59l1.535,2.276H115.7a1.046,1.046,0,0,1,0,2.091Zm9.283-6.739h-5.021a1.045,1.045,0,1,1,0-2.09h3.909l1.535-2.278H130a1.046,1.046,0,1,1,0,2.091h-3.478Zm-9.283,0h-5.021l-1.535-2.277H105.67a1.046,1.046,0,0,1,0-2.091h4.59L111.8,140.1H115.7a1.045,1.045,0,0,1,0,2.09Z" transform="translate(-104.625 -137.826)"/></g><g transform="translate(36.844 147.331)"><path class="a" d="M61.3,155.674H56.276a1.046,1.046,0,0,1,0-2.091h3.909l1.535-2.277h4.59a1.045,1.045,0,1,1,0,2.09H62.833Zm-9.283,0H46.994L45.458,153.4H41.98a1.045,1.045,0,1,1,0-2.09h4.59l1.535,2.277h3.909a1.046,1.046,0,0,1,0,2.091Zm9.283-6.74H56.276a1.046,1.046,0,0,1,0-2.091h3.909l1.535-2.276h4.59a1.045,1.045,0,1,1,0,2.09H62.833Zm-9.283,0H46.994l-1.535-2.277H41.98a1.045,1.045,0,1,1,0-2.09h4.59l1.535,2.276h3.909a1.046,1.046,0,0,1,0,2.091Zm9.283-6.739H56.276a1.045,1.045,0,1,1,0-2.09h3.909l1.535-2.278h4.59a1.046,1.046,0,0,1,0,2.091H62.833Zm-9.283,0H46.994l-1.535-2.277H41.98a1.046,1.046,0,1,1,0-2.091h4.59l1.535,2.278h3.909a1.045,1.045,0,1,1,0,2.09Z" transform="translate(-40.934 -137.826)"/></g><g transform="translate(61.241 122.838)"><rect class="b" width="47.293" height="12.388" rx="1.907" transform="translate(1.568 1.568)"/><path class="a" d="M108.746,132.119H65.852a3.773,3.773,0,0,1-3.768-3.769v-7.988a3.772,3.772,0,0,1,3.768-3.768h42.894a3.772,3.772,0,0,1,3.768,3.768v7.988A3.773,3.773,0,0,1,108.746,132.119ZM65.852,119.729a.64.64,0,0,0-.631.632v7.988a.64.64,0,0,0,.631.632h42.894a.64.64,0,0,0,.631-.632v-7.988a.64.64,0,0,0-.631-.632Z" transform="translate(-62.084 -116.594)"/></g><g transform="translate(49.7 121.625)"><path class="d" d="M123.814,116.9v3.928A3.182,3.182,0,0,1,120.647,124H56.607a3.18,3.18,0,0,1-3.168-3.169V116.9Z" transform="translate(-51.87 -115.333)"/><path class="a" d="M120.856,125.775H56.816a4.742,4.742,0,0,1-4.737-4.737v-5.5h73.513v5.5A4.742,4.742,0,0,1,120.856,125.775Zm-65.64-7.1v2.36a1.622,1.622,0,0,0,1.6,1.6h64.04a1.622,1.622,0,0,0,1.6-1.6v-2.36Z" transform="translate(-52.079 -115.542)"/></g><g transform="translate(37.94 96.838)"><path class="a" d="M132.982,121.978H47.82a5.943,5.943,0,0,1-5.936-5.936V99.99a5.942,5.942,0,0,1,5.936-5.935h85.162a5.942,5.942,0,0,1,5.935,5.935v16.052A5.943,5.943,0,0,1,132.982,121.978ZM47.82,97.19a2.8,2.8,0,0,0-2.8,2.8v16.052a2.8,2.8,0,0,0,2.8,2.8h85.162a2.8,2.8,0,0,0,2.8-2.8V99.99a2.8,2.8,0,0,0-2.8-2.8Z" transform="translate(-41.884 -94.055)"/></g><g transform="translate(107.885 113.501)"><path class="e" d="M104.707,113.19h2.921a2.277,2.277,0,0,0,2.189-2.345h0a2.277,2.277,0,0,0-2.189-2.345h-2.921a2.278,2.278,0,0,0-2.189,2.345h0A2.278,2.278,0,0,0,104.707,113.19Z" transform="translate(-102.518 -108.5)"/></g><g transform="translate(117.601 113.501)"><path class="e" d="M113.13,113.19h2.922a2.277,2.277,0,0,0,2.188-2.345h0a2.277,2.277,0,0,0-2.188-2.345H113.13a2.278,2.278,0,0,0-2.189,2.345h0A2.278,2.278,0,0,0,113.13,113.19Z" transform="translate(-110.941 -108.5)"/></g><g transform="translate(24.433 90.78)"><path class="d" d="M36.143,102.2a4.025,4.025,0,1,1-1.324-7.94c7.934-1.331,17-2.39,26.847-3.107C71.187,90.459,81.4,90.081,92,90.081s20.816.378,30.336,1.072c9.847.716,18.913,1.775,26.848,3.107a4.025,4.025,0,1,1-1.324,7.94c-7.664-1.285-16.474-2.312-26.09-3.012-9.241-.673-19.263-1.039-29.77-1.039s-20.528.367-29.769,1.039C52.616,99.887,43.806,100.914,36.143,102.2Z" transform="translate(-29.979 -88.607)"/><path class="a" d="M35.675,103.926A5.5,5.5,0,0,1,34.773,93c8.1-1.358,17.174-2.41,26.983-3.123S81.8,88.8,92.2,88.8s20.64.361,30.444,1.074S141.528,91.642,149.626,93a5.5,5.5,0,0,1-1.81,10.852c-7.742-1.3-16.474-2.307-25.955-3-9.44-.689-19.419-1.038-29.663-1.038s-20.223.35-29.662,1.038c-9.481.69-18.214,1.7-25.954,3h0A5.617,5.617,0,0,1,35.675,103.926ZM92.2,96.868c10.315,0,20.367.352,29.877,1.045,9.572.7,18.4,1.715,26.227,3.029a2.55,2.55,0,0,0,2.492-4,2.527,2.527,0,0,0-1.654-1.032c-8.009-1.344-17-2.384-26.713-3.092-9.733-.708-19.9-1.067-30.229-1.067s-20.5.359-30.229,1.067c-9.716.707-18.7,1.748-26.71,3.09a2.55,2.55,0,1,0,.836,5.031c7.832-1.314,16.654-2.331,26.226-3.028C71.831,97.219,81.883,96.868,92.2,96.868Z" transform="translate(-30.176 -88.803)"/></g><g transform="translate(48.338 89.078)"><path class="b" d="M2.62,0H41.456a2.621,2.621,0,0,1,2.621,2.621V16.071a2.621,2.621,0,0,1-2.621,2.621H2.621A2.621,2.621,0,0,1,0,16.072V2.62A2.62,2.62,0,0,1,2.62,0Z" transform="translate(1.568 1.568)"/><path class="a" d="M93.519,109.157H55.489a4.6,4.6,0,0,1-4.591-4.592V91.918a4.6,4.6,0,0,1,4.591-4.59H93.519a4.6,4.6,0,0,1,4.592,4.59v12.646A4.6,4.6,0,0,1,93.519,109.157ZM55.489,90.465a1.473,1.473,0,0,0-1.455,1.453v12.646a1.474,1.474,0,0,0,1.455,1.456H93.519a1.457,1.457,0,0,0,1.456-1.456V91.918a1.474,1.474,0,0,0-1.456-1.453Z" transform="translate(-50.898 -87.328)"/></g><g transform="translate(71.181 84.042)"><path class="c" d="M99.473,97.937a13.707,13.707,0,1,1-13.8-13.615A13.7,13.7,0,0,1,99.473,97.937Z" transform="translate(-70.492 -82.753)"/><path class="a" d="M85.973,113.511a15.275,15.275,0,0,1-.1-30.549h.106A15.292,15.292,0,0,1,101.25,98.134h0a15.27,15.27,0,0,1-15.171,15.377Zm0-27.412h-.085a12.138,12.138,0,0,0,.082,24.276h.085A12.135,12.135,0,0,0,98.114,98.157h0A12.154,12.154,0,0,0,85.977,86.1Z" transform="translate(-70.701 -82.962)"/></g><g transform="translate(77.445 89.994)"><path class="a" d="M85.14,106.767a9.348,9.348,0,0,1-8.97-6.777,1.046,1.046,0,0,1,2.013-.57,7.234,7.234,0,0,0,13.918,0,1.045,1.045,0,1,1,2.012.57,9.37,9.37,0,0,1-8.909,6.777Zm7.966-10.539a1.046,1.046,0,0,1-1.006-.76,7.247,7.247,0,0,0-6.956-5.256h-.051a7.266,7.266,0,0,0-6.911,5.256,1.046,1.046,0,0,1-2.013-.57,9.367,9.367,0,0,1,8.91-6.776h.066A9.343,9.343,0,0,1,94.113,94.9a1.046,1.046,0,0,1-.721,1.291A1.016,1.016,0,0,1,93.107,96.228Z" transform="translate(-76.131 -88.122)"/></g><g transform="translate(55.041 93.117)"><path class="c" d="M57.615,97.6a5.827,5.827,0,1,1,5.867,5.787A5.826,5.826,0,0,1,57.615,97.6Z" transform="translate(-56.57 -90.689)"/><path class="a" d="M63.58,104.576a6.881,6.881,0,0,1-6.871-6.824h0a6.871,6.871,0,0,1,6.826-6.918,6.616,6.616,0,0,1,4.871,1.98,6.871,6.871,0,0,1-4.778,11.764ZM58.8,97.735a4.787,4.787,0,0,0,4.78,4.749h.035A4.781,4.781,0,1,0,58.8,97.735Z" transform="translate(-56.709 -90.829)"/></g><g transform="translate(60.57 96.146)"><path class="b" d="M65.28,98.241A1.047,1.047,0,0,1,64.234,97.2a1.67,1.67,0,0,0-1.669-1.658.075.075,0,0,1-.016,0,1.045,1.045,0,0,1-.007-2.09h.023a3.765,3.765,0,0,1,3.761,3.734,1.045,1.045,0,0,1-1.038,1.052Z" transform="translate(-61.502 -93.455)"/></g><g transform="translate(53.898 44.703)"><path class="d" d="M119.152,50.14c-.075,11.055-13.96,20.006-31.074,20.006s-31-8.952-31.072-20.006Z" transform="translate(-55.52 -48.663)"/><path class="a" d="M88.276,71.818c-17.868,0-32.468-9.633-32.548-21.472l-.01-1.486h65.116l-.009,1.486C120.745,62.185,106.144,71.818,88.276,71.818ZM58.782,51.811c1.271,9.533,14.038,17.055,29.494,17.055S116.5,61.344,117.77,51.811Z" transform="translate(-55.718 -48.86)"/></g><g transform="translate(72.868 42.197)"><path class="d" d="M97.664,47.967c-.03,12.112-5.44,21.92-12.11,21.92s-12.08-9.808-12.109-21.92Z" transform="translate(-71.966 -46.492)"/><path class="a" d="M85.751,71.559c-7.586,0-13.553-10.275-13.584-23.391l0-1.48H99.339l0,1.48C99.3,61.284,93.337,71.559,85.751,71.559ZM75.15,49.64c.431,10.425,5.121,18.968,10.6,18.968s10.17-8.543,10.6-18.968Z" transform="translate(-72.163 -46.688)"/></g><g transform="translate(53.906 36.373)"><path class="c" d="M88.079,42.917c17.159,0,31.075,3.441,31.075,7.684s-13.915,7.683-31.075,7.683S57,54.843,57,50.6,70.919,42.917,88.079,42.917Z" transform="translate(-55.529 -41.443)"/><path class="a" d="M88.275,59.955c-15.677,0-32.55-2.865-32.55-9.158s16.873-9.158,32.55-9.158,32.55,2.865,32.55,9.158S103.952,59.955,88.275,59.955Zm0-15.365c-19.151,0-29.6,4.1-29.6,6.207S69.124,57,88.275,57s29.6-4.1,29.6-6.207S107.428,44.59,88.275,44.59Z" transform="translate(-55.725 -41.639)"/></g><g transform="translate(92.765 38.339)"><path class="f" d="M114.177,50.535c0-3.29-8.366-6.1-20.123-7.192a36.715,36.715,0,0,1-.771,4.937q-.291,1.279-.667,2.507a32.963,32.963,0,0,1-3.206,7.272q2.374-.121,4.605-.329c11.477-1.065,19.732-3.759,20.145-6.943A1.827,1.827,0,0,0,114.177,50.535Z" transform="translate(-89.411 -43.343)"/></g><g transform="translate(63.16 41.531)"><path class="d" d="M109.294,50.889a1.04,1.04,0,0,1-.306-.046C103.5,49.165,95.5,48.2,87.043,48.2s-16.461.962-21.944,2.641a1.045,1.045,0,1,1-.611-2c5.672-1.736,13.894-2.733,22.556-2.733s16.881,1,22.557,2.734a1.045,1.045,0,0,1-.306,2.045Z" transform="translate(-63.747 -46.11)"/></g><g transform="translate(53.906 36.373)"><path class="a" d="M88.275,59.955c-15.677,0-32.55-2.865-32.55-9.158s16.873-9.158,32.55-9.158,32.55,2.865,32.55,9.158S103.952,59.955,88.275,59.955Zm0-15.365c-19.151,0-29.6,4.1-29.6,6.207S69.124,57,88.275,57s29.6-4.1,29.6-6.207S107.428,44.59,88.275,44.59Z" transform="translate(-55.725 -41.639)"/></g><g transform="translate(81.809 22.377)"><path class="c" d="M87.538,56.161,86.133,30.785H82.508L81.192,56.161A16.821,16.821,0,0,0,87.538,56.161Z" transform="translate(-79.717 -29.31)"/><path class="a" d="M84.534,58.136a17.866,17.866,0,0,1-3.428-.331,1.476,1.476,0,0,1-1.19-1.524l1.317-25.376a1.474,1.474,0,0,1,1.472-1.4h3.624A1.475,1.475,0,0,1,87.8,30.9l1.405,25.376a1.477,1.477,0,0,1-1.2,1.531A18.71,18.71,0,0,1,84.534,58.136Zm-1.6-3.036a15.355,15.355,0,0,0,3.255,0L84.933,32.456h-.827Z" transform="translate(-79.913 -29.506)"/></g><g transform="translate(80.388 15.222)"><path class="d" d="M84.541,24.663a4.5,4.5,0,1,1-4.5,4.5A4.5,4.5,0,0,1,84.541,24.663Z" transform="translate(-78.473 -23.095)"/><path class="a" d="M84.75,35.439a6.068,6.068,0,1,1,6.069-6.068A6.074,6.074,0,0,1,84.75,35.439Zm0-9a2.932,2.932,0,1,0,2.932,2.932A2.936,2.936,0,0,0,84.75,26.439Z" transform="translate(-78.682 -23.304)"/></g><g transform="translate(80.729 93.589)"><path class="g" d="M84.7,102.693a5.727,5.727,0,1,0-5.727-5.727A5.739,5.739,0,0,0,84.7,102.693Z" transform="translate(-78.977 -91.238)"/><g transform="translate(1.64 1.64)"><path class="h" d="M84.486,100.833A4.086,4.086,0,1,0,80.4,96.747,4.095,4.095,0,0,0,84.486,100.833Z" transform="translate(-80.399 -92.66)"/></g><g transform="translate(4.514 2.874)"><path class="i" d="M85.991,97.85a1.046,1.046,0,0,1-1.045-1.039,1,1,0,0,0-1-.99h-.013a1.046,1.046,0,0,1-.007-2.091A3.1,3.1,0,0,1,87.036,96.8,1.046,1.046,0,0,1,86,97.85Z" transform="translate(-82.89 -93.729)"/></g></g><g transform="translate(110.14 72.237)"><path class="b" d="M111.612,87.017a3.463,3.463,0,0,1-2.874-1.685,5.8,5.8,0,0,0-.724-.81c-.268-.231-.563-.452-.861-.676-1.194-.9-2.681-2.013-2.681-3.968,0-1.909,1.147-3.019,2.158-4l.822-.821c1-1.035,2.247-2.322,4.159-2.322l.54,0c2.131-.025,5.034-.038,6.367,1.577.888,1.079.632,2.683.406,4.1a10.569,10.569,0,0,0-.172,1.467A7.147,7.147,0,0,1,111.612,87.017Zm1.145-12.194-.589,0-.556,0c-1.026,0-1.781.78-2.657,1.684l-.871.871c-.971.94-1.52,1.519-1.52,2.494,0,.85.7,1.435,1.846,2.3.337.254.67.5.974.768a7.6,7.6,0,0,1,1,1.092c.561.711.756.892,1.233.892a5.056,5.056,0,0,0,5.05-5.049,11.666,11.666,0,0,1,.2-1.8c.133-.832.333-2.088.045-2.437C116.292,74.9,114.266,74.823,112.758,74.823ZM110,81.084a3.961,3.961,0,0,1-2.1-.512,1.045,1.045,0,0,1,1.126-1.761,2.385,2.385,0,0,0,1.244.174,7.185,7.185,0,0,1,3.3-2.644,1.045,1.045,0,1,1,.848,1.91,4.8,4.8,0,0,0-2.522,2.118,1.038,1.038,0,0,1-.784.621A6.578,6.578,0,0,1,110,81.084Z" transform="translate(-104.473 -72.729)"/></g><g transform="translate(48.452 113.501)"><path class="f" d="M53.186,113.19h2.921a2.278,2.278,0,0,0,2.189-2.345h0a2.278,2.278,0,0,0-2.189-2.345H53.186A2.278,2.278,0,0,0,51,110.845h0A2.278,2.278,0,0,0,53.186,113.19Z" transform="translate(-50.997 -108.5)"/></g><g transform="translate(58.168 113.501)"><path class="f" d="M61.609,113.19H64.53a2.278,2.278,0,0,0,2.189-2.345h0A2.278,2.278,0,0,0,64.53,108.5H61.609a2.278,2.278,0,0,0-2.189,2.345h0A2.278,2.278,0,0,0,61.609,113.19Z" transform="translate(-59.42 -108.5)"/></g><g transform="translate(9.802 141.715)"><path class="b" d="M21.7,141.332a1.045,1.045,0,0,1-1.045-1.039,2.1,2.1,0,0,0-2.1-2.082.1.1,0,0,1-.018,0,1.045,1.045,0,0,1-1.045-1.041v-.007a1.045,1.045,0,0,1,1.038-1.044,2.1,2.1,0,0,0,2.083-2.109V134a1.046,1.046,0,0,1,1.038-1.045h.007A1.046,1.046,0,0,1,22.7,134a2.1,2.1,0,0,0,2.1,2.081.062.062,0,0,1,.021,0,1.045,1.045,0,0,1,1.045,1.038v.007a1.044,1.044,0,0,1-1.038,1.045,2.1,2.1,0,0,0-2.082,2.112v.006a1.047,1.047,0,0,1-1.038,1.046Zm-.4-4.184a4.1,4.1,0,0,1,.377.371c.058-.067.119-.132.182-.2s.126-.125.193-.183a4.246,4.246,0,0,1-.377-.371c-.058.067-.119.132-.181.2S21.37,137.089,21.3,137.148Z" transform="translate(-17.492 -132.958)"/></g><g transform="translate(22.917 16.738)"><path class="b" d="M39.648,46.062A1.045,1.045,0,0,1,38.6,45.023a8.629,8.629,0,0,0-8.63-8.571c-.023,0-.048,0-.067,0a1.045,1.045,0,0,1-1.045-1.039v-.006A1.047,1.047,0,0,1,29.9,34.361a8.647,8.647,0,0,0,8.576-8.691v-.007a1.045,1.045,0,0,1,1.039-1.045h.006a1.045,1.045,0,0,1,1.045,1.038,8.565,8.565,0,0,0,2.567,6.085,8.752,8.752,0,0,0,6.12,2.488h.007A1.045,1.045,0,0,1,50.3,35.268v.007a1.046,1.046,0,0,1-1.038,1.046,8.626,8.626,0,0,0-8.571,8.689v.007a1.045,1.045,0,0,1-1.039,1.045ZM34.53,35.372a10.811,10.811,0,0,1,5.087,5.013,10.823,10.823,0,0,1,5.011-5.079,10.829,10.829,0,0,1-5.083-5.02A10.793,10.793,0,0,1,34.53,35.372Z" transform="translate(-28.861 -24.618)"/></g><g transform="translate(98.581 9.57)"><path class="j" d="M98.661,26.778a1.046,1.046,0,0,1-1.045-1.038,2.1,2.1,0,0,0-2.1-2.083.062.062,0,0,0-.021,0,1.045,1.045,0,0,1-1.045-1.038v-.007a1.045,1.045,0,0,1,1.038-1.046,2.1,2.1,0,0,0,2.083-2.108V19.45A1.046,1.046,0,0,1,98.613,18.4h.007a1.047,1.047,0,0,1,1.046,1.038,2.1,2.1,0,0,0,2.1,2.081.063.063,0,0,1,.021,0,1.046,1.046,0,0,1,1.045,1.039v.007a1.045,1.045,0,0,1-1.038,1.045,2.1,2.1,0,0,0-2.082,2.111v.007a1.045,1.045,0,0,1-1.039,1.045Zm-.4-4.184a4.422,4.422,0,0,1,.377.373,4.323,4.323,0,0,1,.376-.38,4.132,4.132,0,0,1-.38-.373c-.058.067-.118.132-.18.195S98.331,22.535,98.266,22.594Z" transform="translate(-94.453 -18.404)"/></g><g transform="translate(19.853 126.44)"><path class="j" d="M32.646,132.523a1.044,1.044,0,0,1-1.045-1.038,4.345,4.345,0,0,0-4.343-4.283h-.007a1.047,1.047,0,0,1-1.046-1.038v-.007a1.046,1.046,0,0,1,1.039-1.046,4.319,4.319,0,0,0,4.285-4.342v-.007a1.045,1.045,0,0,1,1.038-1.045h.007a1.045,1.045,0,0,1,1.045,1.038,4.284,4.284,0,0,0,1.283,3.041,4.222,4.222,0,0,0,3.058,1.242h.007a1.044,1.044,0,0,1,1.045,1.038v.007a1.045,1.045,0,0,1-1.037,1.045,4.32,4.32,0,0,0-4.284,4.343v.007a1.045,1.045,0,0,1-1.038,1.045Zm-1.892-6.391a6.463,6.463,0,0,1,1.868,1.843,6.447,6.447,0,0,1,1.84-1.866,6.489,6.489,0,0,1-1.866-1.841A6.457,6.457,0,0,1,30.755,126.132Z" transform="translate(-26.205 -119.716)"/></g><g transform="translate(11.603 49.428)"><path class="k" d="M33.6,82.059A14.552,14.552,0,1,1,48.157,67.508,14.568,14.568,0,0,1,33.6,82.059Zm0-27.013A12.461,12.461,0,1,0,46.066,67.508,12.475,12.475,0,0,0,33.6,55.046Z" transform="translate(-19.053 -52.956)"/><g transform="translate(1.528 5.308)"><path class="k" d="M39.577,79.1a.728.728,0,0,1-.14-.015,46.856,46.856,0,0,1-8.524-3.269c-3.768-1.722-7.317-3.346-9.848-3.1a.627.627,0,1,1-.122-1.248c2.856-.29,6.566,1.412,10.492,3.206a46.023,46.023,0,0,0,8.279,3.187.627.627,0,0,1-.137,1.239ZM41.621,76c-3.018,0-6.633-1.765-9.555-3.883-3.179-2.3-6.288-5.587-5.6-7.352.208-.539.81-1.14,2.5-.949a48.45,48.45,0,0,0,8.458-.323c3.433-.314,6.676-.61,8.609-.188a.628.628,0,0,1-.268,1.226c-1.744-.383-5.04-.082-8.227.211a48.7,48.7,0,0,1-8.713.32c-.791-.089-1.143.046-1.186.156-.226.583,1.351,3.116,5.17,5.884,3.659,2.651,8.882,4.968,11.562,2.773a.628.628,0,0,1,.795.971A5.428,5.428,0,0,1,41.621,76Zm-1.345-3.208c-1.8,0-4.712-2.568-4.712-3.815,0-1.52,3.253-2.136,4.61-2.136,1.856,0,3.731.589,3.731,1.9C43.9,69.873,42.178,72.787,40.276,72.787Zm-.1-4.7a5.857,5.857,0,0,0-3.368.953c.123.493,2.343,2.488,3.471,2.488,1.076,0,2.373-2.247,2.373-2.792C42.6,68.547,41.7,68.091,40.173,68.091ZM33.6,61.876a21.419,21.419,0,0,1-8.352-2c-1.006-.4-1.954-.78-2.945-1.09a.627.627,0,1,1,.375-1.2c1.037.324,2.052.73,3.035,1.122,4.469,1.786,9.092,3.63,18.058-.99a.627.627,0,0,1,.574,1.115C39.947,61.1,36.491,61.876,33.6,61.876Z" transform="translate(-20.377 -57.558)"/></g></g><g transform="translate(141.085 59.275)"><path class="k" d="M147.265,78.5H132.344a1.045,1.045,0,0,1-1.045-1.045V62.537a1.045,1.045,0,0,1,1.045-1.045h14.921a1.046,1.046,0,0,1,1.045,1.045V77.458A1.046,1.046,0,0,1,147.265,78.5Zm-13.876-2.09h12.83V63.583h-12.83Z" transform="translate(-131.299 -61.492)"/><g transform="translate(0.1 0.228)"><path class="k" d="M152.117,83.058H137.2a1.049,1.049,0,0,1-.715-.283l-4.765-4.465a1.045,1.045,0,0,1,1.429-1.526l4.464,4.183h13.462V67.546L146.739,63.5a1.046,1.046,0,1,1,1.427-1.528l4.664,4.358a1.042,1.042,0,0,1,.332.764v14.92A1.046,1.046,0,0,1,152.117,83.058Z" transform="translate(-131.385 -61.689)"/></g><g transform="translate(15.121 14.877)"><path class="k" d="M150.117,80.835a1.044,1.044,0,0,1-.714-.281L144.739,76.2a1.045,1.045,0,1,1,1.427-1.527l4.664,4.356a1.045,1.045,0,0,1-.713,1.809Z" transform="translate(-144.407 -74.388)"/></g></g><g transform="translate(156.331 105.497)"><path class="j" d="M148.723,109.935a1.045,1.045,0,0,1-1.045-1.038,2.083,2.083,0,0,0-.623-1.479,1.949,1.949,0,0,0-1.488-.6,1.042,1.042,0,0,1-1.052-1.038v-.007a1.044,1.044,0,0,1,1.038-1.045,2.1,2.1,0,0,0,2.083-2.109v-.006a1.047,1.047,0,0,1,1.038-1.047h.007a1.047,1.047,0,0,1,1.046,1.038,2.1,2.1,0,0,0,2.095,2.081h.022a1.047,1.047,0,0,1,1.045,1.039v.007a1.045,1.045,0,0,1-1.039,1.045,2.1,2.1,0,0,0-2.081,2.111v.007a1.046,1.046,0,0,1-1.039,1.045Zm-.395-4.185c.067.058.132.118.195.18s.125.127.183.193a4.282,4.282,0,0,1,.374-.378,3.987,3.987,0,0,1-.38-.373c-.058.067-.118.132-.18.195S148.394,105.691,148.329,105.75Z" transform="translate(-144.515 -101.561)"/></g><g transform="translate(147.694 121.574)"><path class="b" d="M147.815,136.942a1.046,1.046,0,0,1-1.045-1.039,8.629,8.629,0,0,0-8.63-8.57.647.647,0,0,1-.067,0,1.045,1.045,0,0,1-1.045-1.039v-.007a1.046,1.046,0,0,1,1.038-1.045,8.645,8.645,0,0,0,8.574-8.691v-.007a1.046,1.046,0,0,1,1.039-1.045h.006a1.047,1.047,0,0,1,1.046,1.038,8.627,8.627,0,0,0,8.626,8.573c.023,0,.047,0,.067,0a1.045,1.045,0,0,1,1.045,1.038v.007a1.046,1.046,0,0,1-1.038,1.045,8.64,8.64,0,0,0-8.571,8.69v.007a1.045,1.045,0,0,1-1.039,1.045Zm-5.118-10.69a10.807,10.807,0,0,1,5.091,5.021,10.8,10.8,0,0,1,5.016-5.084,10.8,10.8,0,0,1-5.091-5.023A10.8,10.8,0,0,1,142.7,126.252Z" transform="translate(-137.028 -115.498)"/></g><g transform="translate(167.963 115.397)"><path class="k" d="M158.816,118.579a4.218,4.218,0,1,1,4.217-4.217A4.224,4.224,0,0,1,158.816,118.579Zm0-6.345a2.127,2.127,0,1,0,2.127,2.127A2.129,2.129,0,0,0,158.816,112.234Z" transform="translate(-154.599 -110.143)"/></g><g transform="translate(128.544 16.866)"><path class="f" d="M121.411,35.465h4.552a.985.985,0,0,1,.982.983h0a.986.986,0,0,1-.982.983h-4.552a.988.988,0,0,1-.984-.983h0a.986.986,0,0,1,.984-.983Zm11.718,7.167v4.552a.987.987,0,0,1-.983.983h0a.985.985,0,0,1-.983-.983V42.632a.985.985,0,0,1,.983-.983h0a.986.986,0,0,1,.983.983Zm0-8.46v1.293h1.293a.985.985,0,0,1,.983.983h0a.986.986,0,0,1-.983.983h-1.293v1.293a.985.985,0,0,1-.983.983h0a.985.985,0,0,1-.983-.983V37.431H129.87a.987.987,0,0,1-.983-.983h0a.986.986,0,0,1,.983-.983h1.293V34.172a.985.985,0,0,1,.983-.983h0a.985.985,0,0,1,.983.983Zm0-8.46v4.552a.986.986,0,0,1-.983.983h0a.985.985,0,0,1-.983-.983V25.712a.985.985,0,0,1,.983-.983h0a.986.986,0,0,1,.983.983Zm5.2,9.753h4.552a.985.985,0,0,1,.983.983h0a.987.987,0,0,1-.983.983H138.33a.987.987,0,0,1-.983-.983h0A.985.985,0,0,1,138.33,35.465Z" transform="translate(-120.427 -24.729)"/></g><g transform="translate(0 103.32)"><path class="f" d="M9.844,107.243h2.221a.852.852,0,0,1,.85.85h0a.854.854,0,0,1-.85.85H9.844a.854.854,0,0,1-.849-.85H9a.852.852,0,0,1,.849-.85Zm8.42,6.2v2.221a.854.854,0,0,1-.85.85h0a.852.852,0,0,1-.85-.85v-2.221a.852.852,0,0,1,.85-.85h0a.855.855,0,0,1,.85.85Zm0-7.316v1.118h1.118a.853.853,0,0,1,.85.85h0a.853.853,0,0,1-.85.85H18.264v1.118a.852.852,0,0,1-.85.85h0a.852.852,0,0,1-.85-.85v-1.118H15.445a.852.852,0,0,1-.849-.85h0a.852.852,0,0,1,.849-.85h1.119v-1.118a.852.852,0,0,1,.85-.85h0a.852.852,0,0,1,.85.85Zm0-5.6v2.221a.855.855,0,0,1-.85.85h0a.852.852,0,0,1-.85-.85v-2.221a.852.852,0,0,1,.85-.85h0a.855.855,0,0,1,.85.85Zm4.5,6.718h2.221a.853.853,0,0,1,.85.85h0a.855.855,0,0,1-.85.85H22.762a.855.855,0,0,1-.85-.85h0A.852.852,0,0,1,22.762,107.243Z" transform="translate(-8.995 -99.674)"/></g><g transform="translate(66.016 0)"><path class="f" d="M70.62,10.958v1.848h1.848a.851.851,0,0,1,.849.849h0a.855.855,0,0,1-.849.85H70.62v1.848a.855.855,0,0,1-.85.85h0a.853.853,0,0,1-.85-.85V14.505H67.073a.855.855,0,0,1-.85-.85h0a.851.851,0,0,1,.85-.849H68.92V10.958a.853.853,0,0,1,.85-.85h0A.856.856,0,0,1,70.62,10.958Z" transform="translate(-66.223 -10.108)"/></g><g transform="translate(57.798 13.553)"><path class="k" d="M63.316,30.293a4.218,4.218,0,1,1,4.217-4.217A4.223,4.223,0,0,1,63.316,30.293Zm0-6.345a2.127,2.127,0,1,0,2.126,2.127A2.129,2.129,0,0,0,63.316,23.948Z" transform="translate(-59.099 -21.857)"/></g><g transform="translate(46.453 70.237)"><path class="f" d="M53.661,71.844v1.848h1.847a.852.852,0,0,1,.85.85h0a.855.855,0,0,1-.85.849H53.661v1.848a.856.856,0,0,1-.85.85h0a.852.852,0,0,1-.85-.85V75.391H50.114a.855.855,0,0,1-.85-.849h0a.852.852,0,0,1,.85-.85h1.847V71.844a.851.851,0,0,1,.85-.849h0A.856.856,0,0,1,53.661,71.844Z" transform="translate(-49.264 -70.995)"/></g></svg>