<svg xmlns="http://www.w3.org/2000/svg" width="167.666" height="178.021" viewBox="0 0 167.666 178.021"><defs><style>.a,.g{fill:#fff;}.b,.j{fill:#522a75;}.c,.e{fill:#c6c3e1;}.c,.f,.g,.h,.j{fill-rule:evenodd;}.d,.f{fill:#9a94c8;}.h,.k{fill:#eb008b;}.i{fill:#eb80ab;}.l{fill:#e0deef;}</style></defs><g transform="translate(11.951 64.567)"><path class="a" d="M34.828-367.143h24.64a2.4,2.4,0,0,1,2.364,2.5l.619,68.922a2.623,2.623,0,0,1-2.636,2.5H26.426a2.3,2.3,0,0,1-2.364-2.5l8.13-68.922A2.746,2.746,0,0,1,34.828-367.143Z" transform="translate(-22.478 368.711)"/><path class="b" d="M60.024-291.445H26.635a4.007,4.007,0,0,1-3-1.335,3.684,3.684,0,0,1-.924-2.916l8.13-68.922a4.3,4.3,0,0,1,4.193-3.884h24.64a3.977,3.977,0,0,1,3.931,4.054l.619,68.922a3.923,3.923,0,0,1-1.171,2.8A4.306,4.306,0,0,1,60.024-291.445Zm-24.987-73.92a1.19,1.19,0,0,0-1.079,1.114l-8.13,68.922a.574.574,0,0,0,.153.466.88.88,0,0,0,.653.281h33.39a1.164,1.164,0,0,0,.805-.35.833.833,0,0,0,.262-.568l-.618-68.922a.855.855,0,0,0-.8-.945Z" transform="translate(-22.687 368.502)"/></g><g transform="translate(15.017 120.033)"><path class="b" d="M26.39-318.315a1.045,1.045,0,0,1-1.045-1.045,1.045,1.045,0,0,1,1.044-1.045l35.129-.014h0a1.047,1.047,0,0,1,1.046,1.045,1.046,1.046,0,0,1-1.045,1.045l-35.129.014Z" transform="translate(-25.345 320.419)"/></g><g transform="translate(19.789 80.437)"><path class="b" d="M30.528-352.639a1.046,1.046,0,0,1-1.046-1.045,1.047,1.047,0,0,1,1.045-1.046l29.9-.014h0a1.045,1.045,0,0,1,1.045,1.045,1.047,1.047,0,0,1-1.045,1.046l-29.9.014Z" transform="translate(-29.482 354.744)"/></g><g transform="translate(19.106 123.808)"><path class="c" d="M31.526-317.147H56.16a2.2,2.2,0,0,1,2.184,2.311l-.091,9.049c-.038,3.785-4.016,1.805-5.56,1.145l-20.93-8.939c-2.1-.9-2.978-1.609-2.863-2.321S30.045-317.147,31.526-317.147Z" transform="translate(-28.889 317.147)"/></g><g transform="translate(21.397 103.046)"><path class="c" d="M33.512-335.145H55.736a2.2,2.2,0,0,1,2.184,2.311l-.091,9.047c-.038,3.786-4.052,1.873-5.56,1.146l-18.52-8.939c-2.051-.99-2.979-1.609-2.863-2.321S32.031-335.145,33.512-335.145Z" transform="translate(-30.876 335.145)"/></g><g transform="translate(23.908 83.89)"><path class="c" d="M35.688-351.751H55.1a2.205,2.205,0,0,1,2.185,2.311l-.092,9.049c-.038,3.785-4.112,1.969-5.56,1.145l-15.709-8.94c-1.971-1.122-2.979-1.609-2.863-2.321S34.207-351.751,35.688-351.751Z" transform="translate(-33.052 351.751)"/></g><g transform="translate(26.233 69.066)"><path class="c" d="M37.416-364.6H54.694a1.98,1.98,0,0,1,1.944,2.057l.072,5.241c.047,3.365-3.55,1.528-4.949,1.02l-14.135-5.144c-1.906-.694-2.651-1.433-2.548-2.066S36.1-364.6,37.416-364.6Z" transform="translate(-35.068 364.602)"/></g><g transform="translate(16.932 99.633)"><path class="b" d="M28.05-336a1.046,1.046,0,0,1-1.045-1.045,1.045,1.045,0,0,1,1.045-1.045l33.36-.015h0a1.046,1.046,0,0,1,1.045,1.045,1.046,1.046,0,0,1-1.045,1.046L28.05-336Z" transform="translate(-27.005 338.104)"/></g><g transform="translate(31.91 65.154)"><path class="b" d="M41.035-291.968h-.058a1.044,1.044,0,0,1-.986-1.1L44.006-367a1.047,1.047,0,0,1,1.1-.987,1.045,1.045,0,0,1,.987,1.1l-4.016,73.935A1.045,1.045,0,0,1,41.035-291.968Z" transform="translate(-39.99 367.992)"/></g><g transform="translate(111.957 64.567)"><path class="a" d="M138.362-367.143h-24.64a2.4,2.4,0,0,0-2.364,2.5l-.619,68.922a2.623,2.623,0,0,0,2.636,2.5h33.39a2.3,2.3,0,0,0,2.364-2.5L141-364.643A2.745,2.745,0,0,0,138.362-367.143Z" transform="translate(-109.171 368.711)"/><path class="b" d="M146.973-291.445h-33.39a4.3,4.3,0,0,1-3.033-1.279,3.917,3.917,0,0,1-1.171-2.8L110-364.448a3.979,3.979,0,0,1,3.932-4.054h24.64a4.3,4.3,0,0,1,4.193,3.884L150.9-295.7a3.694,3.694,0,0,1-.925,2.917A4.009,4.009,0,0,1,146.973-291.445Zm-33.043-73.92a.856.856,0,0,0-.8.946l-.618,68.921a.833.833,0,0,0,.262.568,1.164,1.164,0,0,0,.805.35h33.39a.886.886,0,0,0,.654-.281.577.577,0,0,0,.152-.466l-8.13-68.922a1.19,1.19,0,0,0-1.079-1.114Z" transform="translate(-109.38 368.502)"/></g><g transform="translate(113.212 120.033)"><path class="b" d="M146.643-318.315h0l-35.129-.014a1.045,1.045,0,0,1-1.045-1.045,1.046,1.046,0,0,1,1.045-1.045h0l35.129.014a1.045,1.045,0,0,1,1.044,1.045A1.045,1.045,0,0,1,146.643-318.315Z" transform="translate(-110.468 320.419)"/></g><g transform="translate(113.669 80.437)"><path class="b" d="M141.809-352.639h0l-29.9-.014a1.047,1.047,0,0,1-1.045-1.046,1.046,1.046,0,0,1,1.045-1.045h0l29.9.014a1.047,1.047,0,0,1,1.045,1.046A1.045,1.045,0,0,1,141.809-352.639Z" transform="translate(-110.864 354.744)"/></g><g transform="translate(117.697 123.808)"><path class="c" d="M116.865-317.147H141.5a2.48,2.48,0,0,1,2.408,2.311l.779,9.049c.326,3.785-3.841,1.805-5.449,1.145l-21.79-8.939c-2.187-.9-3.134-1.609-3.087-2.321S115.384-317.147,116.865-317.147Z" transform="translate(-114.357 317.147)"/></g><g transform="translate(118.07 103.046)"><path class="c" d="M117.189-335.145h22.225a2.478,2.478,0,0,1,2.406,2.311l.779,9.047c.326,3.786-3.873,1.873-5.451,1.146l-19.38-8.939c-2.146-.99-3.134-1.609-3.087-2.321S115.708-335.145,117.189-335.145Z" transform="translate(-114.68 335.145)"/></g><g transform="translate(118.738 83.89)"><path class="c" d="M117.767-351.751H137.18a2.48,2.48,0,0,1,2.407,2.311l.779,9.049c.325,3.785-3.923,1.969-5.451,1.145l-16.569-8.94c-2.08-1.122-3.134-1.609-3.087-2.321S116.286-351.751,117.767-351.751Z" transform="translate(-115.259 351.751)"/></g><g transform="translate(119.624 69.066)"><path class="c" d="M118.259-364.6h17.279a2.226,2.226,0,0,1,2.141,2.057l.577,5.241c.369,3.365-3.4,1.528-4.851,1.02l-14.629-5.144c-1.974-.694-2.79-1.433-2.748-2.066S116.942-364.6,118.259-364.6Z" transform="translate(-116.027 364.602)"/></g><g transform="translate(113.065 99.633)"><path class="b" d="M144.747-336h0l-33.361-.014a1.046,1.046,0,0,1-1.044-1.046,1.045,1.045,0,0,1,1.045-1.045h0l33.361.015a1.045,1.045,0,0,1,1.045,1.045A1.046,1.046,0,0,1,144.747-336Z" transform="translate(-110.341 338.104)"/></g><g transform="translate(127.432 65.154)"><path class="b" d="M127.856-291.968a1.045,1.045,0,0,1-1.043-.987L122.8-366.89a1.045,1.045,0,0,1,.987-1.1,1.036,1.036,0,0,1,1.1.987l4.014,73.934a1.044,1.044,0,0,1-.986,1.1Z" transform="translate(-122.796 367.992)"/></g><g transform="translate(95.968 96.241)"><path class="d" d="M98.383-333.828h14.19c3.4,0,3.395-5.937,0-5.937H98.383a1.613,1.613,0,0,0-1.584,1.63v2.677A1.611,1.611,0,0,0,98.383-333.828Z" transform="translate(-95.324 341.24)"/><path class="b" d="M112.769-332.156H98.579a3.086,3.086,0,0,1-3.059-3.105v-2.677a3.086,3.086,0,0,1,3.059-3.105h14.19c2.33,0,4.021,1.87,4.021,4.445a4.85,4.85,0,0,1-.939,2.936A3.789,3.789,0,0,1,112.769-332.156Zm-14.19-5.937a.149.149,0,0,0-.108.155v2.677a.147.147,0,0,0,.108.156h14.19c1.042,0,1.072-1.34,1.072-1.494s-.03-1.494-1.072-1.494Z" transform="translate(-95.52 341.044)"/></g><g transform="translate(48.21 96.241)"><path class="d" d="M72.136-333.828H57.946c-3.4,0-3.4-5.937,0-5.937h14.19a1.613,1.613,0,0,1,1.583,1.63v2.677A1.611,1.611,0,0,1,72.136-333.828Z" transform="translate(-53.922 341.24)"/><path class="b" d="M72.333-332.156H58.143c-2.331,0-4.024-1.869-4.024-4.444a4.853,4.853,0,0,1,.94-2.936,3.791,3.791,0,0,1,3.083-1.509h14.19a3.086,3.086,0,0,1,3.058,3.105v2.677A3.086,3.086,0,0,1,72.333-332.156Zm-14.19-5.937c-1.043,0-1.072,1.342-1.072,1.494s.029,1.494,1.072,1.494h14.19a.147.147,0,0,0,.107-.156v-2.677a.148.148,0,0,0-.107-.155Z" transform="translate(-54.119 341.044)"/></g><g transform="translate(65.652 146.628)"><path class="b" d="M86.313-273.674c-6.774,0-12.863-1.765-15.514-4.5a4.942,4.942,0,0,1-1.557-3.637v-13.825a1.729,1.729,0,0,1,1.73-1.73h30.684a1.729,1.729,0,0,1,1.73,1.73v13.869C103.384-276.506,94.588-273.674,86.313-273.674ZM72.7-293.9v12.139a1.656,1.656,0,0,0,.581,1.184c1.61,1.66,6.376,3.447,13.031,3.447,8.309,0,13.611-2.737,13.611-4.622V-293.9Z" transform="translate(-69.239 297.365)"/></g><g transform="translate(61.107 134.781)"><path class="e" d="M106.758-306.276H66.66v18.137c-.14,4.581,8.978,8.3,20.049,8.3s20.049-3.718,20.049-8.3v-18.137Z" transform="translate(-65.09 307.844)"/><path class="b" d="M86.918-278.061c-8.675,0-16.437-2.224-19.777-5.667a5.855,5.855,0,0,1-1.84-4.25v-18.089a1.569,1.569,0,0,1,1.568-1.568h40.1a1.569,1.569,0,0,1,1.568,1.568v18.126C108.535-282.3,99.241-278.061,86.918-278.061ZM68.437-304.5v16.558a2.817,2.817,0,0,0,.956,2.03c2.276,2.346,8.578,4.715,17.525,4.715,10.577,0,18.48-3.555,18.48-6.733V-304.5Z" transform="translate(-65.299 307.635)"/></g><g transform="translate(63.561 131.538)"><path class="f" d="M86.423-296.656c10.463,0,19-3.1,19-6.895s-8.533-6.895-19-6.895-19,3.1-19,6.895S75.96-296.656,86.423-296.656Z" transform="translate(-67.427 310.446)"/></g><g transform="translate(60.945 134.618)"><path class="b" d="M86.939-277.877c-8.716,0-16.525-2.244-19.893-5.717a6.008,6.008,0,0,1-1.885-4.367v-18.084a1.729,1.729,0,0,1,1.73-1.73h40.1a1.73,1.73,0,0,1,1.73,1.73v18.126C108.719-282.19,99.355-277.877,86.939-277.877ZM68.621-304.315v16.4a2.666,2.666,0,0,0,.91,1.917c2.665,2.747,9.823,4.665,17.408,4.665,11.35,0,18.319-3.828,18.319-6.571v-16.407Z" transform="translate(-65.159 307.776)"/></g><g transform="translate(61.575 138.272)"><path class="b" d="M86.856-296.608c-9.32,0-17.718-2.5-20.9-6.206a1.046,1.046,0,0,1,.113-1.474,1.045,1.045,0,0,1,1.474.113c2.764,3.224,10.7,5.476,19.312,5.476s16.554-2.277,19.3-5.537a1.045,1.045,0,0,1,1.473-.125,1.047,1.047,0,0,1,.126,1.473C104.54-299.073,96.336-296.608,86.856-296.608Z" transform="translate(-65.705 304.608)"/></g><g transform="translate(56.754 109.899)"><path class="e" d="M111.5-327.7H63.028v18.362c-.168,5.538,10.854,10.036,24.239,10.036s24.239-4.494,24.239-10.036V-327.7Z" transform="translate(-61.295 329.434)"/><path class="b" d="M87.5-297.345c-10.443,0-19.781-2.671-23.79-6.8a6.919,6.919,0,0,1-2.179-5.018v-18.309a1.731,1.731,0,0,1,1.73-1.73h48.476a1.73,1.73,0,0,1,1.73,1.73v18.35C113.466-302.4,102.3-297.345,87.5-297.345Zm-22.508-28.4v16.619a3.555,3.555,0,0,0,1.2,2.568c3.337,3.44,11.9,5.751,21.306,5.751,13.264,0,22.508-4.378,22.508-8.306v-16.632Z" transform="translate(-61.526 329.204)"/></g><g transform="translate(56.823 99.364)"><path class="d" d="M87.279-336.978c-13.437,0-24.333,4.5-24.333,10.037S73.843-316.9,87.279-316.9s24.332-4.494,24.332-10.036S100.715-336.978,87.279-336.978Z" transform="translate(-61.377 338.546)"/><path class="b" d="M87.488-315.128c-14.767,0-25.9-4.989-25.9-11.6s11.135-11.6,25.9-11.6,25.9,4.989,25.9,11.6S102.254-315.128,87.488-315.128Zm0-20.072c-13.416,0-22.766,4.463-22.766,8.468s9.35,8.467,22.766,8.467,22.764-4.462,22.764-8.467S100.9-335.2,87.488-335.2Z" transform="translate(-61.586 338.337)"/></g><g transform="translate(65.514 35.768)"><path class="a" d="M70.479-392.108h31.286v71.381h-.013c-.335,3.441-7.205,6.189-15.63,6.189s-15.3-2.748-15.63-6.189h-.014v-71.381Z" transform="translate(-68.911 393.676)"/><path class="b" d="M86.331-312.762c-8.041,0-16.426-2.526-17.16-7.361a1.589,1.589,0,0,1-.051-.4V-391.9a1.569,1.569,0,0,1,1.568-1.568h31.286a1.569,1.569,0,0,1,1.568,1.568v71.381a1.571,1.571,0,0,1-.051.4C102.753-315.287,94.371-312.762,86.331-312.762Zm-14.075-7.962.006.054c.194,1.993,5.64,4.772,14.069,4.772s13.875-2.779,14.069-4.772l.006-.05V-390.33H72.257Z" transform="translate(-69.12 393.467)"/></g><g transform="translate(82.668 37.336)"><path class="e" d="M83.99-392.108h15.7v71.381h-.013c-.335,3.441-7.205,6.189-15.63,6.189H83.99Z" transform="translate(-83.99 392.108)"/></g><g transform="translate(76.541 94.65)"><path class="g" d="M84.714-330.352a6.047,6.047,0,0,0,6.035-6.035,6.047,6.047,0,0,0-6.035-6.035,6.047,6.047,0,0,0-6.035,6.035A6.048,6.048,0,0,0,84.714-330.352Z" transform="translate(-78.679 342.423)"/></g><g transform="translate(78.27 96.378)"><path class="h" d="M84.484-332.311a4.315,4.315,0,0,0,4.306-4.306,4.316,4.316,0,0,0-4.306-4.307,4.316,4.316,0,0,0-4.306,4.307A4.315,4.315,0,0,0,84.484-332.311Z" transform="translate(-80.178 340.925)"/></g><g transform="translate(81.353 97.735)"><path class="i" d="M86.063-335.521a1.046,1.046,0,0,1-1.046-1.038,1.108,1.108,0,0,0-1.107-1.1H83.9A1.046,1.046,0,0,1,82.85-338.7a1.046,1.046,0,0,1,1.039-1.051h.02a3.2,3.2,0,0,1,3.2,3.176,1.045,1.045,0,0,1-1.039,1.052Z" transform="translate(-82.85 339.749)"/></g><g transform="translate(65.352 35.605)"><path class="b" d="M86.353-312.577c-8.106,0-16.561-2.571-17.318-7.49a1.7,1.7,0,0,1-.055-.429v-71.381a1.731,1.731,0,0,1,1.73-1.73H102a1.73,1.73,0,0,1,1.73,1.73V-320.5a1.778,1.778,0,0,1-.054.433C102.909-315.147,94.457-312.577,86.353-312.577ZM72.44-320.712l.006.048c.188,1.932,5.569,4.626,13.907,4.626s13.719-2.694,13.907-4.626l0-.044v-69.44H72.44Z" transform="translate(-68.979 393.608)"/></g><g transform="translate(60.775 29.168)"><path class="e" d="M107.133-397.828H66.373v8.48c-.141,4.657,9.126,8.439,20.381,8.439s20.38-3.78,20.38-8.439v-8.48Z" transform="translate(-64.803 399.397)"/><path class="b" d="M86.962-379.131c-8.81,0-16.693-2.259-20.085-5.754a5.93,5.93,0,0,1-1.863-4.3v-8.433a1.568,1.568,0,0,1,1.568-1.569h40.76a1.569,1.569,0,0,1,1.568,1.569v8.469C108.911-383.434,99.475-379.131,86.962-379.131ZM68.15-396.051v6.9a2.883,2.883,0,0,0,.979,2.081c2.318,2.39,8.731,4.8,17.833,4.8,10.767,0,18.812-3.628,18.812-6.872v-6.912Z" transform="translate(-65.012 399.188)"/></g><g transform="translate(60.697 20.093)"><path class="a" d="M86.764-405.7c-11.3,0-20.461,3.779-20.461,8.439s9.164,8.438,20.461,8.438,20.46-3.779,20.46-8.438S98.061-405.7,86.764-405.7Z" transform="translate(-64.735 407.264)"/><path class="b" d="M86.972-387.042c-12.559,0-22.028-4.3-22.028-10.007s9.47-10.006,22.028-10.006S109-402.753,109-397.049,99.53-387.042,86.972-387.042Zm0-16.877c-10.813,0-18.893,3.627-18.893,6.869s8.08,6.872,18.893,6.872,18.892-3.628,18.892-6.872S97.785-403.918,86.972-403.918Z" transform="translate(-64.944 407.055)"/></g><g transform="translate(67.126 25.452)"><path class="j" d="M70.517-397.076c1.722,2.391,8.054,4.166,15.6,4.166s13.876-1.774,15.6-4.166c-1.723-3.062-8.054-5.334-15.6-5.334S72.239-400.138,70.517-397.076Z" transform="translate(-70.517 402.41)"/></g><g transform="translate(65.454 77.78)"><path class="b" d="M86.339-349.445c-7.623,0-14.265-2.016-16.923-5.139a1.463,1.463,0,0,1,.167-2.063,1.463,1.463,0,0,1,2.063.166c1.684,1.98,7,4.109,14.693,4.109s13.008-2.153,14.685-4.154a1.465,1.465,0,0,1,2.061-.181,1.462,1.462,0,0,1,.182,2.061C100.619-351.486,93.975-349.445,86.339-349.445Z" transform="translate(-69.068 357.048)"/></g><g transform="translate(71.955 27.155)"><path class="g" d="M79.39-400.582c2.777-.615,5.184-.4,5.379.478s-1.9,2.088-4.675,2.7-5.183.4-5.378-.478S76.614-399.967,79.39-400.582Z" transform="translate(-74.703 400.933)"/></g><g transform="translate(65.765 82.94)"><path class="b" d="M86.3-345.807c-7.554,0-14.113-1.959-16.708-4.99a1.044,1.044,0,0,1,.113-1.473,1.046,1.046,0,0,1,1.474.113c2.148,2.508,8.366,4.259,15.121,4.259s12.976-1.77,15.115-4.305a1.046,1.046,0,0,1,1.473-.125,1.045,1.045,0,0,1,.125,1.473C100.423-347.789,93.863-345.807,86.3-345.807Z" transform="translate(-69.338 352.575)"/></g><g transform="translate(81.259 148.429)"><path class="a" d="M84.233-285.865a1.456,1.456,0,0,1-1.464-1.465l.009-7.011a1.463,1.463,0,0,1,1.463-1.462h0a1.463,1.463,0,0,1,1.462,1.465l-.008,7.011A1.464,1.464,0,0,1,84.233-285.865Z" transform="translate(-82.769 295.803)"/></g><g transform="translate(92.85 147.154)"><path class="a" d="M94.281-286.971h0a1.463,1.463,0,0,1-1.462-1.465l.009-7.011a1.462,1.462,0,0,1,1.463-1.462h0a1.464,1.464,0,0,1,1.462,1.465l-.009,7.011A1.462,1.462,0,0,1,94.281-286.971Z" transform="translate(-92.817 296.909)"/></g><g transform="translate(69.669 146.75)"><path class="a" d="M74.186-287.321h0a1.463,1.463,0,0,1-1.462-1.465l.008-7.011a1.464,1.464,0,0,1,1.464-1.462h0a1.463,1.463,0,0,1,1.462,1.465l-.008,7.011A1.463,1.463,0,0,1,74.186-287.321Z" transform="translate(-72.722 297.259)"/></g><g transform="translate(81.258 125.32)"><path class="a" d="M84.231-305.491h0a1.463,1.463,0,0,1-1.462-1.465l.01-7.419a1.464,1.464,0,0,1,1.464-1.462h0a1.463,1.463,0,0,1,1.46,1.465l-.01,7.42A1.464,1.464,0,0,1,84.231-305.491Z" transform="translate(-82.768 315.836)"/></g><g transform="translate(65.735 122.825)"><path class="a" d="M101.821-307.654h0a1.463,1.463,0,0,1-1.462-1.465l.012-7.42a1.463,1.463,0,0,1,1.464-1.46h0a1.463,1.463,0,0,1,1.46,1.465l-.01,7.42A1.463,1.463,0,0,1,101.821-307.654Zm-31.046,0h0a1.464,1.464,0,0,1-1.462-1.466l.012-7.419A1.463,1.463,0,0,1,70.785-318h0a1.463,1.463,0,0,1,1.462,1.465l-.012,7.419A1.462,1.462,0,0,1,70.775-307.654Z" transform="translate(-69.311 317.999)"/></g><g transform="translate(58.091 169.308)"><path class="k" d="M67.065-268.991a1.045,1.045,0,0,1-1.045-1.038,2.27,2.27,0,0,0-2.268-2.252h-.021a1.047,1.047,0,0,1-1.046-1.038v-.007a1.047,1.047,0,0,1,1.039-1.046,2.245,2.245,0,0,0,1.6-.675,2.242,2.242,0,0,0,.652-1.6v-.007a1.047,1.047,0,0,1,1.038-1.046,1.051,1.051,0,0,1,1.053,1.038,2.267,2.267,0,0,0,2.266,2.248.069.069,0,0,0,.022,0,1.045,1.045,0,0,1,1.045,1.039v.007a1.046,1.046,0,0,1-1.038,1.045,2.267,2.267,0,0,0-2.249,2.282v.007a1.046,1.046,0,0,1-1.039,1.045Zm-.5-4.355c.087.074.17.149.251.23s.159.164.233.249a4.417,4.417,0,0,1,.479-.485,4.417,4.417,0,0,1-.486-.478c-.073.085-.15.17-.23.251S66.649-273.42,66.563-273.346Z" transform="translate(-62.685 277.704)"/></g><g transform="translate(19.556 11.619)"><path class="k" d="M36.011-401.017a1.045,1.045,0,0,1-1.045-1.038A4.563,4.563,0,0,0,33.6-405.3a4.566,4.566,0,0,0-3.263-1.325h-.007a1.047,1.047,0,0,1-1.045-1.039v-.007a1.047,1.047,0,0,1,1.039-1.045,4.608,4.608,0,0,0,4.57-4.633v-.007a1.046,1.046,0,0,1,1.039-1.045h.007a1.045,1.045,0,0,1,1.045,1.039,4.564,4.564,0,0,0,1.368,3.243,4.842,4.842,0,0,0,3.263,1.327h.006a1.047,1.047,0,0,1,1.046,1.038v.007a1.045,1.045,0,0,1-1.039,1.045,4.607,4.607,0,0,0-4.569,4.633v.007a1.046,1.046,0,0,1-1.038,1.045Zm-2.094-6.68a6.719,6.719,0,0,1,1.147.909,6.7,6.7,0,0,1,.925,1.134,6.762,6.762,0,0,1,2.038-2.066,6.729,6.729,0,0,1-1.147-.91,6.672,6.672,0,0,1-.924-1.133A6.753,6.753,0,0,1,33.917-407.7Z" transform="translate(-29.28 414.401)"/></g><g transform="translate(122.229 16.853)"><path class="k" d="M122.665-401.153a1.044,1.044,0,0,1-1.045-1.038,2.269,2.269,0,0,0-2.268-2.251h-.022a1.045,1.045,0,0,1-1.045-1.039v-.006a1.047,1.047,0,0,1,1.038-1.046,2.247,2.247,0,0,0,1.6-.675,2.246,2.246,0,0,0,.653-1.6v-.007a1.044,1.044,0,0,1,1.038-1.045h.007a1.046,1.046,0,0,1,1.046,1.038,2.267,2.267,0,0,0,2.266,2.248.066.066,0,0,1,.021,0A1.046,1.046,0,0,1,127-405.539v.007a1.045,1.045,0,0,1-1.039,1.045,2.269,2.269,0,0,0-2.249,2.282v.007a1.045,1.045,0,0,1-1.038,1.045Zm-.5-4.352a4.415,4.415,0,0,1,.484.479,4.436,4.436,0,0,1,.48-.486,4.315,4.315,0,0,1-.485-.479c-.074.086-.15.171-.231.251S122.246-405.58,122.161-405.506Z" transform="translate(-118.285 409.864)"/></g><g transform="translate(116.472 34.342)"><path class="l" d="M140.8-379.764a24.46,24.46,0,0,1-2.66-.148,60.994,60.994,0,0,1-8.529-1.6,62.027,62.027,0,0,1-8.565-2.861c-4.973-2.121-8.275-5.462-7.679-7.769.547-2.12,3.813-2.931,9.7-2.412a1.047,1.047,0,0,1,.848.583,1.051,1.051,0,0,1-.062,1.028,10.24,10.24,0,0,0-.671,1.268,1.074,1.074,0,0,1-1.051.645,15.956,15.956,0,0,0-2.118-.054c1.5.932,5.2,2.527,11.161,4.064s9.973,1.93,11.735,1.835a16.488,16.488,0,0,0-2.14-1.092,1.045,1.045,0,0,1-.621-1.061,8.508,8.508,0,0,0,.022-1.406,1.05,1.05,0,0,1,.444-.925,1.046,1.046,0,0,1,1.022-.1c5.41,2.394,7.875,4.681,7.33,6.8C148.46-381,145.128-379.764,140.8-379.764Zm-23.13-12.712c-1.68.225-2.231.675-2.279.861-.178.69,1.811,3.334,6.475,5.324a59.869,59.869,0,0,0,8.266,2.759,58.723,58.723,0,0,0,8.234,1.542c5.177.562,8.4-.809,8.578-1.5.063-.248-.262-.821-1.268-1.617a1.46,1.46,0,0,1-.031.622c-.731,2.837-10.727.588-14.991-.511s-14.1-3.96-13.372-6.8A1.45,1.45,0,0,1,117.667-392.477ZM143.65-384.6h0Z" transform="translate(-113.294 394.703)"/></g><g transform="translate(124.042 42.914)"><path class="l" d="M130.322-378.359a10.928,10.928,0,0,1-2.737-.347,10.913,10.913,0,0,1-7.676-7.194,1.045,1.045,0,0,1,.666-1.32,1.045,1.045,0,0,1,1.32.667,8.834,8.834,0,0,0,6.212,5.822,8.854,8.854,0,0,0,8.1-1.961,1.045,1.045,0,0,1,1.475.087,1.044,1.044,0,0,1-.087,1.475A10.946,10.946,0,0,1,130.322-378.359Z" transform="translate(-119.856 387.272)"/></g><g transform="translate(142.598 40.767)"><path class="l" d="M136.987-384.16a1.031,1.031,0,0,1-.4-.081,1.044,1.044,0,0,1-.562-1.367,8.9,8.9,0,0,0,.4-1.209,8.912,8.912,0,0,0,.241-1.372,1.038,1.038,0,0,1,1.141-.94,1.046,1.046,0,0,1,.94,1.141,11.172,11.172,0,0,1-.3,1.693,11.1,11.1,0,0,1-.5,1.492A1.045,1.045,0,0,1,136.987-384.16Z" transform="translate(-135.943 389.133)"/></g><g transform="translate(125.107 29.917)"><path class="l" d="M140.158-387.543a1.046,1.046,0,0,1-1.043-.978,8.562,8.562,0,0,0-6.729-7.643,8.842,8.842,0,0,0-9.68,3.808,1.045,1.045,0,0,1-1.444.318,1.046,1.046,0,0,1-.317-1.444,10.929,10.929,0,0,1,11.962-4.707,10.621,10.621,0,0,1,8.294,9.534,1.045,1.045,0,0,1-.976,1.11A.678.678,0,0,1,140.158-387.543Z" transform="translate(-120.78 398.539)"/></g><g transform="translate(123.604 35.929)"><path class="l" d="M120.523-388.386c-.038,0-.075,0-.113-.006a1.045,1.045,0,0,1-.927-1.151,11.13,11.13,0,0,1,.285-1.572,11.033,11.033,0,0,1,.536-1.577,1.046,1.046,0,0,1,1.373-.55,1.046,1.046,0,0,1,.549,1.373,8.877,8.877,0,0,0-.434,1.276,9.107,9.107,0,0,0-.231,1.274A1.046,1.046,0,0,1,120.523-388.386Z" transform="translate(-119.477 393.327)"/></g><g transform="translate(88.018)"><path class="e" d="M94.074-413.639a1.046,1.046,0,0,1-1.045-1.039,3.3,3.3,0,0,0-.99-2.345,3.309,3.309,0,0,0-2.336-.957.087.087,0,0,1-.03,0,1.045,1.045,0,0,1-1.045-1.038v-.007a1.045,1.045,0,0,1,1.038-1.045,3.332,3.332,0,0,0,3.3-3.35v-.007a1.046,1.046,0,0,1,1.038-1.045,1.02,1.02,0,0,1,1.052,1.039,3.3,3.3,0,0,0,.99,2.344,3.3,3.3,0,0,0,2.336.959h.029a1.045,1.045,0,0,1,1.045,1.039v.007a1.046,1.046,0,0,1-1.038,1.045,3.328,3.328,0,0,0-3.3,3.349v.007a1.047,1.047,0,0,1-1.039,1.045Zm-1.2-5.411a5.593,5.593,0,0,1,.636.539,5.529,5.529,0,0,1,.548.629,5.445,5.445,0,0,1,1.163-1.179,5.5,5.5,0,0,1-.636-.54,5.4,5.4,0,0,1-.547-.629A5.429,5.429,0,0,1,92.872-419.05Z" transform="translate(-88.628 424.474)"/></g><g transform="translate(30.132 36.847)"><path class="e" d="M46.325-377.59a7.476,7.476,0,0,1-7.467-7.467,11.076,11.076,0,0,0-.182-1.555c-.236-1.48-.5-3.157.416-4.273,1.387-1.682,4.429-1.662,6.666-1.643l.566,0c1.992,0,3.242,1.291,4.343,2.431l.865.865c1.059,1.023,2.26,2.184,2.26,4.172,0,2.033-1.555,3.2-2.8,4.138-.315.236-.626.469-.909.714a6.045,6.045,0,0,0-.769.861A3.6,3.6,0,0,1,46.325-377.59Zm-1.2-12.85c-1.6,0-3.757.081-4.42.885-.32.388-.106,1.727.036,2.613a12.33,12.33,0,0,1,.209,1.885,5.382,5.382,0,0,0,5.376,5.377c.541,0,.772-.234,1.345-.96a7.977,7.977,0,0,1,1.042-1.145c.318-.276.669-.54,1.022-.805,1.225-.921,1.968-1.545,1.968-2.466,0-1.051-.585-1.668-1.621-2.669l-.915-.915c-.931-.962-1.735-1.794-2.841-1.794l-.583,0Zm2.9,6.6a6.969,6.969,0,0,1-1.16-.1,1.05,1.05,0,0,1-.784-.622,5.1,5.1,0,0,0-2.685-2.26,1.046,1.046,0,0,1-.532-1.38,1.045,1.045,0,0,1,1.38-.532,7.475,7.475,0,0,1,3.468,2.79,2.638,2.638,0,0,0,1.372-.191,1.045,1.045,0,0,1,1.444.316,1.046,1.046,0,0,1-.316,1.444A4.117,4.117,0,0,1,48.025-383.841Z" transform="translate(-38.448 392.532)"/></g><g transform="translate(113.747 149.968)"><path class="e" d="M122.244-271.986a1.047,1.047,0,0,1-1.046-1.038,9.092,9.092,0,0,0-2.724-6.453,9.261,9.261,0,0,0-6.49-2.635,1.037,1.037,0,0,1-1.052-1.038v-.007a1.044,1.044,0,0,1,1.038-1.045,9.169,9.169,0,0,0,9.092-9.216v-.007a1.045,1.045,0,0,1,1.039-1.044h.006a1.045,1.045,0,0,1,1.045,1.039,9.081,9.081,0,0,0,2.721,6.45,9.087,9.087,0,0,0,6.426,2.639.346.346,0,0,1,.069,0,1.045,1.045,0,0,1,1.045,1.039v.007a1.046,1.046,0,0,1-1.038,1.045,9.086,9.086,0,0,0-6.452,2.722,9.093,9.093,0,0,0-2.636,6.49v.007a1.045,1.045,0,0,1-1.038,1.045Zm-5.527-11.207a11.241,11.241,0,0,1,3.224,2.228,11.262,11.262,0,0,1,2.27,3.185A11.236,11.236,0,0,1,124.437-281a11.225,11.225,0,0,1,3.185-2.268,11.243,11.243,0,0,1-3.216-2.228,11.229,11.229,0,0,1-2.271-3.192A11.325,11.325,0,0,1,116.717-283.193Z" transform="translate(-110.932 294.469)"/></g><g transform="translate(29.239 157.51)"><path class="l" d="M47.464-268.348a9.8,9.8,0,0,1-9.79-9.791,9.8,9.8,0,0,1,9.79-9.791,9.8,9.8,0,0,1,9.791,9.791A9.8,9.8,0,0,1,47.464-268.348Zm0-17.492a7.708,7.708,0,0,0-7.7,7.7,7.708,7.708,0,0,0,7.7,7.7,7.709,7.709,0,0,0,7.7-7.7A7.709,7.709,0,0,0,47.464-285.84Z" transform="translate(-37.674 287.931)"/></g><g transform="translate(29.696 161.079)"><path class="l" d="M41.4-271.88a6.872,6.872,0,0,1-.937-.062.627.627,0,0,1-.534-.708.625.625,0,0,1,.707-.534c2.042.284,4.295-.638,6.471-1.529,3.169-1.3,6.444-2.636,8.128.774a.626.626,0,0,1-.285.84.627.627,0,0,1-.84-.284c-1.112-2.252-3.1-1.569-6.528-.17A17.141,17.141,0,0,1,41.4-271.88Zm-.11-2.266a4.609,4.609,0,0,1-2.99-.979.628.628,0,0,1-.088-.883.626.626,0,0,1,.882-.088c1.617,1.325,4.157.442,5.173,0a7.651,7.651,0,0,0,3.471-2.6,2.341,2.341,0,0,0-.685,0,17.275,17.275,0,0,1-4.4-.22,10.858,10.858,0,0,0-3.618-.127.628.628,0,0,1-.746-.48.627.627,0,0,1,.48-.746,11.712,11.712,0,0,1,4.058.111,16.055,16.055,0,0,0,4.088.216c1.113-.132,1.8.12,2.042.734.416,1.072-1.02,2.318-1.913,2.965A10.422,10.422,0,0,1,41.29-274.146Zm4.965-7.017a14.491,14.491,0,0,1-6.454-1.995.628.628,0,0,1-.27-.846.627.627,0,0,1,.844-.27c5.478,2.823,7.239,1.876,9.278.78a9.5,9.5,0,0,1,3.98-1.343.631.631,0,0,1,.674.577.626.626,0,0,1-.576.674,8.22,8.22,0,0,0-3.485,1.2A7.854,7.854,0,0,1,46.255-281.163Z" transform="translate(-38.07 284.837)"/></g><g transform="translate(14.366 147.486)"><path class="e" d="M31.978-282.31a1.045,1.045,0,0,1-1.045-1.038,5.035,5.035,0,0,0-1.508-3.571,5.035,5.035,0,0,0-3.558-1.458c-.014,0-.029,0-.042,0a1.045,1.045,0,0,1-1.045-1.039v-.006a1.046,1.046,0,0,1,1.038-1.046,5.071,5.071,0,0,0,5.031-5.1v-.007a1.045,1.045,0,0,1,1.039-1.045,1.055,1.055,0,0,1,1.052,1.038,5.023,5.023,0,0,0,1.507,3.57,5.076,5.076,0,0,0,3.591,1.46,1.034,1.034,0,0,1,1.052,1.038v.007a1.046,1.046,0,0,1-1.038,1.046,5.07,5.07,0,0,0-5.03,5.1v.007a1.046,1.046,0,0,1-1.038,1.045Zm-2.427-7.142a7.293,7.293,0,0,1,1.342,1.043,7.2,7.2,0,0,1,1.062,1.329,7.22,7.22,0,0,1,2.367-2.4,7.226,7.226,0,0,1-1.343-1.045,7.137,7.137,0,0,1-1.061-1.327A7.22,7.22,0,0,1,29.551-289.452Z" transform="translate(-24.781 296.621)"/></g><g transform="translate(38.024 7.802)"><path class="c" d="M46.273-406.975h4.552a.985.985,0,0,1,.982.983h0a.986.986,0,0,1-.982.983H46.273a.987.987,0,0,1-.984-.983h0a.986.986,0,0,1,.984-.983Zm11.718,7.168v4.551a.986.986,0,0,1-.983.983h0a.985.985,0,0,1-.983-.983v-4.551a.986.986,0,0,1,.983-.984h0a.987.987,0,0,1,.983.984Zm0-8.46v1.292h1.293a.985.985,0,0,1,.983.983h0a.985.985,0,0,1-.983.983H57.991v1.293a.985.985,0,0,1-.983.984h0a.985.985,0,0,1-.983-.984v-1.293H54.732a.985.985,0,0,1-.982-.983h0a.985.985,0,0,1,.982-.983h1.293v-1.292a.985.985,0,0,1,.983-.983h0a.985.985,0,0,1,.983.983Zm0-8.46v4.552a.987.987,0,0,1-.983.983h0a.985.985,0,0,1-.983-.983v-4.552a.985.985,0,0,1,.983-.983h0a.986.986,0,0,1,.983.983Zm5.2,9.752h4.552a.985.985,0,0,1,.983.983h0a.986.986,0,0,1-.983.983H63.192a.986.986,0,0,1-.983-.983h0A.985.985,0,0,1,63.192-406.975Z" transform="translate(-45.289 417.71)"/></g><g transform="translate(140.744 149.145)"><path class="c" d="M138.732-294.334v1.848h1.848a.851.851,0,0,1,.849.85h0a.855.855,0,0,1-.849.849h-1.848v1.848a.856.856,0,0,1-.85.849h0a.851.851,0,0,1-.85-.849v-1.848h-1.847a.855.855,0,0,1-.85-.849h0a.852.852,0,0,1,.85-.85h1.847v-1.848a.851.851,0,0,1,.85-.849h0A.856.856,0,0,1,138.732-294.334Z" transform="translate(-134.335 295.183)"/></g><g transform="translate(0 113.163)"><path class="l" d="M16.544-317.94a4.222,4.222,0,0,1-4.217-4.217,4.222,4.222,0,0,1,4.217-4.217,4.222,4.222,0,0,1,4.217,4.217A4.222,4.222,0,0,1,16.544-317.94Zm0-6.345a2.13,2.13,0,0,0-2.127,2.127,2.129,2.129,0,0,0,2.127,2.127,2.13,2.13,0,0,0,2.127-2.127A2.131,2.131,0,0,0,16.544-324.285Z" transform="translate(-12.327 326.375)"/></g><g transform="translate(152.684 86.937)"><path class="l" d="M155.452-337.3h-9.721a1.046,1.046,0,0,1-1.045-1.045v-9.721a1.045,1.045,0,0,1,1.045-1.045h9.721a1.045,1.045,0,0,1,1.045,1.045v9.721A1.046,1.046,0,0,1,155.452-337.3Zm-8.676-2.091h7.631v-7.63h-7.631Z" transform="translate(-144.686 349.11)"/></g><g transform="translate(152.749 87.085)"><path class="l" d="M158.614-334.332h-9.721a1.041,1.041,0,0,1-.714-.283l-3.105-2.909a1.045,1.045,0,0,1-.048-1.478,1.044,1.044,0,0,1,1.478-.047l2.8,2.627h8.262v-8.221l-2.707-2.529a1.045,1.045,0,0,1-.05-1.478,1.045,1.045,0,0,1,1.477-.05l3.04,2.838a1.046,1.046,0,0,1,.331.764v9.721A1.046,1.046,0,0,1,158.614-334.332Z" transform="translate(-144.742 348.981)"/></g><g transform="translate(162.536 96.629)"><path class="l" d="M157.311-335.779a1.044,1.044,0,0,1-.714-.281l-3.038-2.839a1.045,1.045,0,0,1-.05-1.478,1.046,1.046,0,0,1,1.477-.05l3.04,2.838a1.046,1.046,0,0,1,.05,1.478A1.042,1.042,0,0,1,157.311-335.779Z" transform="translate(-153.226 340.708)"/></g><g transform="translate(111.445 49.793)"><path class="c" d="M113.333-380.459v1.847h1.848a.852.852,0,0,1,.849.85h0a.856.856,0,0,1-.849.85h-1.848v1.848a.855.855,0,0,1-.85.849h0a.85.85,0,0,1-.849-.849v-1.848h-1.848a.856.856,0,0,1-.85-.85h0a.852.852,0,0,1,.85-.85h1.848v-1.847a.851.851,0,0,1,.849-.85h0A.856.856,0,0,1,113.333-380.459Z" transform="translate(-108.936 381.309)"/></g><g transform="translate(4.415 48.674)"><path class="e" d="M24.334-366.022a1.045,1.045,0,0,1-1.045-1.038,6.048,6.048,0,0,0-6.044-6H17.2a1.046,1.046,0,0,1-1.045-1.039v-.006a1.046,1.046,0,0,1,1.039-1.046,6,6,0,0,0,4.26-1.8,5.994,5.994,0,0,0,1.74-4.277v-.007a1.046,1.046,0,0,1,1.038-1.046h.007a1.047,1.047,0,0,1,1.046,1.038,6.046,6.046,0,0,0,6.04,6h.045a1.045,1.045,0,0,1,1.045,1.039v.006a1.046,1.046,0,0,1-1.038,1.046,6.046,6.046,0,0,0-6,6.08v.007a1.045,1.045,0,0,1-1.038,1.045Zm-3.143-8.107a8.188,8.188,0,0,1,3.117,3.077,8.2,8.2,0,0,1,3.078-3.122,8.187,8.187,0,0,1-3.117-3.073,8.185,8.185,0,0,1-1.327,1.767A8.189,8.189,0,0,1,21.19-374.129Z" transform="translate(-16.154 382.279)"/></g></svg>