<svg xmlns="http://www.w3.org/2000/svg" width="169.45" height="190.012" viewBox="0 0 169.45 190.012"><defs><style>.a{fill:#e0deef;}.b,.h{fill:#eb008b;}.c{fill:#c6c3e1;}.d{fill:#522a75;}.e,.j{fill:#9a94c8;}.f,.g{fill:#fff;}.g,.h,.j{fill-rule:evenodd;}.i{fill:#eb80ab;}</style></defs><path class="a" d="M-166.188-498.151h89.382l-28.406-77.025h-32.573Z" transform="translate(206.787 676.72)"/><g transform="translate(110.418 108.578)"><path class="a" d="M-97.27-548.186a1.156,1.156,0,0,1-1.075-.736l-7.24-18.584a1.153,1.153,0,0,1,.655-1.494,1.154,1.154,0,0,1,1.494.656l7.24,18.584a1.153,1.153,0,0,1-.656,1.494A1.156,1.156,0,0,1-97.27-548.186Z" transform="translate(105.664 569.078)"/><g transform="translate(11.515 29.037)"><path class="a" d="M-90.793-532.007a1.156,1.156,0,0,1-1.076-.736l-3.733-9.591a1.152,1.152,0,0,1,.656-1.493,1.149,1.149,0,0,1,1.493.656l3.734,9.59a1.155,1.155,0,0,1-.656,1.494A1.137,1.137,0,0,1-90.793-532.007Z" transform="translate(95.682 543.907)"/></g></g><g transform="translate(12.95 127.254)"><path class="b" d="M-185.521-543.569h-.007a1.085,1.085,0,0,1-1.08-1.085v-.006a2.491,2.491,0,0,0-2.47-2.507,1.085,1.085,0,0,1-1.08-1.086v-.007a1.1,1.1,0,0,1,1.092-1.08h.015a2.489,2.489,0,0,0,2.488-2.469,1.074,1.074,0,0,1,1.094-1.08,1.085,1.085,0,0,1,1.079,1.087v.006a2.473,2.473,0,0,0,.717,1.763,2.474,2.474,0,0,0,1.755.741,1.085,1.085,0,0,1,1.079,1.087v.007a1.085,1.085,0,0,1-1.086,1.079h-.023a2.475,2.475,0,0,0-1.749.718,2.47,2.47,0,0,0-.739,1.753A1.086,1.086,0,0,1-185.521-543.569Zm-.564-4.665a4.683,4.683,0,0,1,.581.589c.089-.1.183-.206.281-.3s.2-.189.307-.277c-.1-.088-.205-.182-.3-.28s-.19-.2-.277-.308A4.6,4.6,0,0,1-186.085-548.234Z" transform="translate(190.157 552.889)"/></g><g transform="translate(125.254 24.395)"><path class="b" d="M-88.1-632.6h-.008a1.154,1.154,0,0,1-1.145-1.155v-.007a2.408,2.408,0,0,0-.7-1.718,2.4,2.4,0,0,0-1.7-.72,1.152,1.152,0,0,1-1.145-1.154v-.007a1.153,1.153,0,0,1,1.154-1.147h.022a2.425,2.425,0,0,0,2.422-2.4,1.154,1.154,0,0,1,1.154-1.145h.008A1.155,1.155,0,0,1-86.9-640.9v.009a2.391,2.391,0,0,0,.7,1.712,2.4,2.4,0,0,0,1.708.721,1.155,1.155,0,0,1,1.147,1.154v.008a1.154,1.154,0,0,1-1.154,1.146h-.023a2.426,2.426,0,0,0-2.426,2.4A1.155,1.155,0,0,1-88.1-632.6Zm-.456-4.734c.087.075.168.153.249.235s.157.166.231.252a4.954,4.954,0,0,1,.483-.477q-.128-.112-.249-.235c-.081-.081-.157-.165-.231-.25A4.706,4.706,0,0,1-88.558-637.336Z" transform="translate(92.803 642.055)"/></g><g transform="translate(128.913 98.659)"><path class="c" d="M-83.192-564.723H-83.2a1.087,1.087,0,0,1-1.077-1.088v-.007a4.275,4.275,0,0,0-1.239-3.054,4.27,4.27,0,0,0-3.035-1.279,1.086,1.086,0,0,1-1.079-1.087v-.007a1.085,1.085,0,0,1,1.085-1.079c.013,0,.025,0,.038,0a4.273,4.273,0,0,0,3.023-1.244,4.267,4.267,0,0,0,1.278-3.03,1.085,1.085,0,0,1,1.085-1.081h.006a1.085,1.085,0,0,1,1.08,1.085v.006a4.317,4.317,0,0,0,4.28,4.336,1.086,1.086,0,0,1,1.08,1.085v.007a1.078,1.078,0,0,1-1.092,1.08h-.027a4.317,4.317,0,0,0-4.312,4.277A1.086,1.086,0,0,1-83.192-564.723Zm-1.759-6.49a6.452,6.452,0,0,1,.981.817,6.553,6.553,0,0,1,.807,1,6.531,6.531,0,0,1,1.816-1.787A6.535,6.535,0,0,1-83.14-573a6.525,6.525,0,0,1-.818.982A6.536,6.536,0,0,1-84.951-571.212Z" transform="translate(89.631 577.677)"/></g><g transform="translate(142.513 30.562)"><path class="c" d="M-71.682-624.32h-.007a1.154,1.154,0,0,1-1.147-1.154v-.008A3.894,3.894,0,0,0-76.7-629.4a1.154,1.154,0,0,1-1.144-1.154v-.009a1.154,1.154,0,0,1,1.154-1.144h.039a3.861,3.861,0,0,0,2.725-1.118,3.853,3.853,0,0,0,1.156-2.739,1.142,1.142,0,0,1,1.16-1.147,1.153,1.153,0,0,1,1.147,1.152v.008a3.891,3.891,0,0,0,3.86,3.911,1.155,1.155,0,0,1,1.147,1.154v.008a1.154,1.154,0,0,1-1.154,1.146.305.305,0,0,0-.033,0,3.894,3.894,0,0,0-3.887,3.863A1.153,1.153,0,0,1-71.682-624.32Zm-1.406-6.2a6.232,6.232,0,0,1,1.43,1.451,6.272,6.272,0,0,1,1.455-1.435,6.239,6.239,0,0,1-1.432-1.451,6.16,6.16,0,0,1-.669.776A6.315,6.315,0,0,1-73.088-630.521Z" transform="translate(77.841 636.709)"/></g><g transform="translate(23.364 10.702)"><path class="a" d="M-168.323-628.319a12.818,12.818,0,0,1-12.806-12.8,12.82,12.82,0,0,1,12.806-12.806,12.818,12.818,0,0,1,12.8,12.806A12.815,12.815,0,0,1-168.323-628.319Zm0-23.3a10.511,10.511,0,0,0-10.5,10.5,10.507,10.507,0,0,0,10.5,10.493,10.5,10.5,0,0,0,10.494-10.493A10.508,10.508,0,0,0-168.323-651.618Z" transform="translate(181.129 653.925)"/><g transform="translate(1.535 2.164)"><path class="a" d="M-177.943-633.4a.577.577,0,0,1-.55-.4.576.576,0,0,1,.378-.722c.854-.268,1.672-.594,2.538-.94,3.9-1.557,8.316-3.323,16.5.9a.577.577,0,0,1,.248.778.574.574,0,0,1-.776.248c-7.717-3.979-11.695-2.388-15.544-.851-.848.339-1.726.69-2.622.97A.557.557,0,0,1-177.943-633.4Zm18.129-4.775c-1.516,0-3.357-.167-5.266-.341a41.328,41.328,0,0,0-7.279-.279c-1.48.164-2-.366-2.189-.841-.685-1.767,2.719-4.84,4.839-6.377,3.646-2.644,8.543-4.651,11.344-2.36a.578.578,0,0,1,.081.812.578.578,0,0,1-.811.082c-2.3-1.883-6.789.119-9.937,2.4-3.275,2.374-4.632,4.534-4.441,5.026.018.045.235.2.985.111a41.941,41.941,0,0,1,7.513.277c2.75.251,5.592.51,7.093.182a.577.577,0,0,1,.686.44.576.576,0,0,1-.44.686A10.492,10.492,0,0,1-159.814-638.176Zm-2.877-3.23c-1.029,0-4.011-.461-4.011-1.875,0-1.088,2.533-3.327,4.1-3.327,1.661,0,3.167,2.539,3.167,3.525C-159.434-641.925-161.07-641.406-162.691-641.406Zm-2.839-1.911a5.527,5.527,0,0,0,2.839.758,3.08,3.08,0,0,0,2.105-.534c0-.481-1.154-2.36-2.015-2.36C-163.538-645.454-165.3-643.893-165.53-643.318Zm-13.186-2.052a5.575,5.575,0,0,1-.562-.028.577.577,0,0,1-.518-.63.574.574,0,0,1,.63-.518c2.162.213,5.228-1.186,8.471-2.667a40.409,40.409,0,0,1,7.365-2.823.58.58,0,0,1,.69.436.577.577,0,0,1-.435.69,39.49,39.49,0,0,0-7.141,2.747C-173.352-646.73-176.328-645.37-178.716-645.37Z" transform="translate(179.798 652.049)"/></g></g><path class="a" d="M-163.58-562.713h-22.741a4.075,4.075,0,0,1-4.031-4.1,4.047,4.047,0,0,1,3.531-4,7.433,7.433,0,0,1,7.428-6.788,7.443,7.443,0,0,1,6.986,4.956,5.424,5.424,0,0,1,3.125-.97,5.455,5.455,0,0,1,5.4,4.787,2.708,2.708,0,0,1,.322-.016,3.08,3.08,0,0,1,3.072,3.095A3.049,3.049,0,0,1-163.58-562.713Z" transform="translate(203.077 676.348)"/><g transform="translate(32.2 110.063)"><g transform="translate(12.188)"><path class="a" d="M-161.749-536.076a1.138,1.138,0,0,1-.419-.08,1.155,1.155,0,0,1-.656-1.494l11.453-29.407a1.155,1.155,0,0,1,1.494-.656,1.153,1.153,0,0,1,.655,1.494l-11.451,29.407A1.156,1.156,0,0,1-161.749-536.076Z" transform="translate(162.903 567.791)"/></g><g transform="translate(8.637 34.562)"><path class="a" d="M-164.827-531.612a1.161,1.161,0,0,1-.419-.078,1.155,1.155,0,0,1-.656-1.494l1.522-3.911a1.155,1.155,0,0,1,1.494-.656,1.153,1.153,0,0,1,.656,1.494l-1.522,3.909A1.154,1.154,0,0,1-164.827-531.612Z" transform="translate(165.981 537.83)"/></g><g transform="translate(0 8.596)"><path class="a" d="M-172.315-525.281a1.163,1.163,0,0,1-.44-.088,1.154,1.154,0,0,1-.626-1.507l13.532-32.752a1.155,1.155,0,0,1,1.507-.625,1.154,1.154,0,0,1,.625,1.507L-171.248-526A1.154,1.154,0,0,1-172.315-525.281Z" transform="translate(173.469 560.339)"/></g></g><g transform="translate(120.946 116.084)"><path class="a" d="M-82.507-527.215a1.153,1.153,0,0,1-1.074-.735L-96.457-561a1.152,1.152,0,0,1,.655-1.493,1.153,1.153,0,0,1,1.494.656l12.876,33.048a1.153,1.153,0,0,1-.656,1.494A1.16,1.16,0,0,1-82.507-527.215Z" transform="translate(96.537 562.572)"/></g><g transform="translate(136.033 150.032)"><g transform="translate(7.629)"><path class="a" d="M-63.744-523.713a1.209,1.209,0,0,1-.2-.017,1.154,1.154,0,0,1-.936-1.337,4.919,4.919,0,0,0-3.986-5.692,4.88,4.88,0,0,0-3.669.812,4.872,4.872,0,0,0-2.019,3.17,1.159,1.159,0,0,1-1.337.937,1.153,1.153,0,0,1-.936-1.336,7.165,7.165,0,0,1,2.969-4.66,7.165,7.165,0,0,1,5.394-1.2,7.231,7.231,0,0,1,5.855,8.366A1.155,1.155,0,0,1-63.744-523.713Z" transform="translate(76.845 533.143)"/></g><g transform="translate(7.029 5.013)"><path class="a" d="M-76.21-522.953a1.111,1.111,0,0,1-.194-.016,1.154,1.154,0,0,1-.945-1.33l.6-3.537a1.152,1.152,0,0,1,1.33-.945,1.153,1.153,0,0,1,.944,1.33l-.6,3.537A1.154,1.154,0,0,1-76.21-522.953Z" transform="translate(77.365 528.798)"/></g><g transform="translate(0 8.551)"><path class="a" d="M-81.251-518.408a7.251,7.251,0,0,1-1.254-.11,1.153,1.153,0,0,1-.936-1.336,1.151,1.151,0,0,1,1.336-.937,4.916,4.916,0,0,0,5.693-3.988,1.156,1.156,0,0,1,1.338-.934,1.154,1.154,0,0,1,.934,1.337A7.243,7.243,0,0,1-81.251-518.408Z" transform="translate(83.458 525.73)"/></g><g transform="translate(14.653 7.957)"><path class="a" d="M-53.145-518.9a1.152,1.152,0,0,1-.946-.493,10.675,10.675,0,0,0-14.85-2.625,1.153,1.153,0,0,1-1.607-.284,1.154,1.154,0,0,1,.284-1.607A12.984,12.984,0,0,1-52.2-520.712a1.152,1.152,0,0,1-.284,1.606A1.146,1.146,0,0,1-53.145-518.9Z" transform="translate(70.756 526.245)"/></g></g><g transform="translate(0 150.032)"><g transform="translate(11.442)"><path class="a" d="M-190.218-523.713a1.155,1.155,0,0,1-1.135-.953,7.23,7.23,0,0,1,5.855-8.366,7.175,7.175,0,0,1,5.394,1.2,7.165,7.165,0,0,1,2.969,4.66,1.153,1.153,0,0,1-.937,1.336,1.157,1.157,0,0,1-1.336-.937,4.877,4.877,0,0,0-2.019-3.17,4.877,4.877,0,0,0-3.669-.812,4.92,4.92,0,0,0-3.987,5.692,1.153,1.153,0,0,1-.936,1.337A1.2,1.2,0,0,1-190.218-523.713Z" transform="translate(191.464 533.143)"/></g><g transform="translate(23.482 5.012)"><path class="a" d="M-179.275-522.953a1.152,1.152,0,0,1-1.136-.961l-.6-3.537a1.155,1.155,0,0,1,.945-1.33,1.149,1.149,0,0,1,1.33.945l.6,3.537a1.152,1.152,0,0,1-.944,1.33A1.123,1.123,0,0,1-179.275-522.953Z" transform="translate(181.027 528.798)"/></g><g transform="translate(24.081 8.55)"><path class="a" d="M-173.378-518.408a7.241,7.241,0,0,1-7.112-5.967,1.152,1.152,0,0,1,.934-1.337,1.153,1.153,0,0,1,1.337.934,4.92,4.92,0,0,0,5.694,3.988,1.151,1.151,0,0,1,1.336.937,1.153,1.153,0,0,1-.936,1.336A7.261,7.261,0,0,1-173.378-518.408Z" transform="translate(180.508 525.73)"/></g><g transform="translate(0 7.957)"><path class="a" d="M-200.229-518.9a1.153,1.153,0,0,1-.661-.209,1.153,1.153,0,0,1-.284-1.606,12.984,12.984,0,0,1,18.062-3.194,1.154,1.154,0,0,1,.285,1.607,1.153,1.153,0,0,1-1.607.284,10.675,10.675,0,0,0-14.85,2.625A1.152,1.152,0,0,1-200.229-518.9Z" transform="translate(201.383 526.245)"/></g></g><g transform="translate(58.303 6.338)"><path class="a" d="M-98.8-595.549v-35.418a25.242,25.242,0,0,0-25.241-25.241,25.3,25.3,0,0,0-25.3,25.241v34.576" transform="translate(151.071 657.938)"/><path class="d" d="M-98.566-593.588a1.73,1.73,0,0,1-1.73-1.73v-35.418a23.537,23.537,0,0,0-23.511-23.511,23.568,23.568,0,0,0-23.573,23.511v34.576a1.73,1.73,0,0,1-1.73,1.73,1.73,1.73,0,0,1-1.73-1.73v-34.576a27.034,27.034,0,0,1,27.034-26.971,27,27,0,0,1,26.971,26.971v35.418A1.73,1.73,0,0,1-98.566-593.588Z" transform="translate(150.841 657.708)"/></g><path class="e" d="M-140.835-634.609v21.665h30.921v-21.665a15.443,15.443,0,0,0-15.442-15.442,15.475,15.475,0,0,0-15.48,15.442" transform="translate(210.681 665.222)"/><g transform="translate(48.769 29.988)"><path class="f" d="M-88.738-628.054c0-4.223-15.416-7.653-34.434-7.653s-34.434,3.43-34.434,7.653v17.831h68.868Z" transform="translate(159.336 637.437)"/><path class="c" d="M-126.686-610.224h33.363v-17.831c0-4.223-15.416-7.653-34.434-7.653" transform="translate(163.92 637.437)"/><path class="d" d="M-86.778-608.263h-72.328v-19.561c0-7.422,23.655-9.383,36.164-9.383s36.164,1.961,36.164,9.383Zm-68.868-3.461h65.407v-16.1c0-1.772-11.126-5.922-32.7-5.922s-32.7,4.151-32.7,5.922Z" transform="translate(159.106 637.207)"/></g><path class="f" d="M-189.394-592.661c0,11.464,32,21.236,71.478,21.236s71.474-10.034,71.474-21.236c0-15.377-32-34.45-71.474-34.45S-189.394-608.038-189.394-592.661Z" transform="translate(203.224 668.745)"/><path class="c" d="M-127.431-627.111v55.686c39.476,0,71.474-10.034,71.474-21.236C-55.957-608.038-87.955-627.111-127.431-627.111Z" transform="translate(212.739 668.745)"/><path class="g" d="M-125.968-598.848a13.448,13.448,0,0,0,13.425-13.423A13.445,13.445,0,0,0-125.968-625.7a13.445,13.445,0,0,0-13.425,13.426A13.448,13.448,0,0,0-125.968-598.848Z" transform="translate(210.902 668.962)"/><g transform="translate(11.931 39.904)"><path class="d" d="M-46.394-586.974a1.729,1.729,0,0,1-1.73-1.73c0-16.406-32.089-36.446-69.539-36.446-37.653,0-69.916,20.04-69.916,36.446a1.729,1.729,0,0,1-1.73,1.73,1.73,1.73,0,0,1-1.73-1.73c0-18.075,32.731-39.906,73.377-39.906,40.437,0,73,21.831,73,39.906A1.729,1.729,0,0,1-46.394-586.974Z" transform="translate(191.04 628.611)"/></g><g transform="translate(47.007 40.952)"><g transform="translate(48.109)"><path class="d" d="M-91.946-602.637a1.156,1.156,0,0,1-1.134-.947c-.126-.686-3.327-16.867-24.953-21.84a1.153,1.153,0,0,1-.866-1.382,1.156,1.156,0,0,1,1.383-.866c23.164,5.326,26.674,23.5,26.707,23.68a1.152,1.152,0,0,1-.931,1.337A1.145,1.145,0,0,1-91.946-602.637Z" transform="translate(118.929 627.702)"/></g><g transform="translate(0 0)"><path class="d" d="M-159.478-602.636a1.251,1.251,0,0,1-.205-.017,1.155,1.155,0,0,1-.932-1.339c.033-.183,3.543-18.354,26.708-23.68a1.158,1.158,0,0,1,1.383.866,1.154,1.154,0,0,1-.866,1.382c-21.7,4.989-24.924,21.671-24.954,21.838A1.153,1.153,0,0,1-159.478-602.636Z" transform="translate(160.634 627.701)"/></g></g><g transform="translate(11.914 60.467)"><path class="c" d="M-189.555-592.052c0,9.519,32,17.238,71.478,17.238S-46.6-582.533-46.6-592.052s-32-17.233-71.474-17.233S-189.555-601.572-189.555-592.052Z" transform="translate(191.285 611.015)"/><path class="d" d="M-117.846-572.854c-35.491,0-73.209-6.648-73.209-18.968s37.718-18.963,73.209-18.963,73.2,6.646,73.2,18.963S-82.359-572.854-117.846-572.854Zm0-34.471c-41.1,0-69.748,8.171-69.748,15.5s28.644,15.507,69.748,15.507S-48.1-584.487-48.1-591.822-76.746-607.324-117.846-607.324Z" transform="translate(191.055 610.785)"/></g><g transform="translate(42.91 69.206)"><path class="a" d="M-163.185-591.742c0,5.778,18.612,10.466,41.571,10.466s41.57-4.688,41.57-10.466-18.614-10.467-41.57-10.467S-163.185-597.52-163.185-591.742Z" transform="translate(164.339 603.363)"/><path class="d" d="M-121.461-579.968c-20.712,0-42.724-4.072-42.724-11.62s22.012-11.621,42.724-11.621,42.723,4.073,42.723,11.621S-100.749-579.968-121.461-579.968Zm0-20.934c-23.819,0-40.417,4.908-40.417,9.314s16.6,9.313,40.417,9.313,40.416-4.908,40.416-9.313S-97.643-600.9-121.461-600.9Z" transform="translate(164.185 603.209)"/></g><g transform="translate(55.265 75.722)"><path class="e" d="M-150.082-575.355l-1.893-13.3c0-2.585,8.07-7.4,28.135-7.4s28.134,4.817,28.134,7.4L-97.6-575.318" transform="translate(153.705 597.791)"/><path class="d" d="M-97.366-573.357a1.755,1.755,0,0,1-.245-.017,1.732,1.732,0,0,1-1.471-1.956l1.863-13.132c-.544-1.428-7.938-5.637-26.391-5.637-18.306,0-25.728,4.141-26.387,5.68l1.857,13.051a1.729,1.729,0,0,1-1.468,1.956,1.728,1.728,0,0,1-1.956-1.469l-1.911-13.547c0-4.538,10.259-9.133,29.866-9.133s29.865,4.595,29.865,9.133l-.017.243-1.892,13.34A1.733,1.733,0,0,1-97.366-573.357Z" transform="translate(153.475 597.561)"/><g transform="translate(1.847 13.247)"><path class="f" d="M-150.374-577.546c0,3.883,11.77,7.032,26.289,7.032s26.289-3.149,26.289-7.032-11.769-7.031-26.289-7.031S-150.374-581.429-150.374-577.546Z" transform="translate(152.104 586.307)"/><path class="d" d="M-123.855-568.553c-13.494,0-28.019-2.742-28.019-8.762s14.524-8.761,28.019-8.761,28.018,2.742,28.018,8.761S-110.361-568.553-123.855-568.553Zm0-14.063c-16.2,0-24.558,3.716-24.558,5.3s8.355,5.3,24.558,5.3,24.557-3.716,24.557-5.3S-107.652-582.616-123.855-582.616Z" transform="translate(151.874 586.077)"/></g><path class="d" d="M-107.817-577.383c0-1.909-7.812-3.463-17.449-3.463s-17.446,1.554-17.446,3.463,7.813,3.46,17.446,3.46S-107.817-575.475-107.817-577.383Z" transform="translate(155.128 600.128)"/></g><path class="c" d="M-166.246-506.358c0,5.925,20.039,10.729,44.759,10.729s44.755-4.8,44.755-10.729-20.04-10.729-44.755-10.729S-166.246-512.282-166.246-506.358Z" transform="translate(206.778 685.641)"/><g transform="translate(70.906 154.75)"><path class="d" d="M-116.324-507.273c0-1.467-4.563-2.655-10.191-2.655s-10.188,1.188-10.188,2.655,4.562,2.651,10.188,2.651S-116.324-505.81-116.324-507.273Z" transform="translate(140.409 531.99)"/><g transform="translate(13.251 0.09)"><line class="f" y1="15.653" transform="translate(1.428 1.428)"/><path class="e" d="M-127-510.466a1.428,1.428,0,0,1-1.428-1.428v-15.653A1.428,1.428,0,0,1-127-528.975a1.428,1.428,0,0,1,1.428,1.428v15.653A1.428,1.428,0,0,1-127-510.466Z" transform="translate(128.429 528.975)"/></g><g transform="translate(19.874 0.091)"><line class="f" y1="9.912" transform="translate(1.428 1.428)"/><path class="e" d="M-121.26-516.206a1.428,1.428,0,0,1-1.428-1.428v-9.911a1.428,1.428,0,0,1,1.428-1.428,1.428,1.428,0,0,1,1.428,1.428v9.911A1.428,1.428,0,0,1-121.26-516.206Z" transform="translate(122.688 528.974)"/></g><g transform="translate(26.496 0.09)"><line class="f" y1="5.788" transform="translate(1.427 1.428)"/><path class="e" d="M-115.52-520.331a1.427,1.427,0,0,1-1.427-1.428v-5.787a1.427,1.427,0,0,1,1.427-1.428,1.428,1.428,0,0,1,1.428,1.428v5.787A1.428,1.428,0,0,1-115.52-520.331Z" transform="translate(116.947 528.975)"/></g><g transform="translate(0 8.72)"><line class="f" y2="0.846" transform="translate(1.434 1.435)"/><path class="e" d="M-138.481-517.778a1.434,1.434,0,0,1-1.435-1.435v-.846a1.434,1.434,0,0,1,1.435-1.435,1.434,1.434,0,0,1,1.434,1.435v.846A1.434,1.434,0,0,1-138.481-517.778Z" transform="translate(139.916 521.494)"/></g><g transform="translate(19.868 14.894)"><line class="f" y2="0.844" transform="translate(1.434 1.434)"/><path class="e" d="M-121.259-512.429a1.434,1.434,0,0,1-1.434-1.435v-.844a1.433,1.433,0,0,1,1.434-1.434,1.434,1.434,0,0,1,1.435,1.434v.844A1.435,1.435,0,0,1-121.259-512.429Z" transform="translate(122.693 516.142)"/></g><g transform="translate(0.007)"><line class="f" y1="4.466" transform="translate(1.428 1.427)"/><path class="e" d="M-138.482-521.732a1.427,1.427,0,0,1-1.428-1.427v-4.467a1.427,1.427,0,0,1,1.428-1.427,1.427,1.427,0,0,1,1.427,1.427v4.467A1.427,1.427,0,0,1-138.482-521.732Z" transform="translate(139.91 529.053)"/></g><g transform="translate(6.628 0.091)"><line class="f" y1="7.96" transform="translate(1.428 1.428)"/><path class="e" d="M-132.742-518.158a1.428,1.428,0,0,1-1.428-1.428v-7.96a1.428,1.428,0,0,1,1.428-1.428,1.428,1.428,0,0,1,1.428,1.428v7.96A1.428,1.428,0,0,1-132.742-518.158Z" transform="translate(134.17 528.974)"/></g></g><g transform="translate(65.084 116.636)"><path class="f" d="M-143.558-524.478a2.877,2.877,0,0,0,2.869,2.869h31.582a2.877,2.877,0,0,0,2.869-2.869V-544.8a6.5,6.5,0,0,0-2.293-4.595L-122.6-559.981a4.053,4.053,0,0,0-4.587,0l-14.076,10.587a6.5,6.5,0,0,0-2.293,4.595Z" transform="translate(145.179 562.309)"/><path class="d" d="M-108.891-519.773h-31.581a4.5,4.5,0,0,1-4.491-4.49v-20.321a8.059,8.059,0,0,1,2.94-5.889l14.076-10.587a5.684,5.684,0,0,1,6.535,0l14.071,10.587a8.066,8.066,0,0,1,2.939,5.889v20.321A4.5,4.5,0,0,1-108.891-519.773Zm-15.789-39.087a2.237,2.237,0,0,0-1.32.389l-14.076,10.587a4.889,4.889,0,0,0-1.647,3.3v20.321a1.251,1.251,0,0,0,1.25,1.249h31.581a1.251,1.251,0,0,0,1.249-1.249v-20.321a4.889,4.889,0,0,0-1.647-3.3l-14.071-10.587A2.234,2.234,0,0,0-124.68-558.861Z" transform="translate(144.963 562.094)"/><g transform="translate(4.022 5.06)"><rect class="f" width="30.318" height="30.373" rx="2.533" transform="translate(1.099 1.099)"/><path class="d" d="M-112.981-525.135h-24.474a4.026,4.026,0,0,1-4.021-4.021v-24.529a4.026,4.026,0,0,1,4.021-4.021h24.474a4.026,4.026,0,0,1,4.021,4.021v24.529A4.026,4.026,0,0,1-112.981-525.135Zm-24.474-30.373a1.825,1.825,0,0,0-1.823,1.823v24.529a1.825,1.825,0,0,0,1.823,1.823h24.474a1.825,1.825,0,0,0,1.823-1.823v-24.529a1.825,1.825,0,0,0-1.823-1.823Z" transform="translate(141.476 557.707)"/></g><g transform="translate(0 14.327)"><path class="f" d="M-143.558-526.385a2.877,2.877,0,0,0,2.869,2.869h31.582a2.877,2.877,0,0,0,2.869-2.869v-20.321c0-1.578-.991-2.042-2.2-1.03l-14.251,11.894a3.58,3.58,0,0,1-4.407,0l-14.256-11.9c-1.212-1.01-2.2-.547-2.2,1.031Z" transform="translate(145.179 549.889)"/><path class="d" d="M-108.891-521.681h-31.581a4.5,4.5,0,0,1-4.491-4.49v-20.321a2.984,2.984,0,0,1,1.582-2.953,2.988,2.988,0,0,1,3.28.678l14.257,11.9a1.975,1.975,0,0,0,2.33,0l14.252-11.9a2.987,2.987,0,0,1,3.28-.679,2.984,2.984,0,0,1,1.582,2.953v20.321A4.5,4.5,0,0,1-108.891-521.681ZM-141.723-545.9v19.729a1.251,1.251,0,0,0,1.25,1.249h31.581a1.251,1.251,0,0,0,1.249-1.249V-545.9l-13.8,11.515a5.186,5.186,0,0,1-6.482,0Z" transform="translate(144.963 549.674)"/></g><g transform="translate(0.594 24.47)"><path class="f" d="M-143.044-527.035l15.768-11.737a4.1,4.1,0,0,1,4.6,0l15.763,11.737" transform="translate(144.663 541.096)"/><path class="d" d="M-142.827-525.2a1.619,1.619,0,0,1-1.3-.653,1.62,1.62,0,0,1,.332-2.267l15.767-11.739a5.733,5.733,0,0,1,6.538,0l15.763,11.737a1.62,1.62,0,0,1,.332,2.267,1.621,1.621,0,0,1-2.267.332l-15.763-11.737a2.516,2.516,0,0,0-2.669,0l-15.767,11.739A1.618,1.618,0,0,1-142.827-525.2Z" transform="translate(144.448 540.881)"/></g><g transform="translate(16.148 11.822)"><path class="e" d="M-126.973-550.951l-.944,1.915-2.112.306,1.528,1.488-.363,2.1,1.891-.991,1.887.991-.36-2.1,1.528-1.488-2.11-.306Z" transform="translate(131.109 551.982)"/><path class="e" d="M-128.72-543.92a1.084,1.084,0,0,1-.636-.206,1.082,1.082,0,0,1-.429-1.057l.266-1.545-1.12-1.091a1.079,1.079,0,0,1-.273-1.107,1.079,1.079,0,0,1,.872-.735l1.549-.225.693-1.405a1.124,1.124,0,0,1,1.937,0l.693,1.405,1.548.225a1.081,1.081,0,0,1,.871.735,1.079,1.079,0,0,1-.273,1.107l-1.12,1.092.264,1.545a1.079,1.079,0,0,1-.429,1.055,1.079,1.079,0,0,1-1.137.082l-1.385-.728-1.39.729A1.068,1.068,0,0,1-128.72-543.92Zm1.154-3.919a1.073,1.073,0,0,1,.28.869,1.092,1.092,0,0,1,.912,0,1.079,1.079,0,0,1,.28-.869,1.082,1.082,0,0,1-.736-.535A1.079,1.079,0,0,1-127.567-547.839Z" transform="translate(130.965 551.845)"/></g></g><g transform="translate(74.552 46.306)"><path class="g" d="M-126.527-603.6a9.239,9.239,0,0,1-9.229-9.228,9.241,9.241,0,0,1,9.229-9.232,9.242,9.242,0,0,1,9.23,9.232A9.24,9.24,0,0,1-126.527-603.6Z" transform="translate(136.908 623.215)"/><path class="d" d="M-126.373-620.754a8.089,8.089,0,0,1,8.075,8.078,8.09,8.09,0,0,1-8.075,8.075,8.09,8.09,0,0,1-8.075-8.075,8.089,8.089,0,0,1,8.075-8.078m0-2.307a10.4,10.4,0,0,0-10.382,10.386,10.393,10.393,0,0,0,10.382,10.382,10.393,10.393,0,0,0,10.382-10.382,10.4,10.4,0,0,0-10.382-10.386Z" transform="translate(136.755 623.061)"/><path class="h" d="M-126.987-607.529a5.775,5.775,0,0,0,5.764-5.761,5.779,5.779,0,0,0-5.764-5.768,5.781,5.781,0,0,0-5.766,5.768A5.777,5.777,0,0,0-126.987-607.529Z" transform="translate(137.37 623.676)"/><g transform="translate(8.99 6.537)"><path class="i" d="M-124.91-612.226a1.153,1.153,0,0,1-1.154-1.147,1.7,1.7,0,0,0-.513-1.216,1.691,1.691,0,0,0-1.224-.5,1.142,1.142,0,0,1-1.162-1.146,1.155,1.155,0,0,1,1.147-1.162,4.091,4.091,0,0,1,2.86,1.163,4,4,0,0,1,1.2,2.845,1.154,1.154,0,0,1-1.147,1.16Z" transform="translate(128.962 617.394)"/></g></g><g transform="translate(68.692 76.299)"><g transform="translate(29.987 1.493)"><line class="c" x1="1.045" y2="10.855" transform="translate(1.154 1.154)"/><path class="d" d="M-114.685-582.6c-.036,0-.074,0-.111,0a1.153,1.153,0,0,1-1.038-1.259l1.045-10.855a1.155,1.155,0,0,1,1.259-1.038,1.153,1.153,0,0,1,1.038,1.258l-1.045,10.855A1.154,1.154,0,0,1-114.685-582.6Z" transform="translate(115.84 595.767)"/></g><g transform="translate(15.516)"><line class="c" x2="0.003" y2="11.343" transform="translate(1.152 1.154)"/><rect class="d" width="2.307" height="13.65" rx="1"/></g><g transform="translate(0 1.493)"><line class="c" x2="1.045" y2="10.837" transform="translate(1.154 1.154)"/><path class="d" d="M-139.636-582.622a1.154,1.154,0,0,1-1.148-1.043l-1.045-10.838a1.153,1.153,0,0,1,1.037-1.258,1.148,1.148,0,0,1,1.26,1.037l1.045,10.838a1.153,1.153,0,0,1-1.037,1.259C-139.563-582.625-139.6-582.622-139.636-582.622Z" transform="translate(141.835 595.767)"/></g></g><g transform="translate(23.222 77.307)"><path class="d" d="M-168.307-593.684c0-1.378-2.9-2.5-6.474-2.5s-6.471,1.125-6.471,2.5,2.9,2.5,6.471,2.5S-168.307-592.3-168.307-593.684Z" transform="translate(181.252 596.187)"/><path class="d" d="M-70.749-593.684c0-1.378-2.9-2.5-6.475-2.5s-6.47,1.125-6.47,2.5,2.9,2.5,6.47,2.5S-70.749-592.3-70.749-593.684Z" transform="translate(196.233 596.187)"/></g><g transform="translate(14.457 38.239)"><path class="e" d="M-182.8-617.95A6.059,6.059,0,0,1-188.85-624a6.058,6.058,0,0,1,6.052-6.05,6.059,6.059,0,0,1,6.053,6.05A6.06,6.06,0,0,1-182.8-617.95Zm0-8.644a2.594,2.594,0,0,0-2.591,2.59,2.6,2.6,0,0,0,2.591,2.593A2.6,2.6,0,0,0-180.206-624,2.594,2.594,0,0,0-182.8-626.593Z" transform="translate(188.85 630.054)"/></g><path class="j" d="M-57.851-553.463a1.024,1.024,0,0,1,1.023,1.02h0a1.027,1.027,0,0,1-1.023,1.023H-62.58a1.026,1.026,0,0,1-1.022-1.023h0a1.024,1.024,0,0,1,1.022-1.02Zm-12.174,7.446a1.023,1.023,0,0,1,1.019-1.021h0a1.023,1.023,0,0,1,1.022,1.021v4.73a1.023,1.023,0,0,1-1.022,1.022h0a1.023,1.023,0,0,1-1.019-1.022v-4.73Zm0-8.79a1.021,1.021,0,0,1,1.019-1.021h0a1.023,1.023,0,0,1,1.022,1.021v1.344h1.344a1.023,1.023,0,0,1,1.021,1.02h0a1.025,1.025,0,0,1-1.021,1.023h-1.344v1.343a1.025,1.025,0,0,1-1.022,1.023h0a1.023,1.023,0,0,1-1.019-1.023v-1.343h-1.344a1.025,1.025,0,0,1-1.023-1.023h0a1.024,1.024,0,0,1,1.023-1.02h1.344v-1.344Zm0-8.791a1.022,1.022,0,0,1,1.019-1.021h0a1.024,1.024,0,0,1,1.022,1.021v4.731a1.023,1.023,0,0,1-1.022,1.02h0a1.022,1.022,0,0,1-1.019-1.02V-563.6Zm-4.385,11.155h0a1.026,1.026,0,0,1-1.021,1.023h-4.731a1.025,1.025,0,0,1-1.02-1.023h0a1.023,1.023,0,0,1,1.02-1.02h4.731A1.024,1.024,0,0,1-74.41-552.443Z" transform="translate(219.841 678.341)"/><g transform="translate(69.505 14.571)"><path class="f" d="M-138.824-638.354a2.3,2.3,0,0,1-.885-.178,2.307,2.307,0,0,1-1.244-3.017A14.783,14.783,0,0,1-129-650.556a2.305,2.305,0,0,1,2.554,2.029,2.305,2.305,0,0,1-2.029,2.554,10.17,10.17,0,0,0-8.221,6.2A2.308,2.308,0,0,1-138.824-638.354Z" transform="translate(141.13 650.571)"/></g><g transform="translate(78.313)"><path class="d" d="M-126.175-653.4h0a1.73,1.73,0,0,1-1.3-.586l-5.59-6.338a1.731,1.731,0,0,1,.153-2.442,1.728,1.728,0,0,1,2.442.154l4.292,4.866,4.294-4.866a1.729,1.729,0,0,1,2.442-.154,1.732,1.732,0,0,1,.153,2.442l-5.591,6.338A1.731,1.731,0,0,1-126.175-653.4Z" transform="translate(133.495 663.203)"/></g></svg>