<svg xmlns="http://www.w3.org/2000/svg" width="169.68" height="183.337" viewBox="0 0 169.68 183.337"><defs><style>.a,.b{fill:#c6c3e1;}.b,.e,.i,.k{fill-rule:evenodd;}.c{fill:#9a94c8;}.d{fill:#522a75;}.e,.h{fill:#fff;}.f,.i{fill:#eb008b;}.g,.k{fill:#e0deef;}.j{fill:#eb80ab;}</style></defs><g transform="translate(134.151 112.398)"><path class="a" d="M132.7-86.265a4.459,4.459,0,0,1-3.167-1.306,4.462,4.462,0,0,1-1.329-3.175,4.508,4.508,0,0,1,3.983-4.485,7.163,7.163,0,0,1,6.906-5.371,7.272,7.272,0,0,1,3.005.649,9.4,9.4,0,0,1,8.313-5.109h.036a9.419,9.419,0,0,1,9.224,7.772,5.59,5.59,0,0,1,4.062,5.343,5.583,5.583,0,0,1-5.554,5.6h0l-25.454.085H132.7Zm-.009-6.9a2.411,2.411,0,0,0-2.395,2.417,2.387,2.387,0,0,0,.711,1.7,2.621,2.621,0,0,0,1.7.7h0l25.459-.085h0a3.492,3.492,0,0,0,3.469-3.5,3.488,3.488,0,0,0-3.042-3.44,1.046,1.046,0,0,1-.91-.947,7.31,7.31,0,0,0-7.243-6.643h-.029a7.294,7.294,0,0,0-6.836,4.85,1.044,1.044,0,0,1-.664.645A1.047,1.047,0,0,1,142-97.61a5.055,5.055,0,0,0-2.89-.9h-.014a5.068,5.068,0,0,0-5.008,4.442,1.048,1.048,0,0,1-1.136.914A2.515,2.515,0,0,0,132.686-93.169Z" transform="translate(-128.2 105.061)"/></g><g transform="translate(16.301 58.764)"><path class="b" d="M30.672-150.659v1.946h1.947a.9.9,0,0,1,.9.9h0a.9.9,0,0,1-.9.9H30.672v1.947a.9.9,0,0,1-.9.9h0a.9.9,0,0,1-.9-.9v-1.947H26.934a.9.9,0,0,1-.9-.9h0a.9.9,0,0,1,.9-.9H28.88v-1.946a.9.9,0,0,1,.9-.9h0A.9.9,0,0,1,30.672-150.659Z" transform="translate(-26.038 151.555)"/></g><g transform="translate(121.077 25.466)"><path class="b" d="M117.761-172.445H120.1a.9.9,0,0,1,.9.9h0a.9.9,0,0,1-.9.9h-2.341a.9.9,0,0,1-.9-.9h0a.9.9,0,0,1,.9-.9Zm8.872,6.531v2.341a.9.9,0,0,1-.9.9h0a.9.9,0,0,1-.9-.9v-2.341a.9.9,0,0,1,.9-.9h0a.9.9,0,0,1,.9.9Zm0-7.709v1.178h1.178a.9.9,0,0,1,.9.9h0a.9.9,0,0,1-.9.9h-1.178v1.179a.9.9,0,0,1-.9.9h0a.9.9,0,0,1-.9-.9v-1.179h-1.179a.9.9,0,0,1-.9-.9h0a.9.9,0,0,1,.9-.9h1.179v-1.178a.9.9,0,0,1,.9-.9h0a.9.9,0,0,1,.9.9Zm0-5.9v2.339a.9.9,0,0,1-.9.9h0a.9.9,0,0,1-.9-.9v-2.339a.9.9,0,0,1,.9-.9h0a.9.9,0,0,1,.9.9Zm4.74,7.079h2.339a.9.9,0,0,1,.9.9h0a.9.9,0,0,1-.9.9h-2.339a.9.9,0,0,1-.9-.9h0A.9.9,0,0,1,131.373-172.445Z" transform="translate(-116.866 180.421)"/></g><g transform="translate(20.371 29.955)"><path class="a" d="M56.439-161.55l-22.827-.08a4.057,4.057,0,0,1-4.047-4.073,4.061,4.061,0,0,1,3.546-4.014,7.459,7.459,0,0,1,7.457-6.812,7.467,7.467,0,0,1,7.01,4.974,5.452,5.452,0,0,1,3.138-.976,5.478,5.478,0,0,1,5.419,4.807,2.535,2.535,0,0,1,.324-.016,3.1,3.1,0,0,1,3.086,3.1A3.1,3.1,0,0,1,56.439-161.55Z" transform="translate(-29.566 176.529)"/></g><g transform="translate(45.363 91.579)"><path class="c" d="M74.389-95.221l-2.667-10.011c-.751-2.351-2.552-8.27-4.219-15.827l-.146-.551c-9.467,2.734-14.706,12.465-14.625,24.287.067,9.6,2.767,19.87,11.653,28.806A47.75,47.75,0,0,1,74.389-95.221Z" transform="translate(-51.001 123.338)"/><path class="d" d="M64.616-66.557a1.728,1.728,0,0,1-1.227-.51C55.4-75.1,51.315-85.193,51.232-97.08c-.09-13.161,5.993-23.108,15.875-25.962a1.749,1.749,0,0,1,1.332.157,1.732,1.732,0,0,1,.82,1.061l.147.55c1.687,7.643,3.494,13.556,4.193,15.747l2.691,10.09a1.728,1.728,0,0,1-.324,1.532A45.778,45.778,0,0,0,66.345-68.22a1.731,1.731,0,0,1-1.1,1.545A1.707,1.707,0,0,1,64.616-66.557Zm1.729-52.556c-7.307,3.043-11.726,11.284-11.652,22.008.067,9.72,2.87,17.848,8.548,24.732a49.987,49.987,0,0,1,9.485-23.008l-2.446-9.174C69.63-106.583,67.958-112.049,66.345-119.113Z" transform="translate(-51.231 123.108)"/></g><g transform="translate(84.248 1.73)"><path class="c" d="M84.94-200.749c.187-.164.287-.248.287-.248s8.692,6.581,16.514,22.721L88.2-176.824Q86.918-188.786,84.94-200.749Z" transform="translate(-84.94 200.997)"/></g><g transform="translate(84.248 24.65)"><path class="a" d="M102.542-181.128a99.14,99.14,0,0,1,9.665,41.754c.142,20.906-7.4,44.127-7.4,44.127l-2.487,8.933S101.3-82.7,86.8-82.7c-.643,0-1.261-.007-1.858-.02A309.105,309.105,0,0,0,90.317-145.2a15.128,15.128,0,0,0,10.314-14.339,15.126,15.126,0,0,0-11.875-14.769q-.258-2.781-.556-5.562Z" transform="translate(-84.94 181.128)"/></g><g transform="translate(99.92 91.08)"><path class="c" d="M100.026-95.378l.322-1.26,2.139-7.683a177.064,177.064,0,0,0,4.5-17.721c9.422,2.657,14.589,12.5,14.668,24.269.067,9.59-2.493,19.9-11.258,28.959A47.732,47.732,0,0,0,100.026-95.378Z" transform="translate(-98.295 123.771)"/><path class="d" d="M110.622-66.853a1.734,1.734,0,0,1-.607-.11,1.729,1.729,0,0,1-1.121-1.53,45.753,45.753,0,0,0-9.97-25.551,1.727,1.727,0,0,1-.344-1.534l.322-1.259,2.147-7.717a177.206,177.206,0,0,0,4.468-17.6,1.729,1.729,0,0,1,.795-1.134,1.721,1.721,0,0,1,1.37-.189c9.737,2.743,15.84,12.676,15.928,25.922.082,11.883-3.869,22.035-11.744,30.174A1.728,1.728,0,0,1,110.622-66.853Zm-8.474-28.709a49.965,49.965,0,0,1,9.793,22.874c5.584-6.962,8.276-15.127,8.209-24.842-.072-10.781-4.484-19.011-11.642-22-1.966,9.224-4.052,15.687-4.146,15.977Z" transform="translate(-98.526 123.541)"/></g><g transform="translate(68.256 1.978)"><path class="e" d="M90.043-179.441q-1.211-10.671-2.974-21.341c-1.58,1.391-9.377,8.642-15.992,21.694l18.591,2.471Z" transform="translate(-71.077 200.782)"/></g><g transform="translate(66.349 109.489)"><path class="d" d="M87.423-102.951A63.958,63.958,0,0,1,70.19-105.28a1.044,1.044,0,0,1-.728-1.286,1.045,1.045,0,0,1,1.286-.728c11.108,3.081,22.754,3,35.607-.256a1.046,1.046,0,0,1,1.27.757,1.046,1.046,0,0,1-.757,1.271A79.083,79.083,0,0,1,87.423-102.951Z" transform="translate(-69.424 107.583)"/></g><g transform="translate(77.293 44.953)"><path class="a" d="M85.785-155.12a6.836,6.836,0,0,1-4.829-1.982,6.83,6.83,0,0,1-2.045-4.848,1.567,1.567,0,0,1,1.558-1.578h.009a1.568,1.568,0,0,1,1.569,1.557,3.707,3.707,0,0,0,1.112,2.636,3.713,3.713,0,0,0,2.627,1.079.184.184,0,0,1,.036,0A1.568,1.568,0,0,1,87.39-156.7a1.569,1.569,0,0,1-1.557,1.579Z" transform="translate(-78.911 163.528)"/></g><g transform="translate(71.848 33.352)"><path class="d" d="M87.154-147.658a12.979,12.979,0,0,1-12.963-12.875,12.978,12.978,0,0,1,12.875-13.051,12.856,12.856,0,0,1,9.194,3.734,12.89,12.89,0,0,1,3.859,9.142,12.876,12.876,0,0,1-3.734,9.193,12.877,12.877,0,0,1-9.142,3.858Zm0-22.79h-.072a9.837,9.837,0,0,0-9.759,9.894,9.841,9.841,0,0,0,9.827,9.76h.067a9.759,9.759,0,0,0,6.929-2.924,9.761,9.761,0,0,0,2.832-6.968,9.769,9.769,0,0,0-2.927-6.932A9.758,9.758,0,0,0,87.158-170.447Z" transform="translate(-74.191 173.584)"/></g><g transform="translate(58.668 81.263)"><path class="d" d="M88.729-125.98a93.336,93.336,0,0,1-25.239-4.029,1.046,1.046,0,0,1-.676-1.315A1.043,1.043,0,0,1,64.131-132c.122.038,12.378,3.928,24.6,3.928s25.345-3.9,25.476-3.935a1.049,1.049,0,0,1,1.3.7,1.044,1.044,0,0,1-.7,1.3C114.674-129.963,101.277-125.98,88.729-125.98Z" transform="translate(-62.765 132.051)"/></g><g transform="translate(67.855 23.464)"><path class="d" d="M88.3-178.594a99.488,99.488,0,0,1-16.7-1.486,1.045,1.045,0,0,1-.855-1.205,1.045,1.045,0,0,1,1.205-.856c11.41,1.939,21.68,1.941,31.4.006a1.047,1.047,0,0,1,1.23.821,1.047,1.047,0,0,1-.821,1.23A78.852,78.852,0,0,1,88.3-178.594Z" transform="translate(-70.729 182.156)"/></g><g transform="translate(56.708)"><path class="d" d="M90.465-77.689c-14.587,0-18.069-3.352-18.618-4.024a1.733,1.733,0,0,1-.333-.649L69.144-91.2c-.525-1.557-7.935-23.873-8.076-44.514-.3-43.549,25.619-65.47,26.723-66.382a1.73,1.73,0,0,1,2.186-.015c1.115.9,27.329,22.463,27.627,66.011.141,20.945-7.179,43.714-7.49,44.674l-2.464,8.863C107.237-81.1,104.741-77.689,90.465-77.689ZM74.721-83.761c.846.569,4.63,2.612,15.744,2.612,11.154,0,13.577-2.174,13.905-2.539l2.432-8.741c.1-.3,7.48-23.278,7.342-43.652-.253-36.9-20.269-57.757-25.233-62.362-4.895,4.681-24.634,25.863-24.382,62.7.138,20.372,7.834,43.248,7.911,43.477.012.037.023.073.032.11Zm29.69.021Z" transform="translate(-61.066 202.497)"/></g><g transform="translate(78.9 95.643)"><path class="c" d="M90.5-116.563c0,1.518,0,3.686,0,6.288-.022,2.6-.046,5.644-.13,8.9-.069,3.252-.181,6.726-.339,10.2s-.353,6.942-.594,10.2c-.121,1.632-.2,3.2-.348,4.692-.133,1.5-.262,2.9-.377,4.212s-.269,2.5-.38,3.555-.218,1.977-.325,2.737c-.193,1.52-.326,2.389-.326,2.389a1.174,1.174,0,0,1-1.346.978,1.175,1.175,0,0,1-.976-.966s-.148-.863-.359-2.38c-.117-.759-.238-1.682-.365-2.737s-.3-2.249-.428-3.551-.281-2.709-.435-4.2-.266-3.062-.412-4.689c-.284-3.25-.541-6.721-.734-10.188s-.363-6.943-.479-10.194-.193-6.29-.251-8.894c-.038-2.6-.065-4.772-.088-6.292,0-.531,2.162-1.567,4.339-1.58S90.5-117.18,90.5-116.563Z" transform="translate(-80.074 119.816)"/><path class="d" d="M86.754-60.441a2.788,2.788,0,0,1-.468-.038,2.9,2.9,0,0,1-2.407-2.381s-.15-.884-.367-2.433c-.115-.751-.239-1.692-.368-2.77-.045-.377-.1-.767-.146-1.173-.1-.753-.2-1.561-.286-2.412l-.434-4.193c-.108-.96-.19-1.969-.272-3.007-.045-.559-.09-1.129-.142-1.7-.307-3.515-.555-6.962-.738-10.248-.2-3.418-.36-6.86-.48-10.226-.121-3.117-.187-6.041-.245-8.576l-.1-6.646c-.013-2.335,3.939-3.322,6.057-3.337h.069a8.355,8.355,0,0,1,5.327,1.68,2.181,2.181,0,0,1,.7,1.565v.008l0,6.289c-.022,2.684-.047,5.682-.13,8.94-.073,3.412-.188,6.859-.341,10.236-.137,3.307-.338,6.758-.6,10.246-.04.538-.075,1.067-.11,1.59-.072,1.083-.141,2.134-.243,3.149l-.375,4.19c-.074.865-.168,1.689-.256,2.459l-.126,1.124c-.117,1.083-.224,2.021-.333,2.8-.193,1.526-.33,2.413-.33,2.413a2.9,2.9,0,0,1-1.165,1.906A2.884,2.884,0,0,1,86.754-60.441Zm-2.978-55.1.084,5.86c.057,2.517.123,5.423.245,8.525.119,3.346.278,6.763.476,10.159.18,3.254.426,6.664.729,10.139.052.585.1,1.165.144,1.736.08,1,.157,1.97.263,2.91l.437,4.217c.082.821.181,1.6.275,2.319.054.419.1.821.151,1.205s.091.753.136,1.1c.04-.351.081-.719.122-1.106l.128-1.152c.085-.739.176-1.532.247-2.366l.377-4.216c.1-1,.167-2.01.236-3.05.035-.532.07-1.071.111-1.616.255-3.454.455-6.866.591-10.142.152-3.357.266-6.774.339-10.166.083-3.236.107-6.219.129-8.85l0-5.581a6.337,6.337,0,0,0-2.613-.51A6.684,6.684,0,0,0,83.775-115.542Zm5.572.117h0Z" transform="translate(-80.304 119.586)"/></g><g transform="translate(141.61 134.653)"><path class="c" d="M139.371-72.49a4.211,4.211,0,0,1-3.439-2.09,8.364,8.364,0,0,1-1.267-4.515,8.381,8.381,0,0,1,1.205-4.535,4.21,4.21,0,0,1,3.438-2.139h.021c2.615,0,4.68,2.9,4.705,6.609a8.363,8.363,0,0,1-1.2,4.531A4.217,4.217,0,0,1,139.4-72.49Zm-.042-11.187h-.008a2.249,2.249,0,0,0-1.69,1.175,6.371,6.371,0,0,0-.876,3.394,6.356,6.356,0,0,0,.921,3.375,2.254,2.254,0,0,0,1.695,1.152h.009a2.253,2.253,0,0,0,1.691-1.178,6.354,6.354,0,0,0,.873-3.387h0C141.927-81.822,140.553-83.678,139.33-83.678Z" transform="translate(-134.666 85.769)"/></g><g transform="translate(129.565 78.216)"><path class="f" d="M128.948-125.3a1.047,1.047,0,0,1-1.046-1.038,2.61,2.61,0,0,0-2.609-2.591.152.152,0,0,0-.023,0,1.046,1.046,0,0,1-1.045-1.039v-.007a1.045,1.045,0,0,1,1.039-1.045,2.589,2.589,0,0,0,1.84-.776,2.585,2.585,0,0,0,.75-1.843v-.007a1.046,1.046,0,0,1,1.037-1.047h.008a1.045,1.045,0,0,1,1.045,1.038,2.61,2.61,0,0,0,2.607,2.587h.024a1.044,1.044,0,0,1,1.045,1.038v.007a1.046,1.046,0,0,1-1.038,1.046,2.609,2.609,0,0,0-2.589,2.626v.007a1.045,1.045,0,0,1-1.038,1.045Zm-.724-4.692a4.719,4.719,0,0,1,.7.694,4.744,4.744,0,0,1,.7-.706,4.727,4.727,0,0,1-.7-.7,4.751,4.751,0,0,1-.329.37A4.825,4.825,0,0,1,128.223-129.99Z" transform="translate(-124.224 134.693)"/></g><g transform="translate(45.406 161.203)"><path class="c" d="M54.82-53.008a3.2,3.2,0,0,1-2.629-1.579,6.064,6.064,0,0,1-.922-3.269,6.08,6.08,0,0,1,.877-3.283,3.2,3.2,0,0,1,2.628-1.614h.017c1.974,0,3.532,2.126,3.552,4.85h0c.017,2.729-1.522,4.88-3.5,4.895Zm-.029-7.655h0a1.193,1.193,0,0,0-.88.653,4.018,4.018,0,0,0-.546,2.14,4.022,4.022,0,0,0,.574,2.132,1.2,1.2,0,0,0,.885.64h0c.683,0,1.44-1.2,1.428-2.789h0C56.24-59.478,55.471-60.663,54.791-60.663Z" transform="translate(-51.269 62.753)"/></g><g transform="translate(30.717 131.702)"><path class="c" d="M44.271-76.327a1.045,1.045,0,0,1-1.045-1.043l-.014-7.385-2.891,2.9a1.046,1.046,0,0,1-1.478,0,1.046,1.046,0,0,1,0-1.479l4.671-4.693a1.047,1.047,0,0,1,1.14-.228,1.047,1.047,0,0,1,.647.964l.018,9.909a1.044,1.044,0,0,1-1.043,1.047Z" transform="translate(-38.535 88.326)"/></g><g transform="translate(120.92 165.333)"><path class="c" d="M121.848-48.481a1.045,1.045,0,0,1-1.045-1.044l-.013-6.077-2.274,2.282a1.043,1.043,0,0,1-1.479,0,1.044,1.044,0,0,1,0-1.478l4.056-4.07a1.046,1.046,0,0,1,1.139-.23,1.047,1.047,0,0,1,.647.964l.017,8.6a1.046,1.046,0,0,1-1.043,1.049Z" transform="translate(-116.73 59.173)"/></g><g transform="translate(69.732 150.253)"><path class="g" d="M73.4-60.869a1.046,1.046,0,0,1-1.045-1.045V-71.2A1.046,1.046,0,0,1,73.4-72.245,1.045,1.045,0,0,1,74.446-71.2v9.286A1.045,1.045,0,0,1,73.4-60.869Z" transform="translate(-72.356 72.245)"/></g><g transform="translate(69.732 126.229)"><path class="g" d="M73.4-76.758A1.046,1.046,0,0,1,72.356-77.8V-92.026A1.046,1.046,0,0,1,73.4-93.071a1.045,1.045,0,0,1,1.045,1.045V-77.8A1.045,1.045,0,0,1,73.4-76.758Z" transform="translate(-72.356 93.071)"/></g><g transform="translate(92.517 140.704)"><path class="g" d="M93.153-76.186a1.046,1.046,0,0,1-1.045-1.045v-2.246a1.047,1.047,0,0,1,1.045-1.046A1.046,1.046,0,0,1,94.2-79.477v2.246A1.045,1.045,0,0,1,93.153-76.186Z" transform="translate(-92.108 80.523)"/></g><g transform="translate(100.956 134.574)"><path class="g" d="M100.469-76.75A1.046,1.046,0,0,1,99.424-77.8v-7a1.046,1.046,0,0,1,1.045-1.045,1.046,1.046,0,0,1,1.046,1.045v7A1.046,1.046,0,0,1,100.469-76.75Z" transform="translate(-99.424 85.837)"/></g><g transform="translate(75.431 152.475)"><path class="g" d="M78.342-59.94A1.047,1.047,0,0,1,77.3-60.987v-8.287a1.046,1.046,0,0,1,1.045-1.045,1.046,1.046,0,0,1,1.045,1.045v8.287A1.047,1.047,0,0,1,78.342-59.94Z" transform="translate(-77.297 70.319)"/></g><g transform="translate(92.517 147.529)"><path class="g" d="M93.153-58.078a1.047,1.047,0,0,1-1.045-1.046V-73.561a1.047,1.047,0,0,1,1.045-1.046A1.046,1.046,0,0,1,94.2-73.561v14.437A1.046,1.046,0,0,1,93.153-58.078Z" transform="translate(-92.108 74.607)"/></g><g transform="translate(75.431 165.092)"><path class="g" d="M78.342-53.935A1.047,1.047,0,0,1,77.3-54.981v-3.356a1.046,1.046,0,0,1,1.045-1.045,1.046,1.046,0,0,1,1.045,1.045v3.356A1.047,1.047,0,0,1,78.342-53.935Z" transform="translate(-77.297 59.382)"/></g><g transform="translate(35.589 145.798)"><path class="g" d="M43.8-65.42a1.044,1.044,0,0,1-1.045-1.038,9.524,9.524,0,0,1,2.76-6.8,9.518,9.518,0,0,1,6.756-2.853,9.547,9.547,0,0,1,9.645,9.516,1.046,1.046,0,0,1-1.037,1.054h-.008a1.046,1.046,0,0,1-1.045-1.038,7.5,7.5,0,0,0-7.49-7.44H52.29a7.445,7.445,0,0,0-5.282,2.23,7.445,7.445,0,0,0-2.158,5.313,1.045,1.045,0,0,1-1.038,1.052Z" transform="translate(-42.759 76.108)"/></g><g transform="translate(52.661 154.277)"><path class="g" d="M58.6-61.615a1.046,1.046,0,0,1-1.045-1.045v-5.051A1.046,1.046,0,0,1,58.6-68.757a1.045,1.045,0,0,1,1.045,1.045v5.051A1.045,1.045,0,0,1,58.6-61.615Z" transform="translate(-57.558 68.757)"/></g><g transform="translate(52.661 159.212)"><path class="g" d="M67.137-53.8a9.59,9.59,0,0,1-9.579-9.515A1.046,1.046,0,0,1,58.6-64.362H58.6a1.044,1.044,0,0,1,1.045,1.038,7.5,7.5,0,0,0,7.489,7.438h.051a7.445,7.445,0,0,0,5.281-2.23,7.438,7.438,0,0,0,2.159-5.311,1.046,1.046,0,0,1,1.038-1.052h.007a1.045,1.045,0,0,1,1.045,1.039,9.515,9.515,0,0,1-2.76,6.791A9.515,9.515,0,0,1,67.2-53.8Z" transform="translate(-57.558 64.479)"/></g><g transform="translate(18.209 154.884)"><path class="g" d="M28.737-61.2A1.04,1.04,0,0,1,28-61.5a1.045,1.045,0,0,1-.01-1.479,17.691,17.691,0,0,1,24.987-.17,1.046,1.046,0,0,1,.009,1.479,1.046,1.046,0,0,1-1.478.01,15.6,15.6,0,0,0-22.031.15A1.044,1.044,0,0,1,28.737-61.2Z" transform="translate(-27.692 68.231)"/></g><g transform="translate(100.956 137.746)"><path class="g" d="M100.469-60.04a1.046,1.046,0,0,1-1.045-1.045V-82.042a1.046,1.046,0,0,1,1.045-1.045,1.046,1.046,0,0,1,1.046,1.045v20.957A1.046,1.046,0,0,1,100.469-60.04Z" transform="translate(-99.424 83.087)"/></g><g transform="translate(118.028 145.798)"><path class="g" d="M132.339-65.42h-.008a1.046,1.046,0,0,1-1.038-1.052,7.44,7.44,0,0,0-2.158-5.313,7.441,7.441,0,0,0-5.281-2.23H123.8a7.5,7.5,0,0,0-7.488,7.439,1.046,1.046,0,0,1-1.045,1.039h-.007a1.046,1.046,0,0,1-1.038-1.053,9.591,9.591,0,0,1,9.578-9.517h.065a9.516,9.516,0,0,1,6.756,2.853,9.52,9.52,0,0,1,2.762,6.8A1.046,1.046,0,0,1,132.339-65.42Z" transform="translate(-114.223 76.107)"/></g><g transform="translate(118.028 154.277)"><path class="g" d="M115.268-61.615a1.045,1.045,0,0,1-1.045-1.045v-5.051a1.045,1.045,0,0,1,1.045-1.045,1.046,1.046,0,0,1,1.045,1.045v5.051A1.046,1.046,0,0,1,115.268-61.615Z" transform="translate(-114.223 68.757)"/></g><g transform="translate(100.956 159.212)"><path class="g" d="M109.007-53.8h-.065a9.516,9.516,0,0,1-6.758-2.853,9.515,9.515,0,0,1-2.76-6.791,1.047,1.047,0,0,1,1.045-1.039h.008a1.046,1.046,0,0,1,1.038,1.052,7.431,7.431,0,0,0,2.157,5.31,7.449,7.449,0,0,0,5.283,2.231h.051a7.5,7.5,0,0,0,7.489-7.439,1.044,1.044,0,0,1,1.045-1.037h.007a1.046,1.046,0,0,1,1.038,1.053A9.592,9.592,0,0,1,109.007-53.8Z" transform="translate(-99.424 64.479)"/></g><g transform="translate(128.969 154.885)"><path class="g" d="M148.263-61.2a1.044,1.044,0,0,1-.744-.31,15.6,15.6,0,0,0-22.032-.15,1.046,1.046,0,0,1-1.478-.01,1.046,1.046,0,0,1,.01-1.479,17.693,17.693,0,0,1,24.987.17A1.046,1.046,0,0,1,149-61.5,1.045,1.045,0,0,1,148.263-61.2Z" transform="translate(-123.708 68.23)"/></g><g transform="translate(121.929 59.263)"><path class="g" d="M142.408-137.3l-21.066-.073a3.747,3.747,0,0,1-3.736-3.761,3.748,3.748,0,0,1,3.273-3.7,6.886,6.886,0,0,1,6.882-6.287,6.891,6.891,0,0,1,6.47,4.591,5.025,5.025,0,0,1,2.9-.9,5.055,5.055,0,0,1,5,4.435,2.562,2.562,0,0,1,.3-.015,2.858,2.858,0,0,1,2.848,2.865A2.859,2.859,0,0,1,142.408-137.3Z" transform="translate(-117.605 151.123)"/></g><g transform="translate(78.694 65.053)"><circle class="h" cx="6.284" cy="6.284" r="6.284"/></g><g transform="translate(80.493 66.853)"><path class="i" d="M86.169-135.575a4.493,4.493,0,0,0,4.485-4.484,4.494,4.494,0,0,0-4.485-4.484,4.493,4.493,0,0,0-4.484,4.484A4.492,4.492,0,0,0,86.169-135.575Z" transform="translate(-81.685 144.543)"/></g><g transform="translate(83.747 68.197)"><path class="j" d="M87.807-139.061a1.046,1.046,0,0,1-1.046-1.038,1.2,1.2,0,0,0-1.2-1.188h-.015a1.046,1.046,0,0,1-1.045-1.038,1.045,1.045,0,0,1,1.039-1.052h.021a3.29,3.29,0,0,1,3.286,3.265,1.045,1.045,0,0,1-1.039,1.052Z" transform="translate(-84.506 143.378)"/></g><g transform="translate(16.407 97.281)"><path class="f" d="M33.447-103.617a1.045,1.045,0,0,1-1.045-1.038,5.149,5.149,0,0,0-1.543-3.656,5.037,5.037,0,0,0-3.676-1.493h-.007a1.046,1.046,0,0,1-1.045-1.039v-.006a1.046,1.046,0,0,1,1.039-1.046,5.19,5.19,0,0,0,5.148-5.219v-.007a1.046,1.046,0,0,1,1.039-1.045h.007a1.045,1.045,0,0,1,1.045,1.038,5.148,5.148,0,0,0,1.541,3.654,5.154,5.154,0,0,0,3.642,1.494c.013,0,.027,0,.042,0a1.045,1.045,0,0,1,1.045,1.039v.006a1.046,1.046,0,0,1-1.038,1.046,5.19,5.19,0,0,0-5.148,5.219v.007a1.045,1.045,0,0,1-1.038,1.045Zm-2.514-7.261a7.38,7.38,0,0,1,1.394,1.079,7.3,7.3,0,0,1,1.1,1.377,7.338,7.338,0,0,1,2.451-2.484,7.3,7.3,0,0,1-1.394-1.081,7.292,7.292,0,0,1-1.1-1.376A7.324,7.324,0,0,1,30.933-110.878Z" transform="translate(-26.13 118.166)"/></g><g transform="translate(55.028 3.063)"><path class="f" d="M64.333-190.446a1.047,1.047,0,0,1-1.045-1.039,2.611,2.611,0,0,0-2.609-2.59.151.151,0,0,1-.023,0,1.045,1.045,0,0,1-1.045-1.038v-.007a1.046,1.046,0,0,1,1.039-1.045,2.589,2.589,0,0,0,1.839-.776,2.583,2.583,0,0,0,.751-1.847v-.007a1.046,1.046,0,0,1,1.038-1.045h.007a1.046,1.046,0,0,1,1.046,1.038,2.611,2.611,0,0,0,2.607,2.589.154.154,0,0,1,.023,0,1.045,1.045,0,0,1,1.045,1.038v.007a1.045,1.045,0,0,1-1.039,1.045,2.585,2.585,0,0,0-1.836.775,2.591,2.591,0,0,0-.751,1.849v.007a1.046,1.046,0,0,1-1.039,1.046Zm-.723-4.693a4.809,4.809,0,0,1,.7.693,4.349,4.349,0,0,1,.33-.37,4.343,4.343,0,0,1,.366-.336,4.68,4.68,0,0,1-.7-.692c-.1.128-.213.251-.33.37A4.754,4.754,0,0,1,63.609-195.139Z" transform="translate(-59.61 199.841)"/></g><g transform="translate(58.668 85.139)"><path class="d" d="M88.729-122.622a93.308,93.308,0,0,1-25.239-4.028,1.046,1.046,0,0,1-.676-1.315,1.047,1.047,0,0,1,1.315-.675c.123.039,12.379,3.928,24.6,3.928s25.345-3.894,25.476-3.934a1.047,1.047,0,0,1,1.3.7,1.046,1.046,0,0,1-.7,1.3C114.673-126.6,101.277-122.622,88.729-122.622Z" transform="translate(-62.765 128.691)"/></g><g transform="translate(64.313 138.97)"><path class="g" d="M68.7-65.137a1.046,1.046,0,0,1-1.045-1.045v-14.8A1.047,1.047,0,0,1,68.7-82.026,1.047,1.047,0,0,1,69.75-80.98v14.8A1.046,1.046,0,0,1,68.7-65.137Z" transform="translate(-67.659 82.026)"/></g><g transform="translate(95.757 129.654)"><path class="g" d="M95.962-82.723a1.046,1.046,0,0,1-1.045-1.045v-5.288A1.047,1.047,0,0,1,95.962-90.1a1.046,1.046,0,0,1,1.045,1.046v5.288A1.045,1.045,0,0,1,95.962-82.723Z" transform="translate(-94.917 90.102)"/></g><g transform="translate(95.757 133.796)"><path class="g" d="M95.962-81.064a1.046,1.046,0,0,1-1.045-1.045v-3.358a1.046,1.046,0,0,1,1.045-1.045,1.045,1.045,0,0,1,1.045,1.045v3.358A1.045,1.045,0,0,1,95.962-81.064Z" transform="translate(-94.917 86.512)"/></g><g transform="translate(0 64.404)"><path class="a" d="M17.482-120.105c-1.059-.132-.881-1.7.1-1.578h.037l.028,0h.168l.027,0,.033,0,.966,0a.792.792,0,0,1,.441,1.443.793.793,0,0,1-.441.135l-.929,0H17.88l-.033,0-.039,0h-.269l-.033,0ZM15.31-122.5a.79.79,0,0,1-.934,1.275l-.006,0-.025-.018-.024-.018-.035-.024-.024-.018-.025-.018-.037-.031-.03-.023-.024-.02-.028-.022-.023-.02-.024-.02-.033-.027-.033-.03-.023-.02-.023-.021-.028-.023L13.9-121.6l-.028-.028-.025-.024-.023-.021-.031-.027-.023-.022-.022-.021-.035-.033-.023-.022-.022-.022-.028-.025-.025-.028-.025-.025-.024-.025-.025-.028a.791.791,0,0,1,1.151-1.083l.013.015.02.02.018.018.018.016.015.018.022.022.023.022.009.009.023.021.022.022.014.015.023.021.02.017.021.015.016.016.02.018.024.02.023.021.015.01.014.014.024.02.024.02.021.016.024.02.017.016.013.007.025.018.024.02.016.012.025.018.024.018.006,0Zm-1.736-2.69a.792.792,0,0,1-1.554.309l0-.024-.006-.04L12-124.98,12-125.011l-.008-.042-.006-.038,0-.032,0-.032-.009-.04,0-.042,0-.039-.007-.042,0-.032,0-.032,0-.038,0-.043,0-.032-.006-.039,0-.042,0-.033,0-.039,0-.043v-.032l0-.039v-.221A.789.789,0,0,1,13.485-126v.127l0,.032v.028l0,.033v.023l0,.027,0,.033,0,.023v.027l0,.033,0,.023,0,.025,0,.033,0,.032v.023l0,.025,0,.023v.023l.006.032,0,.031,0,.027,0,.022.006.031.006.027.006.023,0,.023Zm.551-3.143c-.5.87-1.861.08-1.337-.835l.01-.018.014-.023.023-.037.017-.029.016-.025.027-.038.021-.03.017-.025.021-.032.021-.028.017-.025.021-.032.022-.031.022-.028.021-.029.022-.031.018-.024.018-.024.031-.037.023-.031.016-.017.025-.035.023-.03.016-.017.027-.033.029-.032.021-.024.021-.023.023-.027.023-.029.027-.027.013-.013c.639-.767,1.841.251,1.164,1.065l-.006.006-.015.021-.016.016-.018.021-.02.023-.021.023-.012.015-.013.015-.023.03-.016.017-.014.015-.022.031-.016.017-.007.013-.018.024-.02.025-.015.018-.015.021-.015.022-.015.021-.015.018-.018.025-.015.022-.014.02-.017.025-.015.023-.007.014-.016.027-.017.023-.01.016-.02.03-.012.018Zm2.553-1.932.025-.007.022-.006.025,0,.031-.012.03,0,.013,0,.035-.008.028-.007.025-.007.025,0,.022,0,.032-.008.03-.007.023,0,.023,0,.031,0,.027-.007.024,0,.03,0,.035-.006h.023l.017,0,.032,0,.032,0h.023l.032,0,.027,0,.023,0h.027l.032,0h0a.792.792,0,0,0-.136-1.578h0l-.032,0-.039.006-.042,0-.039,0-.032,0-.042.008-.032,0-.032,0-.048,0-.04.009-.029,0-.036,0-.038.006-.038.006-.032.006-.04.008-.042.009-.031.007-.031,0-.042.008-.037.012-.038.006-.033.008-.029.007-.05.01-.031.012-.031,0-.037.012-.04.012-.025.007a.79.79,0,0,0,.421,1.523Zm2.887-2.536a.79.79,0,0,1-1.492-.52l0-.013.017-.051.016-.052.022-.052.021-.054.018-.054.021-.052.023-.054.018-.051.02-.051.022-.051.02-.047.023-.053.023-.057.021-.047.024-.053.024-.053.021-.047.024-.055.013-.024a.79.79,0,0,1,1.429.675l-.012.024-.018.037-.021.047-.018.04-.017.04-.021.047-.018.038-.016.042-.02.047-.016.044-.018.045-.02.044-.016.043-.015.045-.018.042-.015.043-.014.045-.017.046-.017.045,0,.013Zm1.816-2.995.015-.016.035-.037.032-.033.03-.03.032-.033.035-.032.037-.036.025-.03.033-.031.037-.036.033-.032.031-.029.033-.03.035-.035.035-.028.035-.031.038-.033.033-.033.032-.028.022-.017a.791.791,0,0,0-1.028-1.2l-.027.024-.046.039-.04.033-.037.033-.042.037-.04.04-.04.035-.04.037-.043.042-.04.038-.036.036-.039.037-.045.042-.037.036-.035.039-.039.039-.042.043-.038.04-.035.037-.016.016c-.715.716.4,1.828,1.145,1.089Zm2.882-1.995a.79.79,0,0,1-.6-1.46l.022-.009.051-.023.053-.018.055-.023.051-.021.048-.018.054-.018.054-.021.052-.021.055-.017.048-.017.052-.021.058-.018.05-.016.055-.017.055-.017.05-.016.06-.018.054-.014.012,0a.79.79,0,0,1,.441,1.517l-.012,0-.044.015-.04.012-.05.016-.044.013-.043.016-.048.016-.04.013-.045.014-.05.017-.043.017-.045.015-.042.014-.043.018-.048.018-.045.015-.042.016-.042.02-.044.016-.023.009Zm3.442-.629a.79.79,0,0,1,.062-1.578h.325l.023,0h.044l.027,0h.04l.036,0,.022,0h.022l.022,0,.035,0,.022,0H28.4l.035.006.022,0,.022,0,.035,0,.009,0,.023,0,.035,0,.022,0,.022,0,.031.006.022,0h.013l.035.006.022,0,.018,0,.036,0,0,0a.79.79,0,0,1-.2,1.565l-.023,0-.009,0-.025,0-.022,0h-.009l-.031-.006-.023,0H28.44l-.022,0-.022,0-.009,0h-.023l-.035,0-.009,0-.022,0-.023,0h-.009l-.036,0-.022,0h-.032l-.022,0-.022,0-.01,0h-.047l-.02,0H28.01l-.023,0h-.281Zm3.408.837c-.93-.532-.163-1.906.693-1.418l.016.008.025.013.02.009.018.009.02.01.018.009.028.013.02.01.01.006.028.013.018.01.025.013.028.013,0,0,.025.012.028.014.013.01.025.009.018.01.018.01.022.013.022.014.018.01.016.007.021.014.018.01.025.014.028.017.009,0,.018.009.028.017.017.012.018.01.018.01.025.014.023.014.016.009.015.01.017.01.022.012.021.014.018.012.028.016.015.008.01.009.02.012c.87.5.078,1.862-.841,1.337h0l-.024-.014-.021-.014-.008-.006-.018-.012-.016-.008-.015-.01-.017-.012-.022-.01-.021-.014-.012-.008-.013-.008-.018-.01-.017-.01-.018-.012-.009,0-.018-.009-.028-.017-.009,0-.012-.007-.02-.01-.016-.008-.021-.013-.018-.01-.016-.007-.015-.008-.02-.009-.018-.01-.013-.01-.025-.01-.008-.006-.013-.008-.036-.015-.008-.008-.013-.006-.02-.01-.01-.007-.028-.013-.018-.009-.01-.007-.02-.009-.018-.01-.02-.009-.018-.009-.013-.006-.016-.008ZM34.39-139.4l.015-.027.028-.047.029-.047.03-.051.029-.047.028-.044.032-.046.029-.046.032-.046.032-.05.029-.046.03-.043.03-.046.033-.047.03-.046.031-.042.027-.039a.791.791,0,0,0-1.289-.916l-.032.045-.037.054-.036.052-.033.048-.037.052-.036.055-.036.052-.032.05-.032.052-.035.053-.031.052-.035.057-.035.053-.031.051-.033.054-.033.052-.016.027a.792.792,0,0,0,1.355.818Zm2.3-2.778c-.805.671-1.821-.536-1.046-1.182l.036-.032.051-.044.051-.04.044-.038.045-.038.051-.045.05-.04.045-.038.048-.04.048-.039.05-.037.048-.043.05-.036.05-.039.05-.039.047-.036.036-.025c.764-.637,1.761.583.946,1.262l-.022.02-.047.036-.044.032-.043.033-.044.036-.044.031-.042.037-.043.033-.043.035-.045.037-.043.035-.038.031-.045.038-.045.038-.038.035-.038.033-.036.031Zm3.032-1.939.02-.008.053-.022.054-.023.052-.02.05-.023.052-.02.052-.022.048-.02.055-.022.053-.022.05-.017.057-.022.05-.017.051-.021.057-.02.053-.017.038-.016a.789.789,0,0,0-.513-1.492l-.051.016-.06.023-.057.02-.062.021-.062.024-.055.022-.062.023-.059.023-.057.021-.061.025-.059.023-.058.025-.061.023-.058.027-.055.023-.058.027-.02.008a.789.789,0,0,0,.624,1.449Zm3.484-.916a.79.79,0,0,1-.148-1.572l.038,0,.066-.006.062-.006.07-.009.065,0,.063-.006.072,0,.065,0,.063,0,.065,0,.072,0,.067,0,.062,0,.069,0,.066,0h.054a.789.789,0,0,1,.037,1.578h-.047l-.06,0-.057,0-.063,0-.059,0-.054,0-.059,0-.063,0-.059,0-.052.006-.063,0-.059,0-.052,0-.062.006-.059.006-.039,0Zm3.6.19a.792.792,0,0,1,.335-1.548l.059.013.075.018.074.016.078.016.074.021.078.016.073.018.077.021.074.018.074.018.08.023.073.02.073.023.032.009a.79.79,0,0,1-.446,1.516l-.025-.008-.067-.017-.067-.02-.06-.016-.068-.018-.067-.02-.066-.014-.067-.018-.066-.017-.067-.014-.066-.016-.069-.016-.068-.013-.059-.012Zm3.372,1.277a.788.788,0,0,1,.786-1.367l.02.01.067.039.062.036.068.039.063.037.063.04.067.04.063.04.063.038.062.042.067.043.059.042.066.043.066.044.015.01a.791.791,0,0,1-.892,1.306l-.015-.012-.053-.037-.053-.036-.059-.036-.054-.036-.057-.035-.058-.038-.057-.035-.054-.035-.059-.035-.058-.037-.055-.032-.061-.037-.055-.032-.018-.012ZM53-141.31l.042.045.045.05.044.047.044.05.044.051.043.051.046.054.039.047.043.051.045.053.038.047.045.053.04.055.031.036c.671.807,1.888-.2,1.244-.972l-.036-.047-.047-.055-.045-.059-.051-.061-.045-.058-.048-.058-.052-.06-.046-.054-.05-.057-.048-.057-.051-.057-.051-.059-.051-.057-.042-.045c-.643-.772-1.848.251-1.17,1.065Zm2,3a.79.79,0,0,1,1.436-.656l.018.039.032.072.03.069.032.068.031.074.028.069.031.072.027.067.031.073.027.07.029.07.03.076.025.07.023.058a.792.792,0,0,1-1.486.546l-.017-.052-.025-.065-.022-.058-.024-.065-.027-.063-.024-.06-.027-.067-.025-.061-.028-.062-.025-.06-.027-.062-.029-.062-.027-.059-.018-.04Zm.981,3.466a.794.794,0,0,1,1.535-.351.79.79,0,0,1-.333,1.545l-.027,0-.038-.007-.031-.008-.03-.007-.038-.007-.038-.007-.032,0-.027-.007-.038,0-.039-.007-.032,0-.032-.006-.033,0-.036-.006a.732.732,0,0,1-.671-.7l-.018-.02,0-.069-.007-.072L56-134.657l-.007-.068-.009-.068-.006-.051Zm.829.33.562-.046-.189.91.189-.91-.562.046Zm2.684,1.9c-.82-.683.181-1.908.947-1.269l.025.018.033.027.03.022.039.029.032.027.029.023.033.027.032.027.032.027.031.027.036.027.031.028.029.024.032.028.033.03.031.028.029.025.033.028.035.031.027.025.029.025.032.032.031.029.027.025.033.031.028.029a.79.79,0,0,1-1.107,1.127l-.022-.022L60.1-132.1l-.027-.025-.024-.022-.022-.02L60-132.195l-.028-.025-.022-.018-.021-.022-.028-.025-.025-.021-.022-.02-.025-.021-.029-.024-.025-.021-.023-.021-.025-.021-.025-.02-.027-.021-.027-.021-.029-.023-.028-.02-.021-.017-.029-.022-.027-.02-.027-.018Zm2.048,2.672.013.035.013.036.01.029.009.027.013.036.013.036.009.031.013.03.009.03.01.037.013.036.006.021.01.035.012.037.01.033.007.03.01.031.01.038.007.03.009.037.007.032.009.028.009.038.006.028.008.035,0,.007a.79.79,0,0,0,1.541-.346v-.007l-.008-.042-.013-.046L63.3-129.6l-.009-.047-.013-.043-.009-.038-.014-.043-.01-.037-.01-.044-.014-.044-.01-.039-.012-.037-.01-.039-.017-.053-.012-.036-.012-.037-.015-.043-.013-.042-.015-.043-.013-.036-.013-.036-.016-.046-.016-.043-.014-.035-.013-.035a.789.789,0,0,0-1.479.551Zm.273,3.366a.79.79,0,0,1,1.547.315v.012l-.009.047-.009.042-.012.051-.013.05-.01.042-.009.044-.014.05-.01.046-.01.04-.012.044-.014.046-.015.051-.012.043-.012.04-.015.048-.015.05-.013.039-.013.044-.017.047-.013.039-.016.043-.014.048-.013.032a.792.792,0,0,1-1.492-.532l.012-.032.014-.03.01-.036.014-.039.009-.031.013-.037.014-.039.009-.03.009-.031.012-.04.012-.037.008-.03.008-.035.01-.037.012-.04.01-.035.007-.031.009-.038.01-.042.007-.03.006-.032.008-.042.009-.035,0-.012Zm-1.584,2.972-.009.008-.022.02-.029.029-.025.025-.02.025-.023.022-.028.025-.032.031-.023.021-.028.024-.027.025-.024.02-.03.028-.028.023-.027.024-.029.024-.028.023-.024.02-.027.022-.024.023-.032.025-.031.025-.029.022-.027.02-.008,0c-.816.679.186,1.9.954,1.262l.02-.016.038-.032.035-.028.032-.025.031-.025.038-.029.038-.029.038-.032.033-.03.033-.03.035-.029.033-.03.03-.027.037-.033.033-.031.033-.03.035-.035.027-.025.032-.03.036-.033.039-.032.031-.031.03-.03.035-.038.009-.008a.791.791,0,0,0-1.134-1.1ZM57.3-121.959a.791.791,0,0,1,.352,1.541l-.012,0-.044.009-.051.013-.047.009-.045.01-.044.009-.048.008-.047.007-.048.01-.045.007-.042.007-.052.007-.051.009-.043.006-.045.007-.052.006-.05.008-.042,0-.048.006-.048,0-.044,0-.048,0-.055.007h-.023c-.99.123-1.169-1.447-.112-1.578H56.5l.037,0,.043,0,.036,0,.037,0,.043-.006h.036l.033-.006.039-.007.042-.006.033,0,.033-.008.042-.007.038-.007.036,0,.036-.008.036-.008.038-.008.038,0,.036-.009.032-.006.037-.009.013,0Zm-3.675.163a.792.792,0,0,1,.441,1.443.79.79,0,0,1-.441.135l-.966,0a.792.792,0,0,1-.442-1.443.8.8,0,0,1,.442-.136l.966,0Zm-3.864.014a.792.792,0,0,1,.442,1.443.794.794,0,0,1-.442.135l-.966,0a.792.792,0,0,1-.441-1.443.79.79,0,0,1,.441-.135l.966,0Zm-3.863.013a.793.793,0,0,1,.441,1.444.8.8,0,0,1-.441.134l-.966,0a.792.792,0,0,1-.442-1.443.794.794,0,0,1,.442-.135l.966,0Zm-3.864.014a.792.792,0,0,1,.442,1.443.794.794,0,0,1-.442.135l-.966,0a.792.792,0,0,1-.441-1.443.79.79,0,0,1,.441-.135l.966,0Zm-3.863.014a.792.792,0,0,1,.441,1.443.8.8,0,0,1-.441.135l-.966,0a.792.792,0,0,1-.442-1.443.794.794,0,0,1,.442-.135l.966,0Zm-3.863.013a.792.792,0,0,1,.441,1.443.793.793,0,0,1-.441.135l-.967,0a.792.792,0,0,1-.441-1.443.79.79,0,0,1,.441-.135l.967,0Zm-3.864.013a.793.793,0,0,1,.441,1.444.8.8,0,0,1-.441.135l-.966,0a.792.792,0,0,1-.442-1.443.8.8,0,0,1,.442-.135l.966,0Zm-3.863.014a.792.792,0,0,1,.441,1.443.793.793,0,0,1-.441.135l-.967,0a.792.792,0,0,1-.441-1.443.79.79,0,0,1,.441-.135l.967,0Zm-3.864.014a.792.792,0,0,1,.442,1.443.8.8,0,0,1-.442.135l-.966,0a.792.792,0,0,1-.442-1.443.8.8,0,0,1,.442-.134Z" transform="translate(-11.907 146.666)"/></g><g transform="translate(45.75 173.088)"><path class="g" d="M99.343-42.2a1.028,1.028,0,0,1-.4-.082,1.046,1.046,0,0,1-.58-1.31c-.132-3.371-3.244-6.078-7.049-6.078s-6.917,2.707-7.047,6.079a1.046,1.046,0,0,1-.581,1.309,1.044,1.044,0,0,1-1.366-.55,1.055,1.055,0,0,1-.106-.239c-1.989-4.335-7.937-7.255-14.916-7.287h-.1c-5.694,0-10.959,2.164-13.76,5.661a1.045,1.045,0,0,1-1.47.163,1.045,1.045,0,0,1-.163-1.468c3.188-3.982,9.08-6.445,15.394-6.445H67.3c6.668.031,12.371,2.4,15.4,6.232a9.151,9.151,0,0,1,8.6-5.545,9.15,9.15,0,0,1,8.6,5.545c3.034-3.826,8.738-6.2,15.4-6.232h.113c6.315,0,12.206,2.463,15.394,6.445a1.046,1.046,0,0,1-.163,1.468,1.043,1.043,0,0,1-1.47-.163c-2.8-3.5-8.066-5.661-13.76-5.661h-.1c-6.978.032-12.925,2.95-14.914,7.284a1.062,1.062,0,0,1-.108.246A1.047,1.047,0,0,1,99.343-42.2Z" transform="translate(-51.566 52.45)"/></g><g transform="translate(80.739 159.241)"><path class="g" d="M82.944-56.632A1.046,1.046,0,0,1,81.9-57.677v-5.732a1.046,1.046,0,0,1,1.046-1.045,1.046,1.046,0,0,1,1.045,1.045v5.732A1.046,1.046,0,0,1,82.944-56.632Z" transform="translate(-81.898 64.454)"/></g><g transform="translate(137.282 93.082)"><path class="b" d="M131.791-113.994h2.292a.879.879,0,0,1,.877.877h0a.881.881,0,0,1-.877.878h-2.292a.881.881,0,0,1-.877-.878h0a.879.879,0,0,1,.877-.877Zm8.689,6.4v2.292a.881.881,0,0,1-.877.877h0a.88.88,0,0,1-.878-.877V-107.6a.881.881,0,0,1,.878-.878h0a.882.882,0,0,1,.877.878Zm0-7.551v1.155h1.155a.879.879,0,0,1,.877.877h0a.88.88,0,0,1-.877.878h-1.155v1.154a.88.88,0,0,1-.877.878h0a.881.881,0,0,1-.878-.878v-1.154h-1.154a.88.88,0,0,1-.878-.878h0a.88.88,0,0,1,.878-.877h1.154v-1.155a.88.88,0,0,1,.878-.877h0a.879.879,0,0,1,.877.877Zm0-5.779v2.292a.881.881,0,0,1-.877.877h0a.88.88,0,0,1-.878-.877v-2.292a.88.88,0,0,1,.878-.878h0a.882.882,0,0,1,.877.878Zm4.642,6.934h2.292a.88.88,0,0,1,.878.877h0a.882.882,0,0,1-.878.878h-2.292a.881.881,0,0,1-.877-.878h0A.879.879,0,0,1,145.121-113.994Z" transform="translate(-130.914 121.806)"/></g><g transform="translate(152.921 51.512)"><path class="b" d="M149.1-156.946V-155h1.947a.9.9,0,0,1,.9.9h0a.9.9,0,0,1-.9.9H149.1v1.947a.9.9,0,0,1-.9.9h0a.9.9,0,0,1-.9-.9v-1.947h-1.946a.9.9,0,0,1-.9-.9h0a.9.9,0,0,1,.9-.9h1.946v-1.946a.9.9,0,0,1,.9-.9h0A.9.9,0,0,1,149.1-156.946Z" transform="translate(-144.471 157.842)"/></g><g transform="translate(117.866 15.55)"><path class="i" d="M118.716-188.121v1.946h1.947a.9.9,0,0,1,.9.9h0a.9.9,0,0,1-.9.9h-1.947v1.946a.9.9,0,0,1-.9.9h0a.9.9,0,0,1-.9-.9v-1.946h-1.946a.9.9,0,0,1-.9-.9h0a.9.9,0,0,1,.9-.9h1.946v-1.946a.9.9,0,0,1,.9-.9h0A.9.9,0,0,1,118.716-188.121Z" transform="translate(-114.083 189.017)"/></g><g transform="translate(9.028 117.443)"><path class="a" d="M30.521-79.244a1.044,1.044,0,0,1-1.045-1.038,8.642,8.642,0,0,0-8.633-8.572.233.233,0,0,1-.063,0,1.046,1.046,0,0,1-1.046-1.038V-89.9a1.045,1.045,0,0,1,1.039-1.045,8.646,8.646,0,0,0,8.574-8.691v-.006a1.046,1.046,0,0,1,1.038-1.046h.007a1.046,1.046,0,0,1,1.045,1.039A8.568,8.568,0,0,0,34-93.565a8.573,8.573,0,0,0,6.062,2.488c.022,0,.042,0,.065,0a1.048,1.048,0,0,1,1.046,1.039v.007a1.045,1.045,0,0,1-1.039,1.045,8.578,8.578,0,0,0-6.085,2.567A8.581,8.581,0,0,0,31.566-80.3v.007a1.045,1.045,0,0,1-1.038,1.045ZM25.395-89.93a10.786,10.786,0,0,1,5.092,5.017,10.717,10.717,0,0,1,2.078-2.973A10.717,10.717,0,0,1,35.5-90a10.733,10.733,0,0,1-2.965-2.076,10.74,10.74,0,0,1-2.117-2.943A10.8,10.8,0,0,1,25.395-89.93Z" transform="translate(-19.733 100.688)"/></g><g transform="translate(70.2 111.2)"><g transform="translate(0 0)"><path class="d" d="M75.953-94.335a1.045,1.045,0,0,1-1.02-.818l-2.146-9.674a1.044,1.044,0,0,1,.794-1.247,1.046,1.046,0,0,1,1.247.794l2.146,9.674a1.044,1.044,0,0,1-.794,1.247A1.022,1.022,0,0,1,75.953-94.335Z" transform="translate(-72.762 106.099)"/><g transform="translate(4.773 0.402)"><path class="d" d="M79.2-93.954a1.046,1.046,0,0,1-1.036-.911l-1.255-9.707a1.045,1.045,0,0,1,.9-1.17,1.047,1.047,0,0,1,1.171.9l1.255,9.707a1.046,1.046,0,0,1-.9,1.171A1.06,1.06,0,0,1,79.2-93.954Z" transform="translate(-76.899 105.75)"/></g></g><g transform="translate(25.318)"><path class="d" d="M95.756-94.335a1.023,1.023,0,0,1-.227-.024,1.046,1.046,0,0,1-.795-1.247l2.147-9.674a1.042,1.042,0,0,1,1.247-.794,1.045,1.045,0,0,1,.794,1.247l-2.146,9.674A1.045,1.045,0,0,1,95.756-94.335Z" transform="translate(-94.709 106.099)"/></g><g transform="translate(21.436 0.402)"><path class="d" d="M92.391-93.954a1.059,1.059,0,0,1-.135-.008,1.046,1.046,0,0,1-.9-1.171l1.255-9.707a1.042,1.042,0,0,1,1.171-.9,1.045,1.045,0,0,1,.9,1.17l-1.255,9.707A1.046,1.046,0,0,1,92.391-93.954Z" transform="translate(-91.344 105.751)"/></g></g><g transform="translate(88.985 165.861)"><path class="k" d="M94.593-57.188l-1.376,1.376,1.377,1.377a.9.9,0,0,1,0,1.267h0a.9.9,0,0,1-1.268,0l-1.376-1.377-1.376,1.377a.9.9,0,0,1-1.267,0h0a.9.9,0,0,1,0-1.267l1.376-1.377-1.376-1.376a.9.9,0,0,1,0-1.267h0a.9.9,0,0,1,1.267,0l1.376,1.376,1.376-1.376a.9.9,0,0,1,1.267,0h0A.9.9,0,0,1,94.593-57.188Z" transform="translate(-89.047 58.715)"/></g><g transform="translate(73.572 143.284)"><path class="k" d="M81.232-76.759l-1.376,1.377,1.377,1.376a.9.9,0,0,1,0,1.267h0a.9.9,0,0,1-1.268,0L78.59-74.115l-1.376,1.376a.9.9,0,0,1-1.267,0h0a.9.9,0,0,1,0-1.267l1.376-1.376-1.376-1.377a.9.9,0,0,1,0-1.267h0a.9.9,0,0,1,1.267,0l1.376,1.377,1.376-1.377a.9.9,0,0,1,1.267,0h0A.9.9,0,0,1,81.232-76.759Z" transform="translate(-75.686 78.286)"/></g><g transform="translate(105.748 150.465)"><path class="g" d="M104.623-66.615a1.046,1.046,0,0,1-1.045-1.045v-3.356a1.047,1.047,0,0,1,1.045-1.046,1.046,1.046,0,0,1,1.045,1.046v3.356A1.045,1.045,0,0,1,104.623-66.615Z" transform="translate(-103.578 72.062)"/></g><g transform="translate(31.221 12.767)"><path class="g" d="M43.189-182.993a4.223,4.223,0,0,1-4.217-4.219,4.223,4.223,0,0,1,4.217-4.217,4.224,4.224,0,0,1,4.219,4.217A4.224,4.224,0,0,1,43.189-182.993Zm0-6.345a2.128,2.128,0,0,0-2.126,2.126,2.128,2.128,0,0,0,2.126,2.127,2.129,2.129,0,0,0,2.127-2.127A2.129,2.129,0,0,0,43.189-189.338Z" transform="translate(-38.972 191.429)"/></g></svg>