<svg xmlns="http://www.w3.org/2000/svg" width="176.617" height="177.888" viewBox="0 0 176.617 177.888"><defs><style>.a{fill:#522a75;}.b,.j{fill:#9a94c8;}.c{fill:#e0deef;}.d,.k{fill:#c6c3e1;}.e,.g{fill:#fff;}.e,.h,.j,.k{fill-rule:evenodd;}.f,.h{fill:#eb008b;}.i{fill:#eb80ab;}</style></defs><g transform="translate(27.815 61.701)"><path class="a" d="M50.675-552.853H34.58a1.568,1.568,0,0,1-1.568-1.568v-49a1.568,1.568,0,0,1,1.55-1.568c6.339-.07,10.822,1.327,13.729,4.272,2.8,2.831,4.088,6.953,3.951,12.6v33.691A1.568,1.568,0,0,1,50.675-552.853ZM36.149-555.99H49.107v-32.16c.115-4.79-.881-8.166-3.048-10.36-2.054-2.081-5.305-3.173-9.91-3.322Z" transform="translate(-33.012 604.986)"/></g><g transform="translate(134.042 61.701)"><path class="a" d="M142.77-552.853H126.676a1.568,1.568,0,0,1-1.568-1.568V-588.15c-.136-5.61,1.157-9.732,3.952-12.562,2.908-2.946,7.4-4.335,13.727-4.272a1.568,1.568,0,0,1,1.552,1.568v49A1.569,1.569,0,0,1,142.77-552.853Zm-14.526-3.137H141.2v-45.843c-4.605.149-7.856,1.241-9.91,3.322-2.166,2.194-3.164,5.57-3.049,10.323Z" transform="translate(-125.099 604.986)"/></g><g transform="translate(53.613 44.633)"><path class="a" d="M91.381-565.157c-5.261,0-10.477-1.616-21.209-4.942-1.552-.481-3.221-1-5.027-1.553l-.264-.106a6.863,6.863,0,0,1-3.124-3.669l-.113-.359a5.257,5.257,0,0,1-.119-.539L55.376-611.96l.535-1.861,1.27-1.229,1.636-.482a133.436,133.436,0,0,1,66.826,0l1.723.534,1.137,1.106.568,1.685.013.345-.055.616-6.1,34.943c-.023.138-.055.29-.1.442l-.129.419a6.879,6.879,0,0,1-3.127,3.683l-.264.106c-1.805.555-3.475,1.072-5.024,1.552-11.313,3.506-16.506,5.1-22.062,4.928C91.946-565.163,91.664-565.157,91.381-565.157ZM66.324-574.91c1.745.536,3.365,1.038,4.871,1.505,10.966,3.4,15.984,4.958,20.973,4.771h.122c5,.181,10.008-1.375,20.975-4.772,1.507-.467,3.124-.968,4.869-1.5a3.561,3.561,0,0,0,1.3-1.669l1.673.456-1.637-.566a1.773,1.773,0,0,0,.046-.2l6.1-34.954,1.73-.158-1.73.033.909-1.515-.993,1.417.146-1.729-.263,1.712-.459-.054a130.035,130.035,0,0,0-65.465,0l-.412.054-.3-1.713.186,1.722-1.235-1.255,1.127,1.314-1.74-.1,1.718.216,6.1,34.995a1.393,1.393,0,0,0,.033.156l-1.6.678,1.642-.548A3.581,3.581,0,0,0,66.324-574.91Z" transform="translate(-55.376 619.782)"/></g><g transform="translate(62.903 106.839)"><g transform="translate(34.985)"><path class="b" d="M94.663-564.95c10.5,4.19,18.052,15.777,18.052,29.414,0,10.739-4.681,20.207-11.8,25.791v-10.146a25.533,25.533,0,0,0,5.168-15.646c0-9.293-4.666-17.322-11.42-21.087Z" transform="translate(-93.618 565.995)"/><path class="a" d="M101.054-508.561a1.051,1.051,0,0,1-.458-.1,1.045,1.045,0,0,1-.587-.94v-10.146a1.046,1.046,0,0,1,.219-.64,24.539,24.539,0,0,0,4.949-15.006c0-8.569-4.273-16.488-10.884-20.175a1.046,1.046,0,0,1-.536-.914v-8.325a1.045,1.045,0,0,1,.459-.865,1.045,1.045,0,0,1,.974-.106c11.192,4.465,18.711,16.676,18.711,30.385,0,10.672-4.561,20.62-12.2,26.614A1.042,1.042,0,0,1,101.054-508.561ZM102.1-519.4v7.525c6.115-5.684,9.71-14.309,9.71-23.523,0-12.261-6.354-23.222-15.961-27.815v6.124c6.956,4.17,11.419,12.607,11.419,21.69A26.691,26.691,0,0,1,102.1-519.4Z" transform="translate(-93.757 565.856)"/></g><g transform="translate(0 0.001)"><path class="b" d="M82.388-556.625c-6.755,3.766-11.42,11.794-11.42,21.088a25.526,25.526,0,0,0,5.168,15.646v10.146c-7.119-5.584-11.8-15.053-11.8-25.791,0-13.636,7.551-25.224,18.053-29.414Z" transform="translate(-63.29 565.995)"/><path class="a" d="M76.275-508.561a1.045,1.045,0,0,1-.646-.223c-7.639-5.994-12.2-15.942-12.2-26.614,0-13.71,7.52-25.921,18.711-30.385a1.051,1.051,0,0,1,.974.106,1.046,1.046,0,0,1,.459.865v8.325a1.044,1.044,0,0,1-.536.912c-6.611,3.687-10.884,11.606-10.884,20.176A24.54,24.54,0,0,0,77.1-520.392a1.046,1.046,0,0,1,.219.64v10.146a1.046,1.046,0,0,1-.588.94A1.046,1.046,0,0,1,76.275-508.561Zm5.206-54.651C71.873-558.621,65.52-547.66,65.52-535.4c0,9.215,3.593,17.84,9.71,23.523V-519.4a26.684,26.684,0,0,1-5.168-16c0-9.084,4.463-17.523,11.419-21.692Zm1.046,6.726h0Z" transform="translate(-63.429 565.856)"/></g></g><g transform="translate(121.161 51.758)"><path class="b" d="M1.677,0h9.755a1.678,1.678,0,0,1,1.678,1.678v9.755a1.678,1.678,0,0,1-1.678,1.678H1.678A1.678,1.678,0,0,1,0,11.433V1.677A1.677,1.677,0,0,1,1.677,0Z" transform="translate(1.475 1.476)"/><path class="a" d="M126.582-597.543h-9.239a3.414,3.414,0,0,1-3.411-3.411v-9.24a3.415,3.415,0,0,1,3.411-3.411h9.239a3.415,3.415,0,0,1,3.411,3.411v9.24A3.414,3.414,0,0,1,126.582-597.543Zm-9.239-13.111a.467.467,0,0,0-.461.46v9.24a.467.467,0,0,0,.461.46h9.239a.466.466,0,0,0,.46-.46v-9.24a.466.466,0,0,0-.46-.46Z" transform="translate(-113.932 613.605)"/></g><g transform="translate(44.301 51.758)"><rect class="b" width="13.111" height="13.111" rx="1.678" transform="translate(1.475 1.476)"/><path class="a" d="M59.954-597.543H50.715a3.414,3.414,0,0,1-3.411-3.411v-9.24a3.415,3.415,0,0,1,3.411-3.411h9.239a3.415,3.415,0,0,1,3.411,3.411v9.24A3.414,3.414,0,0,1,59.954-597.543Zm-9.239-13.111a.467.467,0,0,0-.461.46v9.24a.467.467,0,0,0,.461.46h9.239a.466.466,0,0,0,.46-.46v-9.24a.466.466,0,0,0-.46-.46Z" transform="translate(-47.304 613.605)"/></g><g transform="translate(29.155 141.222)"><path class="c" d="M55.224-513.956H35.219A1.046,1.046,0,0,1,34.174-515v-20.005a1.045,1.045,0,0,1,1.045-1.045H55.224a1.044,1.044,0,0,1,1.045,1.045V-515A1.045,1.045,0,0,1,55.224-513.956Zm-18.959-2.091H54.179v-17.914H36.265Z" transform="translate(-34.174 536.051)"/><g transform="translate(0.134 0.305)"><path class="c" d="M61.73-507.85H41.725a1.042,1.042,0,0,1-.714-.284l-6.39-5.987a1.044,1.044,0,0,1-.048-1.477,1.044,1.044,0,0,1,1.478-.049l6.089,5.7H60.685v-18.5l-5.922-5.531a1.045,1.045,0,0,1-.05-1.478,1.044,1.044,0,0,1,1.477-.05l6.255,5.84a1.046,1.046,0,0,1,.331.764v20A1.045,1.045,0,0,1,61.73-507.85Z" transform="translate(-34.29 535.786)"/></g><g transform="translate(20.274 19.947)"><path class="c" d="M59.049-510.828a1.04,1.04,0,0,1-.714-.283l-6.253-5.84a1.045,1.045,0,0,1-.05-1.478,1.046,1.046,0,0,1,1.477-.05l6.255,5.84a1.046,1.046,0,0,1,.05,1.478A1.042,1.042,0,0,1,59.049-510.828Z" transform="translate(-51.749 518.76)"/></g></g><g transform="translate(116.232 2.664)"><g transform="translate(0)"><path class="c" d="M131.586-633.192H110.7a1.044,1.044,0,0,1-1.045-1.045v-20.882a1.045,1.045,0,0,1,1.045-1.045h20.882a1.046,1.046,0,0,1,1.045,1.045v20.882A1.045,1.045,0,0,1,131.586-633.192Zm-19.837-2.09h18.792v-18.792H111.749Z" transform="translate(-109.659 656.164)"/></g><g transform="translate(0.139 0.319)"><path class="c" d="M138.376-626.818H117.5a1.049,1.049,0,0,1-.715-.283l-6.67-6.25a1.046,1.046,0,0,1-.048-1.478,1.043,1.043,0,0,1,1.478-.047l6.369,5.966h19.423v-19.382l-6.2-5.786a1.046,1.046,0,0,1-.051-1.478,1.046,1.046,0,0,1,1.478-.051l6.528,6.1a1.05,1.05,0,0,1,.331.765v20.882A1.045,1.045,0,0,1,138.376-626.818Z" transform="translate(-109.779 655.888)"/></g><g transform="translate(21.163 20.821)"><path class="c" d="M135.577-629.927a1.042,1.042,0,0,1-.713-.281l-6.528-6.1a1.045,1.045,0,0,1-.051-1.477,1.046,1.046,0,0,1,1.478-.051l6.528,6.1a1.045,1.045,0,0,1,.05,1.478A1.042,1.042,0,0,1,135.577-629.927Z" transform="translate(-128.004 638.115)"/></g></g><g transform="translate(128.646 140.879)"><path class="c" d="M137.18-518.545H121.467a1.045,1.045,0,0,1-1.046-1.045V-535.3a1.045,1.045,0,0,1,1.046-1.045H137.18a1.044,1.044,0,0,1,1.045,1.045v15.713A1.044,1.044,0,0,1,137.18-518.545Zm-14.668-2.09h13.622v-13.622H122.512Z" transform="translate(-120.421 536.348)"/><g transform="translate(0.105 0.24)"><path class="c" d="M142.289-513.749H126.576a1.049,1.049,0,0,1-.715-.283l-5.018-4.7a1.045,1.045,0,0,1-.048-1.478,1.045,1.045,0,0,1,1.478-.047l4.717,4.421h14.255v-14.214l-4.58-4.277a1.045,1.045,0,0,1-.051-1.478,1.047,1.047,0,0,1,1.478-.051L143-531.272a1.047,1.047,0,0,1,.332.765v15.713A1.045,1.045,0,0,1,142.289-513.749Z" transform="translate(-120.512 536.14)"/></g><g transform="translate(15.925 15.667)"><path class="c" d="M140.183-516.089a1.044,1.044,0,0,1-.713-.281l-4.912-4.588a1.045,1.045,0,0,1-.051-1.478,1.047,1.047,0,0,1,1.478-.05L140.9-517.9a1.046,1.046,0,0,1,.051,1.478A1.043,1.043,0,0,1,140.183-516.089Z" transform="translate(-134.226 522.767)"/></g></g><g transform="translate(130.013 44.039)"><path class="d" d="M122.885-613.69V-595.8a3.759,3.759,0,0,0,3.748,3.748h17.894a3.759,3.759,0,0,0,3.748-3.748C148.275-628.834,122.885-618.34,122.885-613.69Z" transform="translate(-121.41 620.493)"/><path class="a" d="M144.723-590.376H126.829a5.229,5.229,0,0,1-5.223-5.223v-17.894c0-3.306,6.256-6.8,12.17-6.8a13.772,13.772,0,0,1,11.1,5.319c3.363,4.221,5.068,10.741,5.068,19.379A5.23,5.23,0,0,1,144.723-590.376Zm-20.168-23.107V-595.6a2.276,2.276,0,0,0,2.274,2.273h17.894A2.275,2.275,0,0,0,147-595.6c0-13.466-4.389-21.179-12.359-21.718C129.22-617.7,124.713-614.538,124.556-613.483Z" transform="translate(-121.606 620.297)"/></g><g transform="translate(22.745 44.039)"><path class="d" d="M55.285-613.69V-595.8a3.759,3.759,0,0,1-3.748,3.748H33.643A3.759,3.759,0,0,1,29.9-595.8C29.9-628.834,55.285-618.34,55.285-613.69Z" transform="translate(-28.421 620.493)"/><path class="a" d="M51.733-590.376H33.839a5.229,5.229,0,0,1-5.222-5.223c0-8.638,1.7-15.158,5.066-19.379a13.772,13.772,0,0,1,11.1-5.319c5.914,0,12.17,3.5,12.17,6.8V-595.6A5.229,5.229,0,0,1,51.733-590.376Zm-6.927-26.971c-.291,0-.584.009-.88.03-7.97.539-12.359,8.253-12.359,21.718a2.275,2.275,0,0,0,2.273,2.273H51.733a2.274,2.274,0,0,0,2.273-2.273v-17.884C53.858-614.481,49.831-617.347,44.806-617.347Z" transform="translate(-28.617 620.297)"/></g><g transform="translate(24.614 111.371)"><rect class="b" width="22.636" height="6.597" rx="1.57" transform="translate(1.475 1.475)"/><path class="a" d="M52.537-552.381H33.522a3.29,3.29,0,0,1-3.285-3.286v-2.975a3.289,3.289,0,0,1,3.285-3.285H52.537a3.289,3.289,0,0,1,3.286,3.285v2.975A3.29,3.29,0,0,1,52.537-552.381Zm-19.014-6.6a.341.341,0,0,0-.336.336v2.975a.341.341,0,0,0,.336.336H52.537a.341.341,0,0,0,.337-.336v-2.975a.342.342,0,0,0-.337-.336Z" transform="translate(-30.237 561.928)"/></g><g transform="translate(27.652 61.538)"><path class="e" d="M34.372-603.625c9.494-.106,16.389,3.058,16.095,15.266v33.729H34.372Z" transform="translate(-32.64 605.357)"/><path class="a" d="M50.7-552.669H34.6a1.731,1.731,0,0,1-1.73-1.73v-49a1.732,1.732,0,0,1,1.711-1.73c6.4-.068,10.906,1.342,13.846,4.319,2.827,2.865,4.136,7.025,4,12.719V-554.4A1.731,1.731,0,0,1,50.7-552.669Zm-14.365-3.461H48.967v-32c.113-4.747-.869-8.085-3-10.246-2-2.025-5.161-3.1-9.633-3.269Z" transform="translate(-32.871 605.127)"/></g><g transform="translate(130.898 111.371)"><rect class="b" width="22.636" height="6.597" rx="1.57" transform="translate(1.475 1.475)"/><path class="a" d="M144.674-552.381H125.66a3.29,3.29,0,0,1-3.286-3.286v-2.975a3.289,3.289,0,0,1,3.286-3.285h19.014a3.289,3.289,0,0,1,3.286,3.285v2.975A3.29,3.29,0,0,1,144.674-552.381Zm-19.014-6.6a.341.341,0,0,0-.336.336v2.975a.34.34,0,0,0,.336.336h19.014a.34.34,0,0,0,.336-.336v-2.975a.341.341,0,0,0-.336-.336Z" transform="translate(-122.373 561.928)"/></g><g transform="translate(133.88 61.538)"><path class="e" d="M142.562-603.625c-9.495-.106-16.389,3.058-16.094,15.266v33.729h16.094Z" transform="translate(-124.727 605.357)"/><path class="a" d="M142.792-552.669H126.7a1.731,1.731,0,0,1-1.73-1.73v-33.729c-.136-5.652,1.171-9.812,4-12.678,2.939-2.977,7.44-4.387,13.845-4.319a1.731,1.731,0,0,1,1.711,1.73v49A1.73,1.73,0,0,1,142.792-552.669Zm-14.364-3.461h12.634v-45.514c-4.472.168-7.633,1.245-9.632,3.269-2.133,2.161-3.115,5.5-3,10.2Z" transform="translate(-124.958 605.127)"/></g><g transform="translate(74.45 91.22)"><path class="d" d="M103.8-563.361v-11.27a3.5,3.5,0,0,0-3.486-3.486H78.2a3.511,3.511,0,0,0-3.486,3.486v11.27C74.718-550.067,103.8-550.057,103.8-563.361Z" transform="translate(-73.243 579.592)"/><path class="a" d="M89.461-551.715a20.972,20.972,0,0,1-10.769-2.71c-3.436-2.095-5.253-5.117-5.253-8.739v-11.27A4.968,4.968,0,0,1,78.4-579.4h22.111a4.967,4.967,0,0,1,4.96,4.961v11.27C105.472-555.3,97.172-551.715,89.461-551.715ZM78.4-576.445a2.037,2.037,0,0,0-2.011,2.011v11.27c0,5.839,6.775,8.5,13.071,8.5s13.062-2.659,13.062-8.5v-11.27a2.038,2.038,0,0,0-2.011-2.011Z" transform="translate(-73.439 579.396)"/></g><g transform="translate(68.816 108.756)"><g transform="translate(30.928)"><path class="e" d="M101.413-563.288a5.141,5.141,0,0,1,5.141,5.14,5.142,5.142,0,0,1-5.141,5.141,5.142,5.142,0,0,1-5.141-5.141A5.141,5.141,0,0,1,101.413-563.288Z" transform="translate(-95.227 564.334)"/><path class="a" d="M101.553-551.821a6.194,6.194,0,0,1-6.187-6.188,6.194,6.194,0,0,1,6.187-6.187,6.194,6.194,0,0,1,6.187,6.187A6.194,6.194,0,0,1,101.553-551.821Zm0-10.283a4.1,4.1,0,0,0-4.1,4.1,4.1,4.1,0,0,0,4.1,4.1,4.1,4.1,0,0,0,4.1-4.1A4.1,4.1,0,0,0,101.553-562.1Z" transform="translate(-95.366 564.195)"/></g><g transform="translate(36.045 1.756)"><path class="a" d="M103.425-553.642c-2.031,0-3.623-1.984-3.623-4.516s1.592-4.515,3.623-4.515,3.623,1.983,3.623,4.515S105.457-553.642,103.425-553.642Zm0-6.94c-.817,0-1.533,1.132-1.533,2.424s.716,2.425,1.533,2.425,1.533-1.133,1.533-2.425S104.242-560.582,103.425-560.582Z" transform="translate(-99.802 562.673)"/></g><g transform="translate(0)"><path class="e" d="M74.6-563.288a5.141,5.141,0,0,0-5.141,5.14,5.142,5.142,0,0,0,5.141,5.141,5.142,5.142,0,0,0,5.141-5.141A5.141,5.141,0,0,0,74.6-563.288Z" transform="translate(-68.416 564.334)"/><path class="a" d="M74.742-551.821a6.194,6.194,0,0,1-6.187-6.188,6.194,6.194,0,0,1,6.187-6.187,6.194,6.194,0,0,1,6.187,6.187A6.194,6.194,0,0,1,74.742-551.821Zm0-10.283a4.1,4.1,0,0,0-4.1,4.1,4.1,4.1,0,0,0,4.1,4.1,4.1,4.1,0,0,0,4.1-4.1A4.1,4.1,0,0,0,74.742-562.1Z" transform="translate(-68.555 564.195)"/></g><g transform="translate(0.009 1.756)"><path class="a" d="M72.186-553.642c-2.031,0-3.623-1.984-3.623-4.516s1.592-4.515,3.623-4.515,3.624,1.983,3.624,4.515S74.219-553.642,72.186-553.642Zm0-6.94c-.817,0-1.533,1.132-1.533,2.424s.716,2.425,1.533,2.425,1.533-1.133,1.533-2.425S73-560.582,72.186-560.582Z" transform="translate(-68.563 562.673)"/></g></g><g transform="translate(57.025)"><path class="f" d="M63.121-648.954a1.045,1.045,0,0,1-1.045-1.038,2.675,2.675,0,0,0-2.673-2.653.161.161,0,0,0-.023,0,1.046,1.046,0,0,1-1.046-1.038v-.007a1.045,1.045,0,0,1,1.039-1.045,2.657,2.657,0,0,0,1.884-.795,2.647,2.647,0,0,0,.768-1.89v-.007a1.046,1.046,0,0,1,1.038-1.046,1.059,1.059,0,0,1,1.053,1.038,2.671,2.671,0,0,0,2.669,2.65h.024a1.045,1.045,0,0,1,1.045,1.038v.007a1.045,1.045,0,0,1-1.038,1.045,2.674,2.674,0,0,0-2.651,2.689V-650a1.045,1.045,0,0,1-1.038,1.045Zm-.763-4.756a4.787,4.787,0,0,1,.39.346,4.674,4.674,0,0,1,.354.389,4.82,4.82,0,0,1,.735-.744,4.877,4.877,0,0,1-.745-.735,4.638,4.638,0,0,1-.347.392A5.047,5.047,0,0,1,62.359-653.71Z" transform="translate(-58.334 658.473)"/></g><g transform="translate(42.887 18.056)"><path class="d" d="M61.144-626.71H47.124a1.045,1.045,0,0,1-1.046-1.045v-14.02a1.046,1.046,0,0,1,1.046-1.045H61.144a1.045,1.045,0,0,1,1.045,1.045v14.02A1.044,1.044,0,0,1,61.144-626.71ZM48.169-628.8H60.1V-640.73H48.169Z" transform="translate(-46.078 642.821)"/><g transform="translate(0.093 0.214)"><path class="d" d="M65.7-622.432H51.683a1.044,1.044,0,0,1-.715-.283l-4.478-4.2a1.044,1.044,0,0,1-.048-1.477,1.044,1.044,0,0,1,1.478-.048l4.177,3.914H64.658v-12.521l-4.051-3.784a1.046,1.046,0,0,1-.05-1.478,1.046,1.046,0,0,1,1.478-.05l4.382,4.093a1.042,1.042,0,0,1,.332.764v14.02A1.045,1.045,0,0,1,65.7-622.432Z" transform="translate(-46.159 642.635)"/></g><g transform="translate(14.209 13.979)"><path class="d" d="M63.824-624.518a1.039,1.039,0,0,1-.713-.283l-4.384-4.093a1.046,1.046,0,0,1-.05-1.478,1.046,1.046,0,0,1,1.478-.051l4.382,4.094a1.046,1.046,0,0,1,.051,1.478A1.044,1.044,0,0,1,63.824-624.518Z" transform="translate(-58.396 630.703)"/></g></g><g transform="translate(159.084 90.784)"><path class="d" d="M159.5-566.039H147.852a1.046,1.046,0,0,1-1.045-1.045v-11.645a1.046,1.046,0,0,1,1.045-1.045H159.5a1.046,1.046,0,0,1,1.045,1.045v11.645A1.046,1.046,0,0,1,159.5-566.039Zm-10.6-2.09h9.555v-9.555H148.9Z" transform="translate(-146.807 579.774)"/></g><g transform="translate(159.162 90.962)"><path class="d" d="M163.283-562.485H151.639a1.044,1.044,0,0,1-.715-.283l-3.719-3.485a1.045,1.045,0,0,1-.048-1.478,1.045,1.045,0,0,1,1.478-.047l3.418,3.2h10.186v-10.146l-3.308-3.09a1.045,1.045,0,0,1-.05-1.478,1.045,1.045,0,0,1,1.477-.05l3.641,3.4a1.042,1.042,0,0,1,.332.764v11.644A1.046,1.046,0,0,1,163.283-562.485Z" transform="translate(-146.874 579.62)"/></g><g transform="translate(170.886 102.396)"><path class="d" d="M161.723-564.218a1.044,1.044,0,0,1-.713-.281l-3.641-3.4a1.045,1.045,0,0,1-.05-1.478,1.044,1.044,0,0,1,1.477-.05l3.641,3.4a1.046,1.046,0,0,1,.051,1.478A1.048,1.048,0,0,1,161.723-564.218Z" transform="translate(-157.038 569.709)"/></g><g transform="translate(20.944 25.404)"><path class="c" d="M36.273-626.188H28.1a1.046,1.046,0,0,1-1.045-1.046v-8.172a1.046,1.046,0,0,1,1.045-1.045h8.172a1.046,1.046,0,0,1,1.046,1.045v8.172A1.046,1.046,0,0,1,36.273-626.188Zm-7.126-2.091h6.08v-6.08h-6.08Z" transform="translate(-27.056 636.451)"/></g><g transform="translate(20.998 25.529)"><path class="c" d="M38.93-623.694H30.759a1.044,1.044,0,0,1-.715-.283l-2.609-2.445a1.045,1.045,0,0,1-.048-1.478,1.044,1.044,0,0,1,1.478-.048l2.308,2.163h6.714v-6.672l-2.223-2.076a1.045,1.045,0,0,1-.051-1.477,1.046,1.046,0,0,1,1.478-.051l2.554,2.387a1.043,1.043,0,0,1,.332.764v8.172A1.046,1.046,0,0,1,38.93-623.694Z" transform="translate(-27.103 636.343)"/></g><g transform="translate(29.226 33.552)"><path class="c" d="M37.835-624.911a1.044,1.044,0,0,1-.714-.281l-2.554-2.386a1.046,1.046,0,0,1-.051-1.478,1.046,1.046,0,0,1,1.478-.051l2.554,2.387a1.044,1.044,0,0,1,.051,1.477A1.042,1.042,0,0,1,37.835-624.911Z" transform="translate(-34.235 629.388)"/></g><g transform="translate(53.926 49.149)"><path class="g" d="M65.414-574.1a5.118,5.118,0,0,1-2.263-2.7l-.04-.12-.02-.061-.017-.059-.016-.06c-.025-.1-.047-.2-.062-.3l-5.95-34.095c-.5-2.857.573-3.274,3.147-2.936l31.634,4.153,31.737-4.125c1.152-.15,2.266-.512,3.107.459h0l.032.039.061.08.157.263a3.864,3.864,0,0,1-.038,2.391L120.989-577.4c-.016.1-.037.2-.063.3h0l-.016.06-.036.12-.02.06-.021.06a5.124,5.124,0,0,1-2.264,2.7c-14.914,4.582-20.551,6.615-26.577,6.4C85.966-567.489,80.329-569.521,65.414-574.1Z" transform="translate(-55.451 616.063)"/><path class="a" d="M91.254-566.015c-5.138,0-10.339-1.612-21.049-4.929-1.55-.481-3.222-1-5.027-1.553l-.225-.09a6.6,6.6,0,0,1-3-3.526l-.128-.415c-.038-.149-.07-.294-.093-.438l-5.947-34.075c-.2-1.13-.34-2.758.69-3.832s2.574-1.021,4.1-.82l31.444,4.129,31.544-4.1c.155-.021.307-.045.459-.068a3.907,3.907,0,0,1,3.953,1.024l.472.721a4.456,4.456,0,0,1,.149,2.9l-.07.368-5.892,33.771c-.022.133-.052.276-.091.421l-.1.348a6.647,6.647,0,0,1-3.019,3.591l-.225.09c-1.805.554-3.475,1.072-5.025,1.552-11.323,3.509-16.492,5.11-22.038,4.914C91.842-566.019,91.547-566.015,91.254-566.015Zm-25.075-9.261c1.757.54,3.385,1.044,4.9,1.513,11,3.405,16.025,4.964,21.058,4.784,5.155.176,10.17-1.379,21.164-4.785,1.513-.47,3.14-.974,4.9-1.512a3.779,3.779,0,0,0,1.441-1.819l.054-.172c.017-.069.029-.123.038-.178l5.978-34.217a2.442,2.442,0,0,0,.089-1.034l-.044-.073c-.163-.176-.341-.2-1.267-.053-.178.029-.358.057-.538.08L92.022-608.59,60.2-612.769a4.739,4.739,0,0,0-1.572-.046,3.567,3.567,0,0,0,.07,1.265l5.95,34.095a1.79,1.79,0,0,0,.037.177l.066.209A3.741,3.741,0,0,0,66.179-575.276Z" transform="translate(-55.648 615.867)"/></g><g transform="translate(74.855 58.494)"><path class="a" d="M88.55-578.243A14.779,14.779,0,0,1,73.791-592.9a14.781,14.781,0,0,1,14.661-14.861A14.816,14.816,0,0,1,103.315-593.1a14.668,14.668,0,0,1-4.252,10.467,14.668,14.668,0,0,1-10.411,4.393Zm0-26.388h-.081a11.638,11.638,0,0,0-11.546,11.7,11.642,11.642,0,0,0,11.623,11.547h.081a11.547,11.547,0,0,0,8.2-3.459,11.54,11.54,0,0,0,3.349-8.242h0A11.641,11.641,0,0,0,88.554-604.631Z" transform="translate(-73.791 607.766)"/></g><g transform="translate(84.9 68.537)"><circle class="b" cx="4.719" cy="4.719" r="4.719"/></g><g transform="translate(83.146 66.926)"><path class="e" d="M87.37-587.672a6.4,6.4,0,0,0,6.392-6.392,6.4,6.4,0,0,0-6.392-6.392,6.4,6.4,0,0,0-6.392,6.392A6.4,6.4,0,0,0,87.37-587.672Z" transform="translate(-80.978 600.456)"/></g><g transform="translate(84.977 68.757)"><path class="h" d="M87.126-589.748a4.569,4.569,0,0,0,4.56-4.56,4.569,4.569,0,0,0-4.56-4.561,4.57,4.57,0,0,0-4.561,4.561A4.569,4.569,0,0,0,87.126-589.748Z" transform="translate(-82.565 598.869)"/></g><g transform="translate(88.304 70.142)"><path class="i" d="M88.789-593.313a1.046,1.046,0,0,1-1.045-1.039,1.236,1.236,0,0,0-1.234-1.225h-.015a1.045,1.045,0,0,1-1.045-1.038,1.046,1.046,0,0,1,1.038-1.052,3.332,3.332,0,0,1,3.346,3.3,1.046,1.046,0,0,1-1.038,1.052Z" transform="translate(-85.449 597.668)"/></g><g transform="translate(63.516 57.218)"><path class="j" d="M65.622-608.872h0a1.667,1.667,0,0,1,1.662,1.661v5.241a1.667,1.667,0,0,1-1.662,1.661h0a1.666,1.666,0,0,1-1.661-1.661v-5.241A1.666,1.666,0,0,1,65.622-608.872Z" transform="translate(-63.961 608.872)"/></g><g transform="translate(69.688 57.218)"><path class="j" d="M70.972-608.872h0a1.666,1.666,0,0,1,1.662,1.661v5.241a1.666,1.666,0,0,1-1.662,1.661h0a1.666,1.666,0,0,1-1.661-1.661v-5.241A1.666,1.666,0,0,1,70.972-608.872Z" transform="translate(-69.311 608.872)"/></g><g transform="translate(74.837 96.98)"><path class="a" d="M89.347-567.649a32.562,32.562,0,0,1-10.331-1.487c-4.332-1.512-5.241-3.7-5.241-5.267h2.091c0,1.7,2.405,2.793,3.839,3.295a30.963,30.963,0,0,0,9.641,1.368c7.556,0,13.474-2.048,13.474-4.663h2.09C104.911-569.738,97.094-567.649,89.347-567.649Z" transform="translate(-73.775 574.403)"/></g><g transform="translate(74.837 101.037)"><path class="a" d="M89.347-564.131a32.6,32.6,0,0,1-10.331-1.486c-4.332-1.515-5.241-3.7-5.241-5.269h2.091c0,2.615,5.921,4.664,13.481,4.664a30.927,30.927,0,0,0,9.637-1.368c1.433-.5,3.837-1.6,3.837-3.3h2.09C104.911-566.22,97.094-564.131,89.347-564.131Z" transform="translate(-73.775 570.886)"/></g><g transform="translate(95.271 127.686)"><path class="g" d="M115.258-546.053a40.112,40.112,0,0,1,.661,7.266,37.42,37.42,0,0,1-8.7,24.412c1.875,5.607,1.848,10.764-1.976,15.016-3.493-5.494-11.014-14.931-12.4-20.562,6.394-3.033,10.9-10.337,10.9-18.865a23.541,23.541,0,0,0-.534-5.005,15.837,15.837,0,0,1,4.848-2.119A14.852,14.852,0,0,1,115.258-546.053Z" transform="translate(-91.28 547.993)"/><path class="a" d="M105.453-497.583a1.256,1.256,0,0,1-.13-.006,1.566,1.566,0,0,1-1.193-.721c-.918-1.444-2.146-3.2-3.445-5.062-3.783-5.419-8.07-11.561-9.151-15.969a1.566,1.566,0,0,1,.85-1.789c6.08-2.884,10.007-9.733,10.007-17.449a22.108,22.108,0,0,0-.5-4.673,1.567,1.567,0,0,1,.662-1.637,17.517,17.517,0,0,1,5.329-2.334,16.557,16.557,0,0,1,7.964-.143,1.568,1.568,0,0,1,1.159,1.236,41.779,41.779,0,0,1,.686,7.551,39.021,39.021,0,0,1-8.511,24.759c1.961,6.473,1.118,11.621-2.566,15.717A1.568,1.568,0,0,1,105.453-497.583ZM94.937-518.926c1.4,3.841,5.2,9.294,8.321,13.76.8,1.152,1.582,2.266,2.282,3.3,1.914-3.116,2.033-6.924.4-11.8a1.567,1.567,0,0,1,.3-1.519,35.752,35.752,0,0,0,8.321-23.39,38.7,38.7,0,0,0-.459-5.942,13.971,13.971,0,0,0-5.44.337,14.773,14.773,0,0,0-3.488,1.373,25.262,25.262,0,0,1,.355,4.232C105.528-530.169,101.413-522.613,94.937-518.926Z" transform="translate(-91.489 547.784)"/></g><g transform="translate(101.113 148.993)"><path class="b" d="M101.824-528.359a3.768,3.768,0,0,1,3.122,4.317,3.769,3.769,0,0,1-4.318,3.12,3.767,3.767,0,0,1-3.12-4.317A3.766,3.766,0,0,1,101.824-528.359Z" transform="translate(-96.413 529.453)"/><path class="a" d="M101.376-519.688a4.771,4.771,0,0,1-.775-.063,4.773,4.773,0,0,1-3.134-1.931,4.779,4.779,0,0,1-.852-3.583,4.781,4.781,0,0,1,1.932-3.135,4.774,4.774,0,0,1,3.583-.851h0a4.776,4.776,0,0,1,3.135,1.931,4.783,4.783,0,0,1,.851,3.584,4.783,4.783,0,0,1-1.931,3.135A4.776,4.776,0,0,1,101.376-519.688Zm-.017-7.535a2.7,2.7,0,0,0-1.587.517,2.7,2.7,0,0,0-1.094,1.773,2.709,2.709,0,0,0,.482,2.026,2.7,2.7,0,0,0,1.773,1.092,2.724,2.724,0,0,0,2.027-.481,2.7,2.7,0,0,0,1.092-1.773,2.706,2.706,0,0,0-.481-2.027,2.7,2.7,0,0,0-1.774-1.092h0A2.817,2.817,0,0,0,101.359-527.223Z" transform="translate(-96.552 529.314)"/></g><g transform="translate(60.031 127.686)"><path class="g" d="M62.96-546.053a40.113,40.113,0,0,0-.661,7.266A37.42,37.42,0,0,0,71-514.375c-1.875,5.607-1.848,10.764,1.976,15.016,3.493-5.494,11.014-14.931,12.4-20.562-6.4-3.033-10.9-10.337-10.9-18.865A23.542,23.542,0,0,1,75-543.792a15.849,15.849,0,0,0-4.848-2.119A14.852,14.852,0,0,0,62.96-546.053Z" transform="translate(-60.731 547.993)"/><path class="a" d="M73.183-497.583a1.568,1.568,0,0,1-1.166-.519c-3.683-4.1-4.525-9.245-2.566-15.717a39.023,39.023,0,0,1-8.511-24.759,41.76,41.76,0,0,1,.686-7.551,1.568,1.568,0,0,1,1.158-1.236,16.538,16.538,0,0,1,7.963.143,17.519,17.519,0,0,1,5.332,2.334,1.567,1.567,0,0,1,.662,1.638,22,22,0,0,0-.5,4.672c0,7.716,3.928,14.565,10.007,17.449a1.566,1.566,0,0,1,.851,1.789c-1.081,4.407-5.368,10.548-9.15,15.966-1.3,1.862-2.527,3.62-3.446,5.064a1.564,1.564,0,0,1-1.193.721A1.242,1.242,0,0,1,73.183-497.583Zm-8.648-46.937a38.665,38.665,0,0,0-.458,5.942,35.747,35.747,0,0,0,8.319,23.39,1.567,1.567,0,0,1,.3,1.519c-1.63,4.878-1.511,8.687.4,11.8.7-1.035,1.479-2.148,2.284-3.3,3.117-4.465,6.921-9.917,8.317-13.757-6.475-3.687-10.59-11.243-10.59-19.652a25.263,25.263,0,0,1,.355-4.232,14.762,14.762,0,0,0-3.49-1.373A14.009,14.009,0,0,0,64.535-544.521Z" transform="translate(-60.94 547.785)"/></g><g transform="translate(70.772 148.994)"><path class="b" d="M74.326-528.36a3.768,3.768,0,0,0-3.122,4.318,3.767,3.767,0,0,0,4.317,3.12,3.767,3.767,0,0,0,3.122-4.317A3.768,3.768,0,0,0,74.326-528.36Z" transform="translate(-70.112 529.452)"/><path class="a" d="M75.052-519.688a4.776,4.776,0,0,1-2.809-.914,4.778,4.778,0,0,1-1.931-3.137,4.817,4.817,0,0,1,3.987-5.514h0a4.815,4.815,0,0,1,5.514,3.987,4.817,4.817,0,0,1-3.987,5.515A4.87,4.87,0,0,1,75.052-519.688Zm-.422-7.5a2.726,2.726,0,0,0-2.254,3.119,2.7,2.7,0,0,0,1.092,1.773,2.714,2.714,0,0,0,2.027.482,2.726,2.726,0,0,0,2.254-3.119,2.73,2.73,0,0,0-3.119-2.255Z" transform="translate(-70.251 529.313)"/></g><g transform="translate(60.751 138.916)"><path class="a" d="M120.556-532.451a1.05,1.05,0,0,1-.693-.263,36.883,36.883,0,0,0-3.568-2.79l-1.171,2.141a1.048,1.048,0,0,1-.637.506,1.054,1.054,0,0,1-.806-.1c-.311-.182-.974-.533-1.292-.7a21.117,21.117,0,0,0-4.088-1.689,1.046,1.046,0,0,1-.719-1.292,1.05,1.05,0,0,1,1.293-.719,23.2,23.2,0,0,1,4.494,1.853c.111.059.26.137.422.225l1.214-2.221a1.048,1.048,0,0,1,.658-.511,1.041,1.041,0,0,1,.821.13,37.991,37.991,0,0,1,4.767,3.606,1.046,1.046,0,0,1,.089,1.475A1.042,1.042,0,0,1,120.556-532.451Zm-57.946,0a1.044,1.044,0,0,1-.783-.353,1.046,1.046,0,0,1,.089-1.475,38.558,38.558,0,0,1,4.767-3.606,1.029,1.029,0,0,1,.822-.13,1.042,1.042,0,0,1,.656.511l1.215,2.221c.163-.088.311-.167.422-.225a23.174,23.174,0,0,1,4.494-1.853,1.048,1.048,0,0,1,1.292.719,1.046,1.046,0,0,1-.719,1.292,21.109,21.109,0,0,0-4.086,1.688c-.32.17-.982.52-1.293.7a1.049,1.049,0,0,1-.806.1,1.044,1.044,0,0,1-.637-.506L66.873-535.5a36.65,36.65,0,0,0-3.569,2.79A1.05,1.05,0,0,1,62.61-532.451Z" transform="translate(-61.564 538.05)"/></g><g transform="translate(118.877 92.129)"><path class="f" d="M118.179-566.227a1.046,1.046,0,0,1-1.045-1.039,4.106,4.106,0,0,0-4.1-4.073H113a1.045,1.045,0,0,1-1.045-1.038v-.007a1.045,1.045,0,0,1,1.038-1.045,4.075,4.075,0,0,0,2.894-1.222,4.07,4.07,0,0,0,1.181-2.9v-.007a1.046,1.046,0,0,1,1.038-1.046h.007a1.046,1.046,0,0,1,1.045,1.038,4.112,4.112,0,0,0,4.127,4.071h.007a1.045,1.045,0,0,1,1.045,1.038v.007a1.045,1.045,0,0,1-1.038,1.045,4.106,4.106,0,0,0-4.072,4.13v.007a1.046,1.046,0,0,1-1.039,1.045Zm-1.738-6.178a6.227,6.227,0,0,1,1.715,1.693,6.279,6.279,0,0,1,1.7-1.719,6.234,6.234,0,0,1-1.715-1.691,6.214,6.214,0,0,1-.765.939A6.128,6.128,0,0,1,116.441-572.405Z" transform="translate(-111.952 578.608)"/></g><g transform="translate(12.329 142.069)"><path class="f" d="M26-522.57a1.045,1.045,0,0,1-1.045-1.039,4.289,4.289,0,0,0-4.285-4.253.327.327,0,0,0-.035,0,1.046,1.046,0,0,1-1.045-1.039v-.006a1.047,1.047,0,0,1,1.039-1.046,4.252,4.252,0,0,0,3.021-1.275,4.248,4.248,0,0,0,1.233-3.032v-.007a1.046,1.046,0,0,1,1.038-1.046,1.022,1.022,0,0,1,1.052,1.038,4.287,4.287,0,0,0,4.283,4.25.306.306,0,0,1,.033,0,1.047,1.047,0,0,1,1.046,1.039v.007a1.046,1.046,0,0,1-1.039,1.045,4.248,4.248,0,0,0-3.019,1.274,4.259,4.259,0,0,0-1.233,3.038v.007a1.046,1.046,0,0,1-1.038,1.045Zm-1.866-6.358a6.411,6.411,0,0,1,1.84,1.815,6.5,6.5,0,0,1,.817-1.015,6.46,6.46,0,0,1,1-.831,6.413,6.413,0,0,1-1.84-1.815,6.371,6.371,0,0,1-.817,1.014A6.475,6.475,0,0,1,24.132-528.929Z" transform="translate(-19.588 535.316)"/></g><g transform="translate(89.617 50.605)"><path class="k" d="M116.3-576.858Zm5.116-37.589Zm-.15-.055Zm-.052-.016Zm-.052-.014Zm-.054-.014Zm-.053-.012Zm-.054-.01Zm-.055-.009Zm-.055-.009Zm-.057-.006Zm-.057,0Zm-.058,0Zm-.059,0ZM86.587-567.683c.283,0,.565,0,.85-.015,3.995.14,7.819-.706,14.288-2.628,3.29-.976,7.263-2.231,12.289-3.776a5.124,5.124,0,0,0,2.264-2.7l.021-.06.02-.061.018-.059.018-.06.015-.06c.027-.1.047-.2.063-.3l3.831-21.953,2.2-12.627.063-.362.008-.058.008-.059,0-.058,0-.057,0-.058v-.167l0-.054-.006-.055-.006-.053-.007-.054-.009-.052-.01-.053-.012-.052-.013-.051-.015-.051-.015-.05-.017-.05-.018-.048-.02-.047-.021-.047-.022-.046-.023-.046-.024-.045-.025-.044-.027-.043-.028-.043-.03-.043-.03-.04-.03-.039-.033-.039-.033-.038-.033-.037-.036-.037-.036-.035-.038-.035-.039-.032-.039-.032-.04-.032-.042-.03-.043-.029-.043-.028-.044-.027-.045-.026-.046-.024-.046-.023-.048-.022-.048-.022-.048-.018-.051-.02-.051-.017-.052-.016-.052-.014-.053-.014-.054-.012-.054-.01-.055-.009-.055-.009-.057-.006-.057,0-.058,0-.059,0H120.6l-33.329,3.488-.684-.072v2.273a16.962,16.962,0,0,1,16.963,16.849A16.959,16.959,0,0,1,86.7-574.992h-.117Z" transform="translate(-86.587 614.605)"/></g><g transform="translate(53.931 49.129)"><path class="a" d="M93.034-566.012c-.3,0-.6,0-.9-.016-5.44.2-10.609-1.405-21.932-4.913-1.55-.481-3.222-1-5.027-1.553l-.225-.09a6.6,6.6,0,0,1-3-3.526l-.108-.343a5.145,5.145,0,0,1-.113-.511l-5.978-34.26a4.252,4.252,0,0,1,.6-3.426,3.214,3.214,0,0,1,2.362-1.22l.4-.014,1.081.144,31.829,4.24,33.236-4.385,1.926.5,1.084,1.067.5,1.532.013.317-.051.577-6.1,34.943c-.022.133-.052.276-.091.421l-.1.339a6.654,6.654,0,0,1-3.022,3.6l-.225.09c-1.805.554-3.475,1.072-5.025,1.552C103.464-567.624,98.259-566.012,93.034-566.012Zm-26.856-9.261c1.757.54,3.385,1.044,4.9,1.513,11,3.405,16.025,4.964,21.058,4.784,5.155.176,10.17-1.379,21.164-4.785,1.513-.47,3.14-.974,4.9-1.512a3.779,3.779,0,0,0,1.441-1.819l1.432.37-1.392-.491c.032-.12.044-.175.053-.228l6.1-34.953,1.481-.035-1.473-.085,1.43-.4-1.45.277,1.275-.765-1.323.653.957-1.135-1.039,1.049.574-1.367-.676,1.313.219-1.467-.338,1.437-33.445,4.4-33.05-4.4a.56.56,0,0,0-.277.07,1.791,1.791,0,0,0-.032,1.125l5.981,34.279a1.79,1.79,0,0,0,.037.177l-1.355.614,1.4-.467A3.793,3.793,0,0,0,66.178-575.273Z" transform="translate(-55.652 615.884)"/></g><g transform="translate(134.113 78.979)"><path class="a" d="M134.977-585.439a27.726,27.726,0,0,1-8.741-1.512,1.568,1.568,0,0,1-1-1.981,1.569,1.569,0,0,1,1.982-1c5.4,1.787,10.238,1.795,14.8.028a1.567,1.567,0,0,1,2.029.894,1.569,1.569,0,0,1-.9,2.029A22.348,22.348,0,0,1,134.977-585.439Z" transform="translate(-125.16 590.008)"/></g><g transform="translate(27.894 78.979)"><path class="a" d="M42.99-585.439a28.316,28.316,0,0,1-8.828-1.51,1.569,1.569,0,0,1-1-1.978,1.567,1.567,0,0,1,1.978-1c5.464,1.789,10.366,1.8,14.985.026a1.567,1.567,0,0,1,2.026.9,1.568,1.568,0,0,1-.9,2.026A22.813,22.813,0,0,1,42.99-585.439Z" transform="translate(-33.081 590.008)"/></g><g transform="translate(28.023 75.02)"><path class="a" d="M42.866-589.917a29.565,29.565,0,0,1-8.942-1.48,1.044,1.044,0,0,1-.682-1.312,1.044,1.044,0,0,1,1.312-.682c5.792,1.832,11,1.838,15.91.017a1.043,1.043,0,0,1,1.344.616,1.045,1.045,0,0,1-.617,1.344A23.722,23.722,0,0,1,42.866-589.917Zm106.248,0a29.572,29.572,0,0,1-8.944-1.48,1.044,1.044,0,0,1-.681-1.312,1.043,1.043,0,0,1,1.312-.682c5.791,1.832,11,1.838,15.91.017a1.043,1.043,0,0,1,1.344.616,1.045,1.045,0,0,1-.617,1.344A23.722,23.722,0,0,1,149.113-589.917Z" transform="translate(-33.192 593.439)"/></g><g transform="translate(26.37 117.861)"><path class="e" d="M42.7-555.4a10.04,10.04,0,0,1,10.038,10.039,10.023,10.023,0,0,1-4,8.021l-2.6-3.378a5.765,5.765,0,0,0,2.342-4.643,5.776,5.776,0,0,0-5.776-5.776,5.776,5.776,0,0,0-5.776,5.776,5.766,5.766,0,0,0,2.338,4.641l-2.593,3.383a10.021,10.021,0,0,1-4.007-8.024A10.039,10.039,0,0,1,42.7-555.4Z" transform="translate(-31.621 556.441)"/><path class="a" d="M36.811-536.148a1.037,1.037,0,0,1-.628-.21,11,11,0,0,1-4.424-8.859A11.1,11.1,0,0,1,42.843-556.3a11.1,11.1,0,0,1,11.083,11.085,11.005,11.005,0,0,1-4.418,8.856,1.046,1.046,0,0,1-1.457-.2l-2.6-3.376a1.042,1.042,0,0,1-.208-.783,1.052,1.052,0,0,1,.413-.7,4.692,4.692,0,0,0,1.917-3.8,4.736,4.736,0,0,0-4.73-4.731,4.737,4.737,0,0,0-4.731,4.731,4.687,4.687,0,0,0,1.916,3.8,1.049,1.049,0,0,1,.413.694,1.047,1.047,0,0,1-.206.781l-2.593,3.383A1.043,1.043,0,0,1,36.811-536.148Zm6.032-18.062a9,9,0,0,0-8.993,8.993,8.915,8.915,0,0,0,2.8,6.52l1.334-1.738a6.855,6.855,0,0,1-1.959-4.781,6.83,6.83,0,0,1,6.821-6.822,6.83,6.83,0,0,1,6.821,6.822,6.852,6.852,0,0,1-1.96,4.783l1.337,1.735a8.916,8.916,0,0,0,2.8-6.518A9,9,0,0,0,42.843-554.211Z" transform="translate(-31.76 556.302)"/></g><g transform="translate(132.559 117.861)"><path class="e" d="M134.758-555.4a10.04,10.04,0,0,0-10.038,10.039,10.023,10.023,0,0,0,4,8.021l2.6-3.378a5.763,5.763,0,0,1-2.341-4.643,5.775,5.775,0,0,1,5.775-5.776,5.776,5.776,0,0,1,5.776,5.776,5.766,5.766,0,0,1-2.338,4.641l2.593,3.383a10.021,10.021,0,0,0,4.007-8.024A10.039,10.039,0,0,0,134.758-555.4Z" transform="translate(-123.674 556.441)"/><path class="a" d="M140.93-536.148a1.043,1.043,0,0,1-.831-.409l-2.593-3.383a1.047,1.047,0,0,1-.205-.781,1.044,1.044,0,0,1,.412-.694,4.69,4.69,0,0,0,1.915-3.8,4.735,4.735,0,0,0-4.73-4.731,4.735,4.735,0,0,0-4.73,4.731,4.692,4.692,0,0,0,1.917,3.8,1.045,1.045,0,0,1,.413.7,1.044,1.044,0,0,1-.208.783l-2.6,3.376a1.047,1.047,0,0,1-1.457.2,11,11,0,0,1-4.419-8.856A11.1,11.1,0,0,1,134.9-556.3a11.1,11.1,0,0,1,11.085,11.085,11,11,0,0,1-4.425,8.859A1.037,1.037,0,0,1,140.93-536.148Zm-1.17-4.288,1.332,1.738a8.914,8.914,0,0,0,2.8-6.52,9,9,0,0,0-8.993-8.993,9,9,0,0,0-8.993,8.993,8.914,8.914,0,0,0,2.8,6.518l1.337-1.735a6.857,6.857,0,0,1-1.96-4.783,6.83,6.83,0,0,1,6.821-6.822,6.83,6.83,0,0,1,6.821,6.822A6.855,6.855,0,0,1,139.76-540.436Z" transform="translate(-123.813 556.302)"/></g><g transform="translate(94.364 156.325)"><path class="a" d="M102.983-502.24a1.476,1.476,0,0,1-1.252-.692,1.475,1.475,0,0,1,.467-2.034l.646-.4a1.477,1.477,0,0,1,2.034.467,1.476,1.476,0,0,1-.467,2.034l-.647.4A1.47,1.47,0,0,1,102.983-502.24Zm-3-4.129a1.475,1.475,0,0,1-1.252-.691,1.476,1.476,0,0,1,.467-2.034l.647-.406a1.475,1.475,0,0,1,2.033.467,1.475,1.475,0,0,1-.466,2.033l-.647.406A1.471,1.471,0,0,1,99.987-506.369Zm-2.724-4.34a1.472,1.472,0,0,1-1.25-.692,1.476,1.476,0,0,1,.466-2.034l.647-.4a1.475,1.475,0,0,1,2.034.466,1.476,1.476,0,0,1-.467,2.034l-.647.4A1.462,1.462,0,0,1,97.263-510.708ZM94.54-515.05a1.471,1.471,0,0,1-1.25-.691,1.476,1.476,0,0,1,.466-2.034l.647-.406a1.476,1.476,0,0,1,2.034.467,1.474,1.474,0,0,1-.467,2.033l-.647.406A1.468,1.468,0,0,1,94.54-515.05ZM92.18-519.6a1.474,1.474,0,0,1-1.252-.691,1.476,1.476,0,0,1,.466-2.034l.647-.406a1.476,1.476,0,0,1,2.034.466,1.476,1.476,0,0,1-.466,2.034l-.647.406A1.471,1.471,0,0,1,92.18-519.6Z" transform="translate(-90.703 522.958)"/></g><g transform="translate(72.616 156.325)"><path class="a" d="M73.97-502.24a1.471,1.471,0,0,1-.782-.225l-.646-.4a1.476,1.476,0,0,1-.468-2.034,1.478,1.478,0,0,1,2.034-.467l.647.4a1.477,1.477,0,0,1,.467,2.034A1.476,1.476,0,0,1,73.97-502.24Zm3-4.129a1.475,1.475,0,0,1-.783-.225L75.536-507a1.475,1.475,0,0,1-.466-2.033A1.476,1.476,0,0,1,77.1-509.5l.647.406a1.476,1.476,0,0,1,.466,2.034A1.474,1.474,0,0,1,76.966-506.369Zm2.722-4.34a1.465,1.465,0,0,1-.782-.226l-.647-.4a1.476,1.476,0,0,1-.466-2.034,1.476,1.476,0,0,1,2.034-.466l.647.4a1.476,1.476,0,0,1,.466,2.034A1.476,1.476,0,0,1,79.689-510.708Zm2.724-4.342a1.471,1.471,0,0,1-.782-.225l-.647-.406a1.475,1.475,0,0,1-.466-2.033,1.476,1.476,0,0,1,2.033-.467l.647.406a1.475,1.475,0,0,1,.467,2.034A1.474,1.474,0,0,1,82.412-515.05Zm2.361-4.552a1.475,1.475,0,0,1-.783-.225l-.647-.406a1.476,1.476,0,0,1-.466-2.034,1.476,1.476,0,0,1,2.034-.466l.647.406a1.475,1.475,0,0,1,.466,2.033A1.472,1.472,0,0,1,84.773-519.6Z" transform="translate(-71.849 522.958)"/></g><g transform="translate(0 73.616)"><path class="k" d="M9.907-583.666h4.66a1.009,1.009,0,0,1,1.006,1.007h0a1.009,1.009,0,0,1-1.006,1.006H9.907A1.01,1.01,0,0,1,8.9-582.659h0a1.01,1.01,0,0,1,1.007-1.007Zm12,7.339v4.659a1.011,1.011,0,0,1-1.007,1.007h0a1.009,1.009,0,0,1-1.006-1.007v-4.659a1.009,1.009,0,0,1,1.006-1.007h0a1.011,1.011,0,0,1,1.007,1.007Zm0-8.662v1.323h1.323a1.01,1.01,0,0,1,1.007,1.007h0a1.009,1.009,0,0,1-1.007,1.006H21.905v1.324a1.009,1.009,0,0,1-1.007,1.006h0a1.008,1.008,0,0,1-1.006-1.006v-1.324H18.568a1.008,1.008,0,0,1-1.006-1.006h0a1.009,1.009,0,0,1,1.006-1.007h1.324v-1.323a1.008,1.008,0,0,1,1.006-1.006h0a1.009,1.009,0,0,1,1.007,1.006Zm0-8.662v4.66a1.011,1.011,0,0,1-1.007,1.007h0a1.009,1.009,0,0,1-1.006-1.007v-4.66a1.008,1.008,0,0,1,1.006-1.006h0a1.011,1.011,0,0,1,1.007,1.006Zm5.325,9.985h4.66a1.009,1.009,0,0,1,1.006,1.007h0a1.009,1.009,0,0,1-1.006,1.006H27.23a1.009,1.009,0,0,1-1.006-1.006h0A1.009,1.009,0,0,1,27.23-583.666Z" transform="translate(-8.9 594.657)"/></g><g transform="translate(154.848 33.498)"><path class="k" d="M144-621.685h2.275a.872.872,0,0,1,.87.87h0a.875.875,0,0,1-.87.871H144a.875.875,0,0,1-.87-.871h0a.872.872,0,0,1,.87-.87Zm8.621,6.346v2.274a.875.875,0,0,1-.871.871h0a.873.873,0,0,1-.87-.871v-2.274a.872.872,0,0,1,.87-.87h0a.875.875,0,0,1,.871.87Zm0-7.49v1.144h1.144a.872.872,0,0,1,.87.87h0a.873.873,0,0,1-.87.871h-1.144v1.146a.873.873,0,0,1-.871.87h0a.872.872,0,0,1-.87-.87v-1.146h-1.145a.873.873,0,0,1-.87-.871h0a.872.872,0,0,1,.87-.87h1.145v-1.144a.873.873,0,0,1,.87-.871h0a.874.874,0,0,1,.871.871Zm0-5.734v2.274a.874.874,0,0,1-.871.87h0a.872.872,0,0,1-.87-.87v-2.274a.872.872,0,0,1,.87-.87h0a.874.874,0,0,1,.871.87Zm4.605,6.879H159.5a.872.872,0,0,1,.87.87h0a.874.874,0,0,1-.87.871H157.23a.874.874,0,0,1-.87-.871h0A.872.872,0,0,1,157.23-621.685Z" transform="translate(-143.135 629.434)"/></g><g transform="translate(14.048 100.277)"><path class="k" d="M25.579-570.675v1.891h1.892a.873.873,0,0,1,.87.871h0a.876.876,0,0,1-.87.87H25.579v1.892a.876.876,0,0,1-.87.87h0a.872.872,0,0,1-.871-.87v-1.892H21.948a.876.876,0,0,1-.87-.87h0a.873.873,0,0,1,.87-.871h1.891v-1.891a.872.872,0,0,1,.871-.87h0A.876.876,0,0,1,25.579-570.675Z" transform="translate(-21.078 571.545)"/></g><g transform="translate(70.892 9.918)"><g transform="translate(2.141 2.144)"><path class="k" d="M72.211-635.088h6.135c.315-2.2,1.651-3.845,3.251-3.845s2.936,1.65,3.252,3.845h8.659c.316-2.2,1.652-3.845,3.252-3.845s2.936,1.65,3.251,3.845h7.068V-646.7a3.885,3.885,0,0,0-1.2-1.314H99.71L95.548-645.5H82.028l-.81-2.511h-7.7a3.911,3.911,0,0,0-1.31,1.535Z" transform="translate(-72.211 648.016)"/></g><path class="a" d="M89.937-616.32a28.4,28.4,0,0,1-13.145-2.907c-4.21-2.259-6.437-5.542-6.437-9.494v-15.86a5.3,5.3,0,0,1,5.295-5.294H81.04a1.474,1.474,0,0,1,1.419,1.074l.7,2.479H96.7l.7-2.479a1.474,1.474,0,0,1,1.42-1.074h4.386c2.913,0,6.3,2.313,6.3,5.294v15.86C109.5-620.2,99.361-616.32,89.937-616.32ZM75.65-646.925a2.376,2.376,0,0,0-2.344,2.344v15.86c0,6.2,8.367,9.451,16.631,9.451s16.617-3.246,16.617-9.451v-15.86c0-1.051-1.846-2.344-3.349-2.344h-3.27l-.7,2.48a1.474,1.474,0,0,1-1.419,1.074H82.044a1.474,1.474,0,0,1-1.419-1.074l-.7-2.48Z" transform="translate(-70.355 649.875)"/><g transform="translate(1.345 13.764)"><path class="g" d="M106.795-637.037h0Z" transform="translate(-71.382 638.082)"/><path class="a" d="M106.934-635.853H72.567a1.046,1.046,0,0,1-1.046-1.045,1.045,1.045,0,0,1,1.046-1.045h34.367a1.044,1.044,0,0,1,1.045,1.045A1.045,1.045,0,0,1,106.934-635.853Z" transform="translate(-71.521 637.943)"/></g><g transform="translate(7.626 9.681)"><path class="g" d="M81.194-630.9c1.834,0,3.322-2.167,3.322-4.841s-1.488-4.84-3.322-4.84-3.322,2.169-3.322,4.84S79.36-630.9,81.194-630.9Z" transform="translate(-76.827 641.622)"/><path class="a" d="M81.333-629.71c-2.449,0-4.367-2.586-4.367-5.888s1.918-5.885,4.367-5.885S85.7-638.9,85.7-635.6,83.782-629.71,81.333-629.71Zm0-9.683c-1.212,0-2.276,1.774-2.276,3.8s1.064,3.8,2.276,3.8,2.276-1.774,2.276-3.8S82.547-639.393,81.333-639.393Z" transform="translate(-76.966 641.483)"/><g transform="translate(15.161)"><path class="g" d="M94.338-630.9c1.834,0,3.321-2.167,3.321-4.84s-1.487-4.842-3.321-4.842-3.322,2.169-3.322,4.842S92.5-630.9,94.338-630.9Z" transform="translate(-89.97 641.622)"/><path class="a" d="M94.476-629.71c-2.449,0-4.367-2.586-4.367-5.887s1.918-5.887,4.367-5.887,4.369,2.586,4.369,5.887S96.925-629.71,94.476-629.71Zm0-9.683c-1.212,0-2.276,1.774-2.276,3.8s1.064,3.8,2.276,3.8,2.277-1.774,2.277-3.8S95.69-639.393,94.476-639.393Z" transform="translate(-90.109 641.483)"/></g></g><g transform="translate(9.492 24.48)"><path class="g" d="M82.419-627.748H94.634a2.671,2.671,0,0,1,2.93,2.6h0a2.672,2.672,0,0,1-2.93,2.6H82.419a2.671,2.671,0,0,1-2.929-2.6h0A2.671,2.671,0,0,1,82.419-627.748Z" transform="translate(-78.444 628.793)"/><path class="a" d="M94.773-621.37H82.559a3.7,3.7,0,0,1-3.976-3.642,3.694,3.694,0,0,1,3.976-3.642H94.773a3.693,3.693,0,0,1,3.975,3.642A3.694,3.694,0,0,1,94.773-621.37Zm-12.214-5.193c-.939,0-1.885.48-1.885,1.552s.946,1.55,1.885,1.55H94.773c.939,0,1.885-.479,1.885-1.55s-.946-1.552-1.885-1.552Z" transform="translate(-78.583 628.654)"/><g transform="translate(3.944 1.286)"><rect class="a" width="1.117" height="4.794"/></g><g transform="translate(7.665 1.286)"><rect class="a" width="1.116" height="4.794"/></g><g transform="translate(11.386 1.286)"><rect class="a" width="1.117" height="4.794"/></g><g transform="translate(15.107 1.286)"><rect class="a" width="1.116" height="4.794"/></g></g></g></svg>