<svg xmlns="http://www.w3.org/2000/svg" width="161.461" height="181.459" viewBox="0 0 161.461 181.459"><defs><style>.a{fill:#fff;}.b,.h{fill:#522a75;}.c{fill:#c6c3e1;}.d{fill:#e0deef;}.e{fill:#9a94c8;}.f,.k{fill:#e5007e;}.f,.h,.l{fill-rule:evenodd;}.g{fill:#eb81ac;}.i{fill:#e8e5f3;}.j,.l{fill:#d1cce7;}</style></defs><g transform="translate(105.395 133.908)"><path class="a" d="M-98.132-308.069s-4.335-.074-6.253,5.391" transform="translate(107.846 311.53)"/><path class="b" d="M-103.924-298.756a3.437,3.437,0,0,1-1.145-.2,3.459,3.459,0,0,1-2.119-4.411c2.138-6.093,6.911-7.706,9.475-7.706h.1l-.119,6.92h.115c-.335.02-2.056.261-3.044,3.078A3.463,3.463,0,0,1-103.924-298.756Z" transform="translate(107.385 311.069)"/></g><g transform="translate(127.667 137.16)"><path class="a" d="M-85.077-294.425s1.192-4.067.023-10.824" transform="translate(88.539 308.71)"/><path class="b" d="M-84.614-290.5a3.483,3.483,0,0,1-.975-.141,3.461,3.461,0,0,1-2.357-4.267A23.717,23.717,0,0,0-88-304.2a3.461,3.461,0,0,1,2.82-4,3.457,3.457,0,0,1,4,2.82c1.268,7.336.033,11.89-.111,12.385A3.464,3.464,0,0,1-84.614-290.5Z" transform="translate(88.078 308.25)"/></g><g transform="translate(81.174 125.013)"><path class="a" d="M-113.032-317.2a42.537,42.537,0,0,1,3.187,7.067A39.752,39.752,0,0,1-110.1-282.6c3.83,4.98,5.595,10.166,3.232,15.765-6.2-2.749-16.247-11.167-19.591-16.343,5.368-5.266,7.357-14.167,4.4-22.731a25.045,25.045,0,0,0-2.274-4.84,16.822,16.822,0,0,1,4.132-3.812A15.781,15.781,0,0,1-113.032-317.2Z" transform="translate(128.677 319.022)"/><path class="b" d="M-105.663-264.3l-1.61-.715c-6.5-2.885-16.77-11.456-20.343-16.985l-.766-1.186,1.008-.987c5.085-4.989,6.643-13.206,3.972-20.931a23.313,23.313,0,0,0-2.118-4.506l-.613-1.007.713-.939a18.669,18.669,0,0,1,4.558-4.21,17.625,17.625,0,0,1,7.977-2.921l1.107-.095.547.966a44.5,44.5,0,0,1,3.318,7.354,41.529,41.529,0,0,1,.066,27.83c4.214,5.829,5.152,11.3,2.87,16.709Zm-18.271-18.481c3.405,4.461,10.955,10.792,16.363,13.754.984-3.884-.187-7.834-3.6-12.279l-.6-.779.362-.914a37.925,37.925,0,0,0,.228-26.334,41.2,41.2,0,0,0-2.5-5.756,14.807,14.807,0,0,0-5.275,2.209,15.663,15.663,0,0,0-2.984,2.546,26.935,26.935,0,0,1,1.81,4.1C-117.206-297.777-118.713-288.747-123.934-282.779Z" transform="translate(128.382 318.78)"/></g><g transform="translate(81.256 157.208)"><path class="c" d="M-110.1-286.875c3.83,4.98,5.595,10.166,3.232,15.765-6.2-2.749-16.247-11.167-19.591-16.343l1.57-1.918" transform="translate(128.596 291.101)"/><path class="b" d="M-105.673-268.583l-1.61-.715c-6.5-2.885-16.77-11.456-20.343-16.985l-.684-1.059,2.368-2.893a1.729,1.729,0,0,1,2.434-.245,1.731,1.731,0,0,1,.245,2.435l-.739.9c3.375,4.464,10.982,10.852,16.422,13.831.984-3.884-.187-7.834-3.6-12.279a1.731,1.731,0,0,1,.316-2.427,1.729,1.729,0,0,1,2.426.317c4.709,6.122,5.838,11.844,3.455,17.491Z" transform="translate(128.311 290.871)"/></g><g transform="translate(81.707 162.332)"><path class="b" d="M-109.312-268.655a1.721,1.721,0,0,1-1.083-.382,1.729,1.729,0,0,1-.263-2.433l.509-.632a1.732,1.732,0,0,1,2.433-.263,1.731,1.731,0,0,1,.263,2.433l-.509.632A1.729,1.729,0,0,1-109.312-268.655Zm-4.441-3.105a1.727,1.727,0,0,1-1.084-.382,1.731,1.731,0,0,1-.263-2.433l.509-.632a1.731,1.731,0,0,1,2.433-.263,1.729,1.729,0,0,1,.263,2.433l-.509.632A1.726,1.726,0,0,1-113.753-271.76ZM-118-275.173a1.716,1.716,0,0,1-1.083-.383,1.729,1.729,0,0,1-.264-2.432l.509-.632a1.732,1.732,0,0,1,2.433-.263,1.729,1.729,0,0,1,.263,2.433l-.509.631A1.724,1.724,0,0,1-118-275.173Zm-4.243-3.413a1.726,1.726,0,0,1-1.083-.382,1.73,1.73,0,0,1-.264-2.432l.509-.632a1.73,1.73,0,0,1,2.433-.264,1.731,1.731,0,0,1,.264,2.433l-.509.631A1.725,1.725,0,0,1-122.239-278.586Zm-3.952-3.75a1.721,1.721,0,0,1-1.083-.382,1.73,1.73,0,0,1-.264-2.433l.509-.632a1.731,1.731,0,0,1,2.433-.264,1.731,1.731,0,0,1,.264,2.433l-.509.632A1.724,1.724,0,0,1-126.191-282.336Z" transform="translate(127.92 286.429)"/></g><g transform="translate(87.638 142.241)"><path class="b" d="M-115.235-297.288l-1.021-.6c-.33-.194-1.031-.571-1.368-.752a22.389,22.389,0,0,0-4.324-1.816,1.153,1.153,0,0,1-.784-1.43,1.152,1.152,0,0,1,1.429-.784,24.666,24.666,0,0,1,4.773,2c.107.058.251.135.41.221l1.879-3.394,1.037.668a40.293,40.293,0,0,1,5.048,3.863,1.152,1.152,0,0,1,.09,1.629,1.153,1.153,0,0,1-1.629.09,39.393,39.393,0,0,0-3.733-2.955Z" transform="translate(122.778 303.845)"/></g><g transform="translate(84.614 156.8)"><path class="b" d="M-110.262-285.437a1.144,1.144,0,0,1-.535-.132,8.059,8.059,0,0,0-6.3-.713c-2.331.5-4.74,1-8.047-3.062a1.153,1.153,0,0,1,.167-1.623,1.153,1.153,0,0,1,1.623.167c2.418,2.975,3.682,2.7,5.777,2.26a10.242,10.242,0,0,1,7.848.927,1.153,1.153,0,0,1,.486,1.557A1.153,1.153,0,0,1-110.262-285.437Z" transform="translate(125.4 291.225)"/></g><path class="d" d="M-157.716-271.13h-22.741a4.074,4.074,0,0,1-4.031-4.1,4.046,4.046,0,0,1,3.531-4,7.432,7.432,0,0,1,7.428-6.788,7.444,7.444,0,0,1,6.986,4.956,5.43,5.43,0,0,1,3.125-.97,5.456,5.456,0,0,1,5.4,4.787,2.7,2.7,0,0,1,.322-.016,3.08,3.08,0,0,1,3.072,3.1A3.049,3.049,0,0,1-157.716-271.13Z" transform="translate(200.94 448.824)"/><g transform="translate(0 92.022)"><path class="e" d="M-192.7-335.274a6.06,6.06,0,0,1-6.052-6.054,6.058,6.058,0,0,1,6.052-6.052,6.059,6.059,0,0,1,6.053,6.052A6.061,6.061,0,0,1-192.7-335.274Zm0-8.645a2.594,2.594,0,0,0-2.591,2.591,2.6,2.6,0,0,0,2.591,2.593,2.6,2.6,0,0,0,2.592-2.593A2.6,2.6,0,0,0-192.7-343.918Z" transform="translate(198.75 347.379)"/></g><g transform="translate(54.856 125.013)"><path class="a" d="M-142.458-317.2a42.536,42.536,0,0,0-3.187,7.067,39.752,39.752,0,0,0,.255,27.536c-3.83,4.98-5.595,10.166-3.232,15.765,6.2-2.749,16.247-11.167,19.591-16.343-5.368-5.266-7.359-14.167-4.4-22.731a25.045,25.045,0,0,1,2.274-4.84,16.822,16.822,0,0,0-4.132-3.812A15.781,15.781,0,0,0-142.458-317.2Z" transform="translate(151.427 319.022)"/><path class="b" d="M-149.3-264.3l-.685-1.623c-2.282-5.408-1.344-10.882,2.87-16.71a41.529,41.529,0,0,1,.066-27.83,44.469,44.469,0,0,1,3.318-7.353l.547-.967,1.106.095a17.627,17.627,0,0,1,7.977,2.92,18.68,18.68,0,0,1,4.559,4.212l.713.939-.613,1.007a23.374,23.374,0,0,0-2.118,4.506c-2.672,7.725-1.113,15.942,3.972,20.931l1.008.987-.766,1.186c-3.573,5.529-13.839,14.1-20.342,16.985Zm8.02-50.788a41.105,41.105,0,0,0-2.5,5.756A37.925,37.925,0,0,0-143.551-283l.362.914-.6.779c-3.418,4.445-4.589,8.394-3.6,12.279,5.408-2.961,12.957-9.293,16.362-13.754-5.221-5.969-6.728-15-3.8-23.454a26.919,26.919,0,0,1,1.81-4.1,15.664,15.664,0,0,0-2.984-2.546A14.807,14.807,0,0,0-141.281-315.085Z" transform="translate(151.196 318.78)"/></g><g transform="translate(54.856 157.208)"><path class="c" d="M-145.39-286.875c-3.83,4.98-5.595,10.166-3.232,15.765,6.2-2.749,16.247-11.167,19.591-16.343l-1.57-1.918" transform="translate(151.428 291.101)"/><path class="b" d="M-149.3-268.583l-.685-1.623c-2.384-5.649-1.254-11.371,3.455-17.493a1.73,1.73,0,0,1,2.426-.317,1.731,1.731,0,0,1,.316,2.427c-3.418,4.445-4.589,8.394-3.6,12.279,5.439-2.98,13.046-9.367,16.421-13.831l-.739-.9a1.731,1.731,0,0,1,.245-2.435,1.729,1.729,0,0,1,2.434.245l2.368,2.893-.684,1.059c-3.573,5.529-13.839,14.1-20.342,16.985Z" transform="translate(151.197 290.871)"/></g><g transform="translate(58.09 162.332)"><path class="b" d="M-146.153-268.655a1.729,1.729,0,0,1-1.35-.645l-.509-.632a1.731,1.731,0,0,1,.263-2.433,1.731,1.731,0,0,1,2.433.263l.509.632a1.729,1.729,0,0,1-.263,2.433A1.721,1.721,0,0,1-146.153-268.655Zm4.441-3.105a1.726,1.726,0,0,1-1.349-.645l-.509-.632a1.729,1.729,0,0,1,.263-2.433,1.729,1.729,0,0,1,2.433.263l.509.632a1.731,1.731,0,0,1-.263,2.433A1.727,1.727,0,0,1-141.712-271.76Zm4.243-3.412a1.724,1.724,0,0,1-1.348-.646l-.509-.631a1.729,1.729,0,0,1,.263-2.433,1.73,1.73,0,0,1,2.433.263l.508.632a1.728,1.728,0,0,1-.263,2.432A1.716,1.716,0,0,1-137.469-275.173Zm4.243-3.413a1.725,1.725,0,0,1-1.35-.646l-.509-.631a1.731,1.731,0,0,1,.264-2.433,1.73,1.73,0,0,1,2.433.264l.509.632a1.73,1.73,0,0,1-.264,2.432A1.726,1.726,0,0,1-133.226-278.586Zm3.952-3.75a1.724,1.724,0,0,1-1.35-.646l-.509-.632a1.731,1.731,0,0,1,.264-2.433,1.731,1.731,0,0,1,2.433.264l.509.632a1.731,1.731,0,0,1-.264,2.433A1.721,1.721,0,0,1-129.274-282.336Z" transform="translate(148.393 286.429)"/></g><g transform="translate(57.999 142.241)"><path class="b" d="M-141.006-297.287l-1.809-3.263a39.394,39.394,0,0,0-3.733,2.955,1.153,1.153,0,0,1-1.629-.09,1.152,1.152,0,0,1,.09-1.629,40.292,40.292,0,0,1,5.048-3.863l1.036-.668,1.88,3.394.411-.223a24.693,24.693,0,0,1,4.772-2,1.152,1.152,0,0,1,1.429.784,1.154,1.154,0,0,1-.784,1.43,22.415,22.415,0,0,0-4.322,1.815c-.338.182-1.039.558-1.368.753Z" transform="translate(148.471 303.845)"/></g><g transform="translate(108.144 90.411)"><path class="a" d="M-73.387-338.4c1.275,15.063-.556,23.384-5.353,38.044-5.041,15.408-29.862,6.379-23.816-8.976,4.764-12.647,10.268-17.6,18.484-34.363C-80.047-349-74.312-349.322-73.387-338.4Z" transform="translate(105.233 349.006)"/><path class="b" d="M-89.49-290.406a16.5,16.5,0,0,1-12.5-5.79,12.96,12.96,0,0,1-1.948-13.541c2.653-7.045,5.565-11.8,8.935-17.306a192.384,192.384,0,0,0,9.6-17.185l.175-.284c2.523-3.326,5.637-4.844,8.328-4.065,2.148.623,4.838,2.908,5.46,10.259h0c1.282,15.137-.551,23.814-5.431,38.729a12.6,12.6,0,0,1-9.858,8.925A14.843,14.843,0,0,1-89.49-290.406Zm7.127-52.142a195.942,195.942,0,0,1-9.684,17.314c-3.413,5.576-6.109,9.981-8.657,16.742A9.493,9.493,0,0,0-99.319-298.4a13.015,13.015,0,0,0,11.952,4.341,9.124,9.124,0,0,0,7.214-6.6c4.946-15.116,6.486-23.032,5.273-37.362h0c-.346-4.085-1.458-6.786-2.975-7.227C-79.057-345.6-80.812-344.541-82.363-342.548Z" transform="translate(105.002 348.776)"/></g><g transform="translate(111.119 64.33)"><path class="a" d="M-79.194-369.667c-8.841,1.418-23.309,6.287-21.587,13.827l13.843,22.883,12.793.077c-.3-9.4-2.767-22.971-5.049-36.787Z" transform="translate(102.654 371.649)"/><path class="b" d="M-72.127-330.875l-15.559-.095-14.489-23.949-.061-.272a7.28,7.28,0,0,1,1.2-5.879c3.908-5.793,15.543-9.038,21.8-10.043l1.7-.272.28,1.7q.453,2.743.91,5.464c2,11.972,3.894,23.281,4.16,31.55Zm-13.6-3.543,10,.06c-.45-7.866-2.194-18.3-4.034-29.292q-.311-1.864-.625-3.743c-7.243,1.414-15.284,4.55-17.786,8.258a3.948,3.948,0,0,0-.742,2.923Z" transform="translate(102.423 371.385)"/></g><g transform="translate(102.051 50.302)"><path class="c" d="M-108.784-372.121l.063,11.283c.012,1.973,2.028,3.575,4.483,3.561l24.834-.14c2.455-.014,4.454-1.639,4.442-3.613C-75.14-392.65-108.838-381.754-108.784-372.121Z" transform="translate(110.514 383.776)"/><path class="b" d="M-104.037-355.315c-3.4,0-6.166-2.363-6.183-5.282l-.063-11.284c-.033-5.834,9.065-11.611,18.367-11.664,4.462-.027,18.8,1.542,18.916,22.737.017,2.931-2.748,5.333-6.162,5.353l-24.835.141Zm-2.786-16.585.063,11.282c.006.984,1.276,1.842,2.722,1.842h.021l24.834-.141c1.455-.008,2.727-.884,2.721-1.872-.1-17.493-10.827-19.372-15.436-19.3-7.712.044-14.946,4.648-14.926,8.185Z" transform="translate(110.284 383.545)"/></g><g transform="translate(119.219 126.124)"><path class="b" d="M-78.047-310.056a1.153,1.153,0,0,1-.633-.189,37.859,37.859,0,0,0-15.668-5.267,1.155,1.155,0,0,1-1.05-1.249,1.15,1.15,0,0,1,1.249-1.05A39.505,39.505,0,0,1-77.41-312.17a1.152,1.152,0,0,1,.328,1.6A1.15,1.15,0,0,1-78.047-310.056Z" transform="translate(95.402 317.817)"/></g><g transform="translate(119.841 97.518)"><path class="c" d="M-90.914-331.138l15.25-.1a2.668,2.668,0,0,0,2.4-2.871l-.02-4.167a2.655,2.655,0,0,0-2.427-2.838l-15.25.1a2.668,2.668,0,0,0-2.4,2.87l.02,4.167A2.657,2.657,0,0,0-90.914-331.138Z" transform="translate(95.092 342.845)"/><path class="b" d="M-90.7-329.177a3.919,3.919,0,0,1-2.764-1.164,4.819,4.819,0,0,1-1.38-3.4l-.021-4.166a4.393,4.393,0,0,1,4.119-4.61l15.25-.1a4.051,4.051,0,0,1,2.789,1.163,4.821,4.821,0,0,1,1.38,3.4l.02,4.167a4.392,4.392,0,0,1-4.118,4.61l-15.25.1H-90.7Zm15.23-9.977h0l-15.25.1c-.317,0-.684.5-.682,1.132l.021,4.167a1.358,1.358,0,0,0,.352.952.807.807,0,0,0,.333.165h0l15.25-.1c.317,0,.684-.5.681-1.132l-.02-4.168a1.358,1.358,0,0,0-.352-.952A.5.5,0,0,0-75.467-339.154Z" transform="translate(94.862 342.615)"/></g><g transform="translate(25.364 137.161)"><path class="a" d="M-173.224-294.425s-1.192-4.067-.023-10.824" transform="translate(177.223 308.709)"/><path class="b" d="M-172.778-290.518a3.441,3.441,0,0,1-3.307-2.476c-.144-.495-1.378-5.049-.111-12.385a3.461,3.461,0,0,1,4-2.82,3.461,3.461,0,0,1,2.82,4,23.665,23.665,0,0,0-.058,9.292,3.474,3.474,0,0,1-2.392,4.257A3.483,3.483,0,0,1-172.778-290.518Z" transform="translate(176.762 308.249)"/></g><g transform="translate(57.21 115.359)"><path class="c" d="M-119.534-311.819l-.889,1.834a3.109,3.109,0,0,1-2.583,2.048l-6.533.037A2.969,2.969,0,0,1-132-309.645l-1.2-2.1-9.64.054a4.791,4.791,0,0,1-4.747-5.616l.734-5.822a2.311,2.311,0,0,1,2.291-2.316c11.883,3.164,24.123,2.97,36.681-.207a2.31,2.31,0,0,1,2.316,2.29l.8,5.813a4.792,4.792,0,0,1-4.683,5.67Z" transform="translate(149.386 327.38)"/><path class="b" d="M-129.321-305.938a4.645,4.645,0,0,1-3.951-2.617l-.7-1.219-8.63.048a6.422,6.422,0,0,1-5.017-2.311,6.507,6.507,0,0,1-1.444-5.333l.709-5.644a4.041,4.041,0,0,1,4.01-3.927h.232l.223.059a70.58,70.58,0,0,0,35.812-.212l.415-.053h.022a4.038,4.038,0,0,1,4.031,3.882l.788,5.716a6.46,6.46,0,0,1-1.4,5.268,6.508,6.508,0,0,1-4.991,2.368l-9.013.051-.418.864a4.8,4.8,0,0,1-4.132,3.023l-6.533.038Zm-2.643-7.309,1.7,2.976c.344.6.723.872.947.872h0l6.531-.038c.249,0,.681-.337,1.037-1.072l1.359-2.8,11.166-.063a3.054,3.054,0,0,0,2.343-1.112,3.048,3.048,0,0,0,.649-2.51l-.829-6.12a.584.584,0,0,0-.438-.554,73.957,73.957,0,0,1-36.969.212.585.585,0,0,0-.42.555v.113l-.749,5.935a3.1,3.1,0,0,0,.666,2.584,3.051,3.051,0,0,0,2.337,1.084h.018Z" transform="translate(149.156 327.149)"/></g><g transform="translate(56.237 104.918)"><path class="e" d="M-107.171-334.7H-144.9c-1.977,0-3.594,1.946-3.594,4.283v5.658c0,2.337,1.633,4.283,3.594,4.283h37.733c1.96,0,3.593-1.926,3.593-4.283v-5.658C-103.578-332.772-105.2-334.7-107.171-334.7Z" transform="translate(150.229 336.43)"/><path class="b" d="M-106.941-318.515h-37.733c-2.936,0-5.325-2.7-5.325-6.014v-5.658c0-3.315,2.389-6.014,5.325-6.014h37.733c2.935,0,5.324,2.7,5.324,6.014v5.658C-101.617-321.212-104.006-318.515-106.941-318.515Zm-37.733-14.225c-.993,0-1.864,1.193-1.864,2.553v5.658c0,1.36.871,2.553,1.864,2.553h37.733c.992,0,1.863-1.193,1.863-2.553v-5.658c0-1.384-.852-2.553-1.863-2.553Z" transform="translate(149.999 336.2)"/></g><g transform="translate(68.015 105.494)"><path class="b" d="M-138.635-320.608a1.154,1.154,0,0,1-1.154-1.154v-12.785a1.154,1.154,0,0,1,1.154-1.154,1.153,1.153,0,0,1,1.154,1.154v12.785A1.153,1.153,0,0,1-138.635-320.608Z" transform="translate(139.789 335.7)"/><g transform="translate(11.594)"><path class="b" d="M-128.584-320.608a1.154,1.154,0,0,1-1.154-1.154v-12.785a1.154,1.154,0,0,1,1.154-1.154,1.154,1.154,0,0,1,1.154,1.154v12.785A1.154,1.154,0,0,1-128.584-320.608Z" transform="translate(129.738 335.7)"/></g><g transform="translate(23.188)"><path class="b" d="M-118.534-320.608a1.154,1.154,0,0,1-1.154-1.154v-12.785a1.154,1.154,0,0,1,1.154-1.154,1.154,1.154,0,0,1,1.154,1.154v12.785A1.154,1.154,0,0,1-118.534-320.608Z" transform="translate(119.688 335.7)"/></g></g><g transform="translate(45.323 133.907)"><path class="a" d="M-159.408-308.069s4.335-.074,6.253,5.391" transform="translate(159.468 311.531)"/><path class="b" d="M-153.147-298.756a3.462,3.462,0,0,1-3.266-2.315c-.989-2.817-2.71-3.058-3.044-3.078l.057-3.46-.06-3.46c2.489-.067,7.412,1.53,9.578,7.7A3.46,3.46,0,0,1-152-298.952,3.432,3.432,0,0,1-153.147-298.756Z" transform="translate(159.46 311.07)"/></g><g transform="translate(17.688 91.03)"><path class="a" d="M-171.055-343.218c8.4,16.666,13.963,21.561,18.87,34.151,6.219,15.287-18.4,23.737-23.714,9.245-4.058-11.064-6.887-22.905-5.782-37.981C-180.879-348.735-175.14-348.477-171.055-343.218Z" transform="translate(183.646 348.469)"/><path class="b" d="M-164.658-290.375a15.487,15.487,0,0,1-2.477-.2A12.6,12.6,0,0,1-177.3-299c-3.383-9.226-7.109-21.963-5.882-38.7.54-7.357,3.2-9.673,5.344-10.32,2.681-.814,5.813.673,8.373,3.971l.179.283a192.954,192.954,0,0,0,9.8,17.076c3.433,5.467,6.4,10.188,9.14,17.226a12.683,12.683,0,0,1-1.624,13.171A16.472,16.472,0,0,1-164.658-290.375Zm-11.673-54.4a1.7,1.7,0,0,0-.5.072c-1.512.457-2.594,3.171-2.894,7.261-1.172,15.987,2.214,27.807,5.68,37.259a9.259,9.259,0,0,0,7.464,6.2,13.125,13.125,0,0,0,11.906-4.46c1.533-1.926,2.972-5.178,1.117-9.736-2.632-6.756-5.378-11.13-8.855-16.667a195.787,195.787,0,0,1-9.879-17.2C-173.659-343.769-175.174-344.778-176.331-344.778Z" transform="translate(183.416 348.239)"/></g><g transform="translate(18.272 64.966)"><path class="a" d="M-176.745-369.13c8.857,1.319,23.379,6.024,21.741,13.583l-13.583,23.038-12.791.221c.2-9.4,2.508-23,4.633-36.842Z" transform="translate(183.145 371.095)"/><path class="b" d="M-182.91-330.265l.037-1.8c.173-8.27,1.937-19.6,3.8-31.593q.424-2.724.849-5.476l.262-1.7,1.7.254c6.27.933,17.94,4.046,21.914,9.795a7.282,7.282,0,0,1,1.263,5.865l-.059.273-14.216,24.112Zm7.844-36.609q-.291,1.883-.583,3.751c-1.716,11.015-3.343,21.464-3.7,29.335l10-.174,12.937-21.94a3.945,3.945,0,0,0-.774-2.915C-159.733-362.5-167.808-365.542-175.066-366.874Z" transform="translate(182.91 370.833)"/></g><g transform="translate(19.993 50.75)"><path class="c" d="M-146.222-371.909l.063,11.282c.012,1.974-1.988,3.6-4.442,3.613l-24.834.14c-2.454.014-4.471-1.589-4.483-3.561C-180.1-392.057-146.277-381.542-146.222-371.909Z" transform="translate(181.649 383.389)"/><path class="b" d="M-175.235-354.912a6.758,6.758,0,0,1-4.2-1.412,5.012,5.012,0,0,1-1.98-3.87c-.07-12.455,4.975-18.029,9.22-20.512,6.932-4.055,15.846-2.559,21.605.724,4.006,2.283,6.313,5.306,6.331,8.294l.063,11.283c.017,2.931-2.748,5.333-6.162,5.353l-24.834.14Zm12.584-24.767a15.367,15.367,0,0,0-7.8,1.96c-4.959,2.9-7.555,8.954-7.506,17.505a1.613,1.613,0,0,0,.671,1.181,3.44,3.44,0,0,0,2.072.66l24.834-.14c1.455-.008,2.727-.884,2.721-1.872l-.063-11.283c-.009-1.668-1.766-3.7-4.584-5.306A21.62,21.62,0,0,0-162.651-379.679Z" transform="translate(181.419 383.157)"/></g><g transform="translate(23.766 60.379)"><path class="c" d="M-151.29-368.064c-9.865-2.951-18.932-5.237-25.858-5.746" transform="translate(178.301 374.964)"/><path class="b" d="M-151.135-366.757a1.141,1.141,0,0,1-.331-.048c-11.551-3.454-19.69-5.266-25.613-5.7a1.153,1.153,0,0,1-1.066-1.234,1.155,1.155,0,0,1,1.235-1.067c6.177.455,14.228,2.24,26.1,5.792a1.152,1.152,0,0,1,.774,1.435A1.153,1.153,0,0,1-151.135-366.757Z" transform="translate(178.148 374.81)"/></g><g transform="translate(109.018 60.378)"><path class="c" d="M-103.244-368.064c9.865-2.951,18.932-5.237,25.858-5.746" transform="translate(104.398 374.964)"/><path class="b" d="M-103.092-366.757a1.153,1.153,0,0,1-1.1-.824,1.153,1.153,0,0,1,.774-1.435c11.876-3.552,19.927-5.338,26.1-5.792a1.158,1.158,0,0,1,1.235,1.067,1.153,1.153,0,0,1-1.066,1.234c-5.922.435-14.061,2.247-25.613,5.7A1.135,1.135,0,0,1-103.092-366.757Z" transform="translate(104.244 374.81)"/></g><g transform="translate(47.901 50.385)"><path class="e" d="M-94.979-361.948c.179,11.229-13.276,20.468-30.051,20.636s-30.513-8.787-30.693-20.02,13.279-20.467,30.049-20.638S-95.157-373.176-94.979-361.948Z" transform="translate(157.456 383.703)"/><path class="b" d="M-125.27-339.349c-17.473,0-31.76-9.676-31.954-21.725a17.555,17.555,0,0,1,5.426-12.58c5.883-6.038,15.729-9.708,26.335-9.817l.484,0c17.478,0,31.768,9.678,31.959,21.727a17.552,17.552,0,0,1-5.425,12.581c-5.883,6.038-15.73,9.706-26.339,9.813C-124.946-339.349-125.109-339.349-125.27-339.349Zm.3-40.663-.457,0c-9.7.1-18.637,3.378-23.891,8.772a14.17,14.17,0,0,0-4.445,10.109c.165,10.262,13.2,18.477,28.944,18.317,9.71-.1,18.642-3.375,23.9-8.767a14.172,14.172,0,0,0,4.444-10.111h0C-96.641-371.853-109.38-380.012-124.97-380.012Z" transform="translate(157.226 383.473)"/></g><g transform="translate(43.198 58.617)"><path class="a" d="M-145.817-328.1a7.935,7.935,0,0,1-6.192-6.034l-7.727-34.2a5.6,5.6,0,0,1,6.243-6.392l29.63,8.632,28.312-8.7a5.6,5.6,0,0,1,6.258,6.328L-96.6-334.4a7.939,7.939,0,0,1-6.061,6.087l-21.741,4.617Z" transform="translate(161.533 376.568)"/><path class="b" d="M-124.169-321.7l-21.764-4.476a9.678,9.678,0,0,1-7.534-7.349l-7.75-34.318a7.265,7.265,0,0,1,2-6.222,7.264,7.264,0,0,1,6.172-2.147l.264.055,29.133,8.488,28.1-8.61a7.279,7.279,0,0,1,6.148,2.114,7.277,7.277,0,0,1,2.044,6.172l-.022.122L-94.68-333.8a9.691,9.691,0,0,1-7.383,7.414Zm-33.634-46.72,7.71,34.133a6.215,6.215,0,0,0,4.844,4.719l.01,0,21.058,4.332,21.387-4.542a6.218,6.218,0,0,0,4.728-4.758l7.3-34a3.834,3.834,0,0,0-1.087-3.2,3.839,3.839,0,0,0-3.111-1.132l-28.653,8.805-29.986-8.736a3.835,3.835,0,0,0-3.133,1.145A3.83,3.83,0,0,0-157.8-368.417Z" transform="translate(161.302 376.337)"/></g><g transform="translate(78.595 58.617)"><path class="c" d="M-128.575-366.091l28.312-8.7A5.6,5.6,0,0,1-94-368.461l-7.31,34.064a7.939,7.939,0,0,1-6.061,6.087l-21.741,4.617" transform="translate(130.848 376.568)"/><path class="b" d="M-128.889-321.733a1.731,1.731,0,0,1-1.691-1.372,1.731,1.731,0,0,1,1.334-2.051l21.741-4.617a6.218,6.218,0,0,0,4.728-4.758l7.3-34a3.834,3.834,0,0,0-1.087-3.2,3.833,3.833,0,0,0-3.111-1.132l-28.158,8.653A1.73,1.73,0,0,1-130-365.352a1.73,1.73,0,0,1,1.145-2.162l28.6-8.762a7.279,7.279,0,0,1,6.148,2.114,7.277,7.277,0,0,1,2.044,6.172l-.022.122L-99.392-333.8a9.691,9.691,0,0,1-7.383,7.414l-21.753,4.619A1.686,1.686,0,0,1-128.889-321.733Z" transform="translate(130.618 376.337)"/></g><path class="a" d="M-112.513-351.694a14.176,14.176,0,0,1-14,14.354,14.179,14.179,0,0,1-14.356-14,14.184,14.184,0,0,1,14-14.356A14.182,14.182,0,0,1-112.513-351.694Z" transform="translate(207.638 436.587)"/><g transform="translate(36.025 137.985)"><path class="a" d="M-159.932-296.505s-3.1-1.866-4.589-8.029" transform="translate(167.982 307.996)"/><path class="b" d="M-161.257-293.081c-.444-.266-4.386-2.824-6.166-10.178a3.46,3.46,0,0,1,2.548-4.178,3.459,3.459,0,0,1,4.178,2.549c1.081,4.463,3.03,5.884,3.112,5.943l-.1-.065Z" transform="translate(167.521 307.535)"/></g><g transform="translate(29.81 139.091)"><path class="a" d="M-165.09-293.911s-5.17-3.4-4.8-9.663" transform="translate(173.369 307.037)"/><path class="b" d="M-164.646-289.992a3.416,3.416,0,0,1-1.883-.565c-.279-.183-6.837-4.588-6.354-12.761a3.452,3.452,0,0,1,3.659-3.25,3.459,3.459,0,0,1,3.25,3.659,7.909,7.909,0,0,0,3.273,6.585,3.477,3.477,0,0,1,.93,4.793A3.459,3.459,0,0,1-164.646-289.992Z" transform="translate(172.908 306.576)"/></g><g transform="translate(42.931 0.048)"><g transform="translate(56.161 20.579)"><path class="c" d="M-96.255-400.518a7.8,7.8,0,0,1-7.753,7.841,7.8,7.8,0,0,1-7.841-7.752,7.8,7.8,0,0,1,7.752-7.841A7.8,7.8,0,0,1-96.255-400.518Z" transform="translate(113.003 409.423)"/><path class="b" d="M-103.9-391.37a8.89,8.89,0,0,1-6.293-2.585,8.886,8.886,0,0,1-2.657-6.313,8.96,8.96,0,0,1,8.9-9h.052a8.961,8.961,0,0,1,8.949,8.9h0a8.891,8.891,0,0,1-2.586,6.343,8.887,8.887,0,0,1-6.315,2.657Zm0-15.593h-.039a6.607,6.607,0,0,0-4.687,1.971,6.6,6.6,0,0,0-1.918,4.709,6.6,6.6,0,0,0,1.973,4.687,6.6,6.6,0,0,0,4.67,1.918h.038a6.6,6.6,0,0,0,4.687-1.971,6.6,6.6,0,0,0,1.92-4.709h0a6.6,6.6,0,0,0-1.973-4.687A6.6,6.6,0,0,0-103.9-406.963Z" transform="translate(112.849 409.27)"/><g transform="translate(4.635 4.733)"><path class="d" d="M-100.854-400.948a3.738,3.738,0,0,1-3.718,3.759,3.739,3.739,0,0,1-3.759-3.718,3.739,3.739,0,0,1,3.718-3.759A3.739,3.739,0,0,1-100.854-400.948Z" transform="translate(108.908 405.244)"/><path class="b" d="M-104.516-396.535a4.287,4.287,0,0,1-3.034-1.246,4.289,4.289,0,0,1-1.282-3.045,4.287,4.287,0,0,1,1.247-3.059,4.287,4.287,0,0,1,3.044-1.28,4.2,4.2,0,0,1,3.059,1.246,4.29,4.29,0,0,1,1.28,3.045h0a4.284,4.284,0,0,1-1.246,3.058,4.289,4.289,0,0,1-3.044,1.282Zm0-7.477h-.018a3.142,3.142,0,0,0-2.231.938,3.138,3.138,0,0,0-.914,2.241,3.137,3.137,0,0,0,.939,2.231,3.136,3.136,0,0,0,2.223.914h.018a3.136,3.136,0,0,0,2.23-.939,3.134,3.134,0,0,0,.914-2.24h0a3.142,3.142,0,0,0-.938-2.231A3.142,3.142,0,0,0-104.514-404.012Z" transform="translate(108.831 405.167)"/></g></g><g transform="translate(0 20.896)"><path class="c" d="M-144.94-400.243a7.8,7.8,0,0,1-7.753,7.841,7.8,7.8,0,0,1-7.841-7.752,7.8,7.8,0,0,1,7.753-7.841A7.8,7.8,0,0,1-144.94-400.243Z" transform="translate(161.688 409.149)"/><path class="b" d="M-152.585-391.1a8.959,8.959,0,0,1-8.949-8.9,8.96,8.96,0,0,1,8.9-9h.053a8.892,8.892,0,0,1,6.292,2.585,8.9,8.9,0,0,1,2.657,6.315,8.893,8.893,0,0,1-2.586,6.343,8.886,8.886,0,0,1-6.313,2.657Zm0-15.593h-.039a6.65,6.65,0,0,0-6.606,6.68,6.651,6.651,0,0,0,6.642,6.605h.038a6.59,6.59,0,0,0,4.687-1.973,6.594,6.594,0,0,0,1.92-4.708,6.6,6.6,0,0,0-1.973-4.687A6.6,6.6,0,0,0-152.581-406.688Z" transform="translate(161.534 408.995)"/><g transform="translate(4.635 4.734)"><path class="d" d="M-149.537-400.673a3.739,3.739,0,0,1-3.718,3.759,3.74,3.74,0,0,1-3.761-3.718,3.739,3.739,0,0,1,3.718-3.759A3.738,3.738,0,0,1-149.537-400.673Z" transform="translate(157.593 404.968)"/><path class="b" d="M-153.2-396.26a4.282,4.282,0,0,1-3.033-1.247,4.293,4.293,0,0,1-1.282-3.044,4.285,4.285,0,0,1,1.247-3.059,4.285,4.285,0,0,1,3.044-1.28h.025a4.321,4.321,0,0,1,4.315,4.29,4.285,4.285,0,0,1-1.247,3.059,4.291,4.291,0,0,1-3.045,1.282Zm0-7.477h-.018a3.143,3.143,0,0,0-2.231.938,3.143,3.143,0,0,0-.914,2.241,3.183,3.183,0,0,0,3.18,3.145,3.167,3.167,0,0,0,3.145-3.18A3.166,3.166,0,0,0-153.2-403.737Z" transform="translate(157.516 404.891)"/></g></g><g transform="translate(9.067 5.596)"><path class="a" d="M-99.574-396.963c-.074-13.129-11.911-23.878-26.435-23.8s-26.246,9.988-26.166,24.092c.054,9.442,4.467,20.028,6.372,23.955.9,1.857,20.723,5.591,20.723,5.591s18.489-4,19.354-5.926C-103.867-377.187-99.524-388.1-99.574-396.963Z" transform="translate(153.905 422.489)"/><path class="b" d="M-124.826-365.125l-.344-.065c-20.679-3.894-21.576-5.746-21.96-6.536-1.082-2.231-6.484-13.905-6.544-24.7a24.461,24.461,0,0,1,8.18-18.6,29.583,29.583,0,0,1,19.705-7.231h.176c15.376,0,27.92,11.412,28,25.516h0c.055,9.712-4.812,21.312-6.3,24.637-.335.744-1.224,2.722-20.566,6.908Zm-19.309-8.361c1.7,1.054,11.1,3.281,19.262,4.83,7.589-1.655,16.334-4.013,17.9-5.1,1.211-2.733,5.948-14,5.9-22.966h0c-.069-12.2-11.064-22.075-24.539-22.075h-.157a26.13,26.13,0,0,0-17.413,6.346,21.043,21.043,0,0,0-7.031,16.007C-150.159-386.666-145.149-375.623-144.135-373.486Zm-.126-.086,37.4-.269Z" transform="translate(153.674 422.259)"/></g><g transform="translate(35.232 5.596)"><path class="c" d="M-128.563-367.121s18.489-4,19.354-5.926c1.858-4.14,6.2-15.054,6.152-23.917-.074-13.129-11.911-23.878-26.435-23.8" transform="translate(131.222 422.489)"/><path class="b" d="M-128.334-365.16a1.731,1.731,0,0,1-1.69-1.365,1.731,1.731,0,0,1,1.325-2.058c7.668-1.659,16.653-4.07,18.245-5.175,1.211-2.733,5.948-14,5.9-22.966-.069-12.2-11.064-22.075-24.539-22.075-.057,0-.108,0-.166,0a1.731,1.731,0,0,1-1.73-1.721,1.73,1.73,0,0,1,1.72-1.74h.176c15.376,0,27.92,11.412,28,25.516.055,9.712-4.812,21.312-6.3,24.637-.335.744-1.224,2.722-20.566,6.908A1.75,1.75,0,0,1-128.334-365.16Zm17.99-8.682Z" transform="translate(130.992 422.259)"/></g><g transform="translate(13.926 17.969)"><path class="e" d="M-114.6-410.533l-23.485.133a10.452,10.452,0,0,0-10.362,9.778,10.363,10.363,0,0,0,8.14,10.855,2.553,2.553,0,0,1,2,2.521h0c.809,6.265,6.147,11.079,11.988,11.045s10.7-4.9,11.434-11.177v-.063a2.55,2.55,0,0,1,2-2.461,10.377,10.377,0,0,0,8.339-8.762A10.313,10.313,0,0,0-114.6-410.533Z" transform="translate(149.615 411.687)"/><path class="b" d="M-126.226-374.895c-6.463,0-12.2-5.28-13.072-12.051l-.009-.147a1.392,1.392,0,0,0-1.072-1.39,11.56,11.56,0,0,1-9.064-12.052A11.58,11.58,0,0,1-137.936-411.4l23.487-.133h.06a11.128,11.128,0,0,1,8.333,3.8,11.822,11.822,0,0,1,2.812,9.375,11.5,11.5,0,0,1-9.26,9.744,1.4,1.4,0,0,0-1.074,1.359l-.009.168c-.814,6.917-6.219,12.16-12.573,12.2ZM-137-387.177c.756,5.609,5.47,9.975,10.774,9.975h.054c5.191-.029,9.617-4.4,10.3-10.158a3.7,3.7,0,0,1,2.931-3.522,9.189,9.189,0,0,0,7.415-7.778,9.522,9.522,0,0,0-2.254-7.55,8.825,8.825,0,0,0-6.6-3.015h-.047l-23.485.133a9.269,9.269,0,0,0-9.217,8.69,9.244,9.244,0,0,0,7.214,9.659A3.7,3.7,0,0,1-137-387.177Z" transform="translate(149.462 411.533)"/></g><g transform="translate(33.783 33.671)"><path class="b" d="M-131.037-397.9a1.218,1.218,0,0,0-1.211,1.225,1.219,1.219,0,0,0,1.225,1.211,1.219,1.219,0,0,0,1.211-1.225A1.219,1.219,0,0,0-131.037-397.9Z" transform="translate(132.248 397.925)"/><path class="b" d="M-127.671-397.921a1.219,1.219,0,0,0-1.211,1.225,1.219,1.219,0,0,0,1.225,1.211,1.219,1.219,0,0,0,1.211-1.225A1.219,1.219,0,0,0-127.671-397.921Z" transform="translate(132.765 397.921)"/></g><g transform="translate(20.049 22.957)"><path class="a" d="M-131.475-400.637a6.073,6.073,0,0,1-6.039,6.107,6.073,6.073,0,0,1-6.108-6.039,6.074,6.074,0,0,1,6.039-6.107A6.073,6.073,0,0,1-131.475-400.637Z" transform="translate(144.236 407.291)"/><path class="b" d="M-137.469-393.833a6.641,6.641,0,0,1-4.7-1.932,6.636,6.636,0,0,1-1.985-4.718,6.644,6.644,0,0,1,1.931-4.739,6.642,6.642,0,0,1,4.718-1.986h.038a6.694,6.694,0,0,1,6.687,6.65,6.643,6.643,0,0,1-1.932,4.74,6.643,6.643,0,0,1-4.717,1.985Zm0-12.147h-.031a5.428,5.428,0,0,0-3.851,1.622,5.421,5.421,0,0,0-1.577,3.869,5.419,5.419,0,0,0,1.621,3.849,5.466,5.466,0,0,0,3.869,1.578,5.465,5.465,0,0,0,5.428-5.49h0A5.466,5.466,0,0,0-137.467-405.98Z" transform="translate(144.154 407.209)"/><path class="b" d="M-136.119-401.16a1.975,1.975,0,0,1-1.963,1.985,1.974,1.974,0,0,1-1.986-1.963,1.975,1.975,0,0,1,1.963-1.985A1.976,1.976,0,0,1-136.119-401.16Z" transform="translate(144.781 407.836)"/></g><g transform="translate(40.742 22.852)"><path class="a" d="M-113.537-400.729a6.073,6.073,0,0,1-6.039,6.108,6.074,6.074,0,0,1-6.108-6.039,6.075,6.075,0,0,1,6.04-6.108A6.074,6.074,0,0,1-113.537-400.729Z" transform="translate(126.298 407.382)"/><path class="b" d="M-119.53-393.924a6.642,6.642,0,0,1-4.7-1.932,6.643,6.643,0,0,1-1.985-4.718,6.7,6.7,0,0,1,6.65-6.725h.037a6.7,6.7,0,0,1,6.688,6.65,6.643,6.643,0,0,1-1.932,4.74,6.646,6.646,0,0,1-4.718,1.985Zm0-12.147h-.03a5.466,5.466,0,0,0-5.429,5.49,5.465,5.465,0,0,0,5.459,5.428h.031a5.464,5.464,0,0,0,5.428-5.489A5.465,5.465,0,0,0-119.529-406.071Z" transform="translate(126.216 407.3)"/><path class="b" d="M-118.181-401.251a1.975,1.975,0,0,1-1.963,1.985,1.975,1.975,0,0,1-1.985-1.963,1.973,1.973,0,0,1,1.963-1.985A1.973,1.973,0,0,1-118.181-401.251Z" transform="translate(126.844 407.927)"/></g><g transform="translate(25.337)"><path class="a" d="M-120.3-425.214a61.794,61.794,0,0,0-7.745-.392,61.648,61.648,0,0,0-6.9.475c-1.975.247-3.573,1.936-3.013,3.171l2.637,5.824a3.61,3.61,0,0,0,3.31,2.121l3.968-.023,4.159-.023a3.611,3.611,0,0,0,3.285-2.158l2.571-5.854C-117.48-423.314-118.318-424.989-120.3-425.214Z" transform="translate(139.8 427.34)"/><path class="b" d="M-131.8-412.054a5.345,5.345,0,0,1-4.865-3.139l-2.637-5.823a3.219,3.219,0,0,1,.2-2.951,5.671,5.671,0,0,1,4.174-2.652,63.733,63.733,0,0,1,7.1-.488,65.312,65.312,0,0,1,7.962.4h0a4.465,4.465,0,0,1,3.447,2.146,3.8,3.8,0,0,1,.212,3.41l-2.57,5.854a5.348,5.348,0,0,1-4.861,3.193l-8.127.046Zm-4.277-10.234,2.566,5.669a1.882,1.882,0,0,0,1.712,1.105h.012l8.128-.046a1.88,1.88,0,0,0,1.711-1.125l2.57-5.853a.341.341,0,0,0-.044-.293,1.071,1.071,0,0,0-.837-.434,59.211,59.211,0,0,0-7.528-.381,60.38,60.38,0,0,0-6.708.461A2.268,2.268,0,0,0-136.077-422.288Z" transform="translate(139.57 427.11)"/></g><g transform="translate(22.603 22.196)"><line class="a" y1="0.026" x2="4.584" transform="translate(1.731 1.732)"/><path class="b" d="M-140.21-404.38a1.731,1.731,0,0,1-1.73-1.721,1.731,1.731,0,0,1,1.721-1.74l4.583-.027a1.7,1.7,0,0,1,1.741,1.721,1.732,1.732,0,0,1-1.721,1.74l-4.583.027Z" transform="translate(141.94 407.868)"/></g><g transform="translate(43.395 22.092)"><line class="a" y1="0.026" x2="4.584" transform="translate(1.731 1.731)"/><path class="b" d="M-122.186-404.472a1.731,1.731,0,0,1-1.73-1.721,1.73,1.73,0,0,1,1.721-1.74l4.584-.027h.009a1.731,1.731,0,0,1,1.73,1.721,1.73,1.73,0,0,1-1.721,1.74l-4.583.027Z" transform="translate(123.916 407.959)"/></g><g transform="translate(30.56 38.396)"><path class="a" d="M-134.042-392.764a18.4,18.4,0,0,0,10.86-.061" transform="translate(135.196 393.978)"/><path class="b" d="M-128.56-390.67a19.835,19.835,0,0,1-5.655-.834,1.154,1.154,0,0,1-.78-1.433,1.158,1.158,0,0,1,1.434-.78,17.364,17.364,0,0,0,10.193-.058,1.156,1.156,0,0,1,1.442.764,1.153,1.153,0,0,1-.764,1.442A19.905,19.905,0,0,1-128.56-390.67Z" transform="translate(135.042 393.825)"/></g></g><g transform="translate(70.03 74.138)"><path class="b" d="M-127.131-341.052a10.928,10.928,0,0,1-10.91-10.779,10.927,10.927,0,0,1,10.778-11.05h.138A10.929,10.929,0,0,1-116.213-352.1h0a10.839,10.839,0,0,1-3.1,7.758,10.834,10.834,0,0,1-7.678,3.291Zm0-19.523h-.108a8.617,8.617,0,0,0-8.5,8.714,8.623,8.623,0,0,0,8.714,8.5,8.547,8.547,0,0,0,6.056-2.6,8.544,8.544,0,0,0,2.444-6.116h0A8.619,8.619,0,0,0-127.127-360.575Z" transform="translate(138.043 362.882)"/></g><g transform="translate(76.496 80.222)"><path class="f" d="M-127.864-348.514a4.554,4.554,0,0,0,4.521-4.573,4.555,4.555,0,0,0-4.573-4.521,4.555,4.555,0,0,0-4.521,4.573A4.555,4.555,0,0,0-127.864-348.514Z" transform="translate(132.437 357.608)"/><g transform="translate(3.718 1.606)"><path class="g" d="M-126.1-352.338a.816.816,0,0,1-.817-.807,1.448,1.448,0,0,0-.438-1.022,1.441,1.441,0,0,0-1.035-.414.834.834,0,0,1-.827-.807.818.818,0,0,1,.807-.827,3.157,3.157,0,0,1,2.2.878,3.072,3.072,0,0,1,.931,2.174.816.816,0,0,1-.809.826Z" transform="translate(129.214 356.216)"/></g></g><g transform="translate(16.28 98.209)"><path class="c" d="M-165.439-330.64l-15.25.1a2.656,2.656,0,0,1-2.428-2.838l-.02-4.168a2.669,2.669,0,0,1,2.4-2.87l15.25-.1a2.655,2.655,0,0,1,2.427,2.838l.021,4.167A2.67,2.67,0,0,1-165.439-330.64Z" transform="translate(184.867 342.246)"/><path class="b" d="M-180.471-328.578a3.922,3.922,0,0,1-2.765-1.164,4.822,4.822,0,0,1-1.381-3.4l-.02-4.167a4.394,4.394,0,0,1,4.121-4.61l15.249-.1a3.976,3.976,0,0,1,2.788,1.163,4.813,4.813,0,0,1,1.381,3.4l.021,4.167a4.394,4.394,0,0,1-4.119,4.61l-15.25.1Zm15.262-1.832h0Zm-.032-8.145h0l-15.25.1c-.317,0-.684.5-.682,1.133l.02,4.166a1.369,1.369,0,0,0,.353.953.5.5,0,0,0,.332.164h0l15.248-.1c.318,0,.685-.5.683-1.133l-.021-4.165a1.365,1.365,0,0,0-.353-.954A.5.5,0,0,0-165.242-338.555Z" transform="translate(184.637 342.016)"/></g><g transform="translate(51.224 42.543)"><path class="a" d="M-144.194-383.146l-6.579.037a2.011,2.011,0,0,1-1.956-1.5l-.549-2.1a2.01,2.01,0,0,1,1.933-2.518l7.116-.04a3.063,3.063,0,0,1,3.08,3.045h0A3.062,3.062,0,0,1-144.194-383.146Z" transform="translate(154.498 390.425)"/><path class="b" d="M-150.631-381.8a3.162,3.162,0,0,1-3.06-2.363l-.549-2.1a3.144,3.144,0,0,1,.55-2.727,3.149,3.149,0,0,1,2.493-1.237l7.116-.04a4.083,4.083,0,0,1,2.988,1.218,4.186,4.186,0,0,1,1.252,2.974,4.221,4.221,0,0,1-4.192,4.239h0l-6.579.037Zm6.59-1.19h0Zm-.016-4.971h-.012l-7.116.04a.851.851,0,0,0-.675.335.842.842,0,0,0-.149.738l.549,2.1a.873.873,0,0,0,.834.639l6.578-.037a1.9,1.9,0,0,0,1.347-.566,1.9,1.9,0,0,0,.551-1.353,1.9,1.9,0,0,0-.566-1.346A1.894,1.894,0,0,0-144.056-387.963Z" transform="translate(154.345 390.271)"/></g><g transform="translate(94.556 42.228)"><path class="a" d="M-112.7-383.379l6.579-.037a2.01,2.01,0,0,0,1.939-1.524l.525-2.108a2.01,2.01,0,0,0-1.961-2.5l-7.116.04a3.064,3.064,0,0,0-3.045,3.08h0A3.061,3.061,0,0,0-112.7-383.379Z" transform="translate(116.935 390.698)"/><path class="b" d="M-112.566-382.072a4.187,4.187,0,0,1-2.964-1.218,4.183,4.183,0,0,1-1.252-2.973,4.193,4.193,0,0,1,1.218-2.989,4.186,4.186,0,0,1,2.974-1.252l7.116-.04a3.23,3.23,0,0,1,2.506,1.209,3.145,3.145,0,0,1,.583,2.72l-.526,2.108a3.163,3.163,0,0,1-3.051,2.4l-6.58.037Zm7.112-6.165h-.006l-7.115.04a1.9,1.9,0,0,0-1.347.566,1.9,1.9,0,0,0-.551,1.353,1.911,1.911,0,0,0,1.908,1.9h.012l6.579-.037a.856.856,0,0,0,.827-.649l.525-2.108a.849.849,0,0,0-.158-.736A.842.842,0,0,0-105.454-388.237Z" transform="translate(116.781 390.544)"/></g><g transform="translate(63.421 45.536)"><line class="a" y1="0.054" x2="13.417" transform="translate(1.153 1.154)"/><path class="b" d="M-142.618-385.317a1.154,1.154,0,0,1-1.154-1.149,1.155,1.155,0,0,1,1.149-1.158l13.416-.053a1.145,1.145,0,0,1,1.158,1.149,1.153,1.153,0,0,1-1.149,1.158l-13.416.053Z" transform="translate(143.772 387.677)"/></g><path class="h" d="M-126.959-386.191a3.734,3.734,0,0,1-3.714,3.757,3.735,3.735,0,0,1-3.757-3.714,3.736,3.736,0,0,1,3.714-3.757A3.736,3.736,0,0,1-126.959-386.191Z" transform="translate(208.627 432.871)"/><g transform="translate(97.318 77.448)"><path class="b" d="M-113.161-344.807a1.153,1.153,0,0,1-1.154-1.147,1.153,1.153,0,0,1,1.147-1.16l11.1-.063h.007a1.153,1.153,0,0,1,1.154,1.147,1.153,1.153,0,0,1-1.147,1.161l-11.1.063Zm1.545-6.51a1.153,1.153,0,0,1-1.154-1.147,1.153,1.153,0,0,1,1.147-1.161l9.524-.053a1.181,1.181,0,0,1,1.159,1.147,1.153,1.153,0,0,1-1.147,1.16l-9.523.053Zm-1.617-6.316a1.153,1.153,0,0,1-1.154-1.147,1.154,1.154,0,0,1,1.147-1.161l12.854-.073a1.139,1.139,0,0,1,1.16,1.147,1.153,1.153,0,0,1-1.147,1.16l-12.854.073Z" transform="translate(114.387 360.013)"/></g><g transform="translate(47.802 77.728)"><path class="b" d="M-154.336-344.574a1.154,1.154,0,0,1-1.154-1.147,1.153,1.153,0,0,1,1.148-1.16l11.1-.063h.007a1.153,1.153,0,0,1,1.154,1.147,1.154,1.154,0,0,1-1.147,1.16l-11.105.063Zm-.036-6.5a1.153,1.153,0,0,1-1.154-1.147,1.154,1.154,0,0,1,1.147-1.16l9.523-.054h.007a1.153,1.153,0,0,1,1.154,1.147,1.154,1.154,0,0,1-1.147,1.161l-9.523.054Zm-1.786-6.316a1.154,1.154,0,0,1-1.154-1.147,1.154,1.154,0,0,1,1.147-1.16l12.855-.073h.006a1.153,1.153,0,0,1,1.154,1.147,1.153,1.153,0,0,1-1.147,1.16l-12.854.073Z" transform="translate(157.311 359.77)"/></g><g transform="translate(113.184 159.722)"><g transform="translate(4.449)"><path class="i" d="M-95.539-271.73a1.154,1.154,0,0,1-1.154-1.148l-.083-14.57a1.154,1.154,0,0,1,1.148-1.16l14.569-.083h.007a1.154,1.154,0,0,1,1.154,1.148l.083,14.569a1.153,1.153,0,0,1-1.148,1.16l-14.569.083Zm1.077-14.578.069,12.264,12.264-.069-.069-12.264Z" transform="translate(96.776 288.691)"/></g><g transform="translate(0 0.18)"><path class="i" d="M-99.4-266.978a1.154,1.154,0,0,1-1.154-1.147l-.082-14.571a1.153,1.153,0,0,1,.308-.79l4.334-4.679a1.154,1.154,0,0,1,1.631-.062,1.153,1.153,0,0,1,.061,1.63l-4.025,4.344.073,12.96,12.916-.073,3.889-4.211a1.152,1.152,0,0,1,1.63-.065,1.154,1.154,0,0,1,.066,1.63l-4.229,4.578a1.154,1.154,0,0,1-.841.371l-14.571.082Z" transform="translate(100.633 288.535)"/></g><g transform="translate(0.347 14.85)"><path class="i" d="M-99.178-268.932a1.152,1.152,0,0,1-.782-.306,1.154,1.154,0,0,1-.066-1.63l4.228-4.58a1.155,1.155,0,0,1,1.631-.065,1.154,1.154,0,0,1,.065,1.63l-4.228,4.579A1.149,1.149,0,0,1-99.178-268.932Z" transform="translate(100.332 275.818)"/></g></g><g transform="translate(15.777 20.649)"><path class="j" d="M-184.187-395.173a.818.818,0,0,1-.574-.237.815.815,0,0,1-.242-.577l-.069-12.373a.817.817,0,0,1,.812-.823l12.373-.069h0a.819.819,0,0,1,.574.235.817.817,0,0,1,.242.577l.07,12.374a.817.817,0,0,1-.813.821l-12.373.07Zm.753-12.378.06,10.739,10.739-.061-.061-10.738Z" transform="translate(185.073 409.251)"/><g transform="translate(0.151 0.189)"><path class="j" d="M-180.15-391.42a.819.819,0,0,1-.556-.217l-3.973-3.681a.816.816,0,0,1-.045-1.155.816.816,0,0,1,1.155-.045l3.738,3.461,11.232-.063-.063-11.2-3.628-3.35a.817.817,0,0,1-.045-1.155.818.818,0,0,1,1.155-.046l3.889,3.591a.817.817,0,0,1,.263.6l.069,12.373a.817.817,0,0,1-.813.821l-12.372.07Z" transform="translate(184.942 409.088)"/></g><g transform="translate(12.609 12.337)"><path class="j" d="M-169.438-393.332a.818.818,0,0,1-.555-.217l-3.887-3.591a.818.818,0,0,1-.046-1.155.82.82,0,0,1,1.156-.046l3.888,3.591a.817.817,0,0,1,.046,1.155A.817.817,0,0,1-169.438-393.332Z" transform="translate(174.143 398.556)"/></g></g><g transform="translate(9.372 143.191)"><path class="k" d="M-184.271-290.454a.818.818,0,0,1-.818-.807,4.658,4.658,0,0,0-4.653-4.593.619.619,0,0,0-.066,0,.818.818,0,0,1-.818-.808v-.01a.817.817,0,0,1,.809-.817,4.621,4.621,0,0,0,3.273-1.4,4.611,4.611,0,0,0,1.321-3.3v-.01a.818.818,0,0,1,.807-.818h.009a.817.817,0,0,1,.818.808,4.657,4.657,0,0,0,4.651,4.59c.022,0,.043,0,.067,0a.815.815,0,0,1,.817.806v.012a.817.817,0,0,1-.806.817,4.656,4.656,0,0,0-4.593,4.709v.01a.816.816,0,0,1-.807.817Zm-2.435-6.253a6.327,6.327,0,0,1,2.4,2.338,6.348,6.348,0,0,1,2.342-2.4,6.319,6.319,0,0,1-2.4-2.337,6.316,6.316,0,0,1-1.009,1.355A6.363,6.363,0,0,1-186.706-296.707Z" transform="translate(190.626 303.022)"/></g><g transform="translate(107.132)"><path class="k" d="M-99.361-414.2a.818.818,0,0,1-.818-.812,4.851,4.851,0,0,0-4.846-4.812c-.013,0-.025,0-.037,0a.817.817,0,0,1-.817-.812v0a.817.817,0,0,1,.812-.818,4.812,4.812,0,0,0,3.417-1.442,4.8,4.8,0,0,0,1.395-3.43v-.006a.817.817,0,0,1,.812-.817.782.782,0,0,1,.822.811,4.851,4.851,0,0,0,4.845,4.808h.036a.816.816,0,0,1,.817.812v0a.818.818,0,0,1-.812.818,4.8,4.8,0,0,0-3.413,1.441,4.817,4.817,0,0,0-1.4,3.435v.006a.816.816,0,0,1-.812.817Zm-2.548-6.459a6.511,6.511,0,0,1,2.524,2.489,6.511,6.511,0,0,1,1.073-1.437,6.48,6.48,0,0,1,1.421-1.091,6.547,6.547,0,0,1-2.523-2.489,6.491,6.491,0,0,1-1.072,1.436A6.506,6.506,0,0,1-101.91-420.658Z" transform="translate(105.879 427.151)"/></g><path class="l" d="M-90.972-395.335l4.951-.029a1.073,1.073,0,0,1,1.075,1.064h0a1.073,1.073,0,0,1-1.062,1.075l-4.952.028a1.072,1.072,0,0,1-1.075-1.062h0a1.072,1.072,0,0,1,1.064-1.075Zm12.792,7.724.028,4.952a1.073,1.073,0,0,1-1.064,1.075h0a1.072,1.072,0,0,1-1.075-1.064l-.028-4.951a1.073,1.073,0,0,1,1.064-1.076h0a1.075,1.075,0,0,1,1.075,1.064Zm-.052-9.2.008,1.406,1.406-.008a1.072,1.072,0,0,1,1.075,1.064h0a1.071,1.071,0,0,1-1.062,1.075l-1.407.008.008,1.407a1.072,1.072,0,0,1-1.064,1.075h0a1.072,1.072,0,0,1-1.075-1.064l-.008-1.407-1.406.008a1.071,1.071,0,0,1-1.075-1.062h0a1.072,1.072,0,0,1,1.064-1.075l1.406-.008-.008-1.407a1.073,1.073,0,0,1,1.064-1.075h0a1.073,1.073,0,0,1,1.075,1.064Zm-.052-9.2.028,4.951a1.073,1.073,0,0,1-1.064,1.076h0a1.072,1.072,0,0,1-1.075-1.064l-.028-4.952a1.073,1.073,0,0,1,1.064-1.075h0a1.073,1.073,0,0,1,1.075,1.064Zm5.718,10.578,4.952-.029A1.071,1.071,0,0,1-66.54-394.4h0a1.072,1.072,0,0,1-1.062,1.075l-4.952.028a1.072,1.072,0,0,1-1.075-1.062h0A1.072,1.072,0,0,1-72.566-395.439Z" transform="translate(215.137 430.233)"/><path class="l" d="M-186.269-372.891l.012,2.01,2.01-.012a.926.926,0,0,1,.93.919h0a.93.93,0,0,1-.919.93l-2.009.012.012,2.01a.931.931,0,0,1-.919.93h0a.925.925,0,0,1-.93-.919l-.012-2.01-2.009.012a.931.931,0,0,1-.93-.919h0a.926.926,0,0,1,.919-.93l2.01-.012-.012-2.009a.927.927,0,0,1,.919-.93h0A.93.93,0,0,1-186.269-372.891Z" transform="translate(199.935 435.342)"/><path class="l" d="M-61.832-350.316l.017,3.185,3.186-.017a1.47,1.47,0,0,1,1.474,1.457h0a1.476,1.476,0,0,1-1.457,1.474l-3.186.018.017,3.185a1.475,1.475,0,0,1-1.457,1.474h0A1.469,1.469,0,0,1-64.711-341l-.018-3.186-3.185.018a1.476,1.476,0,0,1-1.474-1.458h0a1.47,1.47,0,0,1,1.458-1.474l3.185-.017-.017-3.186a1.469,1.469,0,0,1,1.457-1.473h0A1.476,1.476,0,0,1-61.832-350.316Z" transform="translate(218.615 438.726)"/><path class="l" d="M-69.993-304.059l.012,2.01,2.011-.012a.928.928,0,0,1,.93.919h0a.932.932,0,0,1-.919.93l-2.011.012.012,2.01a.932.932,0,0,1-.919.93h0a.927.927,0,0,1-.93-.919l-.012-2.009-2.01.012a.932.932,0,0,1-.93-.919h0a.928.928,0,0,1,.919-.931l2.01-.01-.012-2.009a.927.927,0,0,1,.919-.93h0A.93.93,0,0,1-69.993-304.059Z" transform="translate(217.79 445.912)"/><g transform="translate(78.298 0.048)"><path class="c" d="M-129.375-414.037l4.159-.023a3.611,3.611,0,0,0,3.285-2.158l2.571-5.854c.544-1.241-.293-2.916-2.27-3.141a61.794,61.794,0,0,0-7.745-.392" transform="translate(131.105 427.34)"/><path class="b" d="M-129.145-412.077a1.73,1.73,0,0,1-1.73-1.72,1.731,1.731,0,0,1,1.721-1.741l4.159-.023a1.88,1.88,0,0,0,1.711-1.125l2.57-5.853a.341.341,0,0,0-.044-.293,1.071,1.071,0,0,0-.837-.434,59.211,59.211,0,0,0-7.528-.381,1.743,1.743,0,0,1-1.751-1.71,1.73,1.73,0,0,1,1.708-1.751,65.312,65.312,0,0,1,7.962.4,4.465,4.465,0,0,1,3.447,2.146,3.8,3.8,0,0,1,.212,3.41l-2.57,5.854a5.348,5.348,0,0,1-4.861,3.193l-4.159.023Z" transform="translate(130.875 427.11)"/></g><g transform="translate(59.739 156.8)"><path class="b" d="M-145.809-285.437a1.153,1.153,0,0,1-1.022-.617,1.153,1.153,0,0,1,.486-1.557,10.231,10.231,0,0,1,7.848-.927c2.095.445,3.359.714,5.777-2.26a1.153,1.153,0,0,1,1.623-.167,1.154,1.154,0,0,1,.167,1.623c-3.307,4.067-5.717,3.555-8.047,3.062a8.049,8.049,0,0,0-6.3.713A1.144,1.144,0,0,1-145.809-285.437Z" transform="translate(146.964 291.225)"/></g><g transform="translate(114.531 137.984)"><path class="a" d="M-97.829-296.505s3.1-1.866,4.589-8.029" transform="translate(99.716 307.996)"/><path class="b" d="M-95.792-293.081l-3.573-5.928-.1.065c.082-.059,2.031-1.48,3.112-5.943a3.459,3.459,0,0,1,4.178-2.549,3.46,3.46,0,0,1,2.548,4.178C-91.406-295.9-95.348-293.347-95.792-293.081Z" transform="translate(99.465 307.535)"/></g><g transform="translate(118.943 139.091)"><path class="a" d="M-92.641-293.911s5.17-3.4,4.8-9.663" transform="translate(96.102 307.037)"/><path class="b" d="M-92.177-289.989a3.46,3.46,0,0,1-2.9-1.561,3.463,3.463,0,0,1,.969-4.777,7.9,7.9,0,0,0,3.269-6.582,3.46,3.46,0,0,1,3.25-3.659,3.464,3.464,0,0,1,3.659,3.25c.483,8.173-6.075,12.577-6.354,12.761A3.449,3.449,0,0,1-92.177-289.989Z" transform="translate(95.641 306.576)"/></g><g transform="translate(22.129 126.124)"><path class="b" d="M-178.411-310.056a1.154,1.154,0,0,1-.966-.518,1.153,1.153,0,0,1,.329-1.6,39.5,39.5,0,0,1,16.738-5.641,1.146,1.146,0,0,1,1.248,1.05,1.153,1.153,0,0,1-1.049,1.249,37.859,37.859,0,0,0-15.668,5.267A1.156,1.156,0,0,1-178.411-310.056Z" transform="translate(179.567 317.817)"/></g><g transform="translate(120.641 121.407)"><path class="b" d="M-76.814-314.146a1.15,1.15,0,0,1-.633-.189A37.859,37.859,0,0,0-93.115-319.6a1.154,1.154,0,0,1-1.05-1.249,1.149,1.149,0,0,1,1.249-1.049,39.518,39.518,0,0,1,16.738,5.639,1.152,1.152,0,0,1,.328,1.6A1.152,1.152,0,0,1-76.814-314.146Z" transform="translate(94.169 321.906)"/></g><g transform="translate(21.247 121.407)"><path class="b" d="M-179.176-314.146a1.155,1.155,0,0,1-.966-.519,1.153,1.153,0,0,1,.329-1.6,39.51,39.51,0,0,1,16.738-5.639,1.144,1.144,0,0,1,1.248,1.049,1.153,1.153,0,0,1-1.049,1.249,37.859,37.859,0,0,0-15.668,5.267A1.156,1.156,0,0,1-179.176-314.146Z" transform="translate(180.332 321.906)"/></g></svg>