<svg xmlns="http://www.w3.org/2000/svg" xmlns:xlink="http://www.w3.org/1999/xlink" width="782" height="248" viewBox="0 0 782 248"><defs><style>.a,.af,.ag,.ai,.an,.ao,.ar,.b,.c{fill:none;}.a{clip-rule:evenodd;}.b,.j,.k,.n,.o,.p{fill-rule:evenodd;}.d{fill:url(#a);}.e,.y,.z{fill:#fff;}.ap,.f,.t{fill:#956abc;}.f{opacity:0.8;}.g{fill:#c89def;}.h{clip-path:url(#b);}.i,.k{opacity:0.6;}.ab,.j{fill:#ae83d5;}.j{opacity:0.4;}.aj,.am,.k{fill:#edf;}.l,.n{fill:#54297b;}.m,.o{fill:#481d6f;}.p,.r,.x{opacity:0.3;}.p{fill:url(#d);}.q{opacity:0.7;}.r{fill:url(#e);}.s{clip-path:url(#f);}.u,.w{fill:#ddbaff;}.u{opacity:0.5;}.v{fill:url(#g);}.y,.z{stroke:#fff;}.af,.ai,.an,.ao,.ap,.aq,.ar,.y,.z{stroke-linecap:round;stroke-linejoin:round;}.af,.ag,.ar,.y,.z{stroke-width:3px;}.z{opacity:0.2;}.aa,.ak,.aq{fill:#7b50a2;}.ac{fill:#7c4ea0;}.ad{fill:#633587;}.ae{fill:#c99bed;}.af,.ag,.ao{stroke:#492a65;}.ag,.aj,.ak{stroke-miterlimit:10;}.ah{fill:#512874;}.ai,.an,.aq{stroke:#7b50a2;}.ai,.aj,.ak,.ao,.ap,.aq{stroke-width:2px;}.aj{stroke:#c89def;}.ak{stroke:#ae83d5;}.al{fill:#9668ba;}.an{stroke-width:4px;}.ap{stroke:#956abc;}.ar{stroke:#ddbaff;}.as{stroke:none;}</style><radialGradient id="a" cx="0.506" cy="0.505" r="0.676" gradientTransform="translate(0.054 0.054) scale(0.833 0.831)" gradientUnits="objectBoundingBox"><stop offset="0" stop-color="#731089"/><stop offset="0.295" stop-color="#6c1184"/><stop offset="0.711" stop-color="#591578"/><stop offset="1" stop-color="#49196d"/></radialGradient><clipPath id="b"><path class="a" d="M-316.857-41.53A18.425,18.425,0,0,1-302.5-63.272a18.425,18.425,0,0,1,21.741,14.358,18.424,18.424,0,0,1-14.358,21.742A18.423,18.423,0,0,1-316.857-41.53Z" transform="translate(317.234 63.649)"/></clipPath><linearGradient id="d" x1="3.755" y1="2.07" x2="4.457" y2="2.093" gradientUnits="objectBoundingBox"><stop offset="0.323" stop-color="#e80f53" stop-opacity="0"/><stop offset="1" stop-color="#e80f53"/></linearGradient><linearGradient id="e" x1="-35.801" y1="21.794" x2="-36.314" y2="22.314" gradientUnits="objectBoundingBox"><stop offset="0" stop-color="#ddbaff" stop-opacity="0"/><stop offset="1" stop-color="#ddbaff"/></linearGradient><clipPath id="f"><path class="c" d="M-185.964,73.445a20.8,20.8,0,0,0,20.8,20.8,20.8,20.8,0,0,0,20.8-20.8,20.8,20.8,0,0,0-20.8-20.8A20.8,20.8,0,0,0-185.964,73.445Z" transform="translate(185.964 -52.644)"/></clipPath><radialGradient id="g" cx="1.007" cy="0.918" r="6.136" gradientTransform="translate(0.417) scale(0.166 1)" gradientUnits="objectBoundingBox"><stop offset="0" stop-color="#ae83d5"/><stop offset="1" stop-color="#ae83d5" stop-opacity="0"/></radialGradient></defs><g transform="translate(-279.5 -942)"><rect class="d" width="781" height="248" rx="15" transform="translate(280.5 942)"/><path class="e" d="M-226.633,78.257a1.177,1.177,0,0,1-1.18,1.178,1.178,1.178,0,0,1-1.179-1.178,1.179,1.179,0,0,1,1.179-1.18A1.178,1.178,0,0,1-226.633,78.257Z" transform="translate(1187.682 969.947)"/><path class="e" d="M-247.486,171.7a1.177,1.177,0,0,1-1.18,1.178,1.178,1.178,0,0,1-1.179-1.178,1.179,1.179,0,0,1,1.179-1.18A1.178,1.178,0,0,1-247.486,171.7Z" transform="translate(1187.682 969.947)"/><path class="e" d="M-309.667,187.334a.719.719,0,0,1-.719.719.719.719,0,0,1-.719-.719.719.719,0,0,1,.719-.721A.719.719,0,0,1-309.667,187.334Z" transform="translate(1187.682 969.947)"/><path class="f" d="M-259.021,112.6a1.158,1.158,0,0,1-1.157,1.159,1.157,1.157,0,0,1-1.154-1.159,1.157,1.157,0,0,1,1.154-1.159A1.158,1.158,0,0,1-259.021,112.6Z" transform="translate(1187.682 969.947)"/><path class="f" d="M-223.629-25.693a2.088,2.088,0,0,1-2.092,2.092,2.088,2.088,0,0,1-2.092-2.092,2.088,2.088,0,0,1,2.092-2.092A2.088,2.088,0,0,1-223.629-25.693Z" transform="translate(790.476 1008.904)"/><path class="f" d="M-354.066-37.746a2.09,2.09,0,0,1-2.092,2.092,2.089,2.089,0,0,1-2.092-2.092,2.089,2.089,0,0,1,2.092-2.092A2.09,2.09,0,0,1-354.066-37.746Z" transform="translate(709.063 1001.381)"/><path class="e" d="M-381.153-32.749a1.167,1.167,0,0,1-1.169,1.168,1.168,1.168,0,0,1-1.168-1.168,1.167,1.167,0,0,1,1.168-1.168A1.166,1.166,0,0,1-381.153-32.749Z" transform="translate(693.309 1005.077)"/><path class="f" d="M-162.317-29.149a1.88,1.88,0,0,1-1.878,1.884,1.879,1.879,0,0,1-1.874-1.884,1.879,1.879,0,0,1,1.874-1.882A1.879,1.879,0,0,1-162.317-29.149Z" transform="translate(829.014 1006.878)"/><path class="f" d="M-366.612-24.6a1.88,1.88,0,0,1-1.878,1.884,1.879,1.879,0,0,1-1.876-1.884,1.879,1.879,0,0,1,1.876-1.882A1.88,1.88,0,0,1-366.612-24.6Z" transform="translate(701.501 1009.717)"/><path class="g" d="M-317.234,175.667a1.161,1.161,0,0,1-1.16,1.163,1.161,1.161,0,0,1-1.16-1.163,1.161,1.161,0,0,1,1.16-1.164A1.161,1.161,0,0,1-317.234,175.667Z" transform="translate(1187.682 969.947)"/><path class="g" d="M-164.91,169.358a1.161,1.161,0,0,1-1.159,1.164,1.162,1.162,0,0,1-1.16-1.164,1.162,1.162,0,0,1,1.16-1.164A1.161,1.161,0,0,1-164.91,169.358Z" transform="translate(1187.682 969.947)"/><g transform="translate(324.248 1113.576)"><g transform="translate(7.385 7.386)"><g class="h"><g class="i" transform="translate(-7.755)"><path class="j" d="M-316.857-41.53A18.425,18.425,0,0,1-302.5-63.272a18.425,18.425,0,0,1,21.741,14.358,18.424,18.424,0,0,1-14.358,21.742A18.423,18.423,0,0,1-316.857-41.53Z" transform="translate(324.989 63.649)"/><path class="k" d="M-289.24-47.179A18.426,18.426,0,0,1-299.46-26.811a18.371,18.371,0,0,0,4.345-.361,18.424,18.424,0,0,0,14.358-21.742A18.425,18.425,0,0,0-302.5-63.272a18.425,18.425,0,0,0-4.137,1.374A18.426,18.426,0,0,1-289.24-47.179Z" transform="translate(324.989 63.649)"/><rect class="l" width="30.035" height="1.767" transform="matrix(0.98, -0.2, 0.2, 0.98, 8.635, 8.738)"/><rect class="l" width="46.819" height="4.418" transform="translate(2.655 27.996) rotate(-11.56)"/><rect class="l" width="46.819" height="3.534" transform="matrix(0.98, -0.2, 0.2, 0.98, 0, 15.013)"/><rect class="m" width="45.053" height="0.883" transform="translate(2.97 20.718) rotate(-11.56)"/><rect class="l" width="45.053" height="1.767" transform="translate(6.156 36.296) rotate(-11.56)"/><path class="n" d="M-282.546-43.506c.442,2.162-2.509,4.591-6.591,5.426s-7.751-.24-8.193-2.4,2.509-4.59,6.592-5.425S-282.988-45.667-282.546-43.506Z" transform="translate(324.988 63.649)"/><path class="j" d="M-285.318-42.94c.276,1.352-1.569,2.871-4.12,3.392s-4.844-.15-5.12-1.5,1.569-2.871,4.119-3.392S-285.594-44.29-285.318-42.94Z" transform="translate(324.988 63.649)"/><path class="o" d="M-298.7-47.752c.132.647-1.062,1.437-2.667,1.766s-3.013.07-3.146-.577,1.062-1.439,2.667-1.767S-298.836-48.4-298.7-47.752Z" transform="translate(324.988 63.649)"/><path class="n" d="M-287.458-33.227c.167.817-1.34,1.817-3.369,2.232s-3.807.087-3.974-.73,1.341-1.817,3.368-2.232S-287.626-34.045-287.458-33.227Z" transform="translate(324.988 63.649)"/></g></g></g><g transform="translate(7.385 7.386)"><g class="h"><g class="i" transform="translate(-7.755)"><path class="j" d="M-316.857-41.53A18.425,18.425,0,0,1-302.5-63.272a18.425,18.425,0,0,1,21.741,14.358,18.424,18.424,0,0,1-14.358,21.742A18.423,18.423,0,0,1-316.857-41.53Z" transform="translate(324.989 63.649)"/><path class="k" d="M-289.24-47.179A18.426,18.426,0,0,1-299.46-26.811a18.371,18.371,0,0,0,4.345-.361,18.424,18.424,0,0,0,14.358-21.742A18.425,18.425,0,0,0-302.5-63.272a18.425,18.425,0,0,0-4.137,1.374A18.426,18.426,0,0,1-289.24-47.179Z" transform="translate(324.989 63.649)"/><rect class="l" width="30.035" height="1.767" transform="matrix(0.98, -0.2, 0.2, 0.98, 8.635, 8.738)"/><rect class="l" width="46.819" height="4.418" transform="translate(2.655 27.996) rotate(-11.56)"/><rect class="l" width="46.819" height="3.534" transform="matrix(0.98, -0.2, 0.2, 0.98, 0, 15.013)"/><rect class="m" width="45.053" height="0.883" transform="translate(2.97 20.718) rotate(-11.56)"/><rect class="l" width="45.053" height="1.767" transform="translate(6.156 36.296) rotate(-11.56)"/><path class="n" d="M-282.546-43.506c.442,2.162-2.509,4.591-6.591,5.426s-7.751-.24-8.193-2.4,2.509-4.59,6.592-5.425S-282.988-45.667-282.546-43.506Z" transform="translate(324.988 63.649)"/><path class="j" d="M-285.318-42.94c.276,1.352-1.569,2.871-4.12,3.392s-4.844-.15-5.12-1.5,1.569-2.871,4.119-3.392S-285.594-44.29-285.318-42.94Z" transform="translate(324.988 63.649)"/><path class="o" d="M-298.7-47.752c.132.647-1.062,1.437-2.667,1.766s-3.013.07-3.146-.577,1.062-1.439,2.667-1.767S-298.836-48.4-298.7-47.752Z" transform="translate(324.988 63.649)"/><path class="n" d="M-287.458-33.227c.167.817-1.34,1.817-3.369,2.232s-3.807.087-3.974-.73,1.341-1.817,3.368-2.232S-287.626-34.045-287.458-33.227Z" transform="translate(324.988 63.649)"/></g></g></g><path class="p" d="M-301.347-70.908a25.811,25.811,0,0,1,28.225,23.146,25.813,25.813,0,0,1-23.146,28.227,25.809,25.809,0,0,1-28.224-23.148A25.809,25.809,0,0,1-301.347-70.908Z" transform="translate(324.619 71.035)"/></g><g class="q" transform="translate(380.083 963.747)"><g transform="translate(0 0)"><path class="r" d="M-141.969,94.87a28.611,28.611,0,0,1-40.422,1.771,28.611,28.611,0,0,1-1.769-40.424,28.609,28.609,0,0,1,40.421-1.769A28.609,28.609,0,0,1-141.969,94.87Z" transform="translate(191.676 -46.932)"/><g transform="translate(7.809 7.81)"><g class="s"><g transform="translate(-1.783 -2.997)"><path class="t" d="M-185.964,73.445a20.8,20.8,0,0,0,20.8,20.8,20.8,20.8,0,0,0,20.8-20.8,20.8,20.8,0,0,0-20.8-20.8A20.8,20.8,0,0,0-185.964,73.445Z" transform="translate(187.747 -49.647)"/><path class="m" d="M-167.885,53.884c.381.257,11.444,2.252,12.873,3.678s1.363,2.884,2.431,4.3,3.967,1.458,4.984,3.654-1.108,4.656-2.679,4.787-.314-5.629-3.7-5.523S-158.1,67.6-157.345,68.7s6.418,4.31,6.425,6.394-.273,5.65-1.421,6.321-4.1.232-4.853,1.177.983,4.326-1.263,5.305-5.683-5.025-6.217-7.366-1.274-8.557.18-10.124,6.776-.17,5.2-2.531-13.729,0-13.729,0" transform="translate(173.024 -49.191)"/><path class="m" d="M-176.043,57.631s-6.618-.284-7.113,1.515-.314,8.781.721,10.761,2.117,2.207,3.332,3.019,1.757,1.575.36,2.61-6.168-.495-7.158,1.306-.36,5.944,0,6.845,1.757,1.437.945,2.591-3.692,1.459-3.376,2.5,4.142.224,6.619-.675,8.283-6.618,7.7-8.689-2.387-2.207-2.345-3.648,4.773-4.367,4.773-4.367,5.044-4.187,4.1-7.429S-176.043,57.631-176.043,57.631Z" transform="translate(214.024 -47.821)"/><path class="m" d="M-155.432,83.962s-3.163-1-4.174-1.469-1.065-2.743-1.983-2.985-2.781-.183-5.812.782-7.935-.849-7.935-.849l1.814,4.683,12.529,2.314Z" transform="translate(184.285 -39.822)"/><path class="m" d="M-180.266,54.64s3.294.4,4.374.675,1.555,2.5,2.5,2.568,2.229-1.318,4.051-1.587,5.266,1.082,5.266,1.082l-2.7-5.167-11.662-1.758Z" transform="translate(199.668 -50.452)"/></g></g></g><path class="u" d="M-155.068,57.339a20.712,20.712,0,0,0-3.4-2.532A20.771,20.771,0,0,1-160,80.982,20.771,20.771,0,0,1-185.938,84.8a20.78,20.78,0,0,0,2.818,3.165,20.765,20.765,0,0,0,29.337-1.284A20.765,20.765,0,0,0-155.068,57.339Z" transform="translate(197.704 -44.04)"/></g></g><g transform="translate(656.035 1009.719)"><path class="v" d="M-277.895,92.855c-.234-.235-.611-.177-.982-.255-.324-.07-97.893-15.549-97.658-15.316s98.406,16.654,98.64,16.419A.6.6,0,0,0-277.895,92.855Z"/><path class="w" d="M-276.943,93.2a.972.972,0,0,1-.971.973.974.974,0,0,1-.973-.973.972.972,0,0,1,.973-.971A.97.97,0,0,1-276.943,93.2Z"/></g><g class="x" transform="translate(365.336 998.793)"><path class="y" d="M783.283,214.8a3.4,3.4,0,0,0-6.8,0,3.4,3.4,0,0,0,6.8,0Z" transform="translate(-776.479 -211.394)"/></g><g class="x" transform="translate(884.5 961.543)"><path class="y" d="M783.283,214.8a3.4,3.4,0,0,0-6.8,0,3.4,3.4,0,0,0,6.8,0Z" transform="translate(-776.479 -211.394)"/></g><path class="e" d="M847.108,248.525a.825.825,0,1,1-.824-.823A.824.824,0,0,1,847.108,248.525Z" transform="translate(-401.861 899.073)"/><path class="e" d="M847.108,248.525a.825.825,0,1,1-.824-.823A.824.824,0,0,1,847.108,248.525Z" transform="translate(90.303 740.823)"/><path class="z" d="M869.027,246.357a3.021,3.021,0,1,1-3.021-3.032A3.025,3.025,0,0,1,869.027,246.357Z" transform="translate(-472.908 889.255)"/><path class="z" d="M877.415,250.566a7.215,7.215,0,1,1-7.214-7.241A7.225,7.225,0,0,1,877.415,250.566Z" transform="translate(-553.167 784.338)"/><path class="z" d="M869.027,246.357a3.021,3.021,0,1,1-3.021-3.032A3.025,3.025,0,0,1,869.027,246.357Z" transform="translate(58.494 756.208)"/><path class="z" d="M869.027,246.357a3.021,3.021,0,1,1-3.021-3.032A3.025,3.025,0,0,1,869.027,246.357Z" transform="translate(-469.887 777.644)"/><path class="w" d="M845.281,226.984a.956.956,0,1,0,.956-.955A.956.956,0,0,0,845.281,226.984Z" transform="translate(-401.815 904.64)"/><path class="w" d="M845.281,226.984a.956.956,0,1,0,.956-.955A.956.956,0,0,0,845.281,226.984Z" transform="translate(90.349 746.39)"/><g transform="translate(309.818 1057.446)"><path class="aa" d="M959.025,217.7a9.952,9.952,0,1,0-19.692-2.9" transform="translate(-928.355 -206.285)"/><path class="ab" d="M945.477,213.833a29.607,29.607,0,0,0-3.064-.034,6.324,6.324,0,0,0-2.974.653,9.973,9.973,0,0,1,11.224-8.068,9.645,9.645,0,0,1,4.693,2.073A10.03,10.03,0,0,0,945.477,213.833Z" transform="translate(-928.382 -206.279)"/><path class="m" d="M966.491,219.709c.325-2.206-8.8-5.373-20.373-7.075s-21.224-1.3-21.549.908,8.8,5.373,20.375,7.075S966.166,221.913,966.491,219.709Z" transform="translate(-924.561 -207.641)"/><path class="aa" d="M959.024,220.214c.153-1.033-4.121-2.517-9.546-3.314s-9.945-.608-10.1.425,4.123,2.518,9.547,3.317S958.872,221.246,959.024,220.214Z" transform="translate(-928.366 -208.88)"/><path class="aa" d="M939.308,217.674a9.952,9.952,0,1,0,19.693,2.9" transform="translate(-928.321 -209.206)"/><g transform="translate(10.865 7.527)"><path class="w" d="M939.386,217.575h0Z" transform="translate(-939.234 -216.707)"/><path class="ab" d="M942.371,216.428c.9-.043,2.009-.014,3.1.047-1.614,3.681.372,10.566,2.218,12.18-8.407-1.7-8.895-8.964-8.356-11.379C939.573,216.742,940.708,216.507,942.371,216.428Z" transform="translate(-939.182 -216.407)"/></g></g><g transform="translate(690.939 931.282)"><g transform="translate(287.869 53.84)"><g transform="translate(1.913)"><path class="ac" d="M337.331,73.242l-.274-.108c.356-.9-1.789-2.839-5.74-5.182a117.965,117.965,0,0,0-16.085-7.618c-13.91-5.488-23.994-7.3-24.685-5.555l-.274-.107c.961-2.439,13.5.825,25.067,5.389A118.115,118.115,0,0,1,331.468,67.7C334.445,69.464,337.877,71.858,337.331,73.242Z" transform="translate(-290.273 -53.84)"/></g><g transform="translate(0 6.138)"><path class="ac" d="M338.754,65.888h-.59c0-1.592-10.207-3.747-24.853-3.747s-24.853,2.155-24.853,3.747h-.59c0-3.184,13.109-4.336,25.443-4.336S338.754,62.7,338.754,65.888Z" transform="translate(-287.869 -61.552)"/></g><g transform="translate(15.202 0.295)"><path class="ad" d="M327.013,64.266A10.023,10.023,0,1,1,316.99,54.211,10.04,10.04,0,0,1,327.013,64.266Z" transform="translate(-306.968 -54.211)"/></g><g transform="translate(23.439 0.295)"><path class="ae" d="M319.1,54.211a9.995,9.995,0,0,0-1.785.169,10.05,10.05,0,0,1,0,19.771A10.047,10.047,0,1,0,319.1,54.211Z" transform="translate(-317.317 -54.211)"/></g><g transform="translate(1.836 0.832)"><path class="ac" d="M337.3,73.475a1,1,0,0,1-.427.509,3.738,3.738,0,0,1-1.694.488,24.1,24.1,0,0,1-6-.422,69.858,69.858,0,0,1-8.19-1.949c-1.473-.445-2.994-.9-4.514-1.447s-3.056-1.1-4.593-1.695c-1.5-.6-3.033-1.248-4.5-1.894s-2.905-1.345-4.285-2.025a70.2,70.2,0,0,1-7.315-4.17,24.15,24.15,0,0,1-4.668-3.786,3.758,3.758,0,0,1-.9-1.513,1.082,1.082,0,0,1,.042-.686l.274.107a.758.758,0,0,0,.065.46,3.6,3.6,0,0,0,1,1.15,30.381,30.381,0,0,0,4.905,3.065c2.136,1.125,4.686,2.34,7.451,3.572,1.379.625,2.828,1.218,4.289,1.846s2.95,1.22,4.473,1.81c1.492.6,3.006,1.183,4.5,1.73s2.958,1.1,4.392,1.581c2.862.987,5.554,1.841,7.883,2.478a30.438,30.438,0,0,0,5.676,1.111,3.616,3.616,0,0,0,1.517-.157.666.666,0,0,0,.371-.311Z" transform="translate(-290.176 -54.885)"/></g></g><g transform="translate(287.869 63.912)"><path class="ac" d="M338.75,66.584s0,.051-.011.15a1.21,1.21,0,0,1-.233.55,3.838,3.838,0,0,1-1.457,1.106,25.376,25.376,0,0,1-5.767,1.8,71.375,71.375,0,0,1-8.351,1.177c-3.07.28-6.345.394-9.633.415-1.621-.011-3.283-.047-4.89-.108s-3.2-.181-4.735-.3a71.468,71.468,0,0,1-8.35-1.171,25.172,25.172,0,0,1-5.771-1.8,3.733,3.733,0,0,1-1.455-1.119,1.213,1.213,0,0,1-.227-.756l.59.024a.6.6,0,0,0,.182.312,3.507,3.507,0,0,0,1.284.674,28.58,28.58,0,0,0,5.657,1.052c2.4.265,5.21.462,8.234.6,1.512.076,3.076.1,4.665.145s3.19.053,4.826.043c3.221.02,6.458-.068,9.48-.19s5.839-.334,8.234-.6a28.828,28.828,0,0,0,5.657-1.056,3.664,3.664,0,0,0,1.293-.671c.118-.133.119-.093.163-.213.023-.1.036-.146.036-.146Z" transform="translate(-287.869 -66.494)"/></g></g><g transform="translate(-62.475 996.823)"><path class="aa" d="M1080.825,103.249a35.783,35.783,0,1,0-71.566,0"/><rect class="t" width="73.461" height="43.508" rx="4" transform="translate(1008.181 110.309)"/><rect class="aa" width="37.283" height="43.508" rx="4" transform="translate(1008.181 110.309)"/><line class="af" y1="12.233" transform="translate(1079.102 138.56)"/><line class="af" y1="12.233" transform="translate(1065.349 138.56)"/><line class="af" y1="12.233" transform="translate(1051.595 138.56)"/><line class="af" y1="12.233" transform="translate(1037.844 138.56)"/><line class="af" y1="12.233" transform="translate(1024.091 138.56)"/><line class="af" y1="12.233" transform="translate(1010.339 138.56)"/><path class="ag" d="M1002.92,150.822V137.944h84.692v13.292"/><rect class="aa" width="97.962" height="21.669" rx="2.835" transform="translate(995.931 148.782)"/><rect class="ad" width="110.523" height="21.852" rx="2.835" transform="translate(989.649 165.208)"/><rect class="ah" width="73.462" height="3.219" transform="translate(1008.181 115.429)"/><path class="ab" d="M1084.4,103.165l3.38,12.957h-85.746l3.381-12.957Z"/><line class="ai" x2="75.114" transform="translate(1007.337 111.74)"/><line class="ai" x2="73.496" transform="translate(1008.146 107.412)"/><g class="aj" transform="translate(1070.033 122.009)"><rect class="as" width="5.829" height="6.959" rx="1.417"/><rect class="c" x="-1" y="-1" width="7.829" height="8.959" rx="2.417"/></g><g class="aj" transform="translate(1054.467 122.009)"><rect class="as" width="5.828" height="6.959" rx="1.417"/><rect class="c" x="-1" y="-1" width="7.828" height="8.959" rx="2.417"/></g><path class="ad" d="M1057.807,128.968h2.487v-6.96h-2.487"/><path class="ad" d="M1073.436,128.968h2.489v-6.96h-2.489"/><g class="ak" transform="translate(1015.547 122.009)"><rect class="as" width="5.828" height="6.959" rx="1.417"/><rect class="c" x="-1" y="-1" width="7.828" height="8.959" rx="2.417"/></g><g class="ak" transform="translate(1031.114 122.009)"><rect class="as" width="5.828" height="6.959" rx="1.417"/><rect class="c" x="-1" y="-1" width="7.828" height="8.959" rx="2.417"/></g><path class="ad" d="M1033.6,122.009h-2.487v6.96h2.487"/><path class="ad" d="M1017.972,122.009h-2.487v6.96h2.487"/><path class="al" d="M1052.979,68.9a6.984,6.984,0,0,0-13.968,0"/><path class="f" d="M1097.688,92.833a1.642,1.642,0,1,0,1.642-1.643A1.639,1.639,0,0,0,1097.688,92.833Z"/><path class="m" d="M972.076,187.048s16.09-6.879,18.8-6.9c3.808-.026,5.6,4.759,9.468,4.193s5.017-3.524,7.979-3.651,10.259,6.221,14.551,6.433c0,0-20.436.186-25.679.166S972.076,187.048,972.076,187.048Z"/><path class="m" d="M1032.767,102.762H1016c1.83-19.914,13.913-35.3,28.556-35.3C1038.51,67.458,1033.523,82.848,1032.767,102.762Z"/><path class="ad" d="M1044.039,67.476"/><path class="ad" d="M1044.553,67.458a4.817,4.817,0,0,0-3.361,1.65c-10.784,4.469-18.938,17.585-20.415,33.654H1016C1017.827,82.848,1029.91,67.458,1044.553,67.458Z"/><path class="t" d="M1050.488,85.8,1035.7,81.844l-1.742,6.5,14.785,3.958"/><rect class="t" width="12.828" height="19.502" rx="2.835" transform="matrix(0.259, -0.966, 0.966, 0.259, 1021.2, 88.088)"/><path class="ab" d="M1002.607,84.191l23.069,6.174,4.06-15.173-23.068-6.173"/><path class="am" d="M1006.375,70.114c-2.316-.62-4.97,1.784-5.928,5.368s.139,6.994,2.453,7.613"/><line class="an" x1="4.052" y2="15.137" transform="translate(1002.616 69.019)"/><line class="an" x1="4.052" y2="15.138" transform="translate(1006.37 70.022)"/><line class="ao" x1="1.563" y2="5.838" transform="translate(1048.365 85.995)"/><path class="ae" d="M1024.286,90.646a5.253,5.253,0,1,0,6.433-3.716A5.252,5.252,0,0,0,1024.286,90.646Z"/><path class="aa" d="M1032.71,103.2c.753-19.836,5.761-35.614,11.772-35.734l.053,0a35.8,35.8,0,0,1,35.8,35.786h-47.61Z"/><path class="ap" d="M1046.258,70.346c14.291,0,27.818,12.178,27.818,27.173h-4C1070.074,83.536,1061.34,74.17,1046.258,70.346Z"/><path class="aq" d="M1030.678,94.3l1.31-2.269-1.31-2.271h-2.619l-1.31,2.271,1.31,2.269Z"/><path class="aa" d="M1041.146,174.65a3.51,3.51,0,1,0,3.511-3.509A3.508,3.508,0,0,0,1041.146,174.65Z"/><path class="aa" d="M1026.879,174.65a3.51,3.51,0,1,0,3.511-3.509A3.508,3.508,0,0,0,1026.879,174.65Z"/><path class="aa" d="M1055.41,174.65a3.512,3.512,0,1,0,3.513-3.509A3.509,3.509,0,0,0,1055.41,174.65Z"/><line class="af" y1="9.188" transform="translate(1079.102 156.058)"/><line class="af" y1="9.188" transform="translate(1065.349 156.058)"/><line class="af" y1="9.188" transform="translate(1051.595 156.058)"/><line class="af" y1="9.188" transform="translate(1037.844 156.058)"/><line class="af" y1="9.188" transform="translate(1024.091 156.058)"/><line class="af" y1="9.188" transform="translate(1010.339 156.058)"/><path class="ag" d="M1002.92,165.268V155.6h84.692v9.982"/><line class="ar" x1="10.827" y1="2.574" transform="translate(1014.058 74.262)"/><line class="ap" x1="3.86" transform="translate(1070.45 100.923)"/></g></g></svg>