<svg xmlns="http://www.w3.org/2000/svg" xmlns:xlink="http://www.w3.org/1999/xlink" width="1600" height="180" viewBox="0 0 1600 180">
  <defs>
    <style>
      .cls-1, .cls-2, .cls-25, .cls-26, .cls-27, .cls-28 {
        fill: none;
      }

      .cls-2 {
        clip-rule: evenodd;
      }

      .cls-3 {
        fill: url(#radial-gradient);
      }

      .cls-17, .cls-4, .cls-5, .cls-8 {
        fill: #fff;
      }

      .cls-5, .cls-8 {
        opacity: 0.2;
      }

      .cls-6, .cls-7 {
        fill: #7c4ea0;
      }

      .cls-6 {
        stroke: #7c4ea0;
      }

      .cls-6, .cls-8 {
        stroke-linecap: round;
        stroke-linejoin: round;
      }

      .cls-28, .cls-6, .cls-8 {
        stroke-width: 3px;
      }

      .cls-37, .cls-6 {
        opacity: 0.4;
      }

      .cls-7 {
        opacity: 0.6;
      }

      .cls-8 {
        stroke: #fff;
      }

      .cls-9 {
        fill: url(#linear-gradient);
      }

      .cls-10 {
        fill: url(#linear-gradient-2);
      }

      .cls-11 {
        fill: url(#linear-gradient-3);
      }

      .cls-12 {
        fill: url(#linear-gradient-4);
      }

      .cls-13 {
        fill: url(#radial-gradient-2);
      }

      .cls-14, .cls-30, .cls-33 {
        fill: #ddbaff;
      }

      .cls-15 {
        fill: url(#radial-gradient-3);
      }

      .cls-16 {
        fill: url(#radial-gradient-4);
      }

      .cls-17 {
        opacity: 0.05;
      }

      .cls-18 {
        fill: #956abc;
      }

      .cls-19 {
        fill: #ae83d5;
      }

      .cls-20, .cls-35 {
        fill: #7b50a2;
      }

      .cls-21 {
        fill: #633587;
      }

      .cls-22 {
        fill: #e80f53;
      }

      .cls-23 {
        fill: #9668ba;
      }

      .cls-24 {
        fill: #300054;
      }

      .cls-25, .cls-26, .cls-28 {
        stroke: #ddbaff;
      }

      .cls-25, .cls-26, .cls-27, .cls-28 {
        stroke-miterlimit: 10;
      }

      .cls-25, .cls-26, .cls-28, .cls-30 {
        opacity: 0.3;
      }

      .cls-26 {
        stroke-width: 2px;
      }

      .cls-27 {
        stroke: #623789;
      }

      .cls-29 {
        opacity: 0.7;
      }

      .cls-31 {
        clip-path: url(#clip-path);
      }

      .cls-32, .cls-36 {
        fill: #481d6f;
      }

      .cls-33 {
        opacity: 0.5;
      }

      .cls-34 {
        clip-path: url(#clip-path-2);
      }

      .cls-35, .cls-36, .cls-37 {
        fill-rule: evenodd;
      }

      .cls-37 {
        fill: #edf;
      }
    </style>
    <radialGradient id="radial-gradient" cx="0.506" cy="0.505" r="0.483" gradientUnits="objectBoundingBox">
      <stop offset="0" stop-color="#731089"/>
      <stop offset="0.295" stop-color="#6c1184"/>
      <stop offset="0.711" stop-color="#591578"/>
      <stop offset="1" stop-color="#481b6e"/>
    </radialGradient>
    <linearGradient id="linear-gradient" y1="0.5" x2="1" y2="0.5" gradientUnits="objectBoundingBox">
      <stop offset="0" stop-color="#b61e81"/>
      <stop offset="1" stop-color="#ea1f4c"/>
    </linearGradient>
    <linearGradient id="linear-gradient-2" x1="0" y1="0.5" x2="1" y2="0.5" xlink:href="#linear-gradient"/>
    <linearGradient id="linear-gradient-3" x1="37.095" y1="102.345" x2="38.095" y2="102.345" xlink:href="#linear-gradient"/>
    <linearGradient id="linear-gradient-4" x1="0" y1="0.5" x2="1" y2="0.5" xlink:href="#linear-gradient"/>
    <radialGradient id="radial-gradient-2" cx="1.007" cy="0.918" r="6.117" gradientTransform="translate(0.415) scale(0.169 1)" gradientUnits="objectBoundingBox">
      <stop offset="0" stop-color="#ae83d5"/>
      <stop offset="1" stop-color="#ae83d5" stop-opacity="0"/>
    </radialGradient>
    <radialGradient id="radial-gradient-3" cx="1.007" cy="0.918" r="6.136" gradientTransform="translate(0.417) scale(0.166 1)" xlink:href="#radial-gradient-2"/>
    <radialGradient id="radial-gradient-4" cx="1.007" cy="0.918" r="6.088" gradientTransform="translate(0.413) scale(0.174 1)" xlink:href="#radial-gradient-2"/>
    <clipPath id="clip-path">
      <path id="Path_1244" data-name="Path 1244" class="cls-1" d="M1330.511,88.668a30.57,30.57,0,1,1-30.57-30.57A30.571,30.571,0,0,1,1330.511,88.668Z"/>
    </clipPath>
    <clipPath id="clip-path-2">
      <path id="Path_1257" data-name="Path 1257" class="cls-2" d="M246.541,120.774A30.161,30.161,0,1,0,276.7,90.61,30.163,30.163,0,0,0,246.541,120.774Z"/>
    </clipPath>
  </defs>
  <g id="aloldal-kereso-banner" transform="translate(-159.995)">
    <rect id="Rectangle_114" data-name="Rectangle 114" class="cls-3" width="1600" height="180" transform="translate(159.995)"/>
    <path id="Path_1164" data-name="Path 1164" class="cls-4" d="M133.481,78.76a1.191,1.191,0,1,1-1.192-1.192A1.19,1.19,0,0,1,133.481,78.76Z" transform="translate(160.995 -0.723)"/>
    <path id="Path_1165" data-name="Path 1165" class="cls-4" d="M73.192,135.809A1.192,1.192,0,1,1,72,134.617,1.19,1.19,0,0,1,73.192,135.809Z" transform="translate(160.995 -0.723)"/>
    <path id="Path_1166" data-name="Path 1166" class="cls-4" d="M1228.1,60.76a.808.808,0,1,1-.809-.809A.807.807,0,0,1,1228.1,60.76Z" transform="translate(160.995 -0.723)"/>
    <path id="Path_1167" data-name="Path 1167" class="cls-4" d="M69.615,45a.808.808,0,1,1-.808-.809A.807.807,0,0,1,69.615,45Z" transform="translate(160.995 -0.723)"/>
    <path id="Path_1168" data-name="Path 1168" class="cls-4" d="M1330.809,32.525a.808.808,0,1,1-.809-.808A.807.807,0,0,1,1330.809,32.525Z" transform="translate(160.995 -0.723)"/>
    <path id="Path_1169" data-name="Path 1169" class="cls-4" d="M1450,137.334a.807.807,0,1,1-.809-.809A.807.807,0,0,1,1450,137.334Z" transform="translate(160.995 -0.723)"/>
    <path id="Path_1170" data-name="Path 1170" class="cls-4" d="M342.809,148.191a.808.808,0,1,1-.809-.808A.807.807,0,0,1,342.809,148.191Z" transform="translate(160.995 -0.723)"/>
    <path id="Path_1171" data-name="Path 1171" class="cls-4" d="M463.154,70.285a.807.807,0,1,1-.808-.808A.808.808,0,0,1,463.154,70.285Z" transform="translate(160.995 -0.723)"/>
    <path id="Path_1172" data-name="Path 1172" class="cls-4" d="M214.974,6.6a.808.808,0,1,1-.809-.809A.807.807,0,0,1,214.974,6.6Z" transform="translate(160.995 -0.723)"/>
    <path id="Path_1173" data-name="Path 1173" class="cls-4" d="M63.309,26.809A.808.808,0,1,1,62.5,26,.807.807,0,0,1,63.309,26.809Z" transform="translate(160.995 -0.723)"/>
    <path id="Path_1174" data-name="Path 1174" class="cls-4" d="M79.809,143.809A.808.808,0,1,1,79,143,.807.807,0,0,1,79.809,143.809Z" transform="translate(160.995 -0.723)"/>
    <path id="Path_1175" data-name="Path 1175" class="cls-4" d="M467.178,59.066a1.191,1.191,0,1,1-1.192-1.191A1.19,1.19,0,0,1,467.178,59.066Z" transform="translate(160.995 -0.723)"/>
    <path id="Path_1176" data-name="Path 1176" class="cls-4" d="M759.178,9.066a1.19,1.19,0,1,1-1.192-1.191A1.19,1.19,0,0,1,759.178,9.066Z" transform="translate(160.995 -0.723)"/>
    <path id="Path_1177" data-name="Path 1177" class="cls-4" d="M229.288,82.783a1.19,1.19,0,1,1-1.191-1.191A1.189,1.189,0,0,1,229.288,82.783Z" transform="translate(160.995 -0.723)"/>
    <path id="Path_1178" data-name="Path 1178" class="cls-4" d="M1014.178,169.066a1.19,1.19,0,1,1-1.192-1.191A1.189,1.189,0,0,1,1014.178,169.066Z" transform="translate(160.995 -0.723)"/>
    <path id="Path_1179" data-name="Path 1179" class="cls-4" d="M1025.178,35.066a1.19,1.19,0,1,1-1.192-1.191A1.189,1.189,0,0,1,1025.178,35.066Z" transform="translate(160.995 -0.723)"/>
    <path id="Path_1180" data-name="Path 1180" class="cls-4" d="M873.178,173.066a1.19,1.19,0,1,1-1.192-1.191A1.189,1.189,0,0,1,873.178,173.066Z" transform="translate(160.995 -0.723)"/>
    <path id="Path_1181" data-name="Path 1181" class="cls-4" d="M261.27,40.394a1.191,1.191,0,1,1-1.191-1.192A1.189,1.189,0,0,1,261.27,40.394Z" transform="translate(160.995 -0.723)"/>
    <path id="Path_1182" data-name="Path 1182" class="cls-5" d="M59.334,82.662a2.718,2.718,0,1,1-2.719-2.727A2.723,2.723,0,0,1,59.334,82.662Z" transform="translate(160.995 -0.723)"/>
    <path id="Path_1183" data-name="Path 1183" class="cls-6" d="M124.5,118.744a5.634,5.634,0,1,1-5.634-5.652A5.643,5.643,0,0,1,124.5,118.744Z" transform="translate(160.995 -0.723)"/>
    <path id="Path_1184" data-name="Path 1184" class="cls-5" d="M147.818,33.551a3.428,3.428,0,1,1-3.427-3.441A3.434,3.434,0,0,1,147.818,33.551Z" transform="translate(160.995 -0.723)"/>
    <path id="Path_1185" data-name="Path 1185" class="cls-4" d="M1350.481,126.76a1.191,1.191,0,1,1-1.192-1.192A1.19,1.19,0,0,1,1350.481,126.76Z" transform="translate(160.995 -0.723)"/>
    <path id="Path_1186" data-name="Path 1186" class="cls-4" d="M1314.269,44.394a1.191,1.191,0,1,1-1.19-1.192A1.188,1.188,0,0,1,1314.269,44.394Z" transform="translate(160.995 -0.723)"/>
    <path id="Path_1187" data-name="Path 1187" class="cls-4" d="M1471.269,146.394a1.191,1.191,0,1,1-1.19-1.192A1.188,1.188,0,0,1,1471.269,146.394Z" transform="translate(160.995 -0.723)"/>
    <path id="Path_1188" data-name="Path 1188" class="cls-4" d="M1553.716,97.334a1.191,1.191,0,1,1-1.191-1.191A1.188,1.188,0,0,1,1553.716,97.334Z" transform="translate(160.995 -0.723)"/>
    <path id="Path_1189" data-name="Path 1189" class="cls-4" d="M1092.005,25.787a1.192,1.192,0,1,1-1.19-1.191A1.188,1.188,0,0,1,1092.005,25.787Z" transform="translate(160.995 -0.723)"/>
    <path id="Path_1190" data-name="Path 1190" class="cls-5" d="M633.744,148.1a3.633,3.633,0,1,1-3.633-3.645A3.639,3.639,0,0,1,633.744,148.1Z" transform="translate(160.995 -0.723)"/>
    <path id="Path_1191" data-name="Path 1191" class="cls-5" d="M1420.887,32.951a2.626,2.626,0,1,1-2.625-2.635A2.63,2.63,0,0,1,1420.887,32.951Z" transform="translate(160.995 -0.723)"/>
    <path id="Path_1192" data-name="Path 1192" class="cls-5" d="M1531.045,78.594a2.626,2.626,0,1,1-2.625-2.635A2.63,2.63,0,0,1,1531.045,78.594Z" transform="translate(160.995 -0.723)"/>
    <path id="Path_1193" data-name="Path 1193" class="cls-5" d="M1152.055,78.594a2.626,2.626,0,1,1-2.625-2.635A2.63,2.63,0,0,1,1152.055,78.594Z" transform="translate(160.995 -0.723)"/>
    <path id="Path_1194" data-name="Path 1194" class="cls-5" d="M1517.627,24.875A2.626,2.626,0,1,1,1515,22.24,2.632,2.632,0,0,1,1517.627,24.875Z" transform="translate(160.995 -0.723)"/>
    <path id="Path_1195" data-name="Path 1195" class="cls-5" d="M885.294,161.163a2.626,2.626,0,1,1-2.626-2.635A2.631,2.631,0,0,1,885.294,161.163Z" transform="translate(160.995 -0.723)"/>
    <path id="Path_1196" data-name="Path 1196" class="cls-5" d="M162.627,103.164A2.626,2.626,0,1,1,160,100.529,2.631,2.631,0,0,1,162.627,103.164Z" transform="translate(160.995 -0.723)"/>
    <path id="Path_1197" data-name="Path 1197" class="cls-5" d="M1119.327,153.609a3.5,3.5,0,1,1-3.5-3.506A3.5,3.5,0,0,1,1119.327,153.609Z" transform="translate(160.995 -0.723)"/>
    <ellipse id="Ellipse_140" data-name="Ellipse 140" class="cls-7" cx="7.633" cy="7.658" rx="7.633" ry="7.658" transform="translate(1383.669 16.214)"/>
    <path id="Path_1198" data-name="Path 1198" class="cls-8" d="M864.246,164.41a2.912,2.912,0,1,1-2.912-2.922A2.918,2.918,0,0,1,864.246,164.41Z" transform="translate(160.995 -0.723)"/>
    <ellipse id="Ellipse_141" data-name="Ellipse 141" class="cls-9" cx="3.236" cy="3.248" rx="3.236" ry="3.248" transform="translate(587.759 23.029)"/>
    <path id="Path_1199" data-name="Path 1199" class="cls-10" d="M1271.805,164.411a3.237,3.237,0,1,1-3.237-3.248A3.243,3.243,0,0,1,1271.805,164.411Z" transform="translate(160.995 -0.723)"/>
    <path id="Path_1200" data-name="Path 1200" class="cls-11" d="M204.656,139.233a3.236,3.236,0,1,1-2.755-3.666A3.242,3.242,0,0,1,204.656,139.233Z" transform="translate(160.995 -0.723)"/>
    <path id="Path_1201" data-name="Path 1201" class="cls-12" d="M1273.225,30.317a1.42,1.42,0,1,1-1.419-1.424A1.422,1.422,0,0,1,1273.225,30.317Z" transform="translate(160.995 -0.723)"/>
    <g id="Group_962" data-name="Group 962" transform="translate(160.995 -0.723)">
      <path id="Path_1202" data-name="Path 1202" class="cls-13" d="M502.222,167.788c-.475-.1-145.147-22.607-144.8-22.263s144.208,24.857,144.552,24.513S502.767,167.9,502.222,167.788Z"/>
      <path id="Path_1203" data-name="Path 1203" class="cls-14" d="M503.388,169a1.382,1.382,0,1,1-1.382-1.382A1.382,1.382,0,0,1,503.388,169Z"/>
    </g>
    <g id="Group_963" data-name="Group 963" transform="translate(160.995 -0.723)">
      <path id="Path_1204" data-name="Path 1204" class="cls-15" d="M1279.517,150.185c-.344-.344-.9-.259-1.44-.375-.475-.1-143.491-22.792-143.146-22.448s144.243,24.409,144.586,24.066A.876.876,0,0,0,1279.517,150.185Z"/>
      <path id="Path_1205" data-name="Path 1205" class="cls-14" d="M1280.9,150.835a1.382,1.382,0,1,1-1.382-1.382A1.382,1.382,0,0,1,1280.9,150.835Z"/>
    </g>
    <g id="Group_964" data-name="Group 964" transform="translate(160.995 -0.723)">
      <path id="Path_1206" data-name="Path 1206" class="cls-16" d="M717.293,19.291c-.238-.236-.23-.607-.605-.688-.328-.068-62.508-9.341-62.27-9.1s62.013,11.154,62.25,10.917S717.528,19.527,717.293,19.291Z"/>
      <path id="Path_1207" data-name="Path 1207" class="cls-14" d="M717.834,19.524a.951.951,0,1,1-.951-.952A.952.952,0,0,1,717.834,19.524Z"/>
    </g>
    <g id="Group_965" data-name="Group 965" transform="translate(160.995 -0.723)">
      <path id="Path_1208" data-name="Path 1208" class="cls-17" d="M561.4,30.206a8.3,8.3,0,1,0,6.363-9.863A8.3,8.3,0,0,0,561.4,30.206Z"/>
      <path id="Path_1209" data-name="Path 1209" class="cls-17" d="M555.995,31.371a13.824,13.824,0,1,0,10.6-16.428A13.822,13.822,0,0,0,555.995,31.371Z"/>
      <path id="Path_1210" data-name="Path 1210" class="cls-18" d="M565.528,29.314a4.072,4.072,0,1,0,3.122-4.84A4.07,4.07,0,0,0,565.528,29.314Z"/>
      <path id="Path_1211" data-name="Path 1211" class="cls-19" d="M568.65,24.474a4.071,4.071,0,0,1,1.259-.071,4.072,4.072,0,0,0,1.637,7.578,4.072,4.072,0,1,1-2.9-7.507Z"/>
    </g>
    <g id="Group_968" data-name="Group 968" transform="translate(160.995 -0.723)">
      <path id="Path_1212" data-name="Path 1212" class="cls-20" d="M1434.95,127.688a15.5,15.5,0,1,0-30.739,4.021"/>
      <path id="Path_1213" data-name="Path 1213" class="cls-19" d="M1412.963,127.658a46.248,46.248,0,0,0-4.6,1.25c-1.4.473-3.574,1.325-4.18,2.24a15.529,15.529,0,0,1,13.393-16.853,15.005,15.005,0,0,1,7.914,1.115A15.62,15.62,0,0,0,1412.963,127.658Z"/>
      <path id="Path_1214" data-name="Path 1214" class="cls-21" d="M1452.1,123.879c-.449-3.443-15.463-4.319-33.532-1.955s-32.355,7.068-31.906,10.51,15.463,4.316,33.535,1.953S1452.547,127.318,1452.1,123.879Z"/>
      <path id="Path_1215" data-name="Path 1215" class="cls-20" d="M1434.9,127.564c-.211-1.611-7.246-2.021-15.713-.915s-15.16,3.312-14.951,4.926,7.247,2.022,15.715.915S1435.106,129.177,1434.9,127.564Z"/>
      <path id="Path_1216" data-name="Path 1216" class="cls-20" d="M1404.2,131.621a15.5,15.5,0,1,0,30.738-4.019"/>
      <g id="Group_967" data-name="Group 967">
        <path id="Path_1217" data-name="Path 1217" class="cls-14" d="M1404.215,131.5v0Z"/>
        <g id="Group_966" data-name="Group 966">
          <path id="Path_1218" data-name="Path 1218" class="cls-19" d="M1408.409,129.056a45.1,45.1,0,0,1,4.523-1.234,14.526,14.526,0,0,0-.143,4.636c0,.016.008-.037.008-.037h.008c.758,7,4.373,10.306,9.2,12.333-.138.023-.082.1-.219.121a14.938,14.938,0,0,1-17.163-13.419v.055a.88.88,0,0,1-.2-.012c0-.012-.1,0-.1,0-.005-.027-.053-.055-.058-.082C1404.509,130.725,1405.95,129.881,1408.409,129.056Z"/>
        </g>
      </g>
    </g>
    <path id="Path_1219" data-name="Path 1219" class="cls-22" d="M849.326,17.1a6.3,6.3,0,1,1-6.3-6.327A6.315,6.315,0,0,1,849.326,17.1Z" transform="translate(160.995 -0.723)"/>
    <path id="Path_1220" data-name="Path 1220" class="cls-23" d="M672.561,160.77a5.633,5.633,0,1,1-5.633-5.652A5.642,5.642,0,0,1,672.561,160.77Z" transform="translate(160.995 -0.723)"/>
    <path id="Path_1221" data-name="Path 1221" class="cls-24" d="M203.991,45.6a5.633,5.633,0,1,1-5.633-5.653A5.642,5.642,0,0,1,203.991,45.6Z" transform="translate(160.995 -0.723)"/>
    <g id="Group_971" data-name="Group 971" transform="translate(160.995 -0.723)">
      <g id="Group_970" data-name="Group 970">
        <path id="Path_1222" data-name="Path 1222" class="cls-25" d="M381.485,60.3c.758-3.642-14.125-9.825-33.246-13.811s-35.233-4.263-35.992-.624"/>
        <path id="Path_1223" data-name="Path 1223" class="cls-25" d="M365.282,56.92c.4-1.938-7.513-5.227-17.686-7.346s-18.744-2.269-19.147-.333"/>
        <path id="Path_1224" data-name="Path 1224" class="cls-25" d="M374.325,58.805c.6-2.888-11.2-7.792-26.369-10.953s-27.947-3.383-28.549-.5"/>
        <path id="Path_1225" data-name="Path 1225" class="cls-20" d="M355.819,52.609a8.411,8.411,0,1,1-8.41-8.411A8.41,8.41,0,0,1,355.819,52.609Z"/>
        <path id="Path_1226" data-name="Path 1226" class="cls-23" d="M347.409,44.2a8.4,8.4,0,0,0-2.159.29,8.4,8.4,0,0,1,0,16.241A8.407,8.407,0,1,0,347.409,44.2Z"/>
        <path id="Path_1227" data-name="Path 1227" class="cls-26" d="M328.449,49.241c-.4,1.939,7.515,5.228,17.687,7.349s18.743,2.268,19.146.33"/>
        <path id="Path_1228" data-name="Path 1228" class="cls-26" d="M319.407,47.355c-.6,2.891,11.2,7.8,26.368,10.958s27.951,3.382,28.55.492"/>
        <path id="Path_1229" data-name="Path 1229" class="cls-27" d="M312.247,45.863"/>
        <path id="Path_1230" data-name="Path 1230" class="cls-27" d="M381.485,60.3"/>
        <path id="Path_1231" data-name="Path 1231" class="cls-28" d="M312.247,45.863c-.76,3.643,13.6,10.76,32.717,14.746s35.763,3.331,36.521-.311"/>
        <g id="Group_969" data-name="Group 969">
          <path id="Path_1232" data-name="Path 1232" class="cls-14" d="M355.656,54.129h0Z"/>
        </g>
      </g>
      <path id="Path_1233" data-name="Path 1233" class="cls-19" d="M359.769,73.475A1.44,1.44,0,1,1,361.1,75.01,1.437,1.437,0,0,1,359.769,73.475Z"/>
      <path id="Path_1234" data-name="Path 1234" class="cls-19" d="M314.843,57.689a.9.9,0,1,1,.833.96A.9.9,0,0,1,314.843,57.689Z"/>
      <path id="Path_1235" data-name="Path 1235" class="cls-19" d="M368.806,47.65a.9.9,0,1,1,.834.96A.9.9,0,0,1,368.806,47.65Z"/>
    </g>
    <g id="Group_972" data-name="Group 972" transform="translate(160.995 -0.723)">
      <path id="Path_1236" data-name="Path 1236" class="cls-24" d="M1215.621,97.864a13.071,13.071,0,1,0-13.275,12.9A13.09,13.09,0,0,0,1215.621,97.864Z"/>
      <path id="Path_1237" data-name="Path 1237" class="cls-20" d="M1209.839,86.864a13.04,13.04,0,1,0-13.113,22.467,13.336,13.336,0,0,0,1.722.7,14.394,14.394,0,0,1-2.935-7.117,3.056,3.056,0,0,0,1.738-5.772,3.013,3.013,0,0,0-1.163-.308,14.494,14.494,0,0,1,.79-1.958c.2-.41.422-.8.655-1.183a2.007,2.007,0,0,0,2.363-2.914A14.4,14.4,0,0,1,1209.839,86.864Zm-16.075,11.97a2.38,2.38,0,1,1,1.089,3.185A2.385,2.385,0,0,1,1193.764,98.834Zm.345-4.05c-.466.947-1.3,1.494-1.861,1.219s-.639-1.272-.172-2.22,1.3-1.495,1.861-1.22S1194.575,93.835,1194.109,94.784Zm6.509-7.221c-.674.387-1.4.377-1.63-.021s.128-1.033.8-1.419,1.4-.376,1.626.022S1201.289,87.178,1200.618,87.563Zm-1.327,4.78a1.263,1.263,0,1,1-.576-1.692A1.267,1.267,0,0,1,1199.291,92.343Zm6.025,6.442a1.765,1.765,0,1,1-1.026-2.389A1.844,1.844,0,0,1,1205.316,98.785Zm.412-7.753a.9.9,0,1,1,.024-1.346A.952.952,0,0,1,1205.728,91.032Z"/>
    </g>
    <g id="Group_977" data-name="Group 977" class="cls-29" transform="translate(160.995 -0.723)">
      <g id="Group_976" data-name="Group 976">
        <path id="Path_1238" data-name="Path 1238" class="cls-30" d="M1264.611,88.666a35.333,35.333,0,1,0,35.332-35.334A35.333,35.333,0,0,0,1264.611,88.666Z"/>
        <g id="Group_975" data-name="Group 975">
          <g id="Group_974" data-name="Group 974" class="cls-31">
            <g id="Group_973" data-name="Group 973">
              <path id="Path_1239" data-name="Path 1239" class="cls-18" d="M1330.511,88.668a30.57,30.57,0,1,1-30.57-30.57A30.571,30.571,0,0,1,1330.511,88.668Z"/>
              <path id="Path_1240" data-name="Path 1240" class="cls-32" d="M1325.578,60.59c-.561.381-16.817,3.31-18.916,5.406s-2,4.236-3.572,6.325-5.834,2.142-7.325,5.372,1.629,6.84,3.939,7.03.46-8.27,5.437-8.114,6.06,4.143,4.948,5.75-9.431,6.334-9.441,9.395.4,8.3,2.087,9.29,6.021.343,7.131,1.729-1.444,6.359,1.856,7.795,8.352-7.383,9.136-10.822,1.875-12.574-.263-14.879-9.961-.25-7.641-3.719,20.176,0,20.176,0"/>
              <path id="Path_1241" data-name="Path 1241" class="cls-32" d="M1277.314,68.111s9.725-.418,10.451,2.228.463,12.9-1.057,15.813-3.113,3.243-4.9,4.436-2.579,2.312-.528,3.836,9.064-.729,10.521,1.918.529,8.736,0,10.058-2.582,2.116-1.39,3.811,5.426,2.142,4.963,3.667-6.087.331-9.726-.993-12.176-9.727-11.316-12.77,3.506-3.244,3.442-5.362-7.014-6.415-7.014-6.415-7.411-6.154-6.02-10.92S1277.314,68.111,1277.314,68.111Z"/>
              <path id="Path_1242" data-name="Path 1242" class="cls-32" d="M1290.728,118.56s4.648-1.478,6.135-2.16,1.566-4.03,2.912-4.384,4.09-.27,8.547,1.148,11.658-1.248,11.658-1.248l-2.668,6.883-18.411,3.4Z"/>
              <path id="Path_1243" data-name="Path 1243" class="cls-32" d="M1304.616,59.851s-4.841.594-6.428.991-2.282,3.674-3.672,3.771-3.275-1.933-5.954-2.33-7.738,1.588-7.738,1.588l3.966-7.595,17.139-2.581Z"/>
            </g>
          </g>
        </g>
      </g>
      <path id="Path_1245" data-name="Path 1245" class="cls-33" d="M1299.943,58.15a30.536,30.536,0,0,1,6.195.632,30.521,30.521,0,0,0,0,59.769,30.518,30.518,0,1,1-6.195-60.4Z"/>
    </g>
    <g id="Group_990" data-name="Group 990" transform="translate(160.995 -0.723)">
      <g id="Group_989" data-name="Group 989" class="cls-34">
        <g id="Group_988" data-name="Group 988">
          <g id="Group_978" data-name="Group 978">
            <path id="Path_1246" data-name="Path 1246" class="cls-35" d="M246.541,120.774A30.161,30.161,0,1,0,276.7,90.61,30.163,30.163,0,0,0,246.541,120.774Z"/>
          </g>
          <g id="Group_979" data-name="Group 979">
            <path id="Path_1247" data-name="Path 1247" class="cls-32" d="M312.028,99.363a17.056,17.056,0,0,0-8.65,2.114,16.772,16.772,0,0,1-15.527,0,18.738,18.738,0,0,0-17.292,0,16.77,16.77,0,0,1-15.526,0,17.01,17.01,0,0,0-8.642-2.114,19.059,19.059,0,0,0-9.1,2.114,15.951,15.951,0,0,1-8.219,1.905v2.009a19.275,19.275,0,0,0,9.1-2.111,16.144,16.144,0,0,1,7.988-1.907,15.662,15.662,0,0,1,7.881,1.907,18.929,18.929,0,0,0,17.374,0,16.8,16.8,0,0,1,15.546,0,18.775,18.775,0,0,0,17.3,0,15.2,15.2,0,0,1,7.77-1.907c3.872,0,4.531.925,6.537,1.907,2.12,1.038,3.144,2.111,7.419,2.111v-2.009c-4.275,0-4.533-.926-6.539-1.905C317.324,100.436,316.365,99.363,312.028,99.363Z"/>
          </g>
          <g id="Group_980" data-name="Group 980">
            <path id="Path_1248" data-name="Path 1248" class="cls-32" d="M312.028,119.623a16.551,16.551,0,0,0-8.663,2.205,14.715,14.715,0,0,1-7.756,1.982,1.006,1.006,0,0,0,0,2.011,16.591,16.591,0,0,0,8.669-2.205,14.689,14.689,0,0,1,7.75-1.983A15.43,15.43,0,0,1,319.8,123.5a17.379,17.379,0,0,0,8.642,2.065,1,1,0,0,0,0-2.009,15.436,15.436,0,0,1-7.775-1.872A17.393,17.393,0,0,0,312.028,119.623Z"/>
          </g>
          <g id="Group_981" data-name="Group 981">
            <path id="Path_1249" data-name="Path 1249" class="cls-32" d="M246.391,117.613a17.63,17.63,0,0,0-8.629,2.023,15.7,15.7,0,0,1-7.772,1.83,1.005,1.005,0,1,0,0,2.011,17.587,17.587,0,0,0,8.625-2.024,15.743,15.743,0,0,1,7.776-1.83,13.859,13.859,0,0,1,8.027,2.5,15.761,15.761,0,0,0,9.059,2.776,1,1,0,1,0,0-2.007,13.862,13.862,0,0,1-8.03-2.5A15.747,15.747,0,0,0,246.391,117.613Z"/>
          </g>
          <g id="Group_982" data-name="Group 982">
            <path id="Path_1250" data-name="Path 1250" class="cls-32" d="M300.185,92.053a11.364,11.364,0,0,0-5.685,1.385,10.353,10.353,0,0,1-9.6,0,12.364,12.364,0,0,0-11.372,0,10.353,10.353,0,0,1-9.6,0,11.366,11.366,0,0,0-5.684-1.385,15.128,15.128,0,0,0-6.472,1.385,11.52,11.52,0,0,1-5.593,1.181V96.63a15.161,15.161,0,0,0,6.475-1.386,11.127,11.127,0,0,1,5.2-1.181,10.22,10.22,0,0,1,5,1.181,11.8,11.8,0,0,0,5.785,1.386,11.593,11.593,0,0,0,5.735-1.386,10.422,10.422,0,0,1,9.638,0,12.379,12.379,0,0,0,11.383,0,9.409,9.409,0,0,1,4.8-1.181c2.39,0,1.954.573,3.2,1.181a30.748,30.748,0,0,0,4.073,1.386V94.619a25.214,25.214,0,0,1-3.191-1.181C302.934,92.789,303.044,92.053,300.185,92.053Z"/>
          </g>
          <g id="Group_983" data-name="Group 983">
            <path id="Path_1251" data-name="Path 1251" class="cls-32" d="M299.77,142.188a12.183,12.183,0,0,0-6.087,1.482,11.214,11.214,0,0,1-10.4,0,13.221,13.221,0,0,0-12.164,0,11.2,11.2,0,0,1-10.4,0,13.262,13.262,0,0,0-12.184,0,28.893,28.893,0,0,1-5.217,1.279v2.01a37.27,37.27,0,0,0,6.1-1.482,11.211,11.211,0,0,1,10.412,0,13.217,13.217,0,0,0,12.162,0,11.191,11.191,0,0,1,10.4,0,13.227,13.227,0,0,0,12.167,0,10.167,10.167,0,0,1,5.2-1.282,8.693,8.693,0,0,1,4.828,1.28,11.2,11.2,0,0,0,5.713,1.484v-2.01a8.043,8.043,0,0,1-4.83-1.279A10.6,10.6,0,0,0,299.77,142.188Z"/>
          </g>
          <g id="Group_984" data-name="Group 984">
            <path id="Path_1252" data-name="Path 1252" class="cls-36" d="M274.756,122.466c0-1.2-1.61-2.172-3.6-2.172s-3.6.969-3.6,2.172,1.616,2.174,3.6,2.174S274.756,123.665,274.756,122.466Z"/>
          </g>
          <g id="Group_985" data-name="Group 985">
            <path id="Path_1253" data-name="Path 1253" class="cls-32" d="M307.781,126.591a16.552,16.552,0,0,0-9.551,2.814,9.615,9.615,0,0,1-10.832,0,17.581,17.581,0,0,0-19.085,0,9.59,9.59,0,0,1-10.815,0,16.538,16.538,0,0,0-9.546-2.815,15.917,15.917,0,0,0-9.371,2.815,20.96,20.96,0,0,1-5.237,1.67v8.039a31.656,31.656,0,0,0,9.373-2.816,8.531,8.531,0,0,1,5.32-1.67,8.666,8.666,0,0,1,5.367,1.67,17.525,17.525,0,0,0,19.055,0,9.583,9.583,0,0,1,10.811,0,17.595,17.595,0,0,0,19.093,0,8.8,8.8,0,0,1,5.417-1.672c2.631,0,2.507.666,4.187,1.672,2.093,1.252,5.466,2.814,8.316,2.814v-8.039c-1.426,0-2.5-.663-4.182-1.671C314.005,128.151,312.634,126.591,307.781,126.591Z"/>
          </g>
          <g id="Group_986" data-name="Group 986">
            <path id="Path_1254" data-name="Path 1254" class="cls-32" d="M311.693,105.726a19.007,19.007,0,0,0-9.529,2.317,14.768,14.768,0,0,1-13.762,0,20.741,20.741,0,0,0-19.06,0,14.766,14.766,0,0,1-13.757,0,20.741,20.741,0,0,0-19.06,0,13.182,13.182,0,0,1-6.871,1.7,3.014,3.014,0,1,0,0,6.028,18.987,18.987,0,0,0,9.527-2.317,14.742,14.742,0,0,1,13.749,0,20.766,20.766,0,0,0,19.064,0,14.754,14.754,0,0,1,13.755,0,20.761,20.761,0,0,0,19.062,0,14.774,14.774,0,0,1,13.767,0,19.019,19.019,0,0,0,9.533,2.316,3.014,3.014,0,1,0,0-6.028,13.21,13.21,0,0,1-6.884-1.7A19.025,19.025,0,0,0,311.693,105.726Z"/>
          </g>
          <path id="Path_1255" data-name="Path 1255" class="cls-37" d="M292.69,120.774a30.167,30.167,0,0,0-23.073-29.318,30.161,30.161,0,1,1,0,58.634A30.17,30.17,0,0,0,292.69,120.774Z"/>
          <g id="Group_987" data-name="Group 987">
            <path id="Path_1256" data-name="Path 1256" class="cls-36" d="M287.744,118.77c0-1.7-2.174-3.082-4.857-3.082s-4.854,1.384-4.854,3.082,2.171,3.079,4.854,3.079S287.744,120.47,287.744,118.77Z"/>
          </g>
        </g>
      </g>
    </g>
    <g id="Group_993" data-name="Group 993" transform="translate(160.995 -0.723)">
      <path id="Path_1258" data-name="Path 1258" class="cls-20" d="M121.518,158.852a13.392,13.392,0,0,0,26.42-4.4"/>
      <path id="Path_1259" data-name="Path 1259" class="cls-19" d="M140.5,158.215A39.888,39.888,0,0,0,144.44,157c1.2-.45,3.045-1.253,3.54-2.061a13.418,13.418,0,0,1-11.058,14.957,12.967,12.967,0,0,1-6.865-.725A13.5,13.5,0,0,0,140.5,158.215Z"/>
      <path id="Path_1260" data-name="Path 1260" class="cls-24" d="M106.823,162.656c.492,2.959,13.484,3.262,29.014.678s27.726-7.075,27.233-10.035-13.482-3.261-29.015-.676S106.333,159.7,106.823,162.656Z"/>
      <path id="Path_1261" data-name="Path 1261" class="cls-20" d="M121.568,158.956c.228,1.387,6.317,1.528,13.594.316s12.992-3.315,12.761-4.7-6.318-1.528-13.6-.318S121.336,157.571,121.568,158.956Z"/>
      <path id="Path_1262" data-name="Path 1262" class="cls-20" d="M147.948,154.529a13.392,13.392,0,1,0-26.421,4.4"/>
      <g id="Group_992" data-name="Group 992">
        <path id="Path_1263" data-name="Path 1263" class="cls-14" d="M147.939,154.636h0Z"/>
        <g id="Group_991" data-name="Group 991">
          <path id="Path_1264" data-name="Path 1264" class="cls-19" d="M144.4,156.973c-1.132.424-2.567.844-3.991,1.215.553-5.379-4.825-13.383-7.855-14.691,11.469-1.289,15.085,7.823,15.39,11.139C147.852,155.419,146.494,156.185,144.4,156.973Z"/>
        </g>
      </g>
    </g>
    <g id="Group_994" data-name="Group 994" transform="translate(160.995 -0.723)">
      <path id="Path_1265" data-name="Path 1265" class="cls-4" d="M1466.518,31.786a.477.477,0,1,1-.477-.478A.476.476,0,0,1,1466.518,31.786Z"/>
      <path id="Path_1266" data-name="Path 1266" class="cls-4" d="M1478.133,35.57a.478.478,0,1,1-.477-.477A.477.477,0,0,1,1478.133,35.57Z"/>
      <path id="Path_1267" data-name="Path 1267" class="cls-4" d="M1476.7,27.919a1.237,1.237,0,1,1-1.237-1.235A1.235,1.235,0,0,1,1476.7,27.919Z"/>
    </g>
    <g id="Group_995" data-name="Group 995" transform="translate(160.995 -0.723)">
      <path id="Path_1268" data-name="Path 1268" class="cls-4" d="M411.659,119.535a.478.478,0,1,1-.665.113A.478.478,0,0,1,411.659,119.535Z"/>
      <path id="Path_1269" data-name="Path 1269" class="cls-4" d="M421.455,112.236a.478.478,0,1,1-.665.114A.477.477,0,0,1,421.455,112.236Z"/>
      <path id="Path_1270" data-name="Path 1270" class="cls-4" d="M414.38,108.989a1.237,1.237,0,1,1-1.723.3A1.236,1.236,0,0,1,414.38,108.989Z"/>
    </g>
  </g>
</svg>
