<svg xmlns="http://www.w3.org/2000/svg" xmlns:xlink="http://www.w3.org/1999/xlink" width="1600" height="325" viewBox="0 0 1600 325">
  <defs>
    <style>
      .cls-1, .cls-2, .cls-24, .cls-25, .cls-26, .cls-27 {
        fill: none;
      }

      .cls-2 {
        clip-rule: evenodd;
      }

      .cls-3 {
        fill: url(#radial-gradient);
      }

      .cls-38, .cls-4, .cls-5, .cls-9 {
        fill: #fff;
      }

      .cls-5, .cls-9 {
        opacity: 0.2;
      }

      .cls-6, .cls-7, .cls-8 {
        fill: #7c4ea0;
      }

      .cls-6, .cls-7 {
        stroke: #7c4ea0;
      }

      .cls-6, .cls-7, .cls-9 {
        stroke-linecap: round;
        stroke-linejoin: round;
      }

      .cls-27, .cls-6, .cls-9 {
        stroke-width: 3px;
      }

      .cls-37, .cls-6, .cls-7 {
        opacity: 0.4;
      }

      .cls-7 {
        stroke-width: 4.842px;
      }

      .cls-8 {
        opacity: 0.6;
      }

      .cls-9 {
        stroke: #fff;
      }

      .cls-10 {
        fill: url(#linear-gradient);
      }

      .cls-11 {
        fill: url(#linear-gradient-2);
      }

      .cls-12 {
        fill: url(#linear-gradient-3);
      }

      .cls-13 {
        fill: url(#radial-gradient-2);
      }

      .cls-14, .cls-29, .cls-33 {
        fill: #ddbaff;
      }

      .cls-15 {
        fill: url(#radial-gradient-3);
      }

      .cls-16 {
        fill: url(#radial-gradient-4);
      }

      .cls-17, .cls-22 {
        opacity: 0.8;
      }

      .cls-18, .cls-35 {
        fill: #7b50a2;
      }

      .cls-19 {
        fill: #ae83d5;
      }

      .cls-20 {
        fill: #633587;
      }

      .cls-21, .cls-22 {
        fill: #9668ba;
      }

      .cls-23 {
        fill: #300054;
      }

      .cls-24, .cls-25, .cls-27 {
        stroke: #ddbaff;
      }

      .cls-24, .cls-25, .cls-26, .cls-27 {
        stroke-miterlimit: 10;
      }

      .cls-24, .cls-25, .cls-27, .cls-29 {
        opacity: 0.3;
      }

      .cls-25 {
        stroke-width: 2px;
      }

      .cls-26 {
        stroke: #623789;
      }

      .cls-28 {
        opacity: 0.7;
      }

      .cls-30 {
        clip-path: url(#clip-path);
      }

      .cls-31 {
        fill: #956abc;
      }

      .cls-32, .cls-36 {
        fill: #481d6f;
      }

      .cls-33 {
        opacity: 0.5;
      }

      .cls-34 {
        clip-path: url(#clip-path-2);
      }

      .cls-35, .cls-36, .cls-37 {
        fill-rule: evenodd;
      }

      .cls-37 {
        fill: #edf;
      }

      .cls-38 {
        opacity: 0.05;
      }

      .cls-39 {
        fill: #624d97;
      }
    </style>
    <radialGradient id="radial-gradient" cx="0.506" cy="0.505" r="0.483" gradientUnits="objectBoundingBox">
      <stop offset="0" stop-color="#731089"/>
      <stop offset="0.295" stop-color="#6c1184"/>
      <stop offset="0.711" stop-color="#591578"/>
      <stop offset="1" stop-color="#481b6e"/>
    </radialGradient>
    <linearGradient id="linear-gradient" y1="0.5" x2="1" y2="0.5" gradientUnits="objectBoundingBox">
      <stop offset="0" stop-color="#b61e81"/>
      <stop offset="1" stop-color="#ea1f4c"/>
    </linearGradient>
    <linearGradient id="linear-gradient-2" x1="43.973" y1="101.867" x2="44.972" y2="101.867" xlink:href="#linear-gradient"/>
    <linearGradient id="linear-gradient-3" x1="0" y1="0.5" x2="1" y2="0.5" xlink:href="#linear-gradient"/>
    <radialGradient id="radial-gradient-2" cx="1.007" cy="0.918" r="6.117" gradientTransform="translate(0.415) scale(0.169 1)" gradientUnits="objectBoundingBox">
      <stop offset="0" stop-color="#ae83d5"/>
      <stop offset="1" stop-color="#ae83d5" stop-opacity="0"/>
    </radialGradient>
    <radialGradient id="radial-gradient-3" cx="1.007" cy="0.918" r="6.136" gradientTransform="translate(0.417) scale(0.166 1)" xlink:href="#radial-gradient-2"/>
    <radialGradient id="radial-gradient-4" cx="1.007" cy="0.918" r="6.087" gradientTransform="translate(0.413) scale(0.174 1)" xlink:href="#radial-gradient-2"/>
    <clipPath id="clip-path">
      <path id="Path_1352" data-name="Path 1352" class="cls-1" d="M1307.311,53.42a30.57,30.57,0,1,1-30.57-30.57A30.572,30.572,0,0,1,1307.311,53.42Z"/>
    </clipPath>
    <clipPath id="clip-path-2">
      <path id="Path_1365" data-name="Path 1365" class="cls-2" d="M246.541,193.274A30.161,30.161,0,1,0,276.7,163.11,30.163,30.163,0,0,0,246.541,193.274Z"/>
    </clipPath>
  </defs>
  <g id="home-header" transform="translate(-184 622)">
    <rect id="Rectangle_196" data-name="Rectangle 196" class="cls-3" width="1600" height="325" transform="translate(184 -622)"/>
    <g id="Layer_1" data-name="Layer 1" transform="translate(185 -621.851)">
      <path id="Path_1271" data-name="Path 1271" class="cls-4" d="M133.481,151.26a1.191,1.191,0,1,1-1.192-1.192A1.19,1.19,0,0,1,133.481,151.26Z"/>
      <path id="Path_1272" data-name="Path 1272" class="cls-4" d="M78.554,240.479a1.192,1.192,0,1,1-1.192-1.192A1.19,1.19,0,0,1,78.554,240.479Z"/>
      <path id="Path_1273" data-name="Path 1273" class="cls-4" d="M1228.1,133.26a.808.808,0,1,1-.809-.809A.807.807,0,0,1,1228.1,133.26Z"/>
      <path id="Path_1274" data-name="Path 1274" class="cls-4" d="M69.615,117.5a.808.808,0,1,1-.808-.809A.806.806,0,0,1,69.615,117.5Z"/>
      <path id="Path_1275" data-name="Path 1275" class="cls-4" d="M1330.809,105.025a.808.808,0,1,1-.809-.808A.807.807,0,0,1,1330.809,105.025Z"/>
      <path id="Path_1276" data-name="Path 1276" class="cls-4" d="M1450,209.834a.807.807,0,1,1-.809-.809A.807.807,0,0,1,1450,209.834Z"/>
      <path id="Path_1277" data-name="Path 1277" class="cls-4" d="M342.809,220.691a.808.808,0,1,1-.809-.808A.807.807,0,0,1,342.809,220.691Z"/>
      <path id="Path_1278" data-name="Path 1278" class="cls-4" d="M354.462,301.329a.808.808,0,1,1-.808-.809A.808.808,0,0,1,354.462,301.329Z"/>
      <path id="Path_1279" data-name="Path 1279" class="cls-4" d="M214.974,79.1a.808.808,0,1,1-.809-.809A.807.807,0,0,1,214.974,79.1Z"/>
      <path id="Path_1280" data-name="Path 1280" class="cls-4" d="M85.17,248.479a.808.808,0,1,1-.808-.809A.806.806,0,0,1,85.17,248.479Z"/>
      <path id="Path_1281" data-name="Path 1281" class="cls-4" d="M358.486,290.11a1.19,1.19,0,1,1-1.192-1.191A1.19,1.19,0,0,1,358.486,290.11Z"/>
      <path id="Path_1282" data-name="Path 1282" class="cls-4" d="M828.577,284.553a1.191,1.191,0,1,1-1.191-1.191A1.19,1.19,0,0,1,828.577,284.553Z"/>
      <path id="Path_1283" data-name="Path 1283" class="cls-4" d="M229.288,155.283a1.19,1.19,0,1,1-1.191-1.191A1.189,1.189,0,0,1,229.288,155.283Z"/>
      <path id="Path_1284" data-name="Path 1284" class="cls-4" d="M1014.178,241.566a1.19,1.19,0,1,1-1.192-1.191A1.189,1.189,0,0,1,1014.178,241.566Z"/>
      <path id="Path_1285" data-name="Path 1285" class="cls-4" d="M873.178,245.566a1.19,1.19,0,1,1-1.192-1.191A1.189,1.189,0,0,1,873.178,245.566Z"/>
      <path id="Path_1286" data-name="Path 1286" class="cls-4" d="M261.27,112.894a1.191,1.191,0,1,1-1.191-1.192A1.189,1.189,0,0,1,261.27,112.894Z"/>
      <path id="Path_1287" data-name="Path 1287" class="cls-5" d="M59.334,155.162a2.718,2.718,0,1,1-2.719-2.727A2.723,2.723,0,0,1,59.334,155.162Z"/>
      <path id="Path_1288" data-name="Path 1288" class="cls-6" d="M129.857,223.414a5.634,5.634,0,1,1-5.634-5.652A5.643,5.643,0,0,1,129.857,223.414Z"/>
      <path id="Path_1289" data-name="Path 1289" class="cls-7" d="M207.241,297.352a9.092,9.092,0,1,1-9.092-9.122A9.105,9.105,0,0,1,207.241,297.352Z"/>
      <path id="Path_1290" data-name="Path 1290" class="cls-5" d="M147.818,106.051a3.428,3.428,0,1,1-3.427-3.441A3.434,3.434,0,0,1,147.818,106.051Z"/>
      <path id="Path_1291" data-name="Path 1291" class="cls-6" d="M203.389,31.96a5.634,5.634,0,1,1-5.634-5.653A5.643,5.643,0,0,1,203.389,31.96Z"/>
      <path id="Path_1292" data-name="Path 1292" class="cls-6" d="M999.575,31.96a5.634,5.634,0,1,1-5.634-5.653A5.643,5.643,0,0,1,999.575,31.96Z"/>
      <path id="Path_1293" data-name="Path 1293" class="cls-5" d="M153.284,39.837a3.429,3.429,0,1,1-3.428-3.44A3.435,3.435,0,0,1,153.284,39.837Z"/>
      <path id="Path_1294" data-name="Path 1294" class="cls-5" d="M37.241,61.277a3.428,3.428,0,1,1-3.427-3.44A3.434,3.434,0,0,1,37.241,61.277Z"/>
      <path id="Path_1295" data-name="Path 1295" class="cls-4" d="M1314.269,116.894a1.191,1.191,0,1,1-1.19-1.192A1.188,1.188,0,0,1,1314.269,116.894Z"/>
      <path id="Path_1296" data-name="Path 1296" class="cls-4" d="M1471.269,218.894a1.191,1.191,0,1,1-1.19-1.192A1.188,1.188,0,0,1,1471.269,218.894Z"/>
      <path id="Path_1297" data-name="Path 1297" class="cls-4" d="M1553.716,169.834a1.191,1.191,0,1,1-1.191-1.191A1.188,1.188,0,0,1,1553.716,169.834Z"/>
      <path id="Path_1298" data-name="Path 1298" class="cls-5" d="M545.224,37.114a3.633,3.633,0,1,1-3.632-3.645A3.638,3.638,0,0,1,545.224,37.114Z"/>
      <path id="Path_1299" data-name="Path 1299" class="cls-5" d="M1420.887,105.451a2.626,2.626,0,1,1-2.625-2.635A2.63,2.63,0,0,1,1420.887,105.451Z"/>
      <path id="Path_1300" data-name="Path 1300" class="cls-5" d="M1531.045,151.094a2.626,2.626,0,1,1-2.625-2.635A2.63,2.63,0,0,1,1531.045,151.094Z"/>
      <path id="Path_1301" data-name="Path 1301" class="cls-5" d="M1152.055,151.094a2.626,2.626,0,1,1-2.625-2.635A2.63,2.63,0,0,1,1152.055,151.094Z"/>
      <path id="Path_1302" data-name="Path 1302" class="cls-5" d="M1517.627,97.375A2.626,2.626,0,1,1,1515,94.74,2.632,2.632,0,0,1,1517.627,97.375Z"/>
      <path id="Path_1303" data-name="Path 1303" class="cls-5" d="M885.294,233.663a2.626,2.626,0,1,1-2.626-2.635A2.631,2.631,0,0,1,885.294,233.663Z"/>
      <path id="Path_1304" data-name="Path 1304" class="cls-5" d="M162.627,175.664A2.626,2.626,0,1,1,160,173.029,2.631,2.631,0,0,1,162.627,175.664Z"/>
      <path id="Path_1305" data-name="Path 1305" class="cls-5" d="M1119.327,226.109a3.5,3.5,0,1,1-3.5-3.506A3.5,3.5,0,0,1,1119.327,226.109Z"/>
      <ellipse id="Ellipse_142" data-name="Ellipse 142" class="cls-8" cx="7.633" cy="7.658" rx="7.633" ry="7.658" transform="translate(1225.67 239.746)"/>
      <path id="Path_1306" data-name="Path 1306" class="cls-9" d="M945.534,303.844a2.912,2.912,0,1,1-2.912-2.922A2.918,2.918,0,0,1,945.534,303.844Z"/>
      <ellipse id="Ellipse_143" data-name="Ellipse 143" class="cls-10" cx="3.236" cy="3.248" rx="3.236" ry="3.248" transform="translate(318.072 254.796)"/>
      <path id="Path_1307" data-name="Path 1307" class="cls-11" d="M204.656,211.733a3.236,3.236,0,1,1-2.755-3.666A3.242,3.242,0,0,1,204.656,211.733Z"/>
      <path id="Path_1308" data-name="Path 1308" class="cls-12" d="M1273.225,102.817a1.42,1.42,0,1,1-1.419-1.424A1.422,1.422,0,0,1,1273.225,102.817Z"/>
      <g id="Group_998" data-name="Group 998">
        <path id="Path_1309" data-name="Path 1309" class="cls-13" d="M462.009,266.714c-.475-.1-145.147-22.608-144.8-22.263s144.208,24.856,144.552,24.513S462.554,266.829,462.009,266.714Z"/>
        <path id="Path_1310" data-name="Path 1310" class="cls-14" d="M463.175,267.924a1.382,1.382,0,1,1-1.382-1.382A1.382,1.382,0,0,1,463.175,267.924Z"/>
      </g>
      <g id="Group_999" data-name="Group 999">
        <path id="Path_1311" data-name="Path 1311" class="cls-15" d="M1185.3,288.175c-.344-.345-.895-.26-1.44-.375-.475-.1-143.49-22.793-143.146-22.448s144.243,24.409,144.586,24.065A.874.874,0,0,0,1185.3,288.175Z"/>
        <path id="Path_1312" data-name="Path 1312" class="cls-14" d="M1186.686,288.824a1.382,1.382,0,1,1-1.382-1.382A1.382,1.382,0,0,1,1186.686,288.824Z"/>
      </g>
      <g id="Group_1000" data-name="Group 1000">
        <path id="Path_1313" data-name="Path 1313" class="cls-16" d="M1123.714,297.459c-.239-.237-.231-.608-.606-.688-.327-.068-62.508-9.342-62.269-9.1s62.012,11.154,62.25,10.917S1123.949,297.7,1123.714,297.459Z"/>
        <path id="Path_1314" data-name="Path 1314" class="cls-14" d="M1124.255,297.692a.952.952,0,1,1-.952-.952A.952.952,0,0,1,1124.255,297.692Z"/>
      </g>
      <g id="Group_1003" data-name="Group 1003" class="cls-17">
        <path id="Path_1315" data-name="Path 1315" class="cls-18" d="M1487.418,150.783a15.5,15.5,0,1,0-30.739,4.022"/>
        <path id="Path_1316" data-name="Path 1316" class="cls-19" d="M1465.431,150.754a46.25,46.25,0,0,0-4.6,1.25c-1.4.473-3.574,1.325-4.18,2.24a15.528,15.528,0,0,1,13.393-16.853,15,15,0,0,1,7.914,1.115A15.62,15.62,0,0,0,1465.431,150.754Z"/>
        <path id="Path_1317" data-name="Path 1317" class="cls-20" d="M1504.566,146.975c-.449-3.443-15.463-4.319-33.532-1.955s-32.355,7.068-31.906,10.509,15.464,4.317,33.535,1.953S1505.015,150.414,1504.566,146.975Z"/>
        <path id="Path_1318" data-name="Path 1318" class="cls-18" d="M1487.363,150.66c-.211-1.611-7.246-2.021-15.713-.915s-15.16,3.312-14.951,4.926,7.247,2.021,15.715.915S1487.574,152.273,1487.363,150.66Z"/>
        <path id="Path_1319" data-name="Path 1319" class="cls-18" d="M1456.67,154.717a15.5,15.5,0,1,0,30.738-4.019"/>
        <g id="Group_1002" data-name="Group 1002">
          <path id="Path_1320" data-name="Path 1320" class="cls-14" d="M1456.683,154.594v0Z"/>
          <g id="Group_1001" data-name="Group 1001">
            <path id="Path_1321" data-name="Path 1321" class="cls-19" d="M1460.877,152.151a45.381,45.381,0,0,1,4.523-1.233,14.492,14.492,0,0,0-.142,4.636c0,.015.007-.037.007-.037h.008c.758,7,4.373,10.305,9.2,12.333-.138.023-.082.1-.219.121a14.938,14.938,0,0,1-17.163-13.419v.054a.926.926,0,0,1-.2-.011c0-.012-.1,0-.1,0-.005-.028-.053-.055-.058-.082C1456.977,153.82,1458.418,152.977,1460.877,152.151Z"/>
          </g>
        </g>
      </g>
      <path id="Path_1322" data-name="Path 1322" class="cls-21" d="M584.042,49.788a5.633,5.633,0,1,1-5.633-5.652A5.643,5.643,0,0,1,584.042,49.788Z"/>
      <path id="Path_1323" data-name="Path 1323" class="cls-5" d="M682.7,297.211a3.633,3.633,0,1,1,4.289,2.843A3.639,3.639,0,0,1,682.7,297.211Z"/>
      <path id="Path_1324" data-name="Path 1324" class="cls-21" d="M702.993,282.2a5.633,5.633,0,1,1,6.65,4.411A5.642,5.642,0,0,1,702.993,282.2Z"/>
      <path id="Path_1325" data-name="Path 1325" class="cls-5" d="M1414.68,50.989a3.633,3.633,0,1,1,4.289,2.844A3.639,3.639,0,0,1,1414.68,50.989Z"/>
      <path id="Path_1326" data-name="Path 1326" class="cls-21" d="M1434.975,35.977a5.633,5.633,0,1,1,6.65,4.411A5.643,5.643,0,0,1,1434.975,35.977Z"/>
      <path id="Path_1327" data-name="Path 1327" class="cls-5" d="M1560.87,260.7a3.633,3.633,0,1,1-3.7-3.579A3.639,3.639,0,0,1,1560.87,260.7Z"/>
      <path id="Path_1328" data-name="Path 1328" class="cls-22" d="M1545.7,288.284a5.632,5.632,0,1,1-5.732-5.551A5.641,5.641,0,0,1,1545.7,288.284Z"/>
      <path id="Path_1329" data-name="Path 1329" class="cls-23" d="M203.991,118.1a5.633,5.633,0,1,1-5.633-5.653A5.642,5.642,0,0,1,203.991,118.1Z"/>
      <g id="Group_1006" data-name="Group 1006">
        <g id="Group_1005" data-name="Group 1005">
          <path id="Path_1330" data-name="Path 1330" class="cls-24" d="M357.906,110.368c.758-3.641-14.125-9.825-33.246-13.81s-35.233-4.264-35.992-.624"/>
          <path id="Path_1331" data-name="Path 1331" class="cls-24" d="M341.7,106.99c.4-1.937-7.514-5.226-17.687-7.345s-18.743-2.27-19.146-.333"/>
          <path id="Path_1332" data-name="Path 1332" class="cls-24" d="M350.746,108.875c.6-2.888-11.2-7.792-26.369-10.953s-27.947-3.383-28.549-.5"/>
          <path id="Path_1333" data-name="Path 1333" class="cls-18" d="M332.24,102.68a8.41,8.41,0,1,1-8.41-8.411A8.411,8.411,0,0,1,332.24,102.68Z"/>
          <path id="Path_1334" data-name="Path 1334" class="cls-21" d="M323.83,94.269a8.356,8.356,0,0,0-2.159.29,8.4,8.4,0,0,1,0,16.241,8.407,8.407,0,1,0,2.159-16.531Z"/>
          <path id="Path_1335" data-name="Path 1335" class="cls-25" d="M304.87,99.312c-.4,1.938,7.515,5.227,17.686,7.348s18.744,2.269,19.147.33"/>
          <path id="Path_1336" data-name="Path 1336" class="cls-25" d="M295.828,97.426c-.6,2.891,11.2,7.795,26.368,10.957s27.95,3.383,28.55.492"/>
          <path id="Path_1337" data-name="Path 1337" class="cls-26" d="M288.668,95.934"/>
          <path id="Path_1338" data-name="Path 1338" class="cls-26" d="M357.906,110.368"/>
          <path id="Path_1339" data-name="Path 1339" class="cls-27" d="M288.668,95.934c-.76,3.642,13.6,10.759,32.717,14.746s35.762,3.331,36.521-.312"/>
          <g id="Group_1004" data-name="Group 1004">
            <path id="Path_1340" data-name="Path 1340" class="cls-14" d="M332.077,104.2h0Z"/>
          </g>
        </g>
        <path id="Path_1341" data-name="Path 1341" class="cls-19" d="M336.189,123.545a1.44,1.44,0,1,1,1.336,1.535A1.438,1.438,0,0,1,336.189,123.545Z"/>
        <path id="Path_1342" data-name="Path 1342" class="cls-19" d="M291.264,107.76a.9.9,0,1,1,.833.96A.9.9,0,0,1,291.264,107.76Z"/>
        <path id="Path_1343" data-name="Path 1343" class="cls-19" d="M345.226,97.721a.9.9,0,1,1,.834.96A.9.9,0,0,1,345.226,97.721Z"/>
      </g>
      <g id="Group_1007" data-name="Group 1007">
        <path id="Path_1344" data-name="Path 1344" class="cls-23" d="M1224.812,207.9a13.071,13.071,0,1,0-13.274,12.9A13.089,13.089,0,0,0,1224.812,207.9Z"/>
        <path id="Path_1345" data-name="Path 1345" class="cls-18" d="M1219.031,196.9a13.04,13.04,0,1,0-13.113,22.467,13.4,13.4,0,0,0,1.721.7,14.4,14.4,0,0,1-2.934-7.117,3.055,3.055,0,0,0,1.737-5.772,3.013,3.013,0,0,0-1.162-.308,14.51,14.51,0,0,1,.79-1.958c.2-.411.422-.8.654-1.183a2.007,2.007,0,0,0,2.364-2.914A14.393,14.393,0,0,1,1219.031,196.9Zm-16.075,11.97a2.38,2.38,0,1,1,1.089,3.185A2.384,2.384,0,0,1,1202.956,208.866Zm.344-4.05c-.465.947-1.3,1.494-1.861,1.219s-.639-1.272-.172-2.22,1.3-1.495,1.862-1.22S1203.766,203.867,1203.3,204.816Zm6.509-7.221c-.674.387-1.4.377-1.63-.021s.128-1.033.805-1.419,1.4-.376,1.627.022S1210.48,197.21,1209.809,197.6Zm-1.327,4.779a1.263,1.263,0,1,1-.575-1.691A1.265,1.265,0,0,1,1208.482,202.374Zm6.025,6.443a1.765,1.765,0,1,1-1.026-2.389A1.842,1.842,0,0,1,1214.507,208.817Zm.413-7.753a.9.9,0,1,1,.024-1.346A.952.952,0,0,1,1214.92,201.064Z"/>
      </g>
      <g id="Group_1012" data-name="Group 1012" class="cls-28">
        <g id="Group_1011" data-name="Group 1011">
          <path id="Path_1346" data-name="Path 1346" class="cls-29" d="M1241.411,53.418a35.333,35.333,0,1,0,35.332-35.334A35.333,35.333,0,0,0,1241.411,53.418Z"/>
          <g id="Group_1010" data-name="Group 1010">
            <g id="Group_1009" data-name="Group 1009" class="cls-30">
              <g id="Group_1008" data-name="Group 1008">
                <path id="Path_1347" data-name="Path 1347" class="cls-31" d="M1307.311,53.42a30.57,30.57,0,1,1-30.57-30.57A30.572,30.572,0,0,1,1307.311,53.42Z"/>
                <path id="Path_1348" data-name="Path 1348" class="cls-32" d="M1302.377,25.342c-.56.381-16.816,3.311-18.916,5.406s-2,4.237-3.571,6.326-5.834,2.141-7.325,5.372,1.629,6.84,3.938,7.029.46-8.27,5.438-8.113,6.059,4.142,4.948,5.75-9.432,6.334-9.441,9.394.4,8.3,2.087,9.29,6.021.343,7.13,1.73-1.443,6.358,1.857,7.795,8.351-7.383,9.136-10.823,1.875-12.574-.263-14.878-9.961-.25-7.642-3.719,20.177,0,20.177,0"/>
                <path id="Path_1349" data-name="Path 1349" class="cls-32" d="M1254.114,32.864s9.724-.418,10.451,2.227.463,12.9-1.057,15.814-3.113,3.243-4.9,4.435-2.579,2.313-.528,3.836,9.064-.728,10.521,1.918.529,8.736,0,10.059-2.582,2.115-1.391,3.81,5.427,2.143,4.964,3.667-6.088.331-9.726-.993-12.176-9.726-11.316-12.769,3.506-3.245,3.442-5.363-7.014-6.415-7.014-6.415-7.411-6.154-6.021-10.92S1254.114,32.864,1254.114,32.864Z"/>
                <path id="Path_1350" data-name="Path 1350" class="cls-32" d="M1267.528,83.313s4.648-1.479,6.135-2.16,1.566-4.031,2.912-4.385,4.089-.27,8.547,1.148,11.658-1.248,11.658-1.248l-2.668,6.883-18.411,3.4Z"/>
                <path id="Path_1351" data-name="Path 1351" class="cls-32" d="M1281.415,24.6s-4.84.595-6.427.991-2.282,3.674-3.672,3.772-3.276-1.934-5.954-2.33-7.739,1.587-7.739,1.587l3.967-7.594,17.139-2.581Z"/>
              </g>
            </g>
          </g>
        </g>
        <path id="Path_1353" data-name="Path 1353" class="cls-33" d="M1276.743,22.9a30.537,30.537,0,0,1,6.195.632,30.52,30.52,0,0,0,0,59.768,30.517,30.517,0,1,1-6.195-60.4Z"/>
      </g>
      <g id="Group_1025" data-name="Group 1025">
        <g id="Group_1024" data-name="Group 1024" class="cls-34">
          <g id="Group_1023" data-name="Group 1023">
            <g id="Group_1013" data-name="Group 1013">
              <path id="Path_1354" data-name="Path 1354" class="cls-35" d="M246.541,193.274A30.161,30.161,0,1,0,276.7,163.11,30.163,30.163,0,0,0,246.541,193.274Z"/>
            </g>
            <g id="Group_1014" data-name="Group 1014">
              <path id="Path_1355" data-name="Path 1355" class="cls-32" d="M312.028,171.863a17.056,17.056,0,0,0-8.65,2.114,16.772,16.772,0,0,1-15.527,0,18.738,18.738,0,0,0-17.292,0,16.77,16.77,0,0,1-15.526,0,17.01,17.01,0,0,0-8.642-2.114,19.059,19.059,0,0,0-9.1,2.114,15.951,15.951,0,0,1-8.219,1.9v2.009a19.275,19.275,0,0,0,9.1-2.111,16.144,16.144,0,0,1,7.988-1.907,15.662,15.662,0,0,1,7.881,1.907,18.929,18.929,0,0,0,17.374,0,16.8,16.8,0,0,1,15.546,0,18.775,18.775,0,0,0,17.3,0,15.2,15.2,0,0,1,7.77-1.907c3.872,0,4.531.925,6.537,1.907,2.12,1.038,3.144,2.111,7.419,2.111v-2.009c-4.275,0-4.533-.926-6.539-1.9C317.324,172.936,316.365,171.863,312.028,171.863Z"/>
            </g>
            <g id="Group_1015" data-name="Group 1015">
              <path id="Path_1356" data-name="Path 1356" class="cls-32" d="M312.028,192.123a16.551,16.551,0,0,0-8.663,2.205,14.715,14.715,0,0,1-7.756,1.982,1.006,1.006,0,0,0,0,2.011,16.591,16.591,0,0,0,8.669-2.205,14.689,14.689,0,0,1,7.75-1.983A15.43,15.43,0,0,1,319.8,196a17.379,17.379,0,0,0,8.642,2.065,1,1,0,0,0,0-2.009,15.447,15.447,0,0,1-7.775-1.871A17.381,17.381,0,0,0,312.028,192.123Z"/>
            </g>
            <g id="Group_1016" data-name="Group 1016">
              <path id="Path_1357" data-name="Path 1357" class="cls-32" d="M246.391,190.113a17.63,17.63,0,0,0-8.629,2.023,15.7,15.7,0,0,1-7.772,1.83,1.006,1.006,0,1,0,0,2.011,17.587,17.587,0,0,0,8.625-2.024,15.743,15.743,0,0,1,7.776-1.83,13.859,13.859,0,0,1,8.027,2.5,15.761,15.761,0,0,0,9.059,2.776,1,1,0,1,0,0-2.007,13.862,13.862,0,0,1-8.03-2.5A15.747,15.747,0,0,0,246.391,190.113Z"/>
            </g>
            <g id="Group_1017" data-name="Group 1017">
              <path id="Path_1358" data-name="Path 1358" class="cls-32" d="M300.185,164.553a11.364,11.364,0,0,0-5.685,1.385,10.353,10.353,0,0,1-9.6,0,12.364,12.364,0,0,0-11.372,0,10.353,10.353,0,0,1-9.6,0,11.366,11.366,0,0,0-5.684-1.385,15.128,15.128,0,0,0-6.472,1.385,11.52,11.52,0,0,1-5.593,1.181v2.011a15.161,15.161,0,0,0,6.475-1.386,11.128,11.128,0,0,1,5.2-1.18,10.221,10.221,0,0,1,5,1.18,11.8,11.8,0,0,0,5.785,1.386,11.593,11.593,0,0,0,5.735-1.386,10.43,10.43,0,0,1,9.638,0,12.379,12.379,0,0,0,11.383,0,9.41,9.41,0,0,1,4.8-1.18c2.39,0,1.954.572,3.2,1.18a30.747,30.747,0,0,0,4.073,1.386v-2.011a25.214,25.214,0,0,1-3.191-1.181C302.934,165.289,303.044,164.553,300.185,164.553Z"/>
            </g>
            <g id="Group_1018" data-name="Group 1018">
              <path id="Path_1359" data-name="Path 1359" class="cls-32" d="M299.77,214.688a12.183,12.183,0,0,0-6.087,1.482,11.214,11.214,0,0,1-10.4,0,13.221,13.221,0,0,0-12.164,0,11.2,11.2,0,0,1-10.4,0,13.262,13.262,0,0,0-12.184,0,28.893,28.893,0,0,1-5.217,1.279v2.01a37.27,37.27,0,0,0,6.1-1.482,11.211,11.211,0,0,1,10.412,0,13.217,13.217,0,0,0,12.162,0,11.191,11.191,0,0,1,10.4,0,13.227,13.227,0,0,0,12.167,0,10.167,10.167,0,0,1,5.2-1.282,8.693,8.693,0,0,1,4.828,1.28,11.2,11.2,0,0,0,5.713,1.484v-2.01a8.043,8.043,0,0,1-4.83-1.279A10.6,10.6,0,0,0,299.77,214.688Z"/>
            </g>
            <g id="Group_1019" data-name="Group 1019">
              <path id="Path_1360" data-name="Path 1360" class="cls-36" d="M274.756,194.966c0-1.2-1.61-2.172-3.6-2.172s-3.6.969-3.6,2.172,1.616,2.174,3.6,2.174S274.756,196.165,274.756,194.966Z"/>
            </g>
            <g id="Group_1020" data-name="Group 1020">
              <path id="Path_1361" data-name="Path 1361" class="cls-32" d="M307.781,199.091a16.552,16.552,0,0,0-9.551,2.814,9.615,9.615,0,0,1-10.832,0,17.581,17.581,0,0,0-19.085,0,9.59,9.59,0,0,1-10.815,0,16.538,16.538,0,0,0-9.546-2.815,15.917,15.917,0,0,0-9.371,2.815,20.96,20.96,0,0,1-5.237,1.67v8.039a31.656,31.656,0,0,0,9.373-2.816,8.531,8.531,0,0,1,5.32-1.67,8.666,8.666,0,0,1,5.367,1.67,17.525,17.525,0,0,0,19.055,0,9.583,9.583,0,0,1,10.811,0,17.595,17.595,0,0,0,19.093,0,8.8,8.8,0,0,1,5.417-1.672c2.631,0,2.507.666,4.187,1.672,2.093,1.252,5.466,2.814,8.316,2.814v-8.039c-1.426,0-2.5-.663-4.182-1.671C314.005,200.651,312.634,199.091,307.781,199.091Z"/>
            </g>
            <g id="Group_1021" data-name="Group 1021">
              <path id="Path_1362" data-name="Path 1362" class="cls-32" d="M311.693,178.226a19.007,19.007,0,0,0-9.529,2.317,14.768,14.768,0,0,1-13.762,0,20.741,20.741,0,0,0-19.06,0,14.766,14.766,0,0,1-13.757,0,20.741,20.741,0,0,0-19.06,0,13.182,13.182,0,0,1-6.871,1.7,3.014,3.014,0,1,0,0,6.028,18.987,18.987,0,0,0,9.527-2.317,14.742,14.742,0,0,1,13.749,0,20.766,20.766,0,0,0,19.064,0,14.754,14.754,0,0,1,13.755,0,20.761,20.761,0,0,0,19.062,0,14.775,14.775,0,0,1,13.767,0,19.02,19.02,0,0,0,9.533,2.316,3.014,3.014,0,1,0,0-6.028,13.21,13.21,0,0,1-6.884-1.7A19.025,19.025,0,0,0,311.693,178.226Z"/>
            </g>
            <path id="Path_1363" data-name="Path 1363" class="cls-37" d="M292.69,193.274a30.166,30.166,0,0,0-23.073-29.318,30.161,30.161,0,1,1,0,58.634A30.17,30.17,0,0,0,292.69,193.274Z"/>
            <g id="Group_1022" data-name="Group 1022">
              <path id="Path_1364" data-name="Path 1364" class="cls-36" d="M287.744,191.27c0-1.7-2.174-3.081-4.857-3.081s-4.854,1.383-4.854,3.081,2.171,3.079,4.854,3.079S287.744,192.97,287.744,191.27Z"/>
            </g>
          </g>
        </g>
      </g>
      <g id="Group_1028" data-name="Group 1028">
        <path id="Path_1366" data-name="Path 1366" class="cls-18" d="M126.879,263.522a13.392,13.392,0,1,0,26.42-4.4"/>
        <path id="Path_1367" data-name="Path 1367" class="cls-19" d="M145.862,262.885a39.788,39.788,0,0,0,3.939-1.218c1.2-.45,3.046-1.253,3.541-2.06a13.418,13.418,0,0,1-11.058,14.956,12.972,12.972,0,0,1-6.866-.725A13.5,13.5,0,0,0,145.862,262.885Z"/>
        <path id="Path_1368" data-name="Path 1368" class="cls-23" d="M112.185,267.327c.492,2.958,13.483,3.261,29.014.677s27.725-7.075,27.233-10.035-13.482-3.261-29.016-.676S111.695,264.368,112.185,267.327Z"/>
        <path id="Path_1369" data-name="Path 1369" class="cls-18" d="M126.93,263.626c.228,1.387,6.317,1.529,13.594.317s12.992-3.316,12.761-4.7-6.318-1.529-13.6-.319S126.7,262.242,126.93,263.626Z"/>
        <path id="Path_1370" data-name="Path 1370" class="cls-18" d="M153.31,259.2a13.392,13.392,0,1,0-26.421,4.395"/>
        <g id="Group_1027" data-name="Group 1027">
          <path id="Path_1371" data-name="Path 1371" class="cls-14" d="M153.3,259.306h0Z"/>
          <g id="Group_1026" data-name="Group 1026">
            <path id="Path_1372" data-name="Path 1372" class="cls-19" d="M149.758,261.643c-1.133.425-2.567.845-3.991,1.216.553-5.38-4.825-13.384-7.855-14.692,11.468-1.289,15.085,7.824,15.389,11.139C153.214,260.089,151.856,260.856,149.758,261.643Z"/>
          </g>
        </g>
      </g>
      <g id="Group_1029" data-name="Group 1029">
        <path id="Path_1373" data-name="Path 1373" class="cls-4" d="M1466.518,104.286a.477.477,0,1,1-.477-.478A.476.476,0,0,1,1466.518,104.286Z"/>
        <path id="Path_1374" data-name="Path 1374" class="cls-4" d="M1478.133,108.07a.478.478,0,1,1-.477-.477A.477.477,0,0,1,1478.133,108.07Z"/>
        <path id="Path_1375" data-name="Path 1375" class="cls-4" d="M1476.7,100.419a1.237,1.237,0,1,1-1.237-1.235A1.235,1.235,0,0,1,1476.7,100.419Z"/>
      </g>
      <g id="Group_1030" data-name="Group 1030">
        <path id="Path_1376" data-name="Path 1376" class="cls-4" d="M411.659,192.035a.478.478,0,1,1-.665.113A.478.478,0,0,1,411.659,192.035Z"/>
        <path id="Path_1377" data-name="Path 1377" class="cls-4" d="M421.455,184.736a.478.478,0,1,1-.665.114A.477.477,0,0,1,421.455,184.736Z"/>
        <path id="Path_1378" data-name="Path 1378" class="cls-4" d="M414.38,181.489a1.237,1.237,0,1,1-1.723.3A1.236,1.236,0,0,1,414.38,181.489Z"/>
      </g>
      <g id="Group_1031" data-name="Group 1031">
        <path id="Path_1379" data-name="Path 1379" class="cls-38" d="M433,48.664a8.3,8.3,0,1,0,6.363-9.862A8.3,8.3,0,0,0,433,48.664Z"/>
        <path id="Path_1380" data-name="Path 1380" class="cls-38" d="M427.6,49.829A13.824,13.824,0,1,0,438.2,33.4,13.824,13.824,0,0,0,427.6,49.829Z"/>
        <path id="Path_1381" data-name="Path 1381" class="cls-31" d="M437.13,47.773a4.072,4.072,0,1,0,3.122-4.84A4.071,4.071,0,0,0,437.13,47.773Z"/>
        <path id="Path_1382" data-name="Path 1382" class="cls-19" d="M440.252,42.933a4.071,4.071,0,0,1,1.259-.071,4.072,4.072,0,0,0,1.637,7.578,4.072,4.072,0,1,1-2.9-7.507Z"/>
      </g>
      <path id="Path_367" data-name="Path 367" class="cls-39" d="M1369.452,80.511a4.207,4.207,0,1,1-2.791-5.258,4.206,4.206,0,0,1,2.791,5.258Z"/>
      <path id="Path_1440" data-name="Path 1440" class="cls-5" d="M1129.43,31.3a3.633,3.633,0,1,1-1.03,5.042A3.638,3.638,0,0,1,1129.43,31.3Z"/>
      <path id="Path_1441" data-name="Path 1441" class="cls-21" d="M1156.314,34.537a5.633,5.633,0,1,1-1.6,7.818A5.642,5.642,0,0,1,1156.314,34.537Z"/>
    </g>
  </g>
</svg>
